M48
;DRILL file {KiCad 4.0.2+dfsg1-stable} date Mo 13 Nov 2017 16:34:41 CET
;FORMAT={-:-/ absolute / inch / decimal}
FMAT,2
INCH,TZ
T1C0.012
T2C0.016
T3C0.039
T4C0.040
T5C0.059
T6C0.067
T7C0.108
%
G90
G05
M72
T1
X6.4173Y-4.4291
X6.4173Y-4.5079
X6.4173Y-4.5866
X6.4173Y-4.6654
X6.4173Y-4.7441
X6.4173Y-4.8228
X6.4173Y-4.9803
X6.4567Y-4.9311
X6.5157Y-4.9114
X6.5354Y-4.8228
X6.5945Y-4.9114
X6.6043Y-4.4488
X6.6437Y-4.8228
X6.6437Y-4.9508
X6.7028Y-4.8228
X6.7323Y-4.9114
X6.7323Y-4.9705
X6.7421Y-5.1673
X6.7421Y-5.3051
X6.8661Y-4.8268
X6.8799Y-4.5079
X6.9193Y-5.0295
X6.9783Y-4.5768
X7.0472Y-4.8425
X7.0472Y-4.8898
X7.0472Y-4.937
X7.0472Y-4.9843
X7.0945Y-4.8425
X7.0945Y-4.8898
X7.0945Y-4.937
X7.0945Y-4.9843
X7.126Y-5.1181
X7.1417Y-4.8425
X7.1417Y-4.8898
X7.1417Y-4.937
X7.1417Y-4.9843
X7.189Y-4.8425
X7.189Y-4.8898
X7.189Y-4.937
X7.189Y-4.9843
X7.2638Y-4.7343
X7.2835Y-4.439
X7.2835Y-5.1083
X7.2933Y-4.6555
X7.4311Y-5.0295
X7.5394Y-4.4587
X7.5394Y-5.0787
X7.6378Y-4.6654
X7.6772Y-5.1772
X7.6772Y-5.3189
X7.6969Y-5.0787
X7.7559Y-5.0197
X7.7756Y-4.8425
X7.9232Y-4.6457
X7.9724Y-4.8425
X7.9724Y-5.0098
X8.061Y-5.315
X8.189Y-4.5079
X8.2677Y-5.1378
X8.4154Y-5.3051
X8.6122Y-4.626
X8.6122Y-4.7047
T2
X6.6811Y-4.6634
X6.8622Y-5.0551
X6.9724Y-4.7402
X6.9823Y-4.6673
X7.1024Y-4.7303
X7.2382Y-4.6555
X7.38Y-5.03
X7.4Y-4.674
X7.405Y-4.9213
X7.4213Y-4.872
X7.4311Y-4.97
X7.438Y-4.7
X7.4705Y-4.5807
X7.542Y-4.963
X7.56Y-4.806
X7.564Y-4.774
X7.575Y-4.715
X7.579Y-4.608
X7.628Y-5.1083
X7.6625Y-4.697
X7.7835Y-4.9685
X7.819Y-4.682
X8.1142Y-4.8425
X8.1295Y-5.0274
X8.148Y-4.758
X8.1571Y-5.0634
X8.1571Y-5.1496
X8.3495Y-5.1415
X8.4173Y-4.3701
X8.5827Y-4.5276
T3
X6.45Y-4.2507
X6.45Y-4.3507
X6.55Y-4.2507
X6.55Y-4.3507
X6.65Y-4.2507
X6.65Y-4.3507
X6.75Y-4.2507
X6.75Y-4.3507
X6.85Y-4.2507
X6.85Y-4.3507
X6.95Y-4.2507
X6.95Y-4.3507
X7.05Y-4.2507
X7.05Y-4.3507
X7.15Y-4.2507
X7.15Y-4.3507
X7.25Y-4.2507
X7.25Y-4.3507
X7.35Y-4.2507
X7.35Y-4.3507
X7.45Y-4.2507
X7.45Y-4.3507
X7.55Y-4.2507
X7.55Y-4.3507
X7.65Y-4.2507
X7.65Y-4.3507
X7.75Y-4.2507
X7.75Y-4.3507
X7.85Y-4.2507
X7.85Y-4.3507
X7.95Y-4.2507
X7.95Y-4.3507
X8.05Y-4.2507
X8.05Y-4.3507
X8.15Y-4.2507
X8.15Y-4.3507
X8.25Y-4.2507
X8.25Y-4.3507
X8.35Y-4.2507
X8.35Y-4.3507
T4
X7.796Y-4.508
X7.896Y-4.508
X7.996Y-4.508
X8.096Y-4.508
X8.2843Y-4.859
X8.2843Y-5.
X8.3843Y-4.859
X8.3843Y-5.
X8.4843Y-4.859
X8.4843Y-5.
X8.5843Y-4.859
X8.5843Y-5.
T5
X6.5551Y-5.1673
T6
X6.4551Y-5.0673
X6.4551Y-5.2673
X6.6551Y-5.0673
X6.6551Y-5.2673
T7
X6.2582Y-4.3007
X6.2582Y-5.2063
X8.5417Y-4.3007
X8.5417Y-5.2063
T0
M30
