M48
;DRILL file {KiCad 4.0.6} date 05/18/17 14:09:26
;FORMAT={-:-/ absolute / inch / decimal}
FMAT,2
INCH,TZ
T1C0.012
T2C0.016
T3C0.039
T4C0.039
T5C0.059
T6C0.067
T7C0.106
T8C0.108
%
G90
G05
M72
T1
X6.5Y-4.8465
X6.5138Y-4.7461
X6.5177Y-4.8957
X6.5256Y-4.9469
X6.5571Y-4.7657
X6.5787Y-4.9665
X6.5886Y-4.7972
X6.6083Y-4.8406
X6.6437Y-4.8622
X6.6457Y-5.0098
X6.687Y-4.8622
X6.7185Y-4.9665
X6.7244Y-4.8622
X6.9528Y-4.5945
X7.0512Y-4.9685
X7.0531Y-4.8602
X7.0531Y-4.9154
X7.0768Y-5.1299
X7.1201Y-4.8602
X7.122Y-4.9154
X7.122Y-4.9685
X7.1398Y-4.5906
X7.1831Y-4.8602
X7.187Y-4.9154
X7.189Y-4.9705
X7.2736Y-4.7303
X7.5039Y-5.0295
X7.5256Y-4.6772
X7.7283Y-4.4409
X7.7795Y-5.0177
X7.7815Y-4.8465
X7.872Y-4.9311
X7.9685Y-4.8425
X7.9705Y-5.0079
X7.9764Y-4.4469
X8.1516Y-5.0217
X8.1713Y-4.9173
X8.2224Y-4.7106
X8.3681Y-5.0925
T2
X6.7244Y-4.7933
X6.8091Y-5.2205
X6.9173Y-4.8287
X6.9724Y-4.7402
X6.9823Y-4.6673
X7.0906Y-4.7303
X7.2382Y-4.6555
X7.2894Y-5.0886
X7.3425Y-5.
X7.4134Y-4.9075
X7.4253Y-4.998
X7.4705Y-4.5807
X7.5335Y-4.9587
X7.6437Y-4.8012
X7.685Y-5.1496
X7.752Y-4.5669
X8.1142Y-4.8425
X8.1575Y-4.7303
X8.1791Y-5.3169
T3
X6.45Y-4.2507
X6.45Y-4.3507
X6.55Y-4.2507
X6.55Y-4.3507
X6.65Y-4.2507
X6.65Y-4.3507
X6.75Y-4.2507
X6.75Y-4.3507
X6.85Y-4.2507
X6.85Y-4.3507
X6.95Y-4.2507
X6.95Y-4.3507
X7.05Y-4.2507
X7.05Y-4.3507
X7.15Y-4.2507
X7.15Y-4.3507
X7.25Y-4.2507
X7.25Y-4.3507
X7.35Y-4.2507
X7.35Y-4.3507
X7.45Y-4.2507
X7.45Y-4.3507
X7.55Y-4.2507
X7.55Y-4.3507
X7.65Y-4.2507
X7.65Y-4.3507
X7.75Y-4.2507
X7.75Y-4.3507
X7.85Y-4.2507
X7.85Y-4.3507
X7.95Y-4.2507
X7.95Y-4.3507
X8.05Y-4.2507
X8.05Y-4.3507
X8.15Y-4.2507
X8.15Y-4.3507
X8.25Y-4.2507
X8.25Y-4.3507
X8.35Y-4.2507
X8.35Y-4.3507
T4
X7.84Y-4.52
X7.94Y-4.52
X8.04Y-4.52
X8.2843Y-5.
X8.2874Y-4.8622
X8.3843Y-5.
X8.3874Y-4.8622
X8.4843Y-5.
X8.4874Y-4.8622
X8.5843Y-5.
X8.5874Y-4.8622
T5
X6.3228Y-4.7894
T6
X6.2228Y-4.6894
X6.2228Y-4.8894
X6.4228Y-4.6894
X6.4228Y-4.8894
T7
X6.2579Y-4.3012
X6.2579Y-5.2067
X8.5417Y-4.3007
X8.5417Y-5.2063
T8
X6.2582Y-4.3007
X6.2582Y-5.2063
X8.5417Y-4.3007
X8.5417Y-5.2063
T0
M30
