G04 #@! TF.FileFunction,Copper,L2,Bot,Signal*
%FSLAX46Y46*%
G04 Gerber Fmt 4.6, Leading zero omitted, Abs format (unit mm)*
G04 Created by KiCad (PCBNEW 4.0.2+dfsg1-stable) date Mi 16 Aug 2017 16:41:18 CEST*
%MOMM*%
G01*
G04 APERTURE LIST*
%ADD10C,0.100000*%
%ADD11C,0.600000*%
%ADD12R,1.700000X1.700000*%
%ADD13O,1.700000X1.700000*%
%ADD14C,2.200000*%
%ADD15C,2.000000*%
%ADD16R,1.778000X1.778000*%
%ADD17C,1.778000*%
%ADD18C,0.400000*%
%ADD19C,0.250000*%
%ADD20C,0.254000*%
G04 APERTURE END LIST*
D10*
D11*
X185000000Y-118250000D03*
X198000000Y-117750000D03*
X171000000Y-117500000D03*
X174250000Y-122500000D03*
X170750000Y-128250000D03*
X170750000Y-132000000D03*
X175000000Y-132000000D03*
X184500000Y-129250000D03*
X191750000Y-129000000D03*
X194000000Y-135000000D03*
X203250000Y-135000000D03*
X204000000Y-130000000D03*
X204250000Y-120000000D03*
X218000000Y-117250000D03*
X201250000Y-118000000D03*
X196250000Y-116500000D03*
X177750000Y-115250000D03*
X185500000Y-113750000D03*
X192500000Y-121000000D03*
X207500000Y-115000000D03*
X191150000Y-118800000D03*
X197600000Y-127450000D03*
X202450000Y-127200000D03*
X202400000Y-123000000D03*
X197650000Y-123100000D03*
X184750000Y-120150000D03*
X170800000Y-123500000D03*
X165750000Y-125650000D03*
X165550000Y-124350000D03*
X168750000Y-123500000D03*
X167350000Y-121850000D03*
X202600000Y-112950000D03*
X196300000Y-112800000D03*
X181500000Y-115250000D03*
X176600000Y-116700000D03*
X165450000Y-120550000D03*
X166550000Y-121050000D03*
X165100000Y-123100000D03*
X167100000Y-126150000D03*
X168750000Y-127000000D03*
X167850000Y-122950000D03*
X169850000Y-123500000D03*
X170650000Y-126150000D03*
X179750000Y-130300000D03*
X190600000Y-127750000D03*
X208850000Y-119650000D03*
X212550000Y-129350000D03*
X207050000Y-127550000D03*
X207550000Y-124900000D03*
X199950000Y-125250000D03*
X182600000Y-126250000D03*
X180900000Y-126200000D03*
X179100000Y-126200000D03*
X182550000Y-124850000D03*
X180900000Y-124850000D03*
X179150000Y-124850000D03*
X182450000Y-123450000D03*
X180850000Y-123450000D03*
D12*
X199136000Y-114808000D03*
D13*
X201676000Y-114808000D03*
X204216000Y-114808000D03*
D12*
X210420000Y-127000000D03*
D13*
X212960000Y-127000000D03*
X215500000Y-127000000D03*
X218040000Y-127000000D03*
D14*
X158060000Y-124190000D03*
X158060000Y-119110000D03*
X163140000Y-119110000D03*
X163140000Y-124190000D03*
D15*
X160600000Y-121650000D03*
D12*
X210500000Y-123500000D03*
D13*
X213040000Y-123500000D03*
X215580000Y-123500000D03*
X218120000Y-123500000D03*
D16*
X163830000Y-110507121D03*
D17*
X163830000Y-107967121D03*
X166370000Y-110507121D03*
X166370000Y-107967121D03*
X168910000Y-110507121D03*
X168910000Y-107967121D03*
X171450000Y-110507121D03*
X171450000Y-107967121D03*
X173990000Y-110507121D03*
X173990000Y-107967121D03*
X176530000Y-110507121D03*
X176530000Y-107967121D03*
X179070000Y-110507121D03*
X179070000Y-107967121D03*
X181610000Y-110507121D03*
X181610000Y-107967121D03*
X184150000Y-110507121D03*
X184150000Y-107967121D03*
X186690000Y-110507121D03*
X186690000Y-107967121D03*
X189230000Y-110507121D03*
X189230000Y-107967121D03*
X191770000Y-110507121D03*
X191770000Y-107967121D03*
X194310000Y-110507121D03*
X194310000Y-107967121D03*
X196850000Y-110507121D03*
X196850000Y-107967121D03*
X199390000Y-110507121D03*
X199390000Y-107967121D03*
X201930000Y-110507121D03*
X201930000Y-107967121D03*
X204470000Y-110507121D03*
X204470000Y-107967121D03*
X207010000Y-110507121D03*
X207010000Y-107967121D03*
X209550000Y-110507121D03*
X209550000Y-107967121D03*
X212090000Y-110507121D03*
X212090000Y-107967121D03*
D11*
X179150000Y-123450000D03*
X188087000Y-125476000D03*
X188500000Y-123750000D03*
X169870000Y-119760000D03*
X207190000Y-128610000D03*
X194056000Y-129540000D03*
X207750000Y-135050000D03*
X172950000Y-132600000D03*
X175700000Y-122650000D03*
X183850000Y-118250000D03*
X180100000Y-120150000D03*
X207200000Y-120150000D03*
X206100000Y-123000000D03*
X189750000Y-116350000D03*
X213800000Y-111000000D03*
X217043000Y-121920000D03*
X198500000Y-119000000D03*
X187452000Y-127762000D03*
X189103000Y-126238000D03*
X177350000Y-118550000D03*
X177100000Y-120400000D03*
X191350000Y-125950000D03*
X194150000Y-121950000D03*
X208570000Y-131140000D03*
X206060000Y-131890000D03*
X213300000Y-113800000D03*
X197700000Y-126200000D03*
X212000000Y-113800000D03*
X217700000Y-114800000D03*
D18*
X189750000Y-118250000D02*
X189750000Y-121000000D01*
X189750000Y-121000000D02*
X189750000Y-123750000D01*
D19*
X183850000Y-118250000D02*
X183850000Y-120175002D01*
X183850000Y-120175002D02*
X184674998Y-121000000D01*
X184674998Y-121000000D02*
X189750000Y-121000000D01*
X188500000Y-123750000D02*
X189750000Y-123750000D01*
D18*
X189750000Y-123750000D02*
X189750000Y-125750000D01*
X189750000Y-125750000D02*
X189899999Y-125899999D01*
X189899999Y-125899999D02*
X189899999Y-128186001D01*
X189899999Y-128186001D02*
X191413999Y-129700001D01*
X191413999Y-129700001D02*
X193471735Y-129700001D01*
X193471735Y-129700001D02*
X193631736Y-129540000D01*
X193631736Y-129540000D02*
X194056000Y-129540000D01*
D19*
X172950000Y-132600000D02*
X174074990Y-133724990D01*
X174074990Y-133724990D02*
X180675010Y-133724990D01*
X180675010Y-133724990D02*
X183600000Y-130800000D01*
X183600000Y-130800000D02*
X194056000Y-130800000D01*
D18*
X175700000Y-122650000D02*
X172820000Y-119770000D01*
X169880000Y-119770000D02*
X169870000Y-119760000D01*
X172820000Y-119770000D02*
X169880000Y-119770000D01*
D19*
X172950000Y-132600000D02*
X172950000Y-125400000D01*
X172950000Y-125400000D02*
X175700000Y-122650000D01*
X207190000Y-128610000D02*
X207320000Y-128610000D01*
X208370000Y-127560000D02*
X208370000Y-123500000D01*
X207320000Y-128610000D02*
X208370000Y-127560000D01*
X207190000Y-130800000D02*
X207200000Y-130800000D01*
X207190000Y-128610000D02*
X207190000Y-130800000D01*
X195200000Y-130800000D02*
X194056000Y-130800000D01*
X194056000Y-129540000D02*
X194056000Y-130800000D01*
X195200000Y-130800000D02*
X207200000Y-130800000D01*
X207750000Y-135050000D02*
X207200000Y-134500000D01*
X207200000Y-134500000D02*
X207200000Y-130800000D01*
D18*
X189750000Y-116350000D02*
X189750000Y-118250000D01*
D19*
X180100000Y-120150000D02*
X182000000Y-118250000D01*
X182000000Y-118250000D02*
X183850000Y-118250000D01*
D18*
X184150000Y-110507121D02*
X189750000Y-116107121D01*
X189750000Y-116107121D02*
X189750000Y-116350000D01*
D19*
X204216000Y-114808000D02*
X204216000Y-117166000D01*
X204216000Y-117166000D02*
X207200000Y-120150000D01*
X206600000Y-123500000D02*
X206100000Y-123000000D01*
X208370000Y-123500000D02*
X206600000Y-123500000D01*
X210500000Y-123500000D02*
X208370000Y-123500000D01*
X218200000Y-120763000D02*
X218212000Y-120763000D01*
X218200000Y-120763000D02*
X218186000Y-120777000D01*
X217300000Y-112600000D02*
X218200000Y-113500000D01*
X215400000Y-112600000D02*
X217300000Y-112600000D01*
X213800000Y-111000000D02*
X215400000Y-112600000D01*
X217043000Y-121920000D02*
X218186000Y-120777000D01*
X218800000Y-114100000D02*
X218200000Y-113500000D01*
X218800000Y-120175000D02*
X218800000Y-114100000D01*
X218212000Y-120763000D02*
X218800000Y-120175000D01*
X198299998Y-122324999D02*
X194700003Y-122324999D01*
X194700003Y-122324999D02*
X194450001Y-122575001D01*
X194450001Y-122575001D02*
X193849999Y-122575001D01*
X193849999Y-122575001D02*
X193524999Y-122250001D01*
X193524999Y-122250001D02*
X193524999Y-121649999D01*
X193524999Y-121649999D02*
X196174998Y-119000000D01*
X196174998Y-119000000D02*
X198500000Y-119000000D01*
X211864999Y-122324999D02*
X198299998Y-122324999D01*
X213040000Y-123500000D02*
X211864999Y-122324999D01*
X187579000Y-127762000D02*
X187452000Y-127762000D01*
X189103000Y-126238000D02*
X187579000Y-127762000D01*
X177350000Y-118550000D02*
X177350000Y-120150000D01*
X177350000Y-120150000D02*
X177100000Y-120400000D01*
X191350000Y-120308998D02*
X191350000Y-125950000D01*
X201676000Y-114808000D02*
X200018000Y-113150000D01*
X200018000Y-113150000D02*
X198508998Y-113150000D01*
X198508998Y-113150000D02*
X191350000Y-120308998D01*
X194150000Y-121950000D02*
X194449999Y-121650001D01*
X194449999Y-121650001D02*
X213730001Y-121650001D01*
X213730001Y-121650001D02*
X214730001Y-122650001D01*
X214730001Y-122650001D02*
X215580000Y-123500000D01*
D18*
X171630000Y-124690000D02*
X171630000Y-132316002D01*
X171630000Y-132316002D02*
X173563998Y-134250000D01*
X173563998Y-134250000D02*
X181010000Y-134250000D01*
X171630000Y-123410000D02*
X171630000Y-124690000D01*
X171630000Y-124690000D02*
X171640000Y-124700000D01*
X181010000Y-134250000D02*
X183370000Y-131890000D01*
X183370000Y-131890000D02*
X197310000Y-131890000D01*
X197310000Y-131890000D02*
X206060000Y-131890000D01*
X171630000Y-123410000D02*
X171630000Y-122650000D01*
X162160000Y-109637121D02*
X163830000Y-107967121D01*
X162160000Y-113180000D02*
X162160000Y-109637121D01*
X171630000Y-122650000D02*
X162160000Y-113180000D01*
X210420000Y-129290000D02*
X208570000Y-131140000D01*
X210420000Y-127000000D02*
X210420000Y-129290000D01*
X171630000Y-123410000D02*
X171620000Y-123400000D01*
X163830000Y-107967121D02*
X166370000Y-107967121D01*
D19*
X197700000Y-126200000D02*
X197300000Y-126200000D01*
X190800000Y-120100000D02*
X190800000Y-120075002D01*
X197300000Y-126200000D02*
X196400000Y-127100000D01*
X196400000Y-127100000D02*
X191200000Y-127100000D01*
X190800000Y-120075002D02*
X198775002Y-112100000D01*
X191200000Y-127100000D02*
X190700000Y-126600000D01*
X190700000Y-126600000D02*
X190700000Y-120200000D01*
X190700000Y-120200000D02*
X190800000Y-120100000D01*
X198775002Y-112100000D02*
X211600000Y-112100000D01*
X211600000Y-112100000D02*
X213300000Y-113800000D01*
X213600000Y-115400000D02*
X212000000Y-113800000D01*
X217300000Y-115400000D02*
X213600000Y-115400000D01*
X217700000Y-115000000D02*
X217300000Y-115400000D01*
X217700000Y-114800000D02*
X217700000Y-115000000D01*
D20*
G36*
X218500994Y-106254098D02*
X219307207Y-106792793D01*
X219848057Y-107602231D01*
X220044000Y-108509351D01*
X220044000Y-132750000D01*
X220044506Y-132752544D01*
X219849708Y-133731860D01*
X219321852Y-134521852D01*
X218530246Y-135050787D01*
X217598856Y-135244000D01*
X208406821Y-135244000D01*
X208430882Y-135186054D01*
X208431118Y-134915135D01*
X208327661Y-134664748D01*
X208136259Y-134473013D01*
X207886054Y-134369118D01*
X207784622Y-134369030D01*
X207706000Y-134290408D01*
X207706000Y-132586948D01*
X215203736Y-132586948D01*
X215470377Y-133232269D01*
X215963675Y-133726428D01*
X216608529Y-133994195D01*
X217306767Y-133994805D01*
X217952088Y-133728164D01*
X218446247Y-133234866D01*
X218714014Y-132590012D01*
X218714624Y-131891774D01*
X218447983Y-131246453D01*
X217954685Y-130752294D01*
X217309831Y-130484527D01*
X216611593Y-130483917D01*
X215966272Y-130750558D01*
X215472113Y-131243856D01*
X215204346Y-131888710D01*
X215203736Y-132586948D01*
X207706000Y-132586948D01*
X207706000Y-131274865D01*
X207888882Y-131274865D01*
X207992339Y-131525252D01*
X208183741Y-131716987D01*
X208433946Y-131820882D01*
X208704865Y-131821118D01*
X208955252Y-131717661D01*
X209146987Y-131526259D01*
X209247529Y-131284129D01*
X210830829Y-129700829D01*
X210956774Y-129512339D01*
X211001000Y-129290000D01*
X211001000Y-128238464D01*
X211270000Y-128238464D01*
X211411190Y-128211897D01*
X211540865Y-128128454D01*
X211627859Y-128001134D01*
X211658464Y-127850000D01*
X211658464Y-126975883D01*
X211729000Y-126975883D01*
X211729000Y-127024117D01*
X211822704Y-127495200D01*
X212089552Y-127894565D01*
X212488917Y-128161413D01*
X212960000Y-128255117D01*
X213431083Y-128161413D01*
X213830448Y-127894565D01*
X214097296Y-127495200D01*
X214191000Y-127024117D01*
X214191000Y-126975883D01*
X214269000Y-126975883D01*
X214269000Y-127024117D01*
X214362704Y-127495200D01*
X214629552Y-127894565D01*
X215028917Y-128161413D01*
X215500000Y-128255117D01*
X215971083Y-128161413D01*
X216370448Y-127894565D01*
X216637296Y-127495200D01*
X216645083Y-127456053D01*
X216844817Y-127881358D01*
X217273076Y-128271645D01*
X217683110Y-128441476D01*
X217913000Y-128320155D01*
X217913000Y-127127000D01*
X218167000Y-127127000D01*
X218167000Y-128320155D01*
X218396890Y-128441476D01*
X218806924Y-128271645D01*
X219235183Y-127881358D01*
X219481486Y-127356892D01*
X219360819Y-127127000D01*
X218167000Y-127127000D01*
X217913000Y-127127000D01*
X217893000Y-127127000D01*
X217893000Y-126873000D01*
X217913000Y-126873000D01*
X217913000Y-125679845D01*
X218167000Y-125679845D01*
X218167000Y-126873000D01*
X219360819Y-126873000D01*
X219481486Y-126643108D01*
X219235183Y-126118642D01*
X218806924Y-125728355D01*
X218396890Y-125558524D01*
X218167000Y-125679845D01*
X217913000Y-125679845D01*
X217683110Y-125558524D01*
X217273076Y-125728355D01*
X216844817Y-126118642D01*
X216645083Y-126543947D01*
X216637296Y-126504800D01*
X216370448Y-126105435D01*
X215971083Y-125838587D01*
X215500000Y-125744883D01*
X215028917Y-125838587D01*
X214629552Y-126105435D01*
X214362704Y-126504800D01*
X214269000Y-126975883D01*
X214191000Y-126975883D01*
X214097296Y-126504800D01*
X213830448Y-126105435D01*
X213431083Y-125838587D01*
X212960000Y-125744883D01*
X212488917Y-125838587D01*
X212089552Y-126105435D01*
X211822704Y-126504800D01*
X211729000Y-126975883D01*
X211658464Y-126975883D01*
X211658464Y-126150000D01*
X211631897Y-126008810D01*
X211548454Y-125879135D01*
X211421134Y-125792141D01*
X211270000Y-125761536D01*
X209570000Y-125761536D01*
X209428810Y-125788103D01*
X209299135Y-125871546D01*
X209212141Y-125998866D01*
X209181536Y-126150000D01*
X209181536Y-127850000D01*
X209208103Y-127991190D01*
X209291546Y-128120865D01*
X209418866Y-128207859D01*
X209570000Y-128238464D01*
X209839000Y-128238464D01*
X209839000Y-129049342D01*
X208425464Y-130462878D01*
X208184748Y-130562339D01*
X207993013Y-130753741D01*
X207889118Y-131003946D01*
X207888882Y-131274865D01*
X207706000Y-131274865D01*
X207706000Y-130800000D01*
X207696000Y-130749727D01*
X207696000Y-129067123D01*
X207766987Y-128996259D01*
X207850533Y-128795059D01*
X208727796Y-127917796D01*
X208837483Y-127753638D01*
X208876000Y-127560000D01*
X208876000Y-124006000D01*
X209261536Y-124006000D01*
X209261536Y-124350000D01*
X209288103Y-124491190D01*
X209371546Y-124620865D01*
X209498866Y-124707859D01*
X209650000Y-124738464D01*
X211350000Y-124738464D01*
X211491190Y-124711897D01*
X211620865Y-124628454D01*
X211707859Y-124501134D01*
X211738464Y-124350000D01*
X211738464Y-122914056D01*
X211890510Y-123066102D01*
X211809000Y-123475883D01*
X211809000Y-123524117D01*
X211902704Y-123995200D01*
X212169552Y-124394565D01*
X212568917Y-124661413D01*
X213040000Y-124755117D01*
X213511083Y-124661413D01*
X213910448Y-124394565D01*
X214177296Y-123995200D01*
X214271000Y-123524117D01*
X214271000Y-123475883D01*
X214177296Y-123004800D01*
X213910448Y-122605435D01*
X213511083Y-122338587D01*
X213040000Y-122244883D01*
X212589988Y-122334396D01*
X212411593Y-122156001D01*
X213520409Y-122156001D01*
X214430510Y-123066102D01*
X214349000Y-123475883D01*
X214349000Y-123524117D01*
X214442704Y-123995200D01*
X214709552Y-124394565D01*
X215108917Y-124661413D01*
X215580000Y-124755117D01*
X216051083Y-124661413D01*
X216450448Y-124394565D01*
X216717296Y-123995200D01*
X216725083Y-123956053D01*
X216924817Y-124381358D01*
X217353076Y-124771645D01*
X217763110Y-124941476D01*
X217993000Y-124820155D01*
X217993000Y-123627000D01*
X218247000Y-123627000D01*
X218247000Y-124820155D01*
X218476890Y-124941476D01*
X218886924Y-124771645D01*
X219315183Y-124381358D01*
X219561486Y-123856892D01*
X219440819Y-123627000D01*
X218247000Y-123627000D01*
X217993000Y-123627000D01*
X217973000Y-123627000D01*
X217973000Y-123373000D01*
X217993000Y-123373000D01*
X217993000Y-122179845D01*
X218247000Y-122179845D01*
X218247000Y-123373000D01*
X219440819Y-123373000D01*
X219561486Y-123143108D01*
X219315183Y-122618642D01*
X218886924Y-122228355D01*
X218476890Y-122058524D01*
X218247000Y-122179845D01*
X217993000Y-122179845D01*
X217763110Y-122058524D01*
X217714495Y-122078660D01*
X217723882Y-122056054D01*
X217723970Y-121954622D01*
X218533632Y-121144960D01*
X218569796Y-121120796D01*
X219157796Y-120532796D01*
X219219211Y-120440882D01*
X219267483Y-120368638D01*
X219306000Y-120175000D01*
X219306000Y-114100000D01*
X219267483Y-113906362D01*
X219157796Y-113742204D01*
X217657796Y-112242204D01*
X217493638Y-112132517D01*
X217300000Y-112094000D01*
X215609592Y-112094000D01*
X214481031Y-110965439D01*
X214481118Y-110865135D01*
X214377661Y-110614748D01*
X214186259Y-110423013D01*
X213936054Y-110319118D01*
X213665135Y-110318882D01*
X213608364Y-110342339D01*
X213599723Y-110139421D01*
X213417539Y-109699588D01*
X213162196Y-109614530D01*
X212269605Y-110507121D01*
X213162196Y-111399712D01*
X213220314Y-111380352D01*
X213222339Y-111385252D01*
X213413741Y-111576987D01*
X213663946Y-111680882D01*
X213765378Y-111680970D01*
X215042204Y-112957796D01*
X215206362Y-113067483D01*
X215400000Y-113106000D01*
X217090408Y-113106000D01*
X218294000Y-114309592D01*
X218294000Y-114454292D01*
X218277661Y-114414748D01*
X218086259Y-114223013D01*
X217836054Y-114119118D01*
X217565135Y-114118882D01*
X217314748Y-114222339D01*
X217123013Y-114413741D01*
X217019118Y-114663946D01*
X217018918Y-114894000D01*
X213809592Y-114894000D01*
X213396677Y-114481085D01*
X213434865Y-114481118D01*
X213685252Y-114377661D01*
X213876987Y-114186259D01*
X213980882Y-113936054D01*
X213981118Y-113665135D01*
X213877661Y-113414748D01*
X213686259Y-113223013D01*
X213436054Y-113119118D01*
X213334622Y-113119030D01*
X212241636Y-112026044D01*
X212457700Y-112016844D01*
X212897533Y-111834660D01*
X212982591Y-111579317D01*
X212090000Y-110686726D01*
X212075858Y-110700869D01*
X211896253Y-110521264D01*
X211910395Y-110507121D01*
X211017804Y-109614530D01*
X210820000Y-109680421D01*
X210622196Y-109614530D01*
X209729605Y-110507121D01*
X209743748Y-110521264D01*
X209564143Y-110700869D01*
X209550000Y-110686726D01*
X209535858Y-110700869D01*
X209356253Y-110521264D01*
X209370395Y-110507121D01*
X208477804Y-109614530D01*
X208222461Y-109699588D01*
X208141771Y-109920538D01*
X208087282Y-109788663D01*
X207730337Y-109431095D01*
X207263727Y-109237342D01*
X207261512Y-109237340D01*
X207728458Y-109044403D01*
X208086026Y-108687458D01*
X208279779Y-108220848D01*
X208279781Y-108218633D01*
X208472718Y-108685579D01*
X208829663Y-109043147D01*
X208950608Y-109093368D01*
X208742467Y-109179582D01*
X208657409Y-109434925D01*
X209550000Y-110327516D01*
X210442591Y-109434925D01*
X210357533Y-109179582D01*
X210136583Y-109098892D01*
X210268458Y-109044403D01*
X210626026Y-108687458D01*
X210819779Y-108220848D01*
X210819781Y-108218633D01*
X211012718Y-108685579D01*
X211369663Y-109043147D01*
X211490608Y-109093368D01*
X211282467Y-109179582D01*
X211197409Y-109434925D01*
X212090000Y-110327516D01*
X212832808Y-109584708D01*
X215203736Y-109584708D01*
X215470377Y-110230029D01*
X215963675Y-110724188D01*
X216608529Y-110991955D01*
X217306767Y-110992565D01*
X217952088Y-110725924D01*
X218446247Y-110232626D01*
X218714014Y-109587772D01*
X218714624Y-108889534D01*
X218447983Y-108244213D01*
X217954685Y-107750054D01*
X217309831Y-107482287D01*
X216611593Y-107481677D01*
X215966272Y-107748318D01*
X215472113Y-108241616D01*
X215204346Y-108886470D01*
X215203736Y-109584708D01*
X212832808Y-109584708D01*
X212982591Y-109434925D01*
X212897533Y-109179582D01*
X212676583Y-109098892D01*
X212808458Y-109044403D01*
X213166026Y-108687458D01*
X213359779Y-108220848D01*
X213360220Y-107715611D01*
X213167282Y-107248663D01*
X212810337Y-106891095D01*
X212343727Y-106697342D01*
X211838490Y-106696901D01*
X211371542Y-106889839D01*
X211013974Y-107246784D01*
X210820221Y-107713394D01*
X210820219Y-107715609D01*
X210627282Y-107248663D01*
X210270337Y-106891095D01*
X209803727Y-106697342D01*
X209298490Y-106696901D01*
X208831542Y-106889839D01*
X208473974Y-107246784D01*
X208280221Y-107713394D01*
X208280219Y-107715609D01*
X208087282Y-107248663D01*
X207730337Y-106891095D01*
X207263727Y-106697342D01*
X206758490Y-106696901D01*
X206291542Y-106889839D01*
X205933974Y-107246784D01*
X205883753Y-107367729D01*
X205797539Y-107159588D01*
X205542196Y-107074530D01*
X204649605Y-107967121D01*
X205542196Y-108859712D01*
X205797539Y-108774654D01*
X205878229Y-108553704D01*
X205932718Y-108685579D01*
X206289663Y-109043147D01*
X206756273Y-109236900D01*
X206758488Y-109236902D01*
X206291542Y-109429839D01*
X205933974Y-109786784D01*
X205740221Y-110253394D01*
X205740219Y-110255609D01*
X205547282Y-109788663D01*
X205190337Y-109431095D01*
X205069392Y-109380874D01*
X205277533Y-109294660D01*
X205362591Y-109039317D01*
X204470000Y-108146726D01*
X203577409Y-109039317D01*
X203662467Y-109294660D01*
X203883417Y-109375350D01*
X203751542Y-109429839D01*
X203393974Y-109786784D01*
X203200221Y-110253394D01*
X203200219Y-110255609D01*
X203007282Y-109788663D01*
X202650337Y-109431095D01*
X202183727Y-109237342D01*
X202181512Y-109237340D01*
X202648458Y-109044403D01*
X203006026Y-108687458D01*
X203056247Y-108566513D01*
X203142461Y-108774654D01*
X203397804Y-108859712D01*
X204290395Y-107967121D01*
X203397804Y-107074530D01*
X203142461Y-107159588D01*
X203061771Y-107380538D01*
X203007282Y-107248663D01*
X202654161Y-106894925D01*
X203577409Y-106894925D01*
X204470000Y-107787516D01*
X205362591Y-106894925D01*
X205277533Y-106639582D01*
X204708035Y-106431605D01*
X204102300Y-106457398D01*
X203662467Y-106639582D01*
X203577409Y-106894925D01*
X202654161Y-106894925D01*
X202650337Y-106891095D01*
X202183727Y-106697342D01*
X201678490Y-106696901D01*
X201211542Y-106889839D01*
X200853974Y-107246784D01*
X200803753Y-107367729D01*
X200717539Y-107159588D01*
X200462196Y-107074530D01*
X199569605Y-107967121D01*
X200462196Y-108859712D01*
X200717539Y-108774654D01*
X200798229Y-108553704D01*
X200852718Y-108685579D01*
X201209663Y-109043147D01*
X201676273Y-109236900D01*
X201678488Y-109236902D01*
X201211542Y-109429839D01*
X200853974Y-109786784D01*
X200660221Y-110253394D01*
X200660219Y-110255609D01*
X200467282Y-109788663D01*
X200110337Y-109431095D01*
X199989392Y-109380874D01*
X200197533Y-109294660D01*
X200282591Y-109039317D01*
X199390000Y-108146726D01*
X198497409Y-109039317D01*
X198582467Y-109294660D01*
X198803417Y-109375350D01*
X198671542Y-109429839D01*
X198313974Y-109786784D01*
X198120221Y-110253394D01*
X198120219Y-110255609D01*
X197927282Y-109788663D01*
X197570337Y-109431095D01*
X197103727Y-109237342D01*
X197101512Y-109237340D01*
X197568458Y-109044403D01*
X197926026Y-108687458D01*
X197976247Y-108566513D01*
X198062461Y-108774654D01*
X198317804Y-108859712D01*
X199210395Y-107967121D01*
X198317804Y-107074530D01*
X198062461Y-107159588D01*
X197981771Y-107380538D01*
X197927282Y-107248663D01*
X197574161Y-106894925D01*
X198497409Y-106894925D01*
X199390000Y-107787516D01*
X200282591Y-106894925D01*
X200197533Y-106639582D01*
X199628035Y-106431605D01*
X199022300Y-106457398D01*
X198582467Y-106639582D01*
X198497409Y-106894925D01*
X197574161Y-106894925D01*
X197570337Y-106891095D01*
X197103727Y-106697342D01*
X196598490Y-106696901D01*
X196131542Y-106889839D01*
X195773974Y-107246784D01*
X195580221Y-107713394D01*
X195580219Y-107715609D01*
X195387282Y-107248663D01*
X195030337Y-106891095D01*
X194563727Y-106697342D01*
X194058490Y-106696901D01*
X193591542Y-106889839D01*
X193233974Y-107246784D01*
X193040221Y-107713394D01*
X193040219Y-107715609D01*
X192847282Y-107248663D01*
X192490337Y-106891095D01*
X192023727Y-106697342D01*
X191518490Y-106696901D01*
X191051542Y-106889839D01*
X190693974Y-107246784D01*
X190500221Y-107713394D01*
X190500219Y-107715609D01*
X190307282Y-107248663D01*
X189950337Y-106891095D01*
X189483727Y-106697342D01*
X188978490Y-106696901D01*
X188511542Y-106889839D01*
X188153974Y-107246784D01*
X188103753Y-107367729D01*
X188017539Y-107159588D01*
X187762196Y-107074530D01*
X186869605Y-107967121D01*
X187762196Y-108859712D01*
X188017539Y-108774654D01*
X188098229Y-108553704D01*
X188152718Y-108685579D01*
X188509663Y-109043147D01*
X188976273Y-109236900D01*
X188978488Y-109236902D01*
X188511542Y-109429839D01*
X188153974Y-109786784D01*
X187960221Y-110253394D01*
X187960219Y-110255609D01*
X187767282Y-109788663D01*
X187410337Y-109431095D01*
X187289392Y-109380874D01*
X187497533Y-109294660D01*
X187582591Y-109039317D01*
X186690000Y-108146726D01*
X185797409Y-109039317D01*
X185882467Y-109294660D01*
X186103417Y-109375350D01*
X185971542Y-109429839D01*
X185613974Y-109786784D01*
X185420221Y-110253394D01*
X185420219Y-110255609D01*
X185227282Y-109788663D01*
X184870337Y-109431095D01*
X184403727Y-109237342D01*
X184401512Y-109237340D01*
X184868458Y-109044403D01*
X185226026Y-108687458D01*
X185276247Y-108566513D01*
X185362461Y-108774654D01*
X185617804Y-108859712D01*
X186510395Y-107967121D01*
X185617804Y-107074530D01*
X185362461Y-107159588D01*
X185281771Y-107380538D01*
X185227282Y-107248663D01*
X184874161Y-106894925D01*
X185797409Y-106894925D01*
X186690000Y-107787516D01*
X187582591Y-106894925D01*
X187497533Y-106639582D01*
X186928035Y-106431605D01*
X186322300Y-106457398D01*
X185882467Y-106639582D01*
X185797409Y-106894925D01*
X184874161Y-106894925D01*
X184870337Y-106891095D01*
X184403727Y-106697342D01*
X183898490Y-106696901D01*
X183431542Y-106889839D01*
X183073974Y-107246784D01*
X182880221Y-107713394D01*
X182880219Y-107715609D01*
X182687282Y-107248663D01*
X182330337Y-106891095D01*
X181863727Y-106697342D01*
X181358490Y-106696901D01*
X180891542Y-106889839D01*
X180533974Y-107246784D01*
X180483753Y-107367729D01*
X180397539Y-107159588D01*
X180142196Y-107074530D01*
X179249605Y-107967121D01*
X180142196Y-108859712D01*
X180397539Y-108774654D01*
X180478229Y-108553704D01*
X180532718Y-108685579D01*
X180889663Y-109043147D01*
X181356273Y-109236900D01*
X181358488Y-109236902D01*
X180891542Y-109429839D01*
X180533974Y-109786784D01*
X180340221Y-110253394D01*
X180340219Y-110255609D01*
X180147282Y-109788663D01*
X179790337Y-109431095D01*
X179669392Y-109380874D01*
X179877533Y-109294660D01*
X179962591Y-109039317D01*
X179070000Y-108146726D01*
X178177409Y-109039317D01*
X178262467Y-109294660D01*
X178483417Y-109375350D01*
X178351542Y-109429839D01*
X177993974Y-109786784D01*
X177800221Y-110253394D01*
X177800219Y-110255609D01*
X177607282Y-109788663D01*
X177250337Y-109431095D01*
X176783727Y-109237342D01*
X176781512Y-109237340D01*
X177248458Y-109044403D01*
X177606026Y-108687458D01*
X177656247Y-108566513D01*
X177742461Y-108774654D01*
X177997804Y-108859712D01*
X178890395Y-107967121D01*
X177997804Y-107074530D01*
X177742461Y-107159588D01*
X177661771Y-107380538D01*
X177607282Y-107248663D01*
X177254161Y-106894925D01*
X178177409Y-106894925D01*
X179070000Y-107787516D01*
X179962591Y-106894925D01*
X179877533Y-106639582D01*
X179308035Y-106431605D01*
X178702300Y-106457398D01*
X178262467Y-106639582D01*
X178177409Y-106894925D01*
X177254161Y-106894925D01*
X177250337Y-106891095D01*
X176783727Y-106697342D01*
X176278490Y-106696901D01*
X175811542Y-106889839D01*
X175453974Y-107246784D01*
X175260221Y-107713394D01*
X175260219Y-107715609D01*
X175067282Y-107248663D01*
X174710337Y-106891095D01*
X174243727Y-106697342D01*
X173738490Y-106696901D01*
X173271542Y-106889839D01*
X172913974Y-107246784D01*
X172720221Y-107713394D01*
X172720219Y-107715609D01*
X172527282Y-107248663D01*
X172170337Y-106891095D01*
X171703727Y-106697342D01*
X171198490Y-106696901D01*
X170731542Y-106889839D01*
X170373974Y-107246784D01*
X170323753Y-107367729D01*
X170237539Y-107159588D01*
X169982196Y-107074530D01*
X169089605Y-107967121D01*
X169982196Y-108859712D01*
X170237539Y-108774654D01*
X170318229Y-108553704D01*
X170372718Y-108685579D01*
X170729663Y-109043147D01*
X171196273Y-109236900D01*
X171198488Y-109236902D01*
X170731542Y-109429839D01*
X170373974Y-109786784D01*
X170180221Y-110253394D01*
X170180219Y-110255609D01*
X169987282Y-109788663D01*
X169630337Y-109431095D01*
X169509392Y-109380874D01*
X169717533Y-109294660D01*
X169802591Y-109039317D01*
X168910000Y-108146726D01*
X168017409Y-109039317D01*
X168102467Y-109294660D01*
X168323417Y-109375350D01*
X168191542Y-109429839D01*
X167833974Y-109786784D01*
X167640221Y-110253394D01*
X167640219Y-110255609D01*
X167447282Y-109788663D01*
X167090337Y-109431095D01*
X166623727Y-109237342D01*
X166621512Y-109237340D01*
X167088458Y-109044403D01*
X167446026Y-108687458D01*
X167496247Y-108566513D01*
X167582461Y-108774654D01*
X167837804Y-108859712D01*
X168730395Y-107967121D01*
X167837804Y-107074530D01*
X167582461Y-107159588D01*
X167501771Y-107380538D01*
X167447282Y-107248663D01*
X167094161Y-106894925D01*
X168017409Y-106894925D01*
X168910000Y-107787516D01*
X169802591Y-106894925D01*
X169717533Y-106639582D01*
X169148035Y-106431605D01*
X168542300Y-106457398D01*
X168102467Y-106639582D01*
X168017409Y-106894925D01*
X167094161Y-106894925D01*
X167090337Y-106891095D01*
X166623727Y-106697342D01*
X166118490Y-106696901D01*
X165651542Y-106889839D01*
X165293974Y-107246784D01*
X165236116Y-107386121D01*
X164964078Y-107386121D01*
X164907282Y-107248663D01*
X164550337Y-106891095D01*
X164083727Y-106697342D01*
X163578490Y-106696901D01*
X163111542Y-106889839D01*
X162753974Y-107246784D01*
X162560221Y-107713394D01*
X162559780Y-108218631D01*
X162617394Y-108358069D01*
X161749171Y-109226292D01*
X161623226Y-109414782D01*
X161579000Y-109637121D01*
X161579000Y-113180000D01*
X161623226Y-113402339D01*
X161749171Y-113590829D01*
X171049000Y-122890658D01*
X171049000Y-123349727D01*
X171039000Y-123400000D01*
X171049000Y-123450273D01*
X171049000Y-132316002D01*
X171093226Y-132538341D01*
X171219171Y-132726831D01*
X173153169Y-134660829D01*
X173341659Y-134786774D01*
X173563998Y-134831000D01*
X181010000Y-134831000D01*
X181232339Y-134786774D01*
X181420829Y-134660829D01*
X183610658Y-132471000D01*
X205683405Y-132471000D01*
X205923946Y-132570882D01*
X206194865Y-132571118D01*
X206445252Y-132467661D01*
X206636987Y-132276259D01*
X206694000Y-132138958D01*
X206694000Y-134500000D01*
X206732517Y-134693638D01*
X206842204Y-134857796D01*
X207068969Y-135084561D01*
X207068882Y-135184865D01*
X207093316Y-135244000D01*
X158500000Y-135244000D01*
X158497456Y-135244506D01*
X157479872Y-135042096D01*
X156657438Y-134492562D01*
X156105714Y-133666850D01*
X155906000Y-132743495D01*
X155906000Y-132586948D01*
X157202836Y-132586948D01*
X157469477Y-133232269D01*
X157962775Y-133726428D01*
X158607629Y-133994195D01*
X159305867Y-133994805D01*
X159951188Y-133728164D01*
X160445347Y-133234866D01*
X160713114Y-132590012D01*
X160713724Y-131891774D01*
X160447083Y-131246453D01*
X159953785Y-130752294D01*
X159308931Y-130484527D01*
X158610693Y-130483917D01*
X157965372Y-130750558D01*
X157471213Y-131243856D01*
X157203446Y-131888710D01*
X157202836Y-132586948D01*
X155906000Y-132586948D01*
X155906000Y-125414868D01*
X157014737Y-125414868D01*
X157125641Y-125692099D01*
X157771593Y-125935323D01*
X158461453Y-125912836D01*
X158994359Y-125692099D01*
X159105263Y-125414868D01*
X162094737Y-125414868D01*
X162205641Y-125692099D01*
X162851593Y-125935323D01*
X163541453Y-125912836D01*
X164074359Y-125692099D01*
X164185263Y-125414868D01*
X163140000Y-124369605D01*
X162094737Y-125414868D01*
X159105263Y-125414868D01*
X158060000Y-124369605D01*
X157014737Y-125414868D01*
X155906000Y-125414868D01*
X155906000Y-123901593D01*
X156314677Y-123901593D01*
X156337164Y-124591453D01*
X156557901Y-125124359D01*
X156835132Y-125235263D01*
X157880395Y-124190000D01*
X158239605Y-124190000D01*
X159284868Y-125235263D01*
X159562099Y-125124359D01*
X159805323Y-124478407D01*
X159786521Y-123901593D01*
X161394677Y-123901593D01*
X161417164Y-124591453D01*
X161637901Y-125124359D01*
X161915132Y-125235263D01*
X162960395Y-124190000D01*
X163319605Y-124190000D01*
X164364868Y-125235263D01*
X164642099Y-125124359D01*
X164885323Y-124478407D01*
X164862836Y-123788547D01*
X164642099Y-123255641D01*
X164364868Y-123144737D01*
X163319605Y-124190000D01*
X162960395Y-124190000D01*
X161915132Y-123144737D01*
X161637901Y-123255641D01*
X161394677Y-123901593D01*
X159786521Y-123901593D01*
X159782836Y-123788547D01*
X159562099Y-123255641D01*
X159284868Y-123144737D01*
X158239605Y-124190000D01*
X157880395Y-124190000D01*
X156835132Y-123144737D01*
X156557901Y-123255641D01*
X156314677Y-123901593D01*
X155906000Y-123901593D01*
X155906000Y-122965132D01*
X157014737Y-122965132D01*
X158060000Y-124010395D01*
X159105263Y-122965132D01*
X158994359Y-122687901D01*
X158348407Y-122444677D01*
X157658547Y-122467164D01*
X157125641Y-122687901D01*
X157014737Y-122965132D01*
X155906000Y-122965132D01*
X155906000Y-121923493D01*
X159218761Y-121923493D01*
X159428563Y-122431251D01*
X159816705Y-122820072D01*
X160324097Y-123030759D01*
X160873493Y-123031239D01*
X161033483Y-122965132D01*
X162094737Y-122965132D01*
X163140000Y-124010395D01*
X164185263Y-122965132D01*
X164074359Y-122687901D01*
X163428407Y-122444677D01*
X162738547Y-122467164D01*
X162205641Y-122687901D01*
X162094737Y-122965132D01*
X161033483Y-122965132D01*
X161381251Y-122821437D01*
X161770072Y-122433295D01*
X161980759Y-121925903D01*
X161981239Y-121376507D01*
X161771437Y-120868749D01*
X161383295Y-120479928D01*
X161033951Y-120334868D01*
X162094737Y-120334868D01*
X162205641Y-120612099D01*
X162851593Y-120855323D01*
X163541453Y-120832836D01*
X164074359Y-120612099D01*
X164185263Y-120334868D01*
X163140000Y-119289605D01*
X162094737Y-120334868D01*
X161033951Y-120334868D01*
X160875903Y-120269241D01*
X160326507Y-120268761D01*
X159818749Y-120478563D01*
X159429928Y-120866705D01*
X159219241Y-121374097D01*
X159218761Y-121923493D01*
X155906000Y-121923493D01*
X155906000Y-120334868D01*
X157014737Y-120334868D01*
X157125641Y-120612099D01*
X157771593Y-120855323D01*
X158461453Y-120832836D01*
X158994359Y-120612099D01*
X159105263Y-120334868D01*
X158060000Y-119289605D01*
X157014737Y-120334868D01*
X155906000Y-120334868D01*
X155906000Y-118821593D01*
X156314677Y-118821593D01*
X156337164Y-119511453D01*
X156557901Y-120044359D01*
X156835132Y-120155263D01*
X157880395Y-119110000D01*
X158239605Y-119110000D01*
X159284868Y-120155263D01*
X159562099Y-120044359D01*
X159805323Y-119398407D01*
X159786521Y-118821593D01*
X161394677Y-118821593D01*
X161417164Y-119511453D01*
X161637901Y-120044359D01*
X161915132Y-120155263D01*
X162960395Y-119110000D01*
X163319605Y-119110000D01*
X164364868Y-120155263D01*
X164642099Y-120044359D01*
X164885323Y-119398407D01*
X164862836Y-118708547D01*
X164642099Y-118175641D01*
X164364868Y-118064737D01*
X163319605Y-119110000D01*
X162960395Y-119110000D01*
X161915132Y-118064737D01*
X161637901Y-118175641D01*
X161394677Y-118821593D01*
X159786521Y-118821593D01*
X159782836Y-118708547D01*
X159562099Y-118175641D01*
X159284868Y-118064737D01*
X158239605Y-119110000D01*
X157880395Y-119110000D01*
X156835132Y-118064737D01*
X156557901Y-118175641D01*
X156314677Y-118821593D01*
X155906000Y-118821593D01*
X155906000Y-117885132D01*
X157014737Y-117885132D01*
X158060000Y-118930395D01*
X159105263Y-117885132D01*
X162094737Y-117885132D01*
X163140000Y-118930395D01*
X164185263Y-117885132D01*
X164074359Y-117607901D01*
X163428407Y-117364677D01*
X162738547Y-117387164D01*
X162205641Y-117607901D01*
X162094737Y-117885132D01*
X159105263Y-117885132D01*
X158994359Y-117607901D01*
X158348407Y-117364677D01*
X157658547Y-117387164D01*
X157125641Y-117607901D01*
X157014737Y-117885132D01*
X155906000Y-117885132D01*
X155906000Y-109584708D01*
X157202836Y-109584708D01*
X157469477Y-110230029D01*
X157962775Y-110724188D01*
X158607629Y-110991955D01*
X159305867Y-110992565D01*
X159951188Y-110725924D01*
X160445347Y-110232626D01*
X160713114Y-109587772D01*
X160713724Y-108889534D01*
X160447083Y-108244213D01*
X159953785Y-107750054D01*
X159308931Y-107482287D01*
X158610693Y-107481677D01*
X157965372Y-107748318D01*
X157471213Y-108241616D01*
X157203446Y-108886470D01*
X157202836Y-109584708D01*
X155906000Y-109584708D01*
X155906000Y-108644459D01*
X156107897Y-107629455D01*
X156657431Y-106807021D01*
X157481507Y-106256390D01*
X158446830Y-106056000D01*
X217505089Y-106056000D01*
X218500994Y-106254098D01*
X218500994Y-106254098D01*
G37*
X218500994Y-106254098D02*
X219307207Y-106792793D01*
X219848057Y-107602231D01*
X220044000Y-108509351D01*
X220044000Y-132750000D01*
X220044506Y-132752544D01*
X219849708Y-133731860D01*
X219321852Y-134521852D01*
X218530246Y-135050787D01*
X217598856Y-135244000D01*
X208406821Y-135244000D01*
X208430882Y-135186054D01*
X208431118Y-134915135D01*
X208327661Y-134664748D01*
X208136259Y-134473013D01*
X207886054Y-134369118D01*
X207784622Y-134369030D01*
X207706000Y-134290408D01*
X207706000Y-132586948D01*
X215203736Y-132586948D01*
X215470377Y-133232269D01*
X215963675Y-133726428D01*
X216608529Y-133994195D01*
X217306767Y-133994805D01*
X217952088Y-133728164D01*
X218446247Y-133234866D01*
X218714014Y-132590012D01*
X218714624Y-131891774D01*
X218447983Y-131246453D01*
X217954685Y-130752294D01*
X217309831Y-130484527D01*
X216611593Y-130483917D01*
X215966272Y-130750558D01*
X215472113Y-131243856D01*
X215204346Y-131888710D01*
X215203736Y-132586948D01*
X207706000Y-132586948D01*
X207706000Y-131274865D01*
X207888882Y-131274865D01*
X207992339Y-131525252D01*
X208183741Y-131716987D01*
X208433946Y-131820882D01*
X208704865Y-131821118D01*
X208955252Y-131717661D01*
X209146987Y-131526259D01*
X209247529Y-131284129D01*
X210830829Y-129700829D01*
X210956774Y-129512339D01*
X211001000Y-129290000D01*
X211001000Y-128238464D01*
X211270000Y-128238464D01*
X211411190Y-128211897D01*
X211540865Y-128128454D01*
X211627859Y-128001134D01*
X211658464Y-127850000D01*
X211658464Y-126975883D01*
X211729000Y-126975883D01*
X211729000Y-127024117D01*
X211822704Y-127495200D01*
X212089552Y-127894565D01*
X212488917Y-128161413D01*
X212960000Y-128255117D01*
X213431083Y-128161413D01*
X213830448Y-127894565D01*
X214097296Y-127495200D01*
X214191000Y-127024117D01*
X214191000Y-126975883D01*
X214269000Y-126975883D01*
X214269000Y-127024117D01*
X214362704Y-127495200D01*
X214629552Y-127894565D01*
X215028917Y-128161413D01*
X215500000Y-128255117D01*
X215971083Y-128161413D01*
X216370448Y-127894565D01*
X216637296Y-127495200D01*
X216645083Y-127456053D01*
X216844817Y-127881358D01*
X217273076Y-128271645D01*
X217683110Y-128441476D01*
X217913000Y-128320155D01*
X217913000Y-127127000D01*
X218167000Y-127127000D01*
X218167000Y-128320155D01*
X218396890Y-128441476D01*
X218806924Y-128271645D01*
X219235183Y-127881358D01*
X219481486Y-127356892D01*
X219360819Y-127127000D01*
X218167000Y-127127000D01*
X217913000Y-127127000D01*
X217893000Y-127127000D01*
X217893000Y-126873000D01*
X217913000Y-126873000D01*
X217913000Y-125679845D01*
X218167000Y-125679845D01*
X218167000Y-126873000D01*
X219360819Y-126873000D01*
X219481486Y-126643108D01*
X219235183Y-126118642D01*
X218806924Y-125728355D01*
X218396890Y-125558524D01*
X218167000Y-125679845D01*
X217913000Y-125679845D01*
X217683110Y-125558524D01*
X217273076Y-125728355D01*
X216844817Y-126118642D01*
X216645083Y-126543947D01*
X216637296Y-126504800D01*
X216370448Y-126105435D01*
X215971083Y-125838587D01*
X215500000Y-125744883D01*
X215028917Y-125838587D01*
X214629552Y-126105435D01*
X214362704Y-126504800D01*
X214269000Y-126975883D01*
X214191000Y-126975883D01*
X214097296Y-126504800D01*
X213830448Y-126105435D01*
X213431083Y-125838587D01*
X212960000Y-125744883D01*
X212488917Y-125838587D01*
X212089552Y-126105435D01*
X211822704Y-126504800D01*
X211729000Y-126975883D01*
X211658464Y-126975883D01*
X211658464Y-126150000D01*
X211631897Y-126008810D01*
X211548454Y-125879135D01*
X211421134Y-125792141D01*
X211270000Y-125761536D01*
X209570000Y-125761536D01*
X209428810Y-125788103D01*
X209299135Y-125871546D01*
X209212141Y-125998866D01*
X209181536Y-126150000D01*
X209181536Y-127850000D01*
X209208103Y-127991190D01*
X209291546Y-128120865D01*
X209418866Y-128207859D01*
X209570000Y-128238464D01*
X209839000Y-128238464D01*
X209839000Y-129049342D01*
X208425464Y-130462878D01*
X208184748Y-130562339D01*
X207993013Y-130753741D01*
X207889118Y-131003946D01*
X207888882Y-131274865D01*
X207706000Y-131274865D01*
X207706000Y-130800000D01*
X207696000Y-130749727D01*
X207696000Y-129067123D01*
X207766987Y-128996259D01*
X207850533Y-128795059D01*
X208727796Y-127917796D01*
X208837483Y-127753638D01*
X208876000Y-127560000D01*
X208876000Y-124006000D01*
X209261536Y-124006000D01*
X209261536Y-124350000D01*
X209288103Y-124491190D01*
X209371546Y-124620865D01*
X209498866Y-124707859D01*
X209650000Y-124738464D01*
X211350000Y-124738464D01*
X211491190Y-124711897D01*
X211620865Y-124628454D01*
X211707859Y-124501134D01*
X211738464Y-124350000D01*
X211738464Y-122914056D01*
X211890510Y-123066102D01*
X211809000Y-123475883D01*
X211809000Y-123524117D01*
X211902704Y-123995200D01*
X212169552Y-124394565D01*
X212568917Y-124661413D01*
X213040000Y-124755117D01*
X213511083Y-124661413D01*
X213910448Y-124394565D01*
X214177296Y-123995200D01*
X214271000Y-123524117D01*
X214271000Y-123475883D01*
X214177296Y-123004800D01*
X213910448Y-122605435D01*
X213511083Y-122338587D01*
X213040000Y-122244883D01*
X212589988Y-122334396D01*
X212411593Y-122156001D01*
X213520409Y-122156001D01*
X214430510Y-123066102D01*
X214349000Y-123475883D01*
X214349000Y-123524117D01*
X214442704Y-123995200D01*
X214709552Y-124394565D01*
X215108917Y-124661413D01*
X215580000Y-124755117D01*
X216051083Y-124661413D01*
X216450448Y-124394565D01*
X216717296Y-123995200D01*
X216725083Y-123956053D01*
X216924817Y-124381358D01*
X217353076Y-124771645D01*
X217763110Y-124941476D01*
X217993000Y-124820155D01*
X217993000Y-123627000D01*
X218247000Y-123627000D01*
X218247000Y-124820155D01*
X218476890Y-124941476D01*
X218886924Y-124771645D01*
X219315183Y-124381358D01*
X219561486Y-123856892D01*
X219440819Y-123627000D01*
X218247000Y-123627000D01*
X217993000Y-123627000D01*
X217973000Y-123627000D01*
X217973000Y-123373000D01*
X217993000Y-123373000D01*
X217993000Y-122179845D01*
X218247000Y-122179845D01*
X218247000Y-123373000D01*
X219440819Y-123373000D01*
X219561486Y-123143108D01*
X219315183Y-122618642D01*
X218886924Y-122228355D01*
X218476890Y-122058524D01*
X218247000Y-122179845D01*
X217993000Y-122179845D01*
X217763110Y-122058524D01*
X217714495Y-122078660D01*
X217723882Y-122056054D01*
X217723970Y-121954622D01*
X218533632Y-121144960D01*
X218569796Y-121120796D01*
X219157796Y-120532796D01*
X219219211Y-120440882D01*
X219267483Y-120368638D01*
X219306000Y-120175000D01*
X219306000Y-114100000D01*
X219267483Y-113906362D01*
X219157796Y-113742204D01*
X217657796Y-112242204D01*
X217493638Y-112132517D01*
X217300000Y-112094000D01*
X215609592Y-112094000D01*
X214481031Y-110965439D01*
X214481118Y-110865135D01*
X214377661Y-110614748D01*
X214186259Y-110423013D01*
X213936054Y-110319118D01*
X213665135Y-110318882D01*
X213608364Y-110342339D01*
X213599723Y-110139421D01*
X213417539Y-109699588D01*
X213162196Y-109614530D01*
X212269605Y-110507121D01*
X213162196Y-111399712D01*
X213220314Y-111380352D01*
X213222339Y-111385252D01*
X213413741Y-111576987D01*
X213663946Y-111680882D01*
X213765378Y-111680970D01*
X215042204Y-112957796D01*
X215206362Y-113067483D01*
X215400000Y-113106000D01*
X217090408Y-113106000D01*
X218294000Y-114309592D01*
X218294000Y-114454292D01*
X218277661Y-114414748D01*
X218086259Y-114223013D01*
X217836054Y-114119118D01*
X217565135Y-114118882D01*
X217314748Y-114222339D01*
X217123013Y-114413741D01*
X217019118Y-114663946D01*
X217018918Y-114894000D01*
X213809592Y-114894000D01*
X213396677Y-114481085D01*
X213434865Y-114481118D01*
X213685252Y-114377661D01*
X213876987Y-114186259D01*
X213980882Y-113936054D01*
X213981118Y-113665135D01*
X213877661Y-113414748D01*
X213686259Y-113223013D01*
X213436054Y-113119118D01*
X213334622Y-113119030D01*
X212241636Y-112026044D01*
X212457700Y-112016844D01*
X212897533Y-111834660D01*
X212982591Y-111579317D01*
X212090000Y-110686726D01*
X212075858Y-110700869D01*
X211896253Y-110521264D01*
X211910395Y-110507121D01*
X211017804Y-109614530D01*
X210820000Y-109680421D01*
X210622196Y-109614530D01*
X209729605Y-110507121D01*
X209743748Y-110521264D01*
X209564143Y-110700869D01*
X209550000Y-110686726D01*
X209535858Y-110700869D01*
X209356253Y-110521264D01*
X209370395Y-110507121D01*
X208477804Y-109614530D01*
X208222461Y-109699588D01*
X208141771Y-109920538D01*
X208087282Y-109788663D01*
X207730337Y-109431095D01*
X207263727Y-109237342D01*
X207261512Y-109237340D01*
X207728458Y-109044403D01*
X208086026Y-108687458D01*
X208279779Y-108220848D01*
X208279781Y-108218633D01*
X208472718Y-108685579D01*
X208829663Y-109043147D01*
X208950608Y-109093368D01*
X208742467Y-109179582D01*
X208657409Y-109434925D01*
X209550000Y-110327516D01*
X210442591Y-109434925D01*
X210357533Y-109179582D01*
X210136583Y-109098892D01*
X210268458Y-109044403D01*
X210626026Y-108687458D01*
X210819779Y-108220848D01*
X210819781Y-108218633D01*
X211012718Y-108685579D01*
X211369663Y-109043147D01*
X211490608Y-109093368D01*
X211282467Y-109179582D01*
X211197409Y-109434925D01*
X212090000Y-110327516D01*
X212832808Y-109584708D01*
X215203736Y-109584708D01*
X215470377Y-110230029D01*
X215963675Y-110724188D01*
X216608529Y-110991955D01*
X217306767Y-110992565D01*
X217952088Y-110725924D01*
X218446247Y-110232626D01*
X218714014Y-109587772D01*
X218714624Y-108889534D01*
X218447983Y-108244213D01*
X217954685Y-107750054D01*
X217309831Y-107482287D01*
X216611593Y-107481677D01*
X215966272Y-107748318D01*
X215472113Y-108241616D01*
X215204346Y-108886470D01*
X215203736Y-109584708D01*
X212832808Y-109584708D01*
X212982591Y-109434925D01*
X212897533Y-109179582D01*
X212676583Y-109098892D01*
X212808458Y-109044403D01*
X213166026Y-108687458D01*
X213359779Y-108220848D01*
X213360220Y-107715611D01*
X213167282Y-107248663D01*
X212810337Y-106891095D01*
X212343727Y-106697342D01*
X211838490Y-106696901D01*
X211371542Y-106889839D01*
X211013974Y-107246784D01*
X210820221Y-107713394D01*
X210820219Y-107715609D01*
X210627282Y-107248663D01*
X210270337Y-106891095D01*
X209803727Y-106697342D01*
X209298490Y-106696901D01*
X208831542Y-106889839D01*
X208473974Y-107246784D01*
X208280221Y-107713394D01*
X208280219Y-107715609D01*
X208087282Y-107248663D01*
X207730337Y-106891095D01*
X207263727Y-106697342D01*
X206758490Y-106696901D01*
X206291542Y-106889839D01*
X205933974Y-107246784D01*
X205883753Y-107367729D01*
X205797539Y-107159588D01*
X205542196Y-107074530D01*
X204649605Y-107967121D01*
X205542196Y-108859712D01*
X205797539Y-108774654D01*
X205878229Y-108553704D01*
X205932718Y-108685579D01*
X206289663Y-109043147D01*
X206756273Y-109236900D01*
X206758488Y-109236902D01*
X206291542Y-109429839D01*
X205933974Y-109786784D01*
X205740221Y-110253394D01*
X205740219Y-110255609D01*
X205547282Y-109788663D01*
X205190337Y-109431095D01*
X205069392Y-109380874D01*
X205277533Y-109294660D01*
X205362591Y-109039317D01*
X204470000Y-108146726D01*
X203577409Y-109039317D01*
X203662467Y-109294660D01*
X203883417Y-109375350D01*
X203751542Y-109429839D01*
X203393974Y-109786784D01*
X203200221Y-110253394D01*
X203200219Y-110255609D01*
X203007282Y-109788663D01*
X202650337Y-109431095D01*
X202183727Y-109237342D01*
X202181512Y-109237340D01*
X202648458Y-109044403D01*
X203006026Y-108687458D01*
X203056247Y-108566513D01*
X203142461Y-108774654D01*
X203397804Y-108859712D01*
X204290395Y-107967121D01*
X203397804Y-107074530D01*
X203142461Y-107159588D01*
X203061771Y-107380538D01*
X203007282Y-107248663D01*
X202654161Y-106894925D01*
X203577409Y-106894925D01*
X204470000Y-107787516D01*
X205362591Y-106894925D01*
X205277533Y-106639582D01*
X204708035Y-106431605D01*
X204102300Y-106457398D01*
X203662467Y-106639582D01*
X203577409Y-106894925D01*
X202654161Y-106894925D01*
X202650337Y-106891095D01*
X202183727Y-106697342D01*
X201678490Y-106696901D01*
X201211542Y-106889839D01*
X200853974Y-107246784D01*
X200803753Y-107367729D01*
X200717539Y-107159588D01*
X200462196Y-107074530D01*
X199569605Y-107967121D01*
X200462196Y-108859712D01*
X200717539Y-108774654D01*
X200798229Y-108553704D01*
X200852718Y-108685579D01*
X201209663Y-109043147D01*
X201676273Y-109236900D01*
X201678488Y-109236902D01*
X201211542Y-109429839D01*
X200853974Y-109786784D01*
X200660221Y-110253394D01*
X200660219Y-110255609D01*
X200467282Y-109788663D01*
X200110337Y-109431095D01*
X199989392Y-109380874D01*
X200197533Y-109294660D01*
X200282591Y-109039317D01*
X199390000Y-108146726D01*
X198497409Y-109039317D01*
X198582467Y-109294660D01*
X198803417Y-109375350D01*
X198671542Y-109429839D01*
X198313974Y-109786784D01*
X198120221Y-110253394D01*
X198120219Y-110255609D01*
X197927282Y-109788663D01*
X197570337Y-109431095D01*
X197103727Y-109237342D01*
X197101512Y-109237340D01*
X197568458Y-109044403D01*
X197926026Y-108687458D01*
X197976247Y-108566513D01*
X198062461Y-108774654D01*
X198317804Y-108859712D01*
X199210395Y-107967121D01*
X198317804Y-107074530D01*
X198062461Y-107159588D01*
X197981771Y-107380538D01*
X197927282Y-107248663D01*
X197574161Y-106894925D01*
X198497409Y-106894925D01*
X199390000Y-107787516D01*
X200282591Y-106894925D01*
X200197533Y-106639582D01*
X199628035Y-106431605D01*
X199022300Y-106457398D01*
X198582467Y-106639582D01*
X198497409Y-106894925D01*
X197574161Y-106894925D01*
X197570337Y-106891095D01*
X197103727Y-106697342D01*
X196598490Y-106696901D01*
X196131542Y-106889839D01*
X195773974Y-107246784D01*
X195580221Y-107713394D01*
X195580219Y-107715609D01*
X195387282Y-107248663D01*
X195030337Y-106891095D01*
X194563727Y-106697342D01*
X194058490Y-106696901D01*
X193591542Y-106889839D01*
X193233974Y-107246784D01*
X193040221Y-107713394D01*
X193040219Y-107715609D01*
X192847282Y-107248663D01*
X192490337Y-106891095D01*
X192023727Y-106697342D01*
X191518490Y-106696901D01*
X191051542Y-106889839D01*
X190693974Y-107246784D01*
X190500221Y-107713394D01*
X190500219Y-107715609D01*
X190307282Y-107248663D01*
X189950337Y-106891095D01*
X189483727Y-106697342D01*
X188978490Y-106696901D01*
X188511542Y-106889839D01*
X188153974Y-107246784D01*
X188103753Y-107367729D01*
X188017539Y-107159588D01*
X187762196Y-107074530D01*
X186869605Y-107967121D01*
X187762196Y-108859712D01*
X188017539Y-108774654D01*
X188098229Y-108553704D01*
X188152718Y-108685579D01*
X188509663Y-109043147D01*
X188976273Y-109236900D01*
X188978488Y-109236902D01*
X188511542Y-109429839D01*
X188153974Y-109786784D01*
X187960221Y-110253394D01*
X187960219Y-110255609D01*
X187767282Y-109788663D01*
X187410337Y-109431095D01*
X187289392Y-109380874D01*
X187497533Y-109294660D01*
X187582591Y-109039317D01*
X186690000Y-108146726D01*
X185797409Y-109039317D01*
X185882467Y-109294660D01*
X186103417Y-109375350D01*
X185971542Y-109429839D01*
X185613974Y-109786784D01*
X185420221Y-110253394D01*
X185420219Y-110255609D01*
X185227282Y-109788663D01*
X184870337Y-109431095D01*
X184403727Y-109237342D01*
X184401512Y-109237340D01*
X184868458Y-109044403D01*
X185226026Y-108687458D01*
X185276247Y-108566513D01*
X185362461Y-108774654D01*
X185617804Y-108859712D01*
X186510395Y-107967121D01*
X185617804Y-107074530D01*
X185362461Y-107159588D01*
X185281771Y-107380538D01*
X185227282Y-107248663D01*
X184874161Y-106894925D01*
X185797409Y-106894925D01*
X186690000Y-107787516D01*
X187582591Y-106894925D01*
X187497533Y-106639582D01*
X186928035Y-106431605D01*
X186322300Y-106457398D01*
X185882467Y-106639582D01*
X185797409Y-106894925D01*
X184874161Y-106894925D01*
X184870337Y-106891095D01*
X184403727Y-106697342D01*
X183898490Y-106696901D01*
X183431542Y-106889839D01*
X183073974Y-107246784D01*
X182880221Y-107713394D01*
X182880219Y-107715609D01*
X182687282Y-107248663D01*
X182330337Y-106891095D01*
X181863727Y-106697342D01*
X181358490Y-106696901D01*
X180891542Y-106889839D01*
X180533974Y-107246784D01*
X180483753Y-107367729D01*
X180397539Y-107159588D01*
X180142196Y-107074530D01*
X179249605Y-107967121D01*
X180142196Y-108859712D01*
X180397539Y-108774654D01*
X180478229Y-108553704D01*
X180532718Y-108685579D01*
X180889663Y-109043147D01*
X181356273Y-109236900D01*
X181358488Y-109236902D01*
X180891542Y-109429839D01*
X180533974Y-109786784D01*
X180340221Y-110253394D01*
X180340219Y-110255609D01*
X180147282Y-109788663D01*
X179790337Y-109431095D01*
X179669392Y-109380874D01*
X179877533Y-109294660D01*
X179962591Y-109039317D01*
X179070000Y-108146726D01*
X178177409Y-109039317D01*
X178262467Y-109294660D01*
X178483417Y-109375350D01*
X178351542Y-109429839D01*
X177993974Y-109786784D01*
X177800221Y-110253394D01*
X177800219Y-110255609D01*
X177607282Y-109788663D01*
X177250337Y-109431095D01*
X176783727Y-109237342D01*
X176781512Y-109237340D01*
X177248458Y-109044403D01*
X177606026Y-108687458D01*
X177656247Y-108566513D01*
X177742461Y-108774654D01*
X177997804Y-108859712D01*
X178890395Y-107967121D01*
X177997804Y-107074530D01*
X177742461Y-107159588D01*
X177661771Y-107380538D01*
X177607282Y-107248663D01*
X177254161Y-106894925D01*
X178177409Y-106894925D01*
X179070000Y-107787516D01*
X179962591Y-106894925D01*
X179877533Y-106639582D01*
X179308035Y-106431605D01*
X178702300Y-106457398D01*
X178262467Y-106639582D01*
X178177409Y-106894925D01*
X177254161Y-106894925D01*
X177250337Y-106891095D01*
X176783727Y-106697342D01*
X176278490Y-106696901D01*
X175811542Y-106889839D01*
X175453974Y-107246784D01*
X175260221Y-107713394D01*
X175260219Y-107715609D01*
X175067282Y-107248663D01*
X174710337Y-106891095D01*
X174243727Y-106697342D01*
X173738490Y-106696901D01*
X173271542Y-106889839D01*
X172913974Y-107246784D01*
X172720221Y-107713394D01*
X172720219Y-107715609D01*
X172527282Y-107248663D01*
X172170337Y-106891095D01*
X171703727Y-106697342D01*
X171198490Y-106696901D01*
X170731542Y-106889839D01*
X170373974Y-107246784D01*
X170323753Y-107367729D01*
X170237539Y-107159588D01*
X169982196Y-107074530D01*
X169089605Y-107967121D01*
X169982196Y-108859712D01*
X170237539Y-108774654D01*
X170318229Y-108553704D01*
X170372718Y-108685579D01*
X170729663Y-109043147D01*
X171196273Y-109236900D01*
X171198488Y-109236902D01*
X170731542Y-109429839D01*
X170373974Y-109786784D01*
X170180221Y-110253394D01*
X170180219Y-110255609D01*
X169987282Y-109788663D01*
X169630337Y-109431095D01*
X169509392Y-109380874D01*
X169717533Y-109294660D01*
X169802591Y-109039317D01*
X168910000Y-108146726D01*
X168017409Y-109039317D01*
X168102467Y-109294660D01*
X168323417Y-109375350D01*
X168191542Y-109429839D01*
X167833974Y-109786784D01*
X167640221Y-110253394D01*
X167640219Y-110255609D01*
X167447282Y-109788663D01*
X167090337Y-109431095D01*
X166623727Y-109237342D01*
X166621512Y-109237340D01*
X167088458Y-109044403D01*
X167446026Y-108687458D01*
X167496247Y-108566513D01*
X167582461Y-108774654D01*
X167837804Y-108859712D01*
X168730395Y-107967121D01*
X167837804Y-107074530D01*
X167582461Y-107159588D01*
X167501771Y-107380538D01*
X167447282Y-107248663D01*
X167094161Y-106894925D01*
X168017409Y-106894925D01*
X168910000Y-107787516D01*
X169802591Y-106894925D01*
X169717533Y-106639582D01*
X169148035Y-106431605D01*
X168542300Y-106457398D01*
X168102467Y-106639582D01*
X168017409Y-106894925D01*
X167094161Y-106894925D01*
X167090337Y-106891095D01*
X166623727Y-106697342D01*
X166118490Y-106696901D01*
X165651542Y-106889839D01*
X165293974Y-107246784D01*
X165236116Y-107386121D01*
X164964078Y-107386121D01*
X164907282Y-107248663D01*
X164550337Y-106891095D01*
X164083727Y-106697342D01*
X163578490Y-106696901D01*
X163111542Y-106889839D01*
X162753974Y-107246784D01*
X162560221Y-107713394D01*
X162559780Y-108218631D01*
X162617394Y-108358069D01*
X161749171Y-109226292D01*
X161623226Y-109414782D01*
X161579000Y-109637121D01*
X161579000Y-113180000D01*
X161623226Y-113402339D01*
X161749171Y-113590829D01*
X171049000Y-122890658D01*
X171049000Y-123349727D01*
X171039000Y-123400000D01*
X171049000Y-123450273D01*
X171049000Y-132316002D01*
X171093226Y-132538341D01*
X171219171Y-132726831D01*
X173153169Y-134660829D01*
X173341659Y-134786774D01*
X173563998Y-134831000D01*
X181010000Y-134831000D01*
X181232339Y-134786774D01*
X181420829Y-134660829D01*
X183610658Y-132471000D01*
X205683405Y-132471000D01*
X205923946Y-132570882D01*
X206194865Y-132571118D01*
X206445252Y-132467661D01*
X206636987Y-132276259D01*
X206694000Y-132138958D01*
X206694000Y-134500000D01*
X206732517Y-134693638D01*
X206842204Y-134857796D01*
X207068969Y-135084561D01*
X207068882Y-135184865D01*
X207093316Y-135244000D01*
X158500000Y-135244000D01*
X158497456Y-135244506D01*
X157479872Y-135042096D01*
X156657438Y-134492562D01*
X156105714Y-133666850D01*
X155906000Y-132743495D01*
X155906000Y-132586948D01*
X157202836Y-132586948D01*
X157469477Y-133232269D01*
X157962775Y-133726428D01*
X158607629Y-133994195D01*
X159305867Y-133994805D01*
X159951188Y-133728164D01*
X160445347Y-133234866D01*
X160713114Y-132590012D01*
X160713724Y-131891774D01*
X160447083Y-131246453D01*
X159953785Y-130752294D01*
X159308931Y-130484527D01*
X158610693Y-130483917D01*
X157965372Y-130750558D01*
X157471213Y-131243856D01*
X157203446Y-131888710D01*
X157202836Y-132586948D01*
X155906000Y-132586948D01*
X155906000Y-125414868D01*
X157014737Y-125414868D01*
X157125641Y-125692099D01*
X157771593Y-125935323D01*
X158461453Y-125912836D01*
X158994359Y-125692099D01*
X159105263Y-125414868D01*
X162094737Y-125414868D01*
X162205641Y-125692099D01*
X162851593Y-125935323D01*
X163541453Y-125912836D01*
X164074359Y-125692099D01*
X164185263Y-125414868D01*
X163140000Y-124369605D01*
X162094737Y-125414868D01*
X159105263Y-125414868D01*
X158060000Y-124369605D01*
X157014737Y-125414868D01*
X155906000Y-125414868D01*
X155906000Y-123901593D01*
X156314677Y-123901593D01*
X156337164Y-124591453D01*
X156557901Y-125124359D01*
X156835132Y-125235263D01*
X157880395Y-124190000D01*
X158239605Y-124190000D01*
X159284868Y-125235263D01*
X159562099Y-125124359D01*
X159805323Y-124478407D01*
X159786521Y-123901593D01*
X161394677Y-123901593D01*
X161417164Y-124591453D01*
X161637901Y-125124359D01*
X161915132Y-125235263D01*
X162960395Y-124190000D01*
X163319605Y-124190000D01*
X164364868Y-125235263D01*
X164642099Y-125124359D01*
X164885323Y-124478407D01*
X164862836Y-123788547D01*
X164642099Y-123255641D01*
X164364868Y-123144737D01*
X163319605Y-124190000D01*
X162960395Y-124190000D01*
X161915132Y-123144737D01*
X161637901Y-123255641D01*
X161394677Y-123901593D01*
X159786521Y-123901593D01*
X159782836Y-123788547D01*
X159562099Y-123255641D01*
X159284868Y-123144737D01*
X158239605Y-124190000D01*
X157880395Y-124190000D01*
X156835132Y-123144737D01*
X156557901Y-123255641D01*
X156314677Y-123901593D01*
X155906000Y-123901593D01*
X155906000Y-122965132D01*
X157014737Y-122965132D01*
X158060000Y-124010395D01*
X159105263Y-122965132D01*
X158994359Y-122687901D01*
X158348407Y-122444677D01*
X157658547Y-122467164D01*
X157125641Y-122687901D01*
X157014737Y-122965132D01*
X155906000Y-122965132D01*
X155906000Y-121923493D01*
X159218761Y-121923493D01*
X159428563Y-122431251D01*
X159816705Y-122820072D01*
X160324097Y-123030759D01*
X160873493Y-123031239D01*
X161033483Y-122965132D01*
X162094737Y-122965132D01*
X163140000Y-124010395D01*
X164185263Y-122965132D01*
X164074359Y-122687901D01*
X163428407Y-122444677D01*
X162738547Y-122467164D01*
X162205641Y-122687901D01*
X162094737Y-122965132D01*
X161033483Y-122965132D01*
X161381251Y-122821437D01*
X161770072Y-122433295D01*
X161980759Y-121925903D01*
X161981239Y-121376507D01*
X161771437Y-120868749D01*
X161383295Y-120479928D01*
X161033951Y-120334868D01*
X162094737Y-120334868D01*
X162205641Y-120612099D01*
X162851593Y-120855323D01*
X163541453Y-120832836D01*
X164074359Y-120612099D01*
X164185263Y-120334868D01*
X163140000Y-119289605D01*
X162094737Y-120334868D01*
X161033951Y-120334868D01*
X160875903Y-120269241D01*
X160326507Y-120268761D01*
X159818749Y-120478563D01*
X159429928Y-120866705D01*
X159219241Y-121374097D01*
X159218761Y-121923493D01*
X155906000Y-121923493D01*
X155906000Y-120334868D01*
X157014737Y-120334868D01*
X157125641Y-120612099D01*
X157771593Y-120855323D01*
X158461453Y-120832836D01*
X158994359Y-120612099D01*
X159105263Y-120334868D01*
X158060000Y-119289605D01*
X157014737Y-120334868D01*
X155906000Y-120334868D01*
X155906000Y-118821593D01*
X156314677Y-118821593D01*
X156337164Y-119511453D01*
X156557901Y-120044359D01*
X156835132Y-120155263D01*
X157880395Y-119110000D01*
X158239605Y-119110000D01*
X159284868Y-120155263D01*
X159562099Y-120044359D01*
X159805323Y-119398407D01*
X159786521Y-118821593D01*
X161394677Y-118821593D01*
X161417164Y-119511453D01*
X161637901Y-120044359D01*
X161915132Y-120155263D01*
X162960395Y-119110000D01*
X163319605Y-119110000D01*
X164364868Y-120155263D01*
X164642099Y-120044359D01*
X164885323Y-119398407D01*
X164862836Y-118708547D01*
X164642099Y-118175641D01*
X164364868Y-118064737D01*
X163319605Y-119110000D01*
X162960395Y-119110000D01*
X161915132Y-118064737D01*
X161637901Y-118175641D01*
X161394677Y-118821593D01*
X159786521Y-118821593D01*
X159782836Y-118708547D01*
X159562099Y-118175641D01*
X159284868Y-118064737D01*
X158239605Y-119110000D01*
X157880395Y-119110000D01*
X156835132Y-118064737D01*
X156557901Y-118175641D01*
X156314677Y-118821593D01*
X155906000Y-118821593D01*
X155906000Y-117885132D01*
X157014737Y-117885132D01*
X158060000Y-118930395D01*
X159105263Y-117885132D01*
X162094737Y-117885132D01*
X163140000Y-118930395D01*
X164185263Y-117885132D01*
X164074359Y-117607901D01*
X163428407Y-117364677D01*
X162738547Y-117387164D01*
X162205641Y-117607901D01*
X162094737Y-117885132D01*
X159105263Y-117885132D01*
X158994359Y-117607901D01*
X158348407Y-117364677D01*
X157658547Y-117387164D01*
X157125641Y-117607901D01*
X157014737Y-117885132D01*
X155906000Y-117885132D01*
X155906000Y-109584708D01*
X157202836Y-109584708D01*
X157469477Y-110230029D01*
X157962775Y-110724188D01*
X158607629Y-110991955D01*
X159305867Y-110992565D01*
X159951188Y-110725924D01*
X160445347Y-110232626D01*
X160713114Y-109587772D01*
X160713724Y-108889534D01*
X160447083Y-108244213D01*
X159953785Y-107750054D01*
X159308931Y-107482287D01*
X158610693Y-107481677D01*
X157965372Y-107748318D01*
X157471213Y-108241616D01*
X157203446Y-108886470D01*
X157202836Y-109584708D01*
X155906000Y-109584708D01*
X155906000Y-108644459D01*
X156107897Y-107629455D01*
X156657431Y-106807021D01*
X157481507Y-106256390D01*
X158446830Y-106056000D01*
X217505089Y-106056000D01*
X218500994Y-106254098D01*
G36*
X175452718Y-108685579D02*
X175809663Y-109043147D01*
X176276273Y-109236900D01*
X176278488Y-109236902D01*
X175811542Y-109429839D01*
X175453974Y-109786784D01*
X175403753Y-109907729D01*
X175317539Y-109699588D01*
X175062196Y-109614530D01*
X174169605Y-110507121D01*
X175062196Y-111399712D01*
X175317539Y-111314654D01*
X175398229Y-111093704D01*
X175452718Y-111225579D01*
X175809663Y-111583147D01*
X176276273Y-111776900D01*
X176781510Y-111777341D01*
X177248458Y-111584403D01*
X177606026Y-111227458D01*
X177799779Y-110760848D01*
X177799781Y-110758633D01*
X177992718Y-111225579D01*
X178349663Y-111583147D01*
X178816273Y-111776900D01*
X179321510Y-111777341D01*
X179788458Y-111584403D01*
X180146026Y-111227458D01*
X180339779Y-110760848D01*
X180339781Y-110758633D01*
X180532718Y-111225579D01*
X180889663Y-111583147D01*
X181356273Y-111776900D01*
X181861510Y-111777341D01*
X182328458Y-111584403D01*
X182686026Y-111227458D01*
X182879779Y-110760848D01*
X182879781Y-110758633D01*
X183072718Y-111225579D01*
X183429663Y-111583147D01*
X183896273Y-111776900D01*
X184401510Y-111777341D01*
X184540948Y-111719727D01*
X189069088Y-116247867D01*
X189068882Y-116484865D01*
X189169000Y-116727171D01*
X189169000Y-120494000D01*
X184884590Y-120494000D01*
X184356000Y-119965410D01*
X184356000Y-118707123D01*
X184426987Y-118636259D01*
X184530882Y-118386054D01*
X184531118Y-118115135D01*
X184427661Y-117864748D01*
X184236259Y-117673013D01*
X183986054Y-117569118D01*
X183715135Y-117568882D01*
X183464748Y-117672339D01*
X183392962Y-117744000D01*
X182000000Y-117744000D01*
X181806362Y-117782517D01*
X181684802Y-117863741D01*
X181642204Y-117892204D01*
X180065439Y-119468969D01*
X179965135Y-119468882D01*
X179714748Y-119572339D01*
X179523013Y-119763741D01*
X179419118Y-120013946D01*
X179418882Y-120284865D01*
X179522339Y-120535252D01*
X179713741Y-120726987D01*
X179963946Y-120830882D01*
X180234865Y-120831118D01*
X180485252Y-120727661D01*
X180676987Y-120536259D01*
X180780882Y-120286054D01*
X180780970Y-120184622D01*
X182209592Y-118756000D01*
X183344000Y-118756000D01*
X183344000Y-120175002D01*
X183382517Y-120368640D01*
X183492204Y-120532798D01*
X184317202Y-121357796D01*
X184481360Y-121467483D01*
X184674998Y-121506000D01*
X189169000Y-121506000D01*
X189169000Y-123244000D01*
X188957123Y-123244000D01*
X188886259Y-123173013D01*
X188636054Y-123069118D01*
X188365135Y-123068882D01*
X188114748Y-123172339D01*
X187923013Y-123363741D01*
X187819118Y-123613946D01*
X187818882Y-123884865D01*
X187922339Y-124135252D01*
X188113741Y-124326987D01*
X188363946Y-124430882D01*
X188634865Y-124431118D01*
X188885252Y-124327661D01*
X188957038Y-124256000D01*
X189169000Y-124256000D01*
X189169000Y-125557057D01*
X188968135Y-125556882D01*
X188717748Y-125660339D01*
X188526013Y-125851741D01*
X188422118Y-126101946D01*
X188422030Y-126203378D01*
X187544328Y-127081080D01*
X187317135Y-127080882D01*
X187066748Y-127184339D01*
X186875013Y-127375741D01*
X186771118Y-127625946D01*
X186770882Y-127896865D01*
X186874339Y-128147252D01*
X187065741Y-128338987D01*
X187315946Y-128442882D01*
X187586865Y-128443118D01*
X187837252Y-128339661D01*
X188028987Y-128148259D01*
X188114664Y-127941928D01*
X189137561Y-126919031D01*
X189237865Y-126919118D01*
X189318999Y-126885594D01*
X189318999Y-128186001D01*
X189363225Y-128408340D01*
X189489170Y-128596830D01*
X191003170Y-130110830D01*
X191191660Y-130236775D01*
X191413999Y-130281001D01*
X193471735Y-130281001D01*
X193550000Y-130265433D01*
X193550000Y-130294000D01*
X183600000Y-130294000D01*
X183406362Y-130332517D01*
X183242204Y-130442204D01*
X180465418Y-133218990D01*
X174284582Y-133218990D01*
X173631031Y-132565439D01*
X173631118Y-132465135D01*
X173527661Y-132214748D01*
X173456000Y-132142962D01*
X173456000Y-125609592D01*
X175734561Y-123331031D01*
X175834865Y-123331118D01*
X176085252Y-123227661D01*
X176276987Y-123036259D01*
X176380882Y-122786054D01*
X176381118Y-122515135D01*
X176277661Y-122264748D01*
X176086259Y-122073013D01*
X175844129Y-121972471D01*
X174406523Y-120534865D01*
X176418882Y-120534865D01*
X176522339Y-120785252D01*
X176713741Y-120976987D01*
X176963946Y-121080882D01*
X177234865Y-121081118D01*
X177485252Y-120977661D01*
X177676987Y-120786259D01*
X177780882Y-120536054D01*
X177781002Y-120398236D01*
X177817483Y-120343638D01*
X177856000Y-120150000D01*
X177856000Y-119007123D01*
X177926987Y-118936259D01*
X178030882Y-118686054D01*
X178031118Y-118415135D01*
X177927661Y-118164748D01*
X177736259Y-117973013D01*
X177486054Y-117869118D01*
X177215135Y-117868882D01*
X176964748Y-117972339D01*
X176773013Y-118163741D01*
X176669118Y-118413946D01*
X176668882Y-118684865D01*
X176772339Y-118935252D01*
X176844000Y-119007038D01*
X176844000Y-119768934D01*
X176714748Y-119822339D01*
X176523013Y-120013741D01*
X176419118Y-120263946D01*
X176418882Y-120534865D01*
X174406523Y-120534865D01*
X173230829Y-119359171D01*
X173042339Y-119233226D01*
X172820000Y-119189000D01*
X170262236Y-119189000D01*
X170256259Y-119183013D01*
X170006054Y-119079118D01*
X169735135Y-119078882D01*
X169484748Y-119182339D01*
X169293013Y-119373741D01*
X169258504Y-119456846D01*
X162741000Y-112939342D01*
X162741000Y-111720591D01*
X162789866Y-111753980D01*
X162941000Y-111784585D01*
X164719000Y-111784585D01*
X164860190Y-111758018D01*
X164989865Y-111674575D01*
X165076859Y-111547255D01*
X165107464Y-111396121D01*
X165107464Y-110777228D01*
X165292718Y-111225579D01*
X165649663Y-111583147D01*
X166116273Y-111776900D01*
X166621510Y-111777341D01*
X167088458Y-111584403D01*
X167446026Y-111227458D01*
X167639779Y-110760848D01*
X167639781Y-110758633D01*
X167832718Y-111225579D01*
X168189663Y-111583147D01*
X168656273Y-111776900D01*
X169161510Y-111777341D01*
X169628458Y-111584403D01*
X169986026Y-111227458D01*
X170179779Y-110760848D01*
X170179781Y-110758633D01*
X170372718Y-111225579D01*
X170729663Y-111583147D01*
X171196273Y-111776900D01*
X171701510Y-111777341D01*
X172168458Y-111584403D01*
X172173552Y-111579317D01*
X173097409Y-111579317D01*
X173182467Y-111834660D01*
X173751965Y-112042637D01*
X174357700Y-112016844D01*
X174797533Y-111834660D01*
X174882591Y-111579317D01*
X173990000Y-110686726D01*
X173097409Y-111579317D01*
X172173552Y-111579317D01*
X172526026Y-111227458D01*
X172576247Y-111106513D01*
X172662461Y-111314654D01*
X172917804Y-111399712D01*
X173810395Y-110507121D01*
X172917804Y-109614530D01*
X172662461Y-109699588D01*
X172581771Y-109920538D01*
X172527282Y-109788663D01*
X172170337Y-109431095D01*
X171703727Y-109237342D01*
X171701512Y-109237340D01*
X172168458Y-109044403D01*
X172526026Y-108687458D01*
X172719779Y-108220848D01*
X172719781Y-108218633D01*
X172912718Y-108685579D01*
X173269663Y-109043147D01*
X173390608Y-109093368D01*
X173182467Y-109179582D01*
X173097409Y-109434925D01*
X173990000Y-110327516D01*
X174882591Y-109434925D01*
X174797533Y-109179582D01*
X174576583Y-109098892D01*
X174708458Y-109044403D01*
X175066026Y-108687458D01*
X175259779Y-108220848D01*
X175259781Y-108218633D01*
X175452718Y-108685579D01*
X175452718Y-108685579D01*
G37*
X175452718Y-108685579D02*
X175809663Y-109043147D01*
X176276273Y-109236900D01*
X176278488Y-109236902D01*
X175811542Y-109429839D01*
X175453974Y-109786784D01*
X175403753Y-109907729D01*
X175317539Y-109699588D01*
X175062196Y-109614530D01*
X174169605Y-110507121D01*
X175062196Y-111399712D01*
X175317539Y-111314654D01*
X175398229Y-111093704D01*
X175452718Y-111225579D01*
X175809663Y-111583147D01*
X176276273Y-111776900D01*
X176781510Y-111777341D01*
X177248458Y-111584403D01*
X177606026Y-111227458D01*
X177799779Y-110760848D01*
X177799781Y-110758633D01*
X177992718Y-111225579D01*
X178349663Y-111583147D01*
X178816273Y-111776900D01*
X179321510Y-111777341D01*
X179788458Y-111584403D01*
X180146026Y-111227458D01*
X180339779Y-110760848D01*
X180339781Y-110758633D01*
X180532718Y-111225579D01*
X180889663Y-111583147D01*
X181356273Y-111776900D01*
X181861510Y-111777341D01*
X182328458Y-111584403D01*
X182686026Y-111227458D01*
X182879779Y-110760848D01*
X182879781Y-110758633D01*
X183072718Y-111225579D01*
X183429663Y-111583147D01*
X183896273Y-111776900D01*
X184401510Y-111777341D01*
X184540948Y-111719727D01*
X189069088Y-116247867D01*
X189068882Y-116484865D01*
X189169000Y-116727171D01*
X189169000Y-120494000D01*
X184884590Y-120494000D01*
X184356000Y-119965410D01*
X184356000Y-118707123D01*
X184426987Y-118636259D01*
X184530882Y-118386054D01*
X184531118Y-118115135D01*
X184427661Y-117864748D01*
X184236259Y-117673013D01*
X183986054Y-117569118D01*
X183715135Y-117568882D01*
X183464748Y-117672339D01*
X183392962Y-117744000D01*
X182000000Y-117744000D01*
X181806362Y-117782517D01*
X181684802Y-117863741D01*
X181642204Y-117892204D01*
X180065439Y-119468969D01*
X179965135Y-119468882D01*
X179714748Y-119572339D01*
X179523013Y-119763741D01*
X179419118Y-120013946D01*
X179418882Y-120284865D01*
X179522339Y-120535252D01*
X179713741Y-120726987D01*
X179963946Y-120830882D01*
X180234865Y-120831118D01*
X180485252Y-120727661D01*
X180676987Y-120536259D01*
X180780882Y-120286054D01*
X180780970Y-120184622D01*
X182209592Y-118756000D01*
X183344000Y-118756000D01*
X183344000Y-120175002D01*
X183382517Y-120368640D01*
X183492204Y-120532798D01*
X184317202Y-121357796D01*
X184481360Y-121467483D01*
X184674998Y-121506000D01*
X189169000Y-121506000D01*
X189169000Y-123244000D01*
X188957123Y-123244000D01*
X188886259Y-123173013D01*
X188636054Y-123069118D01*
X188365135Y-123068882D01*
X188114748Y-123172339D01*
X187923013Y-123363741D01*
X187819118Y-123613946D01*
X187818882Y-123884865D01*
X187922339Y-124135252D01*
X188113741Y-124326987D01*
X188363946Y-124430882D01*
X188634865Y-124431118D01*
X188885252Y-124327661D01*
X188957038Y-124256000D01*
X189169000Y-124256000D01*
X189169000Y-125557057D01*
X188968135Y-125556882D01*
X188717748Y-125660339D01*
X188526013Y-125851741D01*
X188422118Y-126101946D01*
X188422030Y-126203378D01*
X187544328Y-127081080D01*
X187317135Y-127080882D01*
X187066748Y-127184339D01*
X186875013Y-127375741D01*
X186771118Y-127625946D01*
X186770882Y-127896865D01*
X186874339Y-128147252D01*
X187065741Y-128338987D01*
X187315946Y-128442882D01*
X187586865Y-128443118D01*
X187837252Y-128339661D01*
X188028987Y-128148259D01*
X188114664Y-127941928D01*
X189137561Y-126919031D01*
X189237865Y-126919118D01*
X189318999Y-126885594D01*
X189318999Y-128186001D01*
X189363225Y-128408340D01*
X189489170Y-128596830D01*
X191003170Y-130110830D01*
X191191660Y-130236775D01*
X191413999Y-130281001D01*
X193471735Y-130281001D01*
X193550000Y-130265433D01*
X193550000Y-130294000D01*
X183600000Y-130294000D01*
X183406362Y-130332517D01*
X183242204Y-130442204D01*
X180465418Y-133218990D01*
X174284582Y-133218990D01*
X173631031Y-132565439D01*
X173631118Y-132465135D01*
X173527661Y-132214748D01*
X173456000Y-132142962D01*
X173456000Y-125609592D01*
X175734561Y-123331031D01*
X175834865Y-123331118D01*
X176085252Y-123227661D01*
X176276987Y-123036259D01*
X176380882Y-122786054D01*
X176381118Y-122515135D01*
X176277661Y-122264748D01*
X176086259Y-122073013D01*
X175844129Y-121972471D01*
X174406523Y-120534865D01*
X176418882Y-120534865D01*
X176522339Y-120785252D01*
X176713741Y-120976987D01*
X176963946Y-121080882D01*
X177234865Y-121081118D01*
X177485252Y-120977661D01*
X177676987Y-120786259D01*
X177780882Y-120536054D01*
X177781002Y-120398236D01*
X177817483Y-120343638D01*
X177856000Y-120150000D01*
X177856000Y-119007123D01*
X177926987Y-118936259D01*
X178030882Y-118686054D01*
X178031118Y-118415135D01*
X177927661Y-118164748D01*
X177736259Y-117973013D01*
X177486054Y-117869118D01*
X177215135Y-117868882D01*
X176964748Y-117972339D01*
X176773013Y-118163741D01*
X176669118Y-118413946D01*
X176668882Y-118684865D01*
X176772339Y-118935252D01*
X176844000Y-119007038D01*
X176844000Y-119768934D01*
X176714748Y-119822339D01*
X176523013Y-120013741D01*
X176419118Y-120263946D01*
X176418882Y-120534865D01*
X174406523Y-120534865D01*
X173230829Y-119359171D01*
X173042339Y-119233226D01*
X172820000Y-119189000D01*
X170262236Y-119189000D01*
X170256259Y-119183013D01*
X170006054Y-119079118D01*
X169735135Y-119078882D01*
X169484748Y-119182339D01*
X169293013Y-119373741D01*
X169258504Y-119456846D01*
X162741000Y-112939342D01*
X162741000Y-111720591D01*
X162789866Y-111753980D01*
X162941000Y-111784585D01*
X164719000Y-111784585D01*
X164860190Y-111758018D01*
X164989865Y-111674575D01*
X165076859Y-111547255D01*
X165107464Y-111396121D01*
X165107464Y-110777228D01*
X165292718Y-111225579D01*
X165649663Y-111583147D01*
X166116273Y-111776900D01*
X166621510Y-111777341D01*
X167088458Y-111584403D01*
X167446026Y-111227458D01*
X167639779Y-110760848D01*
X167639781Y-110758633D01*
X167832718Y-111225579D01*
X168189663Y-111583147D01*
X168656273Y-111776900D01*
X169161510Y-111777341D01*
X169628458Y-111584403D01*
X169986026Y-111227458D01*
X170179779Y-110760848D01*
X170179781Y-110758633D01*
X170372718Y-111225579D01*
X170729663Y-111583147D01*
X171196273Y-111776900D01*
X171701510Y-111777341D01*
X172168458Y-111584403D01*
X172173552Y-111579317D01*
X173097409Y-111579317D01*
X173182467Y-111834660D01*
X173751965Y-112042637D01*
X174357700Y-112016844D01*
X174797533Y-111834660D01*
X174882591Y-111579317D01*
X173990000Y-110686726D01*
X173097409Y-111579317D01*
X172173552Y-111579317D01*
X172526026Y-111227458D01*
X172576247Y-111106513D01*
X172662461Y-111314654D01*
X172917804Y-111399712D01*
X173810395Y-110507121D01*
X172917804Y-109614530D01*
X172662461Y-109699588D01*
X172581771Y-109920538D01*
X172527282Y-109788663D01*
X172170337Y-109431095D01*
X171703727Y-109237342D01*
X171701512Y-109237340D01*
X172168458Y-109044403D01*
X172526026Y-108687458D01*
X172719779Y-108220848D01*
X172719781Y-108218633D01*
X172912718Y-108685579D01*
X173269663Y-109043147D01*
X173390608Y-109093368D01*
X173182467Y-109179582D01*
X173097409Y-109434925D01*
X173990000Y-110327516D01*
X174882591Y-109434925D01*
X174797533Y-109179582D01*
X174576583Y-109098892D01*
X174708458Y-109044403D01*
X175066026Y-108687458D01*
X175259779Y-108220848D01*
X175259781Y-108218633D01*
X175452718Y-108685579D01*
G36*
X174931375Y-122703033D02*
X172592204Y-125042204D01*
X172482517Y-125206362D01*
X172444000Y-125400000D01*
X172444000Y-132142877D01*
X172373013Y-132213741D01*
X172366084Y-132230428D01*
X172211000Y-132075344D01*
X172211000Y-124750273D01*
X172221000Y-124700000D01*
X172211000Y-124649727D01*
X172211000Y-122650000D01*
X172166774Y-122427661D01*
X172040829Y-122239171D01*
X170173216Y-120371558D01*
X170222969Y-120351000D01*
X172579342Y-120351000D01*
X174931375Y-122703033D01*
X174931375Y-122703033D01*
G37*
X174931375Y-122703033D02*
X172592204Y-125042204D01*
X172482517Y-125206362D01*
X172444000Y-125400000D01*
X172444000Y-132142877D01*
X172373013Y-132213741D01*
X172366084Y-132230428D01*
X172211000Y-132075344D01*
X172211000Y-124750273D01*
X172221000Y-124700000D01*
X172211000Y-124649727D01*
X172211000Y-122650000D01*
X172166774Y-122427661D01*
X172040829Y-122239171D01*
X170173216Y-120371558D01*
X170222969Y-120351000D01*
X172579342Y-120351000D01*
X174931375Y-122703033D01*
G36*
X211903323Y-113118915D02*
X211865135Y-113118882D01*
X211614748Y-113222339D01*
X211423013Y-113413741D01*
X211319118Y-113663946D01*
X211318882Y-113934865D01*
X211422339Y-114185252D01*
X211613741Y-114376987D01*
X211863946Y-114480882D01*
X211965378Y-114480970D01*
X213242204Y-115757796D01*
X213406362Y-115867483D01*
X213600000Y-115906000D01*
X217300000Y-115906000D01*
X217493638Y-115867483D01*
X217657796Y-115757796D01*
X218004611Y-115410981D01*
X218085252Y-115377661D01*
X218276987Y-115186259D01*
X218294000Y-115145287D01*
X218294000Y-119965408D01*
X217878368Y-120381040D01*
X217842204Y-120405204D01*
X217008439Y-121238969D01*
X216908135Y-121238882D01*
X216657748Y-121342339D01*
X216466013Y-121533741D01*
X216362118Y-121783946D01*
X216361882Y-122054865D01*
X216465339Y-122305252D01*
X216656741Y-122496987D01*
X216906946Y-122600882D01*
X216944269Y-122600915D01*
X216924817Y-122618642D01*
X216725083Y-123043947D01*
X216717296Y-123004800D01*
X216450448Y-122605435D01*
X216051083Y-122338587D01*
X215580000Y-122244883D01*
X215129988Y-122334396D01*
X214087797Y-121292205D01*
X213923639Y-121182518D01*
X213730001Y-121144001D01*
X194746589Y-121144001D01*
X196384590Y-119506000D01*
X198042877Y-119506000D01*
X198113741Y-119576987D01*
X198363946Y-119680882D01*
X198634865Y-119681118D01*
X198885252Y-119577661D01*
X199076987Y-119386259D01*
X199180882Y-119136054D01*
X199181118Y-118865135D01*
X199077661Y-118614748D01*
X198886259Y-118423013D01*
X198636054Y-118319118D01*
X198365135Y-118318882D01*
X198114748Y-118422339D01*
X198042962Y-118494000D01*
X196174998Y-118494000D01*
X195981360Y-118532517D01*
X195868697Y-118607796D01*
X195817202Y-118642204D01*
X193167203Y-121292203D01*
X193057516Y-121456361D01*
X193018999Y-121649999D01*
X193018999Y-122250001D01*
X193057516Y-122443639D01*
X193167203Y-122607797D01*
X193492203Y-122932797D01*
X193656361Y-123042484D01*
X193849999Y-123081001D01*
X194450001Y-123081001D01*
X194643639Y-123042484D01*
X194807797Y-122932797D01*
X194909595Y-122830999D01*
X205432799Y-122830999D01*
X205419118Y-122863946D01*
X205418882Y-123134865D01*
X205522339Y-123385252D01*
X205713741Y-123576987D01*
X205963946Y-123680882D01*
X206065378Y-123680970D01*
X206242204Y-123857796D01*
X206406362Y-123967483D01*
X206600000Y-124006000D01*
X207864000Y-124006000D01*
X207864000Y-127350408D01*
X207285325Y-127929083D01*
X207055135Y-127928882D01*
X206804748Y-128032339D01*
X206613013Y-128223741D01*
X206509118Y-128473946D01*
X206508882Y-128744865D01*
X206612339Y-128995252D01*
X206684000Y-129067038D01*
X206684000Y-130294000D01*
X194562000Y-130294000D01*
X194562000Y-129997123D01*
X194632987Y-129926259D01*
X194736882Y-129676054D01*
X194737118Y-129405135D01*
X194633661Y-129154748D01*
X194442259Y-128963013D01*
X194192054Y-128859118D01*
X193921135Y-128858882D01*
X193678829Y-128959000D01*
X193631736Y-128959000D01*
X193409397Y-129003226D01*
X193236127Y-129119001D01*
X191654657Y-129119001D01*
X190480999Y-127945343D01*
X190480999Y-127096591D01*
X190842204Y-127457796D01*
X191006362Y-127567483D01*
X191200000Y-127606000D01*
X196400000Y-127606000D01*
X196593638Y-127567483D01*
X196757796Y-127457796D01*
X197401969Y-126813623D01*
X197563946Y-126880882D01*
X197834865Y-126881118D01*
X198085252Y-126777661D01*
X198276987Y-126586259D01*
X198380882Y-126336054D01*
X198381118Y-126065135D01*
X198277661Y-125814748D01*
X198086259Y-125623013D01*
X197836054Y-125519118D01*
X197565135Y-125518882D01*
X197314748Y-125622339D01*
X197228769Y-125708169D01*
X197106362Y-125732517D01*
X196942204Y-125842204D01*
X196190408Y-126594000D01*
X191574698Y-126594000D01*
X191735252Y-126527661D01*
X191926987Y-126336259D01*
X192030882Y-126086054D01*
X192031118Y-125815135D01*
X191927661Y-125564748D01*
X191856000Y-125492962D01*
X191856000Y-120518590D01*
X197280840Y-115093750D01*
X197651000Y-115093750D01*
X197651000Y-115784309D01*
X197747673Y-116017698D01*
X197926301Y-116196327D01*
X198159690Y-116293000D01*
X198850250Y-116293000D01*
X199009000Y-116134250D01*
X199009000Y-114935000D01*
X197809750Y-114935000D01*
X197651000Y-115093750D01*
X197280840Y-115093750D01*
X197751670Y-114622920D01*
X197809750Y-114681000D01*
X199009000Y-114681000D01*
X199009000Y-114661000D01*
X199263000Y-114661000D01*
X199263000Y-114681000D01*
X199283000Y-114681000D01*
X199283000Y-114935000D01*
X199263000Y-114935000D01*
X199263000Y-116134250D01*
X199421750Y-116293000D01*
X200112310Y-116293000D01*
X200345699Y-116196327D01*
X200524327Y-116017698D01*
X200621000Y-115784309D01*
X200621000Y-115426364D01*
X200805552Y-115702565D01*
X201204917Y-115969413D01*
X201676000Y-116063117D01*
X202147083Y-115969413D01*
X202546448Y-115702565D01*
X202813296Y-115303200D01*
X202907000Y-114832117D01*
X202907000Y-114783883D01*
X202985000Y-114783883D01*
X202985000Y-114832117D01*
X203078704Y-115303200D01*
X203345552Y-115702565D01*
X203710000Y-115946082D01*
X203710000Y-117166000D01*
X203748517Y-117359638D01*
X203858204Y-117523796D01*
X206518969Y-120184561D01*
X206518882Y-120284865D01*
X206622339Y-120535252D01*
X206813741Y-120726987D01*
X207063946Y-120830882D01*
X207334865Y-120831118D01*
X207585252Y-120727661D01*
X207776987Y-120536259D01*
X207880882Y-120286054D01*
X207881118Y-120015135D01*
X207777661Y-119764748D01*
X207586259Y-119573013D01*
X207336054Y-119469118D01*
X207234622Y-119469030D01*
X204722000Y-116956408D01*
X204722000Y-115946082D01*
X205086448Y-115702565D01*
X205353296Y-115303200D01*
X205447000Y-114832117D01*
X205447000Y-114783883D01*
X205353296Y-114312800D01*
X205086448Y-113913435D01*
X204687083Y-113646587D01*
X204216000Y-113552883D01*
X203744917Y-113646587D01*
X203345552Y-113913435D01*
X203078704Y-114312800D01*
X202985000Y-114783883D01*
X202907000Y-114783883D01*
X202813296Y-114312800D01*
X202546448Y-113913435D01*
X202147083Y-113646587D01*
X201676000Y-113552883D01*
X201225988Y-113642396D01*
X200375796Y-112792204D01*
X200211638Y-112682517D01*
X200018000Y-112644000D01*
X198946594Y-112644000D01*
X198984594Y-112606000D01*
X211390408Y-112606000D01*
X211903323Y-113118915D01*
X211903323Y-113118915D01*
G37*
X211903323Y-113118915D02*
X211865135Y-113118882D01*
X211614748Y-113222339D01*
X211423013Y-113413741D01*
X211319118Y-113663946D01*
X211318882Y-113934865D01*
X211422339Y-114185252D01*
X211613741Y-114376987D01*
X211863946Y-114480882D01*
X211965378Y-114480970D01*
X213242204Y-115757796D01*
X213406362Y-115867483D01*
X213600000Y-115906000D01*
X217300000Y-115906000D01*
X217493638Y-115867483D01*
X217657796Y-115757796D01*
X218004611Y-115410981D01*
X218085252Y-115377661D01*
X218276987Y-115186259D01*
X218294000Y-115145287D01*
X218294000Y-119965408D01*
X217878368Y-120381040D01*
X217842204Y-120405204D01*
X217008439Y-121238969D01*
X216908135Y-121238882D01*
X216657748Y-121342339D01*
X216466013Y-121533741D01*
X216362118Y-121783946D01*
X216361882Y-122054865D01*
X216465339Y-122305252D01*
X216656741Y-122496987D01*
X216906946Y-122600882D01*
X216944269Y-122600915D01*
X216924817Y-122618642D01*
X216725083Y-123043947D01*
X216717296Y-123004800D01*
X216450448Y-122605435D01*
X216051083Y-122338587D01*
X215580000Y-122244883D01*
X215129988Y-122334396D01*
X214087797Y-121292205D01*
X213923639Y-121182518D01*
X213730001Y-121144001D01*
X194746589Y-121144001D01*
X196384590Y-119506000D01*
X198042877Y-119506000D01*
X198113741Y-119576987D01*
X198363946Y-119680882D01*
X198634865Y-119681118D01*
X198885252Y-119577661D01*
X199076987Y-119386259D01*
X199180882Y-119136054D01*
X199181118Y-118865135D01*
X199077661Y-118614748D01*
X198886259Y-118423013D01*
X198636054Y-118319118D01*
X198365135Y-118318882D01*
X198114748Y-118422339D01*
X198042962Y-118494000D01*
X196174998Y-118494000D01*
X195981360Y-118532517D01*
X195868697Y-118607796D01*
X195817202Y-118642204D01*
X193167203Y-121292203D01*
X193057516Y-121456361D01*
X193018999Y-121649999D01*
X193018999Y-122250001D01*
X193057516Y-122443639D01*
X193167203Y-122607797D01*
X193492203Y-122932797D01*
X193656361Y-123042484D01*
X193849999Y-123081001D01*
X194450001Y-123081001D01*
X194643639Y-123042484D01*
X194807797Y-122932797D01*
X194909595Y-122830999D01*
X205432799Y-122830999D01*
X205419118Y-122863946D01*
X205418882Y-123134865D01*
X205522339Y-123385252D01*
X205713741Y-123576987D01*
X205963946Y-123680882D01*
X206065378Y-123680970D01*
X206242204Y-123857796D01*
X206406362Y-123967483D01*
X206600000Y-124006000D01*
X207864000Y-124006000D01*
X207864000Y-127350408D01*
X207285325Y-127929083D01*
X207055135Y-127928882D01*
X206804748Y-128032339D01*
X206613013Y-128223741D01*
X206509118Y-128473946D01*
X206508882Y-128744865D01*
X206612339Y-128995252D01*
X206684000Y-129067038D01*
X206684000Y-130294000D01*
X194562000Y-130294000D01*
X194562000Y-129997123D01*
X194632987Y-129926259D01*
X194736882Y-129676054D01*
X194737118Y-129405135D01*
X194633661Y-129154748D01*
X194442259Y-128963013D01*
X194192054Y-128859118D01*
X193921135Y-128858882D01*
X193678829Y-128959000D01*
X193631736Y-128959000D01*
X193409397Y-129003226D01*
X193236127Y-129119001D01*
X191654657Y-129119001D01*
X190480999Y-127945343D01*
X190480999Y-127096591D01*
X190842204Y-127457796D01*
X191006362Y-127567483D01*
X191200000Y-127606000D01*
X196400000Y-127606000D01*
X196593638Y-127567483D01*
X196757796Y-127457796D01*
X197401969Y-126813623D01*
X197563946Y-126880882D01*
X197834865Y-126881118D01*
X198085252Y-126777661D01*
X198276987Y-126586259D01*
X198380882Y-126336054D01*
X198381118Y-126065135D01*
X198277661Y-125814748D01*
X198086259Y-125623013D01*
X197836054Y-125519118D01*
X197565135Y-125518882D01*
X197314748Y-125622339D01*
X197228769Y-125708169D01*
X197106362Y-125732517D01*
X196942204Y-125842204D01*
X196190408Y-126594000D01*
X191574698Y-126594000D01*
X191735252Y-126527661D01*
X191926987Y-126336259D01*
X192030882Y-126086054D01*
X192031118Y-125815135D01*
X191927661Y-125564748D01*
X191856000Y-125492962D01*
X191856000Y-120518590D01*
X197280840Y-115093750D01*
X197651000Y-115093750D01*
X197651000Y-115784309D01*
X197747673Y-116017698D01*
X197926301Y-116196327D01*
X198159690Y-116293000D01*
X198850250Y-116293000D01*
X199009000Y-116134250D01*
X199009000Y-114935000D01*
X197809750Y-114935000D01*
X197651000Y-115093750D01*
X197280840Y-115093750D01*
X197751670Y-114622920D01*
X197809750Y-114681000D01*
X199009000Y-114681000D01*
X199009000Y-114661000D01*
X199263000Y-114661000D01*
X199263000Y-114681000D01*
X199283000Y-114681000D01*
X199283000Y-114935000D01*
X199263000Y-114935000D01*
X199263000Y-116134250D01*
X199421750Y-116293000D01*
X200112310Y-116293000D01*
X200345699Y-116196327D01*
X200524327Y-116017698D01*
X200621000Y-115784309D01*
X200621000Y-115426364D01*
X200805552Y-115702565D01*
X201204917Y-115969413D01*
X201676000Y-116063117D01*
X202147083Y-115969413D01*
X202546448Y-115702565D01*
X202813296Y-115303200D01*
X202907000Y-114832117D01*
X202907000Y-114783883D01*
X202985000Y-114783883D01*
X202985000Y-114832117D01*
X203078704Y-115303200D01*
X203345552Y-115702565D01*
X203710000Y-115946082D01*
X203710000Y-117166000D01*
X203748517Y-117359638D01*
X203858204Y-117523796D01*
X206518969Y-120184561D01*
X206518882Y-120284865D01*
X206622339Y-120535252D01*
X206813741Y-120726987D01*
X207063946Y-120830882D01*
X207334865Y-120831118D01*
X207585252Y-120727661D01*
X207776987Y-120536259D01*
X207880882Y-120286054D01*
X207881118Y-120015135D01*
X207777661Y-119764748D01*
X207586259Y-119573013D01*
X207336054Y-119469118D01*
X207234622Y-119469030D01*
X204722000Y-116956408D01*
X204722000Y-115946082D01*
X205086448Y-115702565D01*
X205353296Y-115303200D01*
X205447000Y-114832117D01*
X205447000Y-114783883D01*
X205353296Y-114312800D01*
X205086448Y-113913435D01*
X204687083Y-113646587D01*
X204216000Y-113552883D01*
X203744917Y-113646587D01*
X203345552Y-113913435D01*
X203078704Y-114312800D01*
X202985000Y-114783883D01*
X202907000Y-114783883D01*
X202813296Y-114312800D01*
X202546448Y-113913435D01*
X202147083Y-113646587D01*
X201676000Y-113552883D01*
X201225988Y-113642396D01*
X200375796Y-112792204D01*
X200211638Y-112682517D01*
X200018000Y-112644000D01*
X198946594Y-112644000D01*
X198984594Y-112606000D01*
X211390408Y-112606000D01*
X211903323Y-113118915D01*
G36*
X195772718Y-108685579D02*
X196129663Y-109043147D01*
X196596273Y-109236900D01*
X196598488Y-109236902D01*
X196131542Y-109429839D01*
X195773974Y-109786784D01*
X195723753Y-109907729D01*
X195637539Y-109699588D01*
X195382196Y-109614530D01*
X194489605Y-110507121D01*
X195382196Y-111399712D01*
X195637539Y-111314654D01*
X195718229Y-111093704D01*
X195772718Y-111225579D01*
X196129663Y-111583147D01*
X196596273Y-111776900D01*
X197101510Y-111777341D01*
X197568458Y-111584403D01*
X197926026Y-111227458D01*
X198119779Y-110760848D01*
X198119781Y-110758633D01*
X198312718Y-111225579D01*
X198669663Y-111583147D01*
X198721452Y-111604652D01*
X198581364Y-111632517D01*
X198417206Y-111742204D01*
X190442204Y-119717206D01*
X190391866Y-119792542D01*
X190342204Y-119842204D01*
X190331000Y-119858972D01*
X190331000Y-116726595D01*
X190430882Y-116486054D01*
X190431118Y-116215135D01*
X190327661Y-115964748D01*
X190296464Y-115933497D01*
X190286774Y-115884782D01*
X190160829Y-115696292D01*
X186103086Y-111638549D01*
X186436273Y-111776900D01*
X186941510Y-111777341D01*
X187408458Y-111584403D01*
X187766026Y-111227458D01*
X187959779Y-110760848D01*
X187959781Y-110758633D01*
X188152718Y-111225579D01*
X188509663Y-111583147D01*
X188976273Y-111776900D01*
X189481510Y-111777341D01*
X189948458Y-111584403D01*
X189953552Y-111579317D01*
X190877409Y-111579317D01*
X190962467Y-111834660D01*
X191531965Y-112042637D01*
X192137700Y-112016844D01*
X192577533Y-111834660D01*
X192662591Y-111579317D01*
X193417409Y-111579317D01*
X193502467Y-111834660D01*
X194071965Y-112042637D01*
X194677700Y-112016844D01*
X195117533Y-111834660D01*
X195202591Y-111579317D01*
X194310000Y-110686726D01*
X193417409Y-111579317D01*
X192662591Y-111579317D01*
X191770000Y-110686726D01*
X190877409Y-111579317D01*
X189953552Y-111579317D01*
X190306026Y-111227458D01*
X190356247Y-111106513D01*
X190442461Y-111314654D01*
X190697804Y-111399712D01*
X191590395Y-110507121D01*
X191949605Y-110507121D01*
X192842196Y-111399712D01*
X193040000Y-111333821D01*
X193237804Y-111399712D01*
X194130395Y-110507121D01*
X193237804Y-109614530D01*
X193040000Y-109680421D01*
X192842196Y-109614530D01*
X191949605Y-110507121D01*
X191590395Y-110507121D01*
X190697804Y-109614530D01*
X190442461Y-109699588D01*
X190361771Y-109920538D01*
X190307282Y-109788663D01*
X189950337Y-109431095D01*
X189483727Y-109237342D01*
X189481512Y-109237340D01*
X189948458Y-109044403D01*
X190306026Y-108687458D01*
X190499779Y-108220848D01*
X190499781Y-108218633D01*
X190692718Y-108685579D01*
X191049663Y-109043147D01*
X191170608Y-109093368D01*
X190962467Y-109179582D01*
X190877409Y-109434925D01*
X191770000Y-110327516D01*
X192662591Y-109434925D01*
X192577533Y-109179582D01*
X192356583Y-109098892D01*
X192488458Y-109044403D01*
X192846026Y-108687458D01*
X193039779Y-108220848D01*
X193039781Y-108218633D01*
X193232718Y-108685579D01*
X193589663Y-109043147D01*
X193710608Y-109093368D01*
X193502467Y-109179582D01*
X193417409Y-109434925D01*
X194310000Y-110327516D01*
X195202591Y-109434925D01*
X195117533Y-109179582D01*
X194896583Y-109098892D01*
X195028458Y-109044403D01*
X195386026Y-108687458D01*
X195579779Y-108220848D01*
X195579781Y-108218633D01*
X195772718Y-108685579D01*
X195772718Y-108685579D01*
G37*
X195772718Y-108685579D02*
X196129663Y-109043147D01*
X196596273Y-109236900D01*
X196598488Y-109236902D01*
X196131542Y-109429839D01*
X195773974Y-109786784D01*
X195723753Y-109907729D01*
X195637539Y-109699588D01*
X195382196Y-109614530D01*
X194489605Y-110507121D01*
X195382196Y-111399712D01*
X195637539Y-111314654D01*
X195718229Y-111093704D01*
X195772718Y-111225579D01*
X196129663Y-111583147D01*
X196596273Y-111776900D01*
X197101510Y-111777341D01*
X197568458Y-111584403D01*
X197926026Y-111227458D01*
X198119779Y-110760848D01*
X198119781Y-110758633D01*
X198312718Y-111225579D01*
X198669663Y-111583147D01*
X198721452Y-111604652D01*
X198581364Y-111632517D01*
X198417206Y-111742204D01*
X190442204Y-119717206D01*
X190391866Y-119792542D01*
X190342204Y-119842204D01*
X190331000Y-119858972D01*
X190331000Y-116726595D01*
X190430882Y-116486054D01*
X190431118Y-116215135D01*
X190327661Y-115964748D01*
X190296464Y-115933497D01*
X190286774Y-115884782D01*
X190160829Y-115696292D01*
X186103086Y-111638549D01*
X186436273Y-111776900D01*
X186941510Y-111777341D01*
X187408458Y-111584403D01*
X187766026Y-111227458D01*
X187959779Y-110760848D01*
X187959781Y-110758633D01*
X188152718Y-111225579D01*
X188509663Y-111583147D01*
X188976273Y-111776900D01*
X189481510Y-111777341D01*
X189948458Y-111584403D01*
X189953552Y-111579317D01*
X190877409Y-111579317D01*
X190962467Y-111834660D01*
X191531965Y-112042637D01*
X192137700Y-112016844D01*
X192577533Y-111834660D01*
X192662591Y-111579317D01*
X193417409Y-111579317D01*
X193502467Y-111834660D01*
X194071965Y-112042637D01*
X194677700Y-112016844D01*
X195117533Y-111834660D01*
X195202591Y-111579317D01*
X194310000Y-110686726D01*
X193417409Y-111579317D01*
X192662591Y-111579317D01*
X191770000Y-110686726D01*
X190877409Y-111579317D01*
X189953552Y-111579317D01*
X190306026Y-111227458D01*
X190356247Y-111106513D01*
X190442461Y-111314654D01*
X190697804Y-111399712D01*
X191590395Y-110507121D01*
X191949605Y-110507121D01*
X192842196Y-111399712D01*
X193040000Y-111333821D01*
X193237804Y-111399712D01*
X194130395Y-110507121D01*
X193237804Y-109614530D01*
X193040000Y-109680421D01*
X192842196Y-109614530D01*
X191949605Y-110507121D01*
X191590395Y-110507121D01*
X190697804Y-109614530D01*
X190442461Y-109699588D01*
X190361771Y-109920538D01*
X190307282Y-109788663D01*
X189950337Y-109431095D01*
X189483727Y-109237342D01*
X189481512Y-109237340D01*
X189948458Y-109044403D01*
X190306026Y-108687458D01*
X190499779Y-108220848D01*
X190499781Y-108218633D01*
X190692718Y-108685579D01*
X191049663Y-109043147D01*
X191170608Y-109093368D01*
X190962467Y-109179582D01*
X190877409Y-109434925D01*
X191770000Y-110327516D01*
X192662591Y-109434925D01*
X192577533Y-109179582D01*
X192356583Y-109098892D01*
X192488458Y-109044403D01*
X192846026Y-108687458D01*
X193039779Y-108220848D01*
X193039781Y-108218633D01*
X193232718Y-108685579D01*
X193589663Y-109043147D01*
X193710608Y-109093368D01*
X193502467Y-109179582D01*
X193417409Y-109434925D01*
X194310000Y-110327516D01*
X195202591Y-109434925D01*
X195117533Y-109179582D01*
X194896583Y-109098892D01*
X195028458Y-109044403D01*
X195386026Y-108687458D01*
X195579779Y-108220848D01*
X195579781Y-108218633D01*
X195772718Y-108685579D01*
M02*
