G04 #@! TF.FileFunction,Soldermask,Bot*
%FSLAX46Y46*%
G04 Gerber Fmt 4.6, Leading zero omitted, Abs format (unit mm)*
G04 Created by KiCad (PCBNEW 4.0.2+dfsg1-stable) date Sa 04 Nov 2017 22:30:12 CET*
%MOMM*%
G01*
G04 APERTURE LIST*
%ADD10C,0.100000*%
%ADD11C,3.100000*%
%ADD12C,2.600000*%
%ADD13C,2.400000*%
%ADD14R,2.178000X2.178000*%
%ADD15C,2.178000*%
%ADD16C,3.148280*%
%ADD17R,2.127200X2.432000*%
%ADD18O,2.127200X2.432000*%
G04 APERTURE END LIST*
D10*
D11*
X216959180Y-109237121D03*
X216959180Y-132239361D03*
X158950000Y-132250000D03*
X158950000Y-109250000D03*
D12*
X158060000Y-124190000D03*
X158060000Y-119110000D03*
X163140000Y-119110000D03*
X163140000Y-124190000D03*
D13*
X160600000Y-121650000D03*
D14*
X163830000Y-110507121D03*
D15*
X163830000Y-107967121D03*
X166370000Y-110507121D03*
X166370000Y-107967121D03*
X168910000Y-110507121D03*
X168910000Y-107967121D03*
X171450000Y-110507121D03*
X171450000Y-107967121D03*
X173990000Y-110507121D03*
X173990000Y-107967121D03*
X176530000Y-110507121D03*
X176530000Y-107967121D03*
X179070000Y-110507121D03*
X179070000Y-107967121D03*
X181610000Y-110507121D03*
X181610000Y-107967121D03*
X184150000Y-110507121D03*
X184150000Y-107967121D03*
X186690000Y-110507121D03*
X186690000Y-107967121D03*
X189230000Y-110507121D03*
X189230000Y-107967121D03*
X191770000Y-110507121D03*
X191770000Y-107967121D03*
X194310000Y-110507121D03*
X194310000Y-107967121D03*
X196850000Y-110507121D03*
X196850000Y-107967121D03*
X199390000Y-110507121D03*
X199390000Y-107967121D03*
X201930000Y-110507121D03*
X201930000Y-107967121D03*
X204470000Y-110507121D03*
X204470000Y-107967121D03*
X207010000Y-110507121D03*
X207010000Y-107967121D03*
X209550000Y-110507121D03*
X209550000Y-107967121D03*
X212090000Y-110507121D03*
X212090000Y-107967121D03*
D16*
X158958280Y-132239361D03*
X158958280Y-109237121D03*
X216959180Y-132239361D03*
X216959180Y-109237121D03*
D17*
X210420000Y-123418600D03*
D18*
X212960000Y-123418600D03*
X215500000Y-123418600D03*
X218040000Y-123418600D03*
D17*
X210420000Y-127000000D03*
D18*
X212960000Y-127000000D03*
X215500000Y-127000000D03*
X218040000Y-127000000D03*
D17*
X205638400Y-114503200D03*
D18*
X203098400Y-114503200D03*
X200558400Y-114503200D03*
X198018400Y-114503200D03*
M02*
