G04 #@! TF.FileFunction,Legend,Bot*
%FSLAX46Y46*%
G04 Gerber Fmt 4.6, Leading zero omitted, Abs format (unit mm)*
G04 Created by KiCad (PCBNEW 4.0.2+dfsg1-stable) date Mo 13 Nov 2017 16:34:36 CET*
%MOMM*%
G01*
G04 APERTURE LIST*
%ADD10C,0.100000*%
%ADD11C,0.010000*%
G04 APERTURE END LIST*
D10*
D11*
G36*
X156273689Y-114744257D02*
X156273725Y-115008780D01*
X156273730Y-115131912D01*
X156273730Y-117102811D01*
X156389910Y-117102811D01*
X156531291Y-117115211D01*
X156661684Y-117152636D01*
X156781862Y-117215423D01*
X156892602Y-117303906D01*
X156922511Y-117333843D01*
X157007348Y-117441534D01*
X157069221Y-117560275D01*
X157108159Y-117686540D01*
X157124190Y-117816803D01*
X157117342Y-117947535D01*
X157087643Y-118075212D01*
X157035120Y-118196305D01*
X156959803Y-118307288D01*
X156914363Y-118357132D01*
X156802952Y-118450017D01*
X156680435Y-118518127D01*
X156548215Y-118560871D01*
X156407692Y-118577653D01*
X156393867Y-118577876D01*
X156273734Y-118578756D01*
X156273732Y-118631557D01*
X156280089Y-118678396D01*
X156295556Y-118721183D01*
X156297154Y-118724011D01*
X156302168Y-118733675D01*
X156306073Y-118742549D01*
X156310007Y-118750665D01*
X156315106Y-118758057D01*
X156322508Y-118764755D01*
X156333351Y-118770792D01*
X156348772Y-118776199D01*
X156369909Y-118781010D01*
X156397899Y-118785255D01*
X156433879Y-118788968D01*
X156478987Y-118792179D01*
X156534360Y-118794922D01*
X156601137Y-118797228D01*
X156680453Y-118799129D01*
X156773447Y-118800658D01*
X156881257Y-118801846D01*
X157005019Y-118802726D01*
X157145871Y-118803330D01*
X157304950Y-118803689D01*
X157483395Y-118803835D01*
X157682342Y-118803802D01*
X157902929Y-118803620D01*
X158146293Y-118803323D01*
X158413572Y-118802941D01*
X158705903Y-118802508D01*
X159024424Y-118802055D01*
X159063230Y-118802002D01*
X159383782Y-118801596D01*
X159678012Y-118801251D01*
X159947056Y-118800931D01*
X160192052Y-118800600D01*
X160414137Y-118800221D01*
X160614447Y-118799757D01*
X160794119Y-118799172D01*
X160954290Y-118798430D01*
X161096098Y-118797494D01*
X161220679Y-118796327D01*
X161329170Y-118794893D01*
X161422707Y-118793156D01*
X161502429Y-118791078D01*
X161569472Y-118788624D01*
X161624973Y-118785756D01*
X161670068Y-118782439D01*
X161705895Y-118778636D01*
X161733591Y-118774310D01*
X161754293Y-118769425D01*
X161769137Y-118763945D01*
X161779260Y-118757832D01*
X161785800Y-118751050D01*
X161789893Y-118743563D01*
X161792676Y-118735334D01*
X161795287Y-118726327D01*
X161798862Y-118716505D01*
X161799950Y-118714106D01*
X161802396Y-118706565D01*
X161804642Y-118693944D01*
X161806698Y-118675141D01*
X161808572Y-118649053D01*
X161810271Y-118614578D01*
X161811803Y-118570615D01*
X161813177Y-118516061D01*
X161814400Y-118449815D01*
X161815481Y-118370774D01*
X161816427Y-118277837D01*
X161817247Y-118169901D01*
X161817947Y-118045864D01*
X161818538Y-117904624D01*
X161819025Y-117745079D01*
X161819419Y-117566128D01*
X161819725Y-117366668D01*
X161819953Y-117145596D01*
X161820110Y-116901812D01*
X161820205Y-116634213D01*
X161820245Y-116341697D01*
X161820238Y-116023161D01*
X161820228Y-115919979D01*
X161820176Y-115594377D01*
X161820091Y-115295119D01*
X161819963Y-115021091D01*
X161819785Y-114771176D01*
X161819548Y-114544260D01*
X161819242Y-114339227D01*
X161818860Y-114154962D01*
X161818392Y-113990350D01*
X161817830Y-113844275D01*
X161817165Y-113715624D01*
X161816388Y-113603279D01*
X161815491Y-113506126D01*
X161814465Y-113423050D01*
X161813301Y-113352936D01*
X161811991Y-113294668D01*
X161810525Y-113247131D01*
X161808896Y-113209210D01*
X161807093Y-113179790D01*
X161805110Y-113157755D01*
X161802936Y-113141990D01*
X161800563Y-113131380D01*
X161798391Y-113125596D01*
X161794056Y-113115316D01*
X161790859Y-113105878D01*
X161787665Y-113097245D01*
X161783338Y-113089381D01*
X161776744Y-113082252D01*
X161766747Y-113075821D01*
X161752212Y-113070053D01*
X161732003Y-113064911D01*
X161704985Y-113060360D01*
X161670023Y-113056365D01*
X161625981Y-113052889D01*
X161571724Y-113049898D01*
X161506117Y-113047354D01*
X161428024Y-113045223D01*
X161336310Y-113043468D01*
X161229840Y-113042055D01*
X161188973Y-113041685D01*
X161188973Y-113408116D01*
X161188973Y-114703266D01*
X161151217Y-114678345D01*
X161112417Y-114653553D01*
X161075469Y-114632560D01*
X161037788Y-114615065D01*
X160996788Y-114600770D01*
X160949883Y-114589377D01*
X160894487Y-114580587D01*
X160828016Y-114574102D01*
X160747883Y-114569623D01*
X160651502Y-114566850D01*
X160536289Y-114565487D01*
X160399657Y-114565233D01*
X160239020Y-114565791D01*
X160179382Y-114566107D01*
X159540041Y-114569675D01*
X160091449Y-114974702D01*
X160247876Y-115089446D01*
X160384088Y-115188857D01*
X160501890Y-115274010D01*
X160603084Y-115345978D01*
X160689477Y-115405834D01*
X160762874Y-115454652D01*
X160825077Y-115493505D01*
X160877893Y-115523466D01*
X160923125Y-115545609D01*
X160962578Y-115561007D01*
X160998058Y-115570734D01*
X161031368Y-115575863D01*
X161064313Y-115577468D01*
X161098697Y-115576621D01*
X161103019Y-115576405D01*
X161189031Y-115571946D01*
X161188973Y-116991308D01*
X161082522Y-116885735D01*
X161053406Y-116857087D01*
X161025076Y-116829910D01*
X160995968Y-116803011D01*
X160964520Y-116775197D01*
X160929169Y-116745275D01*
X160888354Y-116712054D01*
X160840511Y-116674339D01*
X160784079Y-116630940D01*
X160717494Y-116580662D01*
X160639195Y-116522312D01*
X160547619Y-116454700D01*
X160441204Y-116376631D01*
X160318387Y-116286912D01*
X160177605Y-116184352D01*
X160017297Y-116067758D01*
X159885798Y-115972191D01*
X159720596Y-115852251D01*
X159576152Y-115747620D01*
X159451094Y-115657352D01*
X159344052Y-115580497D01*
X159253654Y-115516109D01*
X159178529Y-115463239D01*
X159117304Y-115420940D01*
X159068610Y-115388264D01*
X159031074Y-115364262D01*
X159003325Y-115347987D01*
X158983992Y-115338492D01*
X158971703Y-115334827D01*
X158965242Y-115335929D01*
X158948048Y-115349276D01*
X158911655Y-115378134D01*
X158858224Y-115420760D01*
X158789919Y-115475415D01*
X158708903Y-115540356D01*
X158617340Y-115613842D01*
X158517392Y-115694132D01*
X158411224Y-115779485D01*
X158300997Y-115868160D01*
X158188876Y-115958414D01*
X158127244Y-116008056D01*
X158127244Y-117240627D01*
X158219919Y-117291854D01*
X158312595Y-117343081D01*
X161003622Y-117343081D01*
X161096298Y-117291854D01*
X161188973Y-117240627D01*
X161188973Y-117846604D01*
X161188931Y-117991266D01*
X161188741Y-118110756D01*
X161188308Y-118207358D01*
X161187536Y-118283358D01*
X161186330Y-118341043D01*
X161184594Y-118382699D01*
X161182232Y-118410611D01*
X161179150Y-118427065D01*
X161175251Y-118434348D01*
X161170440Y-118434745D01*
X161164622Y-118430542D01*
X161164574Y-118430499D01*
X161139532Y-118413187D01*
X161098815Y-118390264D01*
X161058168Y-118370019D01*
X160976162Y-118331621D01*
X158127244Y-118323789D01*
X158127244Y-117240627D01*
X158127244Y-116008056D01*
X158077024Y-116048507D01*
X157967604Y-116136698D01*
X157862778Y-116221246D01*
X157764711Y-116300408D01*
X157675566Y-116372444D01*
X157597505Y-116435613D01*
X157532692Y-116488173D01*
X157483290Y-116528383D01*
X157454487Y-116552000D01*
X157346778Y-116643710D01*
X157249580Y-116731940D01*
X157166076Y-116813597D01*
X157099448Y-116885590D01*
X157058599Y-116936681D01*
X157015135Y-116997093D01*
X157015135Y-115607702D01*
X157096666Y-115608092D01*
X157156606Y-115604209D01*
X157212177Y-115589610D01*
X157264855Y-115567012D01*
X157294615Y-115552322D01*
X157324103Y-115536528D01*
X157355276Y-115518186D01*
X157390093Y-115495855D01*
X157430510Y-115468091D01*
X157478486Y-115433451D01*
X157535978Y-115390493D01*
X157604943Y-115337773D01*
X157687339Y-115273849D01*
X157785124Y-115197279D01*
X157900255Y-115106619D01*
X158034690Y-115000426D01*
X158049859Y-114988432D01*
X158579412Y-114569675D01*
X157992922Y-114565622D01*
X157817251Y-114564805D01*
X157668532Y-114564979D01*
X157546275Y-114566151D01*
X157449989Y-114568331D01*
X157379183Y-114571526D01*
X157333369Y-114575744D01*
X157324679Y-114577162D01*
X157233135Y-114599409D01*
X157150608Y-114628557D01*
X157084253Y-114661818D01*
X157056110Y-114681800D01*
X157015135Y-114716278D01*
X157015135Y-114062086D01*
X157015269Y-113906031D01*
X157015703Y-113775533D01*
X157016489Y-113668690D01*
X157017676Y-113583602D01*
X157019317Y-113518365D01*
X157021461Y-113471079D01*
X157024159Y-113439843D01*
X157027462Y-113422754D01*
X157031421Y-113417912D01*
X157032298Y-113418247D01*
X157053231Y-113432115D01*
X157086412Y-113455268D01*
X157103193Y-113467246D01*
X157119940Y-113479631D01*
X157134915Y-113490763D01*
X157149594Y-113500712D01*
X157165449Y-113509549D01*
X157183955Y-113517343D01*
X157206585Y-113524165D01*
X157234813Y-113530084D01*
X157270113Y-113535171D01*
X157313958Y-113539496D01*
X157367822Y-113543129D01*
X157433180Y-113546140D01*
X157511504Y-113548599D01*
X157604268Y-113550577D01*
X157712947Y-113552142D01*
X157839013Y-113553366D01*
X157983942Y-113554319D01*
X158149206Y-113555070D01*
X158336279Y-113555689D01*
X158546635Y-113556248D01*
X158781748Y-113556815D01*
X158997741Y-113557345D01*
X159238535Y-113557845D01*
X159468274Y-113558105D01*
X159685493Y-113558132D01*
X159888722Y-113557933D01*
X160076496Y-113557514D01*
X160247345Y-113556882D01*
X160399803Y-113556044D01*
X160532403Y-113555008D01*
X160643676Y-113553780D01*
X160732156Y-113552367D01*
X160796375Y-113550775D01*
X160834865Y-113549013D01*
X160838933Y-113548679D01*
X160932248Y-113536534D01*
X161007190Y-113517573D01*
X161072594Y-113488698D01*
X161137293Y-113446810D01*
X161144352Y-113441571D01*
X161188973Y-113408116D01*
X161188973Y-113041685D01*
X161107479Y-113040946D01*
X160968090Y-113040107D01*
X160810539Y-113039502D01*
X160633691Y-113039095D01*
X160436410Y-113038850D01*
X160217560Y-113038733D01*
X159976007Y-113038705D01*
X159710615Y-113038733D01*
X159420249Y-113038780D01*
X159103773Y-113038810D01*
X159040946Y-113038811D01*
X158721137Y-113038828D01*
X158427661Y-113038888D01*
X158159390Y-113038998D01*
X157915198Y-113039167D01*
X157693957Y-113039403D01*
X157494540Y-113039716D01*
X157315820Y-113040115D01*
X157156671Y-113040607D01*
X157015966Y-113041203D01*
X156892576Y-113041910D01*
X156785376Y-113042737D01*
X156693238Y-113043693D01*
X156615035Y-113044787D01*
X156549641Y-113046027D01*
X156495928Y-113047422D01*
X156452769Y-113048982D01*
X156419037Y-113050714D01*
X156393605Y-113052628D01*
X156375347Y-113054732D01*
X156363134Y-113057034D01*
X156355841Y-113059545D01*
X156355659Y-113059637D01*
X156344518Y-113064808D01*
X156334431Y-113069115D01*
X156325346Y-113073879D01*
X156317212Y-113080422D01*
X156309976Y-113090065D01*
X156303586Y-113104129D01*
X156297989Y-113123937D01*
X156293133Y-113150809D01*
X156288966Y-113186067D01*
X156285436Y-113231032D01*
X156282491Y-113287026D01*
X156280077Y-113355371D01*
X156278144Y-113437386D01*
X156276638Y-113534395D01*
X156275508Y-113647718D01*
X156274702Y-113778677D01*
X156274166Y-113928593D01*
X156273849Y-114098787D01*
X156273699Y-114290582D01*
X156273663Y-114505298D01*
X156273689Y-114744257D01*
X156273689Y-114744257D01*
G37*
X156273689Y-114744257D02*
X156273725Y-115008780D01*
X156273730Y-115131912D01*
X156273730Y-117102811D01*
X156389910Y-117102811D01*
X156531291Y-117115211D01*
X156661684Y-117152636D01*
X156781862Y-117215423D01*
X156892602Y-117303906D01*
X156922511Y-117333843D01*
X157007348Y-117441534D01*
X157069221Y-117560275D01*
X157108159Y-117686540D01*
X157124190Y-117816803D01*
X157117342Y-117947535D01*
X157087643Y-118075212D01*
X157035120Y-118196305D01*
X156959803Y-118307288D01*
X156914363Y-118357132D01*
X156802952Y-118450017D01*
X156680435Y-118518127D01*
X156548215Y-118560871D01*
X156407692Y-118577653D01*
X156393867Y-118577876D01*
X156273734Y-118578756D01*
X156273732Y-118631557D01*
X156280089Y-118678396D01*
X156295556Y-118721183D01*
X156297154Y-118724011D01*
X156302168Y-118733675D01*
X156306073Y-118742549D01*
X156310007Y-118750665D01*
X156315106Y-118758057D01*
X156322508Y-118764755D01*
X156333351Y-118770792D01*
X156348772Y-118776199D01*
X156369909Y-118781010D01*
X156397899Y-118785255D01*
X156433879Y-118788968D01*
X156478987Y-118792179D01*
X156534360Y-118794922D01*
X156601137Y-118797228D01*
X156680453Y-118799129D01*
X156773447Y-118800658D01*
X156881257Y-118801846D01*
X157005019Y-118802726D01*
X157145871Y-118803330D01*
X157304950Y-118803689D01*
X157483395Y-118803835D01*
X157682342Y-118803802D01*
X157902929Y-118803620D01*
X158146293Y-118803323D01*
X158413572Y-118802941D01*
X158705903Y-118802508D01*
X159024424Y-118802055D01*
X159063230Y-118802002D01*
X159383782Y-118801596D01*
X159678012Y-118801251D01*
X159947056Y-118800931D01*
X160192052Y-118800600D01*
X160414137Y-118800221D01*
X160614447Y-118799757D01*
X160794119Y-118799172D01*
X160954290Y-118798430D01*
X161096098Y-118797494D01*
X161220679Y-118796327D01*
X161329170Y-118794893D01*
X161422707Y-118793156D01*
X161502429Y-118791078D01*
X161569472Y-118788624D01*
X161624973Y-118785756D01*
X161670068Y-118782439D01*
X161705895Y-118778636D01*
X161733591Y-118774310D01*
X161754293Y-118769425D01*
X161769137Y-118763945D01*
X161779260Y-118757832D01*
X161785800Y-118751050D01*
X161789893Y-118743563D01*
X161792676Y-118735334D01*
X161795287Y-118726327D01*
X161798862Y-118716505D01*
X161799950Y-118714106D01*
X161802396Y-118706565D01*
X161804642Y-118693944D01*
X161806698Y-118675141D01*
X161808572Y-118649053D01*
X161810271Y-118614578D01*
X161811803Y-118570615D01*
X161813177Y-118516061D01*
X161814400Y-118449815D01*
X161815481Y-118370774D01*
X161816427Y-118277837D01*
X161817247Y-118169901D01*
X161817947Y-118045864D01*
X161818538Y-117904624D01*
X161819025Y-117745079D01*
X161819419Y-117566128D01*
X161819725Y-117366668D01*
X161819953Y-117145596D01*
X161820110Y-116901812D01*
X161820205Y-116634213D01*
X161820245Y-116341697D01*
X161820238Y-116023161D01*
X161820228Y-115919979D01*
X161820176Y-115594377D01*
X161820091Y-115295119D01*
X161819963Y-115021091D01*
X161819785Y-114771176D01*
X161819548Y-114544260D01*
X161819242Y-114339227D01*
X161818860Y-114154962D01*
X161818392Y-113990350D01*
X161817830Y-113844275D01*
X161817165Y-113715624D01*
X161816388Y-113603279D01*
X161815491Y-113506126D01*
X161814465Y-113423050D01*
X161813301Y-113352936D01*
X161811991Y-113294668D01*
X161810525Y-113247131D01*
X161808896Y-113209210D01*
X161807093Y-113179790D01*
X161805110Y-113157755D01*
X161802936Y-113141990D01*
X161800563Y-113131380D01*
X161798391Y-113125596D01*
X161794056Y-113115316D01*
X161790859Y-113105878D01*
X161787665Y-113097245D01*
X161783338Y-113089381D01*
X161776744Y-113082252D01*
X161766747Y-113075821D01*
X161752212Y-113070053D01*
X161732003Y-113064911D01*
X161704985Y-113060360D01*
X161670023Y-113056365D01*
X161625981Y-113052889D01*
X161571724Y-113049898D01*
X161506117Y-113047354D01*
X161428024Y-113045223D01*
X161336310Y-113043468D01*
X161229840Y-113042055D01*
X161188973Y-113041685D01*
X161188973Y-113408116D01*
X161188973Y-114703266D01*
X161151217Y-114678345D01*
X161112417Y-114653553D01*
X161075469Y-114632560D01*
X161037788Y-114615065D01*
X160996788Y-114600770D01*
X160949883Y-114589377D01*
X160894487Y-114580587D01*
X160828016Y-114574102D01*
X160747883Y-114569623D01*
X160651502Y-114566850D01*
X160536289Y-114565487D01*
X160399657Y-114565233D01*
X160239020Y-114565791D01*
X160179382Y-114566107D01*
X159540041Y-114569675D01*
X160091449Y-114974702D01*
X160247876Y-115089446D01*
X160384088Y-115188857D01*
X160501890Y-115274010D01*
X160603084Y-115345978D01*
X160689477Y-115405834D01*
X160762874Y-115454652D01*
X160825077Y-115493505D01*
X160877893Y-115523466D01*
X160923125Y-115545609D01*
X160962578Y-115561007D01*
X160998058Y-115570734D01*
X161031368Y-115575863D01*
X161064313Y-115577468D01*
X161098697Y-115576621D01*
X161103019Y-115576405D01*
X161189031Y-115571946D01*
X161188973Y-116991308D01*
X161082522Y-116885735D01*
X161053406Y-116857087D01*
X161025076Y-116829910D01*
X160995968Y-116803011D01*
X160964520Y-116775197D01*
X160929169Y-116745275D01*
X160888354Y-116712054D01*
X160840511Y-116674339D01*
X160784079Y-116630940D01*
X160717494Y-116580662D01*
X160639195Y-116522312D01*
X160547619Y-116454700D01*
X160441204Y-116376631D01*
X160318387Y-116286912D01*
X160177605Y-116184352D01*
X160017297Y-116067758D01*
X159885798Y-115972191D01*
X159720596Y-115852251D01*
X159576152Y-115747620D01*
X159451094Y-115657352D01*
X159344052Y-115580497D01*
X159253654Y-115516109D01*
X159178529Y-115463239D01*
X159117304Y-115420940D01*
X159068610Y-115388264D01*
X159031074Y-115364262D01*
X159003325Y-115347987D01*
X158983992Y-115338492D01*
X158971703Y-115334827D01*
X158965242Y-115335929D01*
X158948048Y-115349276D01*
X158911655Y-115378134D01*
X158858224Y-115420760D01*
X158789919Y-115475415D01*
X158708903Y-115540356D01*
X158617340Y-115613842D01*
X158517392Y-115694132D01*
X158411224Y-115779485D01*
X158300997Y-115868160D01*
X158188876Y-115958414D01*
X158127244Y-116008056D01*
X158127244Y-117240627D01*
X158219919Y-117291854D01*
X158312595Y-117343081D01*
X161003622Y-117343081D01*
X161096298Y-117291854D01*
X161188973Y-117240627D01*
X161188973Y-117846604D01*
X161188931Y-117991266D01*
X161188741Y-118110756D01*
X161188308Y-118207358D01*
X161187536Y-118283358D01*
X161186330Y-118341043D01*
X161184594Y-118382699D01*
X161182232Y-118410611D01*
X161179150Y-118427065D01*
X161175251Y-118434348D01*
X161170440Y-118434745D01*
X161164622Y-118430542D01*
X161164574Y-118430499D01*
X161139532Y-118413187D01*
X161098815Y-118390264D01*
X161058168Y-118370019D01*
X160976162Y-118331621D01*
X158127244Y-118323789D01*
X158127244Y-117240627D01*
X158127244Y-116008056D01*
X158077024Y-116048507D01*
X157967604Y-116136698D01*
X157862778Y-116221246D01*
X157764711Y-116300408D01*
X157675566Y-116372444D01*
X157597505Y-116435613D01*
X157532692Y-116488173D01*
X157483290Y-116528383D01*
X157454487Y-116552000D01*
X157346778Y-116643710D01*
X157249580Y-116731940D01*
X157166076Y-116813597D01*
X157099448Y-116885590D01*
X157058599Y-116936681D01*
X157015135Y-116997093D01*
X157015135Y-115607702D01*
X157096666Y-115608092D01*
X157156606Y-115604209D01*
X157212177Y-115589610D01*
X157264855Y-115567012D01*
X157294615Y-115552322D01*
X157324103Y-115536528D01*
X157355276Y-115518186D01*
X157390093Y-115495855D01*
X157430510Y-115468091D01*
X157478486Y-115433451D01*
X157535978Y-115390493D01*
X157604943Y-115337773D01*
X157687339Y-115273849D01*
X157785124Y-115197279D01*
X157900255Y-115106619D01*
X158034690Y-115000426D01*
X158049859Y-114988432D01*
X158579412Y-114569675D01*
X157992922Y-114565622D01*
X157817251Y-114564805D01*
X157668532Y-114564979D01*
X157546275Y-114566151D01*
X157449989Y-114568331D01*
X157379183Y-114571526D01*
X157333369Y-114575744D01*
X157324679Y-114577162D01*
X157233135Y-114599409D01*
X157150608Y-114628557D01*
X157084253Y-114661818D01*
X157056110Y-114681800D01*
X157015135Y-114716278D01*
X157015135Y-114062086D01*
X157015269Y-113906031D01*
X157015703Y-113775533D01*
X157016489Y-113668690D01*
X157017676Y-113583602D01*
X157019317Y-113518365D01*
X157021461Y-113471079D01*
X157024159Y-113439843D01*
X157027462Y-113422754D01*
X157031421Y-113417912D01*
X157032298Y-113418247D01*
X157053231Y-113432115D01*
X157086412Y-113455268D01*
X157103193Y-113467246D01*
X157119940Y-113479631D01*
X157134915Y-113490763D01*
X157149594Y-113500712D01*
X157165449Y-113509549D01*
X157183955Y-113517343D01*
X157206585Y-113524165D01*
X157234813Y-113530084D01*
X157270113Y-113535171D01*
X157313958Y-113539496D01*
X157367822Y-113543129D01*
X157433180Y-113546140D01*
X157511504Y-113548599D01*
X157604268Y-113550577D01*
X157712947Y-113552142D01*
X157839013Y-113553366D01*
X157983942Y-113554319D01*
X158149206Y-113555070D01*
X158336279Y-113555689D01*
X158546635Y-113556248D01*
X158781748Y-113556815D01*
X158997741Y-113557345D01*
X159238535Y-113557845D01*
X159468274Y-113558105D01*
X159685493Y-113558132D01*
X159888722Y-113557933D01*
X160076496Y-113557514D01*
X160247345Y-113556882D01*
X160399803Y-113556044D01*
X160532403Y-113555008D01*
X160643676Y-113553780D01*
X160732156Y-113552367D01*
X160796375Y-113550775D01*
X160834865Y-113549013D01*
X160838933Y-113548679D01*
X160932248Y-113536534D01*
X161007190Y-113517573D01*
X161072594Y-113488698D01*
X161137293Y-113446810D01*
X161144352Y-113441571D01*
X161188973Y-113408116D01*
X161188973Y-113041685D01*
X161107479Y-113040946D01*
X160968090Y-113040107D01*
X160810539Y-113039502D01*
X160633691Y-113039095D01*
X160436410Y-113038850D01*
X160217560Y-113038733D01*
X159976007Y-113038705D01*
X159710615Y-113038733D01*
X159420249Y-113038780D01*
X159103773Y-113038810D01*
X159040946Y-113038811D01*
X158721137Y-113038828D01*
X158427661Y-113038888D01*
X158159390Y-113038998D01*
X157915198Y-113039167D01*
X157693957Y-113039403D01*
X157494540Y-113039716D01*
X157315820Y-113040115D01*
X157156671Y-113040607D01*
X157015966Y-113041203D01*
X156892576Y-113041910D01*
X156785376Y-113042737D01*
X156693238Y-113043693D01*
X156615035Y-113044787D01*
X156549641Y-113046027D01*
X156495928Y-113047422D01*
X156452769Y-113048982D01*
X156419037Y-113050714D01*
X156393605Y-113052628D01*
X156375347Y-113054732D01*
X156363134Y-113057034D01*
X156355841Y-113059545D01*
X156355659Y-113059637D01*
X156344518Y-113064808D01*
X156334431Y-113069115D01*
X156325346Y-113073879D01*
X156317212Y-113080422D01*
X156309976Y-113090065D01*
X156303586Y-113104129D01*
X156297989Y-113123937D01*
X156293133Y-113150809D01*
X156288966Y-113186067D01*
X156285436Y-113231032D01*
X156282491Y-113287026D01*
X156280077Y-113355371D01*
X156278144Y-113437386D01*
X156276638Y-113534395D01*
X156275508Y-113647718D01*
X156274702Y-113778677D01*
X156274166Y-113928593D01*
X156273849Y-114098787D01*
X156273699Y-114290582D01*
X156273663Y-114505298D01*
X156273689Y-114744257D01*
G36*
X156960499Y-121139962D02*
X156976707Y-121288014D01*
X157005718Y-121431452D01*
X157049045Y-121576110D01*
X157108201Y-121727824D01*
X157184700Y-121892428D01*
X157199517Y-121922071D01*
X157233031Y-121990098D01*
X157263208Y-122054256D01*
X157287166Y-122108215D01*
X157302024Y-122145640D01*
X157303895Y-122151389D01*
X157320402Y-122206486D01*
X157679201Y-121959851D01*
X157766893Y-121899552D01*
X157847012Y-121844422D01*
X157916836Y-121796336D01*
X157973647Y-121757168D01*
X158014723Y-121728794D01*
X158037346Y-121713087D01*
X158040928Y-121710536D01*
X158033438Y-121700171D01*
X158010918Y-121674660D01*
X157977461Y-121638563D01*
X157958550Y-121618642D01*
X157868778Y-121505773D01*
X157800561Y-121379014D01*
X157763195Y-121269783D01*
X157751460Y-121204214D01*
X157744308Y-121122116D01*
X157741874Y-121033144D01*
X157744288Y-120946956D01*
X157751683Y-120873205D01*
X157757347Y-120843776D01*
X157802982Y-120711133D01*
X157872663Y-120591606D01*
X157966260Y-120485283D01*
X158083649Y-120392253D01*
X158224700Y-120312605D01*
X158389286Y-120246426D01*
X158577280Y-120193806D01*
X158738217Y-120162533D01*
X158809263Y-120154374D01*
X158901046Y-120148815D01*
X159006968Y-120145802D01*
X159120434Y-120145281D01*
X159234849Y-120147200D01*
X159343617Y-120151503D01*
X159440143Y-120158137D01*
X159517831Y-120167049D01*
X159529817Y-120168979D01*
X159722892Y-120211499D01*
X159893773Y-120269433D01*
X160043224Y-120343133D01*
X160172011Y-120432951D01*
X160241639Y-120496707D01*
X160336173Y-120611286D01*
X160406246Y-120736942D01*
X160451477Y-120871557D01*
X160471484Y-121013011D01*
X160465885Y-121159183D01*
X160434300Y-121307955D01*
X160403394Y-121395911D01*
X160341506Y-121517629D01*
X160252729Y-121643080D01*
X160192694Y-121713353D01*
X160157947Y-121752811D01*
X160132454Y-121783812D01*
X160120170Y-121801458D01*
X160119795Y-121803648D01*
X160132347Y-121811524D01*
X160165516Y-121831932D01*
X160216458Y-121863132D01*
X160282331Y-121903386D01*
X160360289Y-121950957D01*
X160447490Y-122004104D01*
X160496067Y-122033687D01*
X160867215Y-122259648D01*
X161006639Y-121977527D01*
X161056719Y-121875522D01*
X161096210Y-121792889D01*
X161127073Y-121724578D01*
X161151268Y-121665537D01*
X161170758Y-121610714D01*
X161187503Y-121555060D01*
X161203465Y-121493523D01*
X161217482Y-121434540D01*
X161228329Y-121382115D01*
X161236526Y-121327288D01*
X161242528Y-121264572D01*
X161246790Y-121188477D01*
X161249767Y-121093516D01*
X161251052Y-121029513D01*
X161251930Y-120938192D01*
X161251487Y-120850627D01*
X161249852Y-120772612D01*
X161247149Y-120709942D01*
X161243505Y-120668413D01*
X161243142Y-120665952D01*
X161196487Y-120450303D01*
X161125729Y-120247793D01*
X161030914Y-120058495D01*
X160912089Y-119882479D01*
X160769300Y-119719816D01*
X160602594Y-119570578D01*
X160454433Y-119462496D01*
X160260502Y-119347434D01*
X160055699Y-119254423D01*
X159838383Y-119183013D01*
X159606912Y-119132756D01*
X159359643Y-119103201D01*
X159108559Y-119093889D01*
X158865670Y-119101548D01*
X158641570Y-119125613D01*
X158432477Y-119166852D01*
X158234613Y-119226027D01*
X158044196Y-119303904D01*
X158024468Y-119313203D01*
X157840059Y-119415648D01*
X157664576Y-119541472D01*
X157501650Y-119687112D01*
X157354914Y-119849001D01*
X157228001Y-120023576D01*
X157134905Y-120186244D01*
X157061991Y-120350573D01*
X157009174Y-120515251D01*
X156975015Y-120686652D01*
X156958078Y-120871153D01*
X156955580Y-120981459D01*
X156960499Y-121139962D01*
X156960499Y-121139962D01*
G37*
X156960499Y-121139962D02*
X156976707Y-121288014D01*
X157005718Y-121431452D01*
X157049045Y-121576110D01*
X157108201Y-121727824D01*
X157184700Y-121892428D01*
X157199517Y-121922071D01*
X157233031Y-121990098D01*
X157263208Y-122054256D01*
X157287166Y-122108215D01*
X157302024Y-122145640D01*
X157303895Y-122151389D01*
X157320402Y-122206486D01*
X157679201Y-121959851D01*
X157766893Y-121899552D01*
X157847012Y-121844422D01*
X157916836Y-121796336D01*
X157973647Y-121757168D01*
X158014723Y-121728794D01*
X158037346Y-121713087D01*
X158040928Y-121710536D01*
X158033438Y-121700171D01*
X158010918Y-121674660D01*
X157977461Y-121638563D01*
X157958550Y-121618642D01*
X157868778Y-121505773D01*
X157800561Y-121379014D01*
X157763195Y-121269783D01*
X157751460Y-121204214D01*
X157744308Y-121122116D01*
X157741874Y-121033144D01*
X157744288Y-120946956D01*
X157751683Y-120873205D01*
X157757347Y-120843776D01*
X157802982Y-120711133D01*
X157872663Y-120591606D01*
X157966260Y-120485283D01*
X158083649Y-120392253D01*
X158224700Y-120312605D01*
X158389286Y-120246426D01*
X158577280Y-120193806D01*
X158738217Y-120162533D01*
X158809263Y-120154374D01*
X158901046Y-120148815D01*
X159006968Y-120145802D01*
X159120434Y-120145281D01*
X159234849Y-120147200D01*
X159343617Y-120151503D01*
X159440143Y-120158137D01*
X159517831Y-120167049D01*
X159529817Y-120168979D01*
X159722892Y-120211499D01*
X159893773Y-120269433D01*
X160043224Y-120343133D01*
X160172011Y-120432951D01*
X160241639Y-120496707D01*
X160336173Y-120611286D01*
X160406246Y-120736942D01*
X160451477Y-120871557D01*
X160471484Y-121013011D01*
X160465885Y-121159183D01*
X160434300Y-121307955D01*
X160403394Y-121395911D01*
X160341506Y-121517629D01*
X160252729Y-121643080D01*
X160192694Y-121713353D01*
X160157947Y-121752811D01*
X160132454Y-121783812D01*
X160120170Y-121801458D01*
X160119795Y-121803648D01*
X160132347Y-121811524D01*
X160165516Y-121831932D01*
X160216458Y-121863132D01*
X160282331Y-121903386D01*
X160360289Y-121950957D01*
X160447490Y-122004104D01*
X160496067Y-122033687D01*
X160867215Y-122259648D01*
X161006639Y-121977527D01*
X161056719Y-121875522D01*
X161096210Y-121792889D01*
X161127073Y-121724578D01*
X161151268Y-121665537D01*
X161170758Y-121610714D01*
X161187503Y-121555060D01*
X161203465Y-121493523D01*
X161217482Y-121434540D01*
X161228329Y-121382115D01*
X161236526Y-121327288D01*
X161242528Y-121264572D01*
X161246790Y-121188477D01*
X161249767Y-121093516D01*
X161251052Y-121029513D01*
X161251930Y-120938192D01*
X161251487Y-120850627D01*
X161249852Y-120772612D01*
X161247149Y-120709942D01*
X161243505Y-120668413D01*
X161243142Y-120665952D01*
X161196487Y-120450303D01*
X161125729Y-120247793D01*
X161030914Y-120058495D01*
X160912089Y-119882479D01*
X160769300Y-119719816D01*
X160602594Y-119570578D01*
X160454433Y-119462496D01*
X160260502Y-119347434D01*
X160055699Y-119254423D01*
X159838383Y-119183013D01*
X159606912Y-119132756D01*
X159359643Y-119103201D01*
X159108559Y-119093889D01*
X158865670Y-119101548D01*
X158641570Y-119125613D01*
X158432477Y-119166852D01*
X158234613Y-119226027D01*
X158044196Y-119303904D01*
X158024468Y-119313203D01*
X157840059Y-119415648D01*
X157664576Y-119541472D01*
X157501650Y-119687112D01*
X157354914Y-119849001D01*
X157228001Y-120023576D01*
X157134905Y-120186244D01*
X157061991Y-120350573D01*
X157009174Y-120515251D01*
X156975015Y-120686652D01*
X156958078Y-120871153D01*
X156955580Y-120981459D01*
X156960499Y-121139962D01*
G36*
X158064229Y-123867505D02*
X158069378Y-123935531D01*
X158095273Y-124130163D01*
X158136575Y-124302529D01*
X158193853Y-124453470D01*
X158267674Y-124583825D01*
X158358608Y-124694434D01*
X158467222Y-124786135D01*
X158594085Y-124859770D01*
X158731352Y-124913539D01*
X158775137Y-124927187D01*
X158816141Y-124939073D01*
X158856569Y-124949334D01*
X158898630Y-124958113D01*
X158944531Y-124965548D01*
X158996480Y-124971780D01*
X159056685Y-124976950D01*
X159127352Y-124981196D01*
X159210689Y-124984660D01*
X159308905Y-124987481D01*
X159424205Y-124989800D01*
X159558799Y-124991757D01*
X159714893Y-124993491D01*
X159894695Y-124995143D01*
X160035676Y-124996324D01*
X161003622Y-125004270D01*
X161096770Y-125055756D01*
X161141645Y-125080137D01*
X161176501Y-125098280D01*
X161195054Y-125106935D01*
X161196311Y-125107243D01*
X161197749Y-125094014D01*
X161199074Y-125056326D01*
X161200249Y-124997183D01*
X161201237Y-124919586D01*
X161201999Y-124826536D01*
X161202500Y-124721035D01*
X161202701Y-124606084D01*
X161202703Y-124592378D01*
X161202703Y-124077513D01*
X161086000Y-124077513D01*
X161033260Y-124076635D01*
X160992926Y-124074292D01*
X160971300Y-124070921D01*
X160969298Y-124069431D01*
X160977683Y-124055804D01*
X160999692Y-124027757D01*
X161030601Y-123991303D01*
X161031316Y-123990485D01*
X161080843Y-123923962D01*
X161130575Y-123839948D01*
X161175626Y-123747937D01*
X161211110Y-123657421D01*
X161223236Y-123617567D01*
X161238637Y-123538255D01*
X161248465Y-123440935D01*
X161252580Y-123334516D01*
X161250841Y-123227907D01*
X161243108Y-123130017D01*
X161231981Y-123061513D01*
X161182648Y-122893520D01*
X161112342Y-122742281D01*
X161021933Y-122608782D01*
X160912295Y-122494006D01*
X160784299Y-122398937D01*
X160638818Y-122324560D01*
X160550541Y-122292474D01*
X160464739Y-122272365D01*
X160361736Y-122259038D01*
X160251034Y-122252872D01*
X160234925Y-122253074D01*
X160234925Y-123181648D01*
X160317184Y-123189348D01*
X160385546Y-123214989D01*
X160448970Y-123262378D01*
X160467567Y-123280579D01*
X160517846Y-123345282D01*
X160550056Y-123420066D01*
X160565648Y-123509662D01*
X160566796Y-123604012D01*
X160559216Y-123693501D01*
X160544389Y-123762018D01*
X160533253Y-123791775D01*
X160502904Y-123845408D01*
X160460221Y-123902235D01*
X160412317Y-123954082D01*
X160366301Y-123992778D01*
X160349421Y-124003054D01*
X160325782Y-124011042D01*
X160288168Y-124016721D01*
X160232985Y-124020356D01*
X160156640Y-124022211D01*
X160083981Y-124022594D01*
X159999270Y-124022335D01*
X159938018Y-124021287D01*
X159896227Y-124019045D01*
X159869899Y-124015206D01*
X159855035Y-124009365D01*
X159847639Y-124001118D01*
X159846461Y-123998567D01*
X159842833Y-123976400D01*
X159839866Y-123932680D01*
X159837827Y-123873311D01*
X159836983Y-123804196D01*
X159836982Y-123789189D01*
X159838457Y-123696805D01*
X159842842Y-123625432D01*
X159850738Y-123568719D01*
X159862270Y-123521872D01*
X159906215Y-123405669D01*
X159960243Y-123314543D01*
X160025219Y-123247705D01*
X160102005Y-123204365D01*
X160191467Y-123183734D01*
X160234925Y-123181648D01*
X160234925Y-122253074D01*
X160142133Y-122254244D01*
X160044536Y-122263532D01*
X160005105Y-122270777D01*
X159858701Y-122317039D01*
X159723995Y-122387384D01*
X159602280Y-122480484D01*
X159494847Y-122595012D01*
X159402988Y-122729640D01*
X159327996Y-122883040D01*
X159282458Y-123013459D01*
X159258533Y-123100623D01*
X159239943Y-123183996D01*
X159226084Y-123268976D01*
X159216351Y-123360965D01*
X159210141Y-123465362D01*
X159206851Y-123587568D01*
X159205924Y-123698055D01*
X159205027Y-124025677D01*
X159106547Y-124019401D01*
X158999695Y-124001579D01*
X158907852Y-123963667D01*
X158833310Y-123907280D01*
X158778364Y-123834031D01*
X158751552Y-123769535D01*
X158734654Y-123677123D01*
X158732227Y-123567111D01*
X158743378Y-123444656D01*
X158767210Y-123314914D01*
X158802830Y-123183042D01*
X158849343Y-123054198D01*
X158891883Y-122960566D01*
X158913728Y-122915517D01*
X158928984Y-122881156D01*
X158934937Y-122863681D01*
X158934746Y-122862733D01*
X158921412Y-122856703D01*
X158886068Y-122841645D01*
X158832101Y-122818977D01*
X158762896Y-122790115D01*
X158681840Y-122756477D01*
X158599118Y-122722284D01*
X158267803Y-122585586D01*
X158251833Y-122682820D01*
X158243820Y-122724964D01*
X158230361Y-122788319D01*
X158212679Y-122867457D01*
X158191996Y-122956951D01*
X158169532Y-123051373D01*
X158160403Y-123088973D01*
X158122674Y-123251637D01*
X158094388Y-123394050D01*
X158074972Y-123521527D01*
X158063854Y-123639384D01*
X158060464Y-123752938D01*
X158064229Y-123867505D01*
X158064229Y-123867505D01*
G37*
X158064229Y-123867505D02*
X158069378Y-123935531D01*
X158095273Y-124130163D01*
X158136575Y-124302529D01*
X158193853Y-124453470D01*
X158267674Y-124583825D01*
X158358608Y-124694434D01*
X158467222Y-124786135D01*
X158594085Y-124859770D01*
X158731352Y-124913539D01*
X158775137Y-124927187D01*
X158816141Y-124939073D01*
X158856569Y-124949334D01*
X158898630Y-124958113D01*
X158944531Y-124965548D01*
X158996480Y-124971780D01*
X159056685Y-124976950D01*
X159127352Y-124981196D01*
X159210689Y-124984660D01*
X159308905Y-124987481D01*
X159424205Y-124989800D01*
X159558799Y-124991757D01*
X159714893Y-124993491D01*
X159894695Y-124995143D01*
X160035676Y-124996324D01*
X161003622Y-125004270D01*
X161096770Y-125055756D01*
X161141645Y-125080137D01*
X161176501Y-125098280D01*
X161195054Y-125106935D01*
X161196311Y-125107243D01*
X161197749Y-125094014D01*
X161199074Y-125056326D01*
X161200249Y-124997183D01*
X161201237Y-124919586D01*
X161201999Y-124826536D01*
X161202500Y-124721035D01*
X161202701Y-124606084D01*
X161202703Y-124592378D01*
X161202703Y-124077513D01*
X161086000Y-124077513D01*
X161033260Y-124076635D01*
X160992926Y-124074292D01*
X160971300Y-124070921D01*
X160969298Y-124069431D01*
X160977683Y-124055804D01*
X160999692Y-124027757D01*
X161030601Y-123991303D01*
X161031316Y-123990485D01*
X161080843Y-123923962D01*
X161130575Y-123839948D01*
X161175626Y-123747937D01*
X161211110Y-123657421D01*
X161223236Y-123617567D01*
X161238637Y-123538255D01*
X161248465Y-123440935D01*
X161252580Y-123334516D01*
X161250841Y-123227907D01*
X161243108Y-123130017D01*
X161231981Y-123061513D01*
X161182648Y-122893520D01*
X161112342Y-122742281D01*
X161021933Y-122608782D01*
X160912295Y-122494006D01*
X160784299Y-122398937D01*
X160638818Y-122324560D01*
X160550541Y-122292474D01*
X160464739Y-122272365D01*
X160361736Y-122259038D01*
X160251034Y-122252872D01*
X160234925Y-122253074D01*
X160234925Y-123181648D01*
X160317184Y-123189348D01*
X160385546Y-123214989D01*
X160448970Y-123262378D01*
X160467567Y-123280579D01*
X160517846Y-123345282D01*
X160550056Y-123420066D01*
X160565648Y-123509662D01*
X160566796Y-123604012D01*
X160559216Y-123693501D01*
X160544389Y-123762018D01*
X160533253Y-123791775D01*
X160502904Y-123845408D01*
X160460221Y-123902235D01*
X160412317Y-123954082D01*
X160366301Y-123992778D01*
X160349421Y-124003054D01*
X160325782Y-124011042D01*
X160288168Y-124016721D01*
X160232985Y-124020356D01*
X160156640Y-124022211D01*
X160083981Y-124022594D01*
X159999270Y-124022335D01*
X159938018Y-124021287D01*
X159896227Y-124019045D01*
X159869899Y-124015206D01*
X159855035Y-124009365D01*
X159847639Y-124001118D01*
X159846461Y-123998567D01*
X159842833Y-123976400D01*
X159839866Y-123932680D01*
X159837827Y-123873311D01*
X159836983Y-123804196D01*
X159836982Y-123789189D01*
X159838457Y-123696805D01*
X159842842Y-123625432D01*
X159850738Y-123568719D01*
X159862270Y-123521872D01*
X159906215Y-123405669D01*
X159960243Y-123314543D01*
X160025219Y-123247705D01*
X160102005Y-123204365D01*
X160191467Y-123183734D01*
X160234925Y-123181648D01*
X160234925Y-122253074D01*
X160142133Y-122254244D01*
X160044536Y-122263532D01*
X160005105Y-122270777D01*
X159858701Y-122317039D01*
X159723995Y-122387384D01*
X159602280Y-122480484D01*
X159494847Y-122595012D01*
X159402988Y-122729640D01*
X159327996Y-122883040D01*
X159282458Y-123013459D01*
X159258533Y-123100623D01*
X159239943Y-123183996D01*
X159226084Y-123268976D01*
X159216351Y-123360965D01*
X159210141Y-123465362D01*
X159206851Y-123587568D01*
X159205924Y-123698055D01*
X159205027Y-124025677D01*
X159106547Y-124019401D01*
X158999695Y-124001579D01*
X158907852Y-123963667D01*
X158833310Y-123907280D01*
X158778364Y-123834031D01*
X158751552Y-123769535D01*
X158734654Y-123677123D01*
X158732227Y-123567111D01*
X158743378Y-123444656D01*
X158767210Y-123314914D01*
X158802830Y-123183042D01*
X158849343Y-123054198D01*
X158891883Y-122960566D01*
X158913728Y-122915517D01*
X158928984Y-122881156D01*
X158934937Y-122863681D01*
X158934746Y-122862733D01*
X158921412Y-122856703D01*
X158886068Y-122841645D01*
X158832101Y-122818977D01*
X158762896Y-122790115D01*
X158681840Y-122756477D01*
X158599118Y-122722284D01*
X158267803Y-122585586D01*
X158251833Y-122682820D01*
X158243820Y-122724964D01*
X158230361Y-122788319D01*
X158212679Y-122867457D01*
X158191996Y-122956951D01*
X158169532Y-123051373D01*
X158160403Y-123088973D01*
X158122674Y-123251637D01*
X158094388Y-123394050D01*
X158074972Y-123521527D01*
X158063854Y-123639384D01*
X158060464Y-123752938D01*
X158064229Y-123867505D01*
G36*
X156756825Y-127542270D02*
X156757304Y-127659041D01*
X156757545Y-127698729D01*
X156761135Y-128244486D01*
X158854919Y-128251351D01*
X159138842Y-128252258D01*
X159396640Y-128253062D01*
X159629646Y-128253815D01*
X159839194Y-128254569D01*
X160026618Y-128255375D01*
X160193250Y-128256285D01*
X160340425Y-128257351D01*
X160469477Y-128258624D01*
X160581739Y-128260156D01*
X160678544Y-128261998D01*
X160761226Y-128264203D01*
X160831119Y-128266822D01*
X160889557Y-128269906D01*
X160937872Y-128273508D01*
X160977400Y-128277678D01*
X161009473Y-128282469D01*
X161035424Y-128287931D01*
X161056589Y-128294118D01*
X161074299Y-128301080D01*
X161089889Y-128308869D01*
X161104693Y-128317537D01*
X161120044Y-128327135D01*
X161137276Y-128337715D01*
X161140946Y-128339884D01*
X161203031Y-128376268D01*
X161199434Y-127850431D01*
X161195838Y-127324594D01*
X161080331Y-127317729D01*
X161024899Y-127313992D01*
X160992851Y-127310097D01*
X160980135Y-127304811D01*
X160982696Y-127296903D01*
X160990024Y-127290270D01*
X161016714Y-127261374D01*
X161051021Y-127214279D01*
X161088846Y-127155620D01*
X161126090Y-127092031D01*
X161158653Y-127030149D01*
X161180077Y-126982634D01*
X161215283Y-126871316D01*
X161240222Y-126743596D01*
X161253941Y-126608901D01*
X161255486Y-126476663D01*
X161243906Y-126356308D01*
X161243574Y-126354326D01*
X161202250Y-126189641D01*
X161136412Y-126035479D01*
X161047474Y-125893328D01*
X160936852Y-125764675D01*
X160805961Y-125651007D01*
X160656216Y-125553810D01*
X160489033Y-125474572D01*
X160365190Y-125431430D01*
X160261581Y-125402979D01*
X160161252Y-125381880D01*
X160058109Y-125367488D01*
X159946057Y-125359158D01*
X159819001Y-125356245D01*
X159715252Y-125357535D01*
X159715252Y-126370650D01*
X159889222Y-126375444D01*
X160038895Y-126390568D01*
X160165597Y-126416485D01*
X160270658Y-126453663D01*
X160355406Y-126502565D01*
X160421169Y-126563658D01*
X160467659Y-126634177D01*
X160485014Y-126670871D01*
X160495419Y-126702696D01*
X160500179Y-126738177D01*
X160500601Y-126785841D01*
X160498748Y-126837189D01*
X160489841Y-126938169D01*
X160472398Y-127018035D01*
X160463661Y-127043135D01*
X160437857Y-127100448D01*
X160405453Y-127160897D01*
X160389233Y-127187297D01*
X160344205Y-127255946D01*
X158916982Y-127255946D01*
X158871718Y-127180432D01*
X158820572Y-127075121D01*
X158790324Y-126967525D01*
X158780795Y-126861581D01*
X158791807Y-126761224D01*
X158823181Y-126670387D01*
X158874740Y-126593007D01*
X158899488Y-126568039D01*
X158980577Y-126507856D01*
X159078734Y-126459145D01*
X159195643Y-126421499D01*
X159332985Y-126394512D01*
X159492444Y-126377775D01*
X159675700Y-126370883D01*
X159715252Y-126370650D01*
X159715252Y-125357535D01*
X159672067Y-125358073D01*
X159446053Y-125369647D01*
X159242192Y-125392920D01*
X159057513Y-125428504D01*
X158889048Y-125477013D01*
X158733826Y-125539060D01*
X158687808Y-125561201D01*
X158537739Y-125650385D01*
X158404377Y-125758159D01*
X158289877Y-125881990D01*
X158196389Y-126019342D01*
X158126068Y-126167683D01*
X158097060Y-126256604D01*
X158079840Y-126343933D01*
X158069594Y-126449011D01*
X158066318Y-126563029D01*
X158070009Y-126677177D01*
X158080660Y-126782648D01*
X158097370Y-126867334D01*
X158130140Y-126968128D01*
X158172279Y-127065822D01*
X158219519Y-127151296D01*
X158251581Y-127196789D01*
X158275422Y-127228169D01*
X158289939Y-127250142D01*
X158292000Y-127255141D01*
X158278718Y-127256690D01*
X158240663Y-127258135D01*
X158180519Y-127259443D01*
X158100973Y-127260583D01*
X158004711Y-127261521D01*
X157894419Y-127262226D01*
X157772781Y-127262667D01*
X157648885Y-127262811D01*
X157490196Y-127262730D01*
X157356408Y-127262335D01*
X157244960Y-127261395D01*
X157153295Y-127259680D01*
X157078853Y-127256957D01*
X157019075Y-127252997D01*
X156971402Y-127247569D01*
X156933274Y-127240441D01*
X156902134Y-127231384D01*
X156875421Y-127220167D01*
X156850577Y-127206558D01*
X156825043Y-127190328D01*
X156821881Y-127188240D01*
X156788810Y-127167306D01*
X156766069Y-127154667D01*
X156761272Y-127152973D01*
X156759759Y-127166216D01*
X156758528Y-127204002D01*
X156757599Y-127263416D01*
X156756992Y-127341542D01*
X156756727Y-127435465D01*
X156756825Y-127542270D01*
X156756825Y-127542270D01*
G37*
X156756825Y-127542270D02*
X156757304Y-127659041D01*
X156757545Y-127698729D01*
X156761135Y-128244486D01*
X158854919Y-128251351D01*
X159138842Y-128252258D01*
X159396640Y-128253062D01*
X159629646Y-128253815D01*
X159839194Y-128254569D01*
X160026618Y-128255375D01*
X160193250Y-128256285D01*
X160340425Y-128257351D01*
X160469477Y-128258624D01*
X160581739Y-128260156D01*
X160678544Y-128261998D01*
X160761226Y-128264203D01*
X160831119Y-128266822D01*
X160889557Y-128269906D01*
X160937872Y-128273508D01*
X160977400Y-128277678D01*
X161009473Y-128282469D01*
X161035424Y-128287931D01*
X161056589Y-128294118D01*
X161074299Y-128301080D01*
X161089889Y-128308869D01*
X161104693Y-128317537D01*
X161120044Y-128327135D01*
X161137276Y-128337715D01*
X161140946Y-128339884D01*
X161203031Y-128376268D01*
X161199434Y-127850431D01*
X161195838Y-127324594D01*
X161080331Y-127317729D01*
X161024899Y-127313992D01*
X160992851Y-127310097D01*
X160980135Y-127304811D01*
X160982696Y-127296903D01*
X160990024Y-127290270D01*
X161016714Y-127261374D01*
X161051021Y-127214279D01*
X161088846Y-127155620D01*
X161126090Y-127092031D01*
X161158653Y-127030149D01*
X161180077Y-126982634D01*
X161215283Y-126871316D01*
X161240222Y-126743596D01*
X161253941Y-126608901D01*
X161255486Y-126476663D01*
X161243906Y-126356308D01*
X161243574Y-126354326D01*
X161202250Y-126189641D01*
X161136412Y-126035479D01*
X161047474Y-125893328D01*
X160936852Y-125764675D01*
X160805961Y-125651007D01*
X160656216Y-125553810D01*
X160489033Y-125474572D01*
X160365190Y-125431430D01*
X160261581Y-125402979D01*
X160161252Y-125381880D01*
X160058109Y-125367488D01*
X159946057Y-125359158D01*
X159819001Y-125356245D01*
X159715252Y-125357535D01*
X159715252Y-126370650D01*
X159889222Y-126375444D01*
X160038895Y-126390568D01*
X160165597Y-126416485D01*
X160270658Y-126453663D01*
X160355406Y-126502565D01*
X160421169Y-126563658D01*
X160467659Y-126634177D01*
X160485014Y-126670871D01*
X160495419Y-126702696D01*
X160500179Y-126738177D01*
X160500601Y-126785841D01*
X160498748Y-126837189D01*
X160489841Y-126938169D01*
X160472398Y-127018035D01*
X160463661Y-127043135D01*
X160437857Y-127100448D01*
X160405453Y-127160897D01*
X160389233Y-127187297D01*
X160344205Y-127255946D01*
X158916982Y-127255946D01*
X158871718Y-127180432D01*
X158820572Y-127075121D01*
X158790324Y-126967525D01*
X158780795Y-126861581D01*
X158791807Y-126761224D01*
X158823181Y-126670387D01*
X158874740Y-126593007D01*
X158899488Y-126568039D01*
X158980577Y-126507856D01*
X159078734Y-126459145D01*
X159195643Y-126421499D01*
X159332985Y-126394512D01*
X159492444Y-126377775D01*
X159675700Y-126370883D01*
X159715252Y-126370650D01*
X159715252Y-125357535D01*
X159672067Y-125358073D01*
X159446053Y-125369647D01*
X159242192Y-125392920D01*
X159057513Y-125428504D01*
X158889048Y-125477013D01*
X158733826Y-125539060D01*
X158687808Y-125561201D01*
X158537739Y-125650385D01*
X158404377Y-125758159D01*
X158289877Y-125881990D01*
X158196389Y-126019342D01*
X158126068Y-126167683D01*
X158097060Y-126256604D01*
X158079840Y-126343933D01*
X158069594Y-126449011D01*
X158066318Y-126563029D01*
X158070009Y-126677177D01*
X158080660Y-126782648D01*
X158097370Y-126867334D01*
X158130140Y-126968128D01*
X158172279Y-127065822D01*
X158219519Y-127151296D01*
X158251581Y-127196789D01*
X158275422Y-127228169D01*
X158289939Y-127250142D01*
X158292000Y-127255141D01*
X158278718Y-127256690D01*
X158240663Y-127258135D01*
X158180519Y-127259443D01*
X158100973Y-127260583D01*
X158004711Y-127261521D01*
X157894419Y-127262226D01*
X157772781Y-127262667D01*
X157648885Y-127262811D01*
X157490196Y-127262730D01*
X157356408Y-127262335D01*
X157244960Y-127261395D01*
X157153295Y-127259680D01*
X157078853Y-127256957D01*
X157019075Y-127252997D01*
X156971402Y-127247569D01*
X156933274Y-127240441D01*
X156902134Y-127231384D01*
X156875421Y-127220167D01*
X156850577Y-127206558D01*
X156825043Y-127190328D01*
X156821881Y-127188240D01*
X156788810Y-127167306D01*
X156766069Y-127154667D01*
X156761272Y-127152973D01*
X156759759Y-127166216D01*
X156758528Y-127204002D01*
X156757599Y-127263416D01*
X156756992Y-127341542D01*
X156756727Y-127435465D01*
X156756825Y-127542270D01*
G36*
X155836490Y-117973921D02*
X155872238Y-118077027D01*
X155928507Y-118173022D01*
X156005288Y-118258753D01*
X156102573Y-118331070D01*
X156163892Y-118363555D01*
X156249660Y-118391668D01*
X156348677Y-118405295D01*
X156450471Y-118403786D01*
X156542714Y-118387031D01*
X156655432Y-118341237D01*
X156753207Y-118274832D01*
X156834115Y-118191191D01*
X156896232Y-118093688D01*
X156937634Y-117985700D01*
X156956397Y-117870601D01*
X156950598Y-117751766D01*
X156938206Y-117693189D01*
X156893797Y-117579028D01*
X156826033Y-117477635D01*
X156737001Y-117391455D01*
X156628791Y-117322934D01*
X156616973Y-117317136D01*
X156572628Y-117297096D01*
X156535280Y-117284513D01*
X156495880Y-117277681D01*
X156445381Y-117274895D01*
X156390433Y-117274432D01*
X156324415Y-117275197D01*
X156276689Y-117278648D01*
X156238103Y-117286523D01*
X156199506Y-117300557D01*
X156161426Y-117317880D01*
X156053328Y-117382495D01*
X155965803Y-117462066D01*
X155898841Y-117553440D01*
X155852436Y-117653464D01*
X155826581Y-117758988D01*
X155821268Y-117866858D01*
X155836490Y-117973921D01*
X155836490Y-117973921D01*
G37*
X155836490Y-117973921D02*
X155872238Y-118077027D01*
X155928507Y-118173022D01*
X156005288Y-118258753D01*
X156102573Y-118331070D01*
X156163892Y-118363555D01*
X156249660Y-118391668D01*
X156348677Y-118405295D01*
X156450471Y-118403786D01*
X156542714Y-118387031D01*
X156655432Y-118341237D01*
X156753207Y-118274832D01*
X156834115Y-118191191D01*
X156896232Y-118093688D01*
X156937634Y-117985700D01*
X156956397Y-117870601D01*
X156950598Y-117751766D01*
X156938206Y-117693189D01*
X156893797Y-117579028D01*
X156826033Y-117477635D01*
X156737001Y-117391455D01*
X156628791Y-117322934D01*
X156616973Y-117317136D01*
X156572628Y-117297096D01*
X156535280Y-117284513D01*
X156495880Y-117277681D01*
X156445381Y-117274895D01*
X156390433Y-117274432D01*
X156324415Y-117275197D01*
X156276689Y-117278648D01*
X156238103Y-117286523D01*
X156199506Y-117300557D01*
X156161426Y-117317880D01*
X156053328Y-117382495D01*
X155965803Y-117462066D01*
X155898841Y-117553440D01*
X155852436Y-117653464D01*
X155826581Y-117758988D01*
X155821268Y-117866858D01*
X155836490Y-117973921D01*
G36*
X194320808Y-128165166D02*
X194233015Y-128208540D01*
X194124751Y-128284122D01*
X194045845Y-128366542D01*
X193991805Y-128470037D01*
X193958141Y-128608843D01*
X193940363Y-128797194D01*
X193933980Y-129049328D01*
X193933607Y-129157724D01*
X193934696Y-129395287D01*
X193939222Y-129565068D01*
X193949068Y-129682550D01*
X193966118Y-129763215D01*
X193992259Y-129822545D01*
X194019458Y-129863020D01*
X194193080Y-130035225D01*
X194397538Y-130138806D01*
X194618104Y-130169960D01*
X194840046Y-130124885D01*
X194910360Y-130093009D01*
X195078689Y-130005271D01*
X195078689Y-131380172D01*
X194955838Y-131316643D01*
X194793967Y-131267491D01*
X194595005Y-131254900D01*
X194396328Y-131278147D01*
X194246290Y-131330370D01*
X194121841Y-131429826D01*
X194015508Y-131572143D01*
X194007513Y-131586755D01*
X193973793Y-131655582D01*
X193949166Y-131724956D01*
X193932214Y-131808996D01*
X193921519Y-131921816D01*
X193915662Y-132077533D01*
X193913227Y-132290265D01*
X193912787Y-132529664D01*
X193912787Y-133293443D01*
X194370820Y-133293443D01*
X194370820Y-131885108D01*
X194498933Y-131777308D01*
X194632018Y-131691079D01*
X194758048Y-131675401D01*
X194884778Y-131715747D01*
X194952317Y-131755254D01*
X195002586Y-131811527D01*
X195038338Y-131896572D01*
X195062328Y-132022394D01*
X195077311Y-132200998D01*
X195086040Y-132444391D01*
X195089114Y-132606394D01*
X195099508Y-133272623D01*
X195318115Y-133285209D01*
X195536721Y-133297795D01*
X195536721Y-129163464D01*
X195078689Y-129163464D01*
X195067011Y-129393953D01*
X195027662Y-129553950D01*
X194954166Y-129653497D01*
X194840049Y-129702639D01*
X194724754Y-129712459D01*
X194594238Y-129701175D01*
X194507617Y-129656764D01*
X194453451Y-129598081D01*
X194410810Y-129534962D01*
X194385426Y-129464645D01*
X194374131Y-129366123D01*
X194373760Y-129218387D01*
X194377560Y-129094683D01*
X194386288Y-128908328D01*
X194399280Y-128785982D01*
X194421159Y-128708377D01*
X194456546Y-128656245D01*
X194489941Y-128626111D01*
X194629475Y-128560399D01*
X194794619Y-128549787D01*
X194889446Y-128572423D01*
X194983334Y-128652881D01*
X195045526Y-128809392D01*
X195075669Y-129040852D01*
X195078689Y-129163464D01*
X195536721Y-129163464D01*
X195536721Y-128130164D01*
X195307705Y-128130164D01*
X195170206Y-128135602D01*
X195099267Y-128154909D01*
X195078697Y-128192576D01*
X195078689Y-128193692D01*
X195069145Y-128230581D01*
X195027051Y-128226393D01*
X194943361Y-128185859D01*
X194748354Y-128123850D01*
X194528954Y-128117332D01*
X194320808Y-128165166D01*
X194320808Y-128165166D01*
G37*
X194320808Y-128165166D02*
X194233015Y-128208540D01*
X194124751Y-128284122D01*
X194045845Y-128366542D01*
X193991805Y-128470037D01*
X193958141Y-128608843D01*
X193940363Y-128797194D01*
X193933980Y-129049328D01*
X193933607Y-129157724D01*
X193934696Y-129395287D01*
X193939222Y-129565068D01*
X193949068Y-129682550D01*
X193966118Y-129763215D01*
X193992259Y-129822545D01*
X194019458Y-129863020D01*
X194193080Y-130035225D01*
X194397538Y-130138806D01*
X194618104Y-130169960D01*
X194840046Y-130124885D01*
X194910360Y-130093009D01*
X195078689Y-130005271D01*
X195078689Y-131380172D01*
X194955838Y-131316643D01*
X194793967Y-131267491D01*
X194595005Y-131254900D01*
X194396328Y-131278147D01*
X194246290Y-131330370D01*
X194121841Y-131429826D01*
X194015508Y-131572143D01*
X194007513Y-131586755D01*
X193973793Y-131655582D01*
X193949166Y-131724956D01*
X193932214Y-131808996D01*
X193921519Y-131921816D01*
X193915662Y-132077533D01*
X193913227Y-132290265D01*
X193912787Y-132529664D01*
X193912787Y-133293443D01*
X194370820Y-133293443D01*
X194370820Y-131885108D01*
X194498933Y-131777308D01*
X194632018Y-131691079D01*
X194758048Y-131675401D01*
X194884778Y-131715747D01*
X194952317Y-131755254D01*
X195002586Y-131811527D01*
X195038338Y-131896572D01*
X195062328Y-132022394D01*
X195077311Y-132200998D01*
X195086040Y-132444391D01*
X195089114Y-132606394D01*
X195099508Y-133272623D01*
X195318115Y-133285209D01*
X195536721Y-133297795D01*
X195536721Y-129163464D01*
X195078689Y-129163464D01*
X195067011Y-129393953D01*
X195027662Y-129553950D01*
X194954166Y-129653497D01*
X194840049Y-129702639D01*
X194724754Y-129712459D01*
X194594238Y-129701175D01*
X194507617Y-129656764D01*
X194453451Y-129598081D01*
X194410810Y-129534962D01*
X194385426Y-129464645D01*
X194374131Y-129366123D01*
X194373760Y-129218387D01*
X194377560Y-129094683D01*
X194386288Y-128908328D01*
X194399280Y-128785982D01*
X194421159Y-128708377D01*
X194456546Y-128656245D01*
X194489941Y-128626111D01*
X194629475Y-128560399D01*
X194794619Y-128549787D01*
X194889446Y-128572423D01*
X194983334Y-128652881D01*
X195045526Y-128809392D01*
X195075669Y-129040852D01*
X195078689Y-129163464D01*
X195536721Y-129163464D01*
X195536721Y-128130164D01*
X195307705Y-128130164D01*
X195170206Y-128135602D01*
X195099267Y-128154909D01*
X195078697Y-128192576D01*
X195078689Y-128193692D01*
X195069145Y-128230581D01*
X195027051Y-128226393D01*
X194943361Y-128185859D01*
X194748354Y-128123850D01*
X194528954Y-128117332D01*
X194320808Y-128165166D01*
G36*
X192583779Y-131269247D02*
X192387889Y-131321514D01*
X192238767Y-131416253D01*
X192133535Y-131540338D01*
X192100821Y-131593296D01*
X192076669Y-131648768D01*
X192059784Y-131719730D01*
X192048873Y-131819154D01*
X192042640Y-131960016D01*
X192039791Y-132155289D01*
X192039032Y-132417948D01*
X192039016Y-132487633D01*
X192039016Y-133293443D01*
X192238885Y-133293443D01*
X192366370Y-133284515D01*
X192460634Y-133261896D01*
X192484251Y-133247946D01*
X192548815Y-133223870D01*
X192614759Y-133247946D01*
X192723332Y-133278003D01*
X192881042Y-133290100D01*
X193055844Y-133284851D01*
X193215693Y-133262869D01*
X193309016Y-133234663D01*
X193489609Y-133118731D01*
X193602470Y-132957847D01*
X193653209Y-132743936D01*
X193653680Y-132738443D01*
X193649227Y-132643547D01*
X193246557Y-132643547D01*
X193211354Y-132751484D01*
X193154014Y-132812229D01*
X193038913Y-132858172D01*
X192886986Y-132876512D01*
X192732061Y-132867485D01*
X192607964Y-132831332D01*
X192573197Y-132808137D01*
X192512444Y-132700960D01*
X192497049Y-132579120D01*
X192497049Y-132419017D01*
X192727403Y-132419017D01*
X192946241Y-132435863D01*
X193112137Y-132483593D01*
X193215338Y-132557986D01*
X193246557Y-132643547D01*
X193649227Y-132643547D01*
X193642713Y-132504731D01*
X193565631Y-132319946D01*
X193420714Y-132180206D01*
X193400683Y-132167495D01*
X193314610Y-132126105D01*
X193208073Y-132101041D01*
X193059141Y-132088858D01*
X192882213Y-132086057D01*
X192497049Y-132085902D01*
X192497049Y-131924443D01*
X192513387Y-131799168D01*
X192555078Y-131715241D01*
X192559959Y-131710773D01*
X192652736Y-131674059D01*
X192792784Y-131659828D01*
X192947555Y-131666821D01*
X193084499Y-131693780D01*
X193165759Y-131734212D01*
X193209790Y-131766601D01*
X193256285Y-131772784D01*
X193320451Y-131746248D01*
X193417495Y-131680479D01*
X193562626Y-131568963D01*
X193575947Y-131558516D01*
X193569121Y-131519862D01*
X193512178Y-131455572D01*
X193425630Y-131384131D01*
X193329992Y-131324021D01*
X193299944Y-131309827D01*
X193190341Y-131281503D01*
X193029735Y-131261300D01*
X192850302Y-131253196D01*
X192841911Y-131253180D01*
X192583779Y-131269247D01*
X192583779Y-131269247D01*
G37*
X192583779Y-131269247D02*
X192387889Y-131321514D01*
X192238767Y-131416253D01*
X192133535Y-131540338D01*
X192100821Y-131593296D01*
X192076669Y-131648768D01*
X192059784Y-131719730D01*
X192048873Y-131819154D01*
X192042640Y-131960016D01*
X192039791Y-132155289D01*
X192039032Y-132417948D01*
X192039016Y-132487633D01*
X192039016Y-133293443D01*
X192238885Y-133293443D01*
X192366370Y-133284515D01*
X192460634Y-133261896D01*
X192484251Y-133247946D01*
X192548815Y-133223870D01*
X192614759Y-133247946D01*
X192723332Y-133278003D01*
X192881042Y-133290100D01*
X193055844Y-133284851D01*
X193215693Y-133262869D01*
X193309016Y-133234663D01*
X193489609Y-133118731D01*
X193602470Y-132957847D01*
X193653209Y-132743936D01*
X193653680Y-132738443D01*
X193649227Y-132643547D01*
X193246557Y-132643547D01*
X193211354Y-132751484D01*
X193154014Y-132812229D01*
X193038913Y-132858172D01*
X192886986Y-132876512D01*
X192732061Y-132867485D01*
X192607964Y-132831332D01*
X192573197Y-132808137D01*
X192512444Y-132700960D01*
X192497049Y-132579120D01*
X192497049Y-132419017D01*
X192727403Y-132419017D01*
X192946241Y-132435863D01*
X193112137Y-132483593D01*
X193215338Y-132557986D01*
X193246557Y-132643547D01*
X193649227Y-132643547D01*
X193642713Y-132504731D01*
X193565631Y-132319946D01*
X193420714Y-132180206D01*
X193400683Y-132167495D01*
X193314610Y-132126105D01*
X193208073Y-132101041D01*
X193059141Y-132088858D01*
X192882213Y-132086057D01*
X192497049Y-132085902D01*
X192497049Y-131924443D01*
X192513387Y-131799168D01*
X192555078Y-131715241D01*
X192559959Y-131710773D01*
X192652736Y-131674059D01*
X192792784Y-131659828D01*
X192947555Y-131666821D01*
X193084499Y-131693780D01*
X193165759Y-131734212D01*
X193209790Y-131766601D01*
X193256285Y-131772784D01*
X193320451Y-131746248D01*
X193417495Y-131680479D01*
X193562626Y-131568963D01*
X193575947Y-131558516D01*
X193569121Y-131519862D01*
X193512178Y-131455572D01*
X193425630Y-131384131D01*
X193329992Y-131324021D01*
X193299944Y-131309827D01*
X193190341Y-131281503D01*
X193029735Y-131261300D01*
X192850302Y-131253196D01*
X192841911Y-131253180D01*
X192583779Y-131269247D01*
G36*
X191289475Y-131257540D02*
X191227163Y-131276218D01*
X191207075Y-131317255D01*
X191206230Y-131335782D01*
X191202625Y-131387383D01*
X191177800Y-131395484D01*
X191110737Y-131360108D01*
X191070902Y-131335937D01*
X190945227Y-131284175D01*
X190795123Y-131258581D01*
X190637737Y-131256613D01*
X190490214Y-131275729D01*
X190369700Y-131313387D01*
X190293340Y-131367044D01*
X190278281Y-131434158D01*
X190285881Y-131452333D01*
X190341282Y-131527777D01*
X190427190Y-131620568D01*
X190442728Y-131635568D01*
X190524612Y-131704540D01*
X190595263Y-131726825D01*
X190694068Y-131711272D01*
X190733652Y-131700938D01*
X190856828Y-131676116D01*
X190943436Y-131687278D01*
X191016576Y-131726646D01*
X191083574Y-131779479D01*
X191132918Y-131845924D01*
X191167209Y-131938652D01*
X191189048Y-132070334D01*
X191201034Y-132253641D01*
X191205769Y-132501246D01*
X191206230Y-132650744D01*
X191206230Y-133293443D01*
X191622623Y-133293443D01*
X191622623Y-131253115D01*
X191414426Y-131253115D01*
X191289475Y-131257540D01*
X191289475Y-131257540D01*
G37*
X191289475Y-131257540D02*
X191227163Y-131276218D01*
X191207075Y-131317255D01*
X191206230Y-131335782D01*
X191202625Y-131387383D01*
X191177800Y-131395484D01*
X191110737Y-131360108D01*
X191070902Y-131335937D01*
X190945227Y-131284175D01*
X190795123Y-131258581D01*
X190637737Y-131256613D01*
X190490214Y-131275729D01*
X190369700Y-131313387D01*
X190293340Y-131367044D01*
X190278281Y-131434158D01*
X190285881Y-131452333D01*
X190341282Y-131527777D01*
X190427190Y-131620568D01*
X190442728Y-131635568D01*
X190524612Y-131704540D01*
X190595263Y-131726825D01*
X190694068Y-131711272D01*
X190733652Y-131700938D01*
X190856828Y-131676116D01*
X190943436Y-131687278D01*
X191016576Y-131726646D01*
X191083574Y-131779479D01*
X191132918Y-131845924D01*
X191167209Y-131938652D01*
X191189048Y-132070334D01*
X191201034Y-132253641D01*
X191205769Y-132501246D01*
X191206230Y-132650744D01*
X191206230Y-133293443D01*
X191622623Y-133293443D01*
X191622623Y-131253115D01*
X191414426Y-131253115D01*
X191289475Y-131257540D01*
G36*
X188666230Y-133293443D02*
X188895246Y-133293443D01*
X189028175Y-133289546D01*
X189097405Y-133273407D01*
X189122332Y-133238354D01*
X189124262Y-133214653D01*
X189128466Y-133167123D01*
X189154974Y-133158008D01*
X189224633Y-133187308D01*
X189278804Y-133214653D01*
X189486777Y-133279451D01*
X189712853Y-133283201D01*
X189896655Y-133234873D01*
X190067813Y-133118118D01*
X190198284Y-132945781D01*
X190269727Y-132742506D01*
X190271546Y-132731141D01*
X190282161Y-132607136D01*
X190287440Y-132429117D01*
X190287016Y-132294480D01*
X189832172Y-132294480D01*
X189821635Y-132473428D01*
X189797666Y-132620924D01*
X189765217Y-132704217D01*
X189642456Y-132818041D01*
X189496701Y-132858845D01*
X189346393Y-132825848D01*
X189217951Y-132727422D01*
X189169308Y-132661224D01*
X189140866Y-132582231D01*
X189127544Y-132466926D01*
X189124262Y-132293736D01*
X189130135Y-132122229D01*
X189145647Y-131971540D01*
X189167638Y-131870698D01*
X189171303Y-131861659D01*
X189259988Y-131754195D01*
X189389428Y-131695195D01*
X189534257Y-131685669D01*
X189669109Y-131726626D01*
X189768617Y-131819076D01*
X189778940Y-131837473D01*
X189811250Y-131949646D01*
X189828852Y-132110934D01*
X189832172Y-132294480D01*
X190287016Y-132294480D01*
X190286800Y-132226212D01*
X190283806Y-132117010D01*
X190263442Y-131846856D01*
X190221117Y-131644024D01*
X190150706Y-131494077D01*
X190046088Y-131382579D01*
X189944521Y-131317127D01*
X189802616Y-131271117D01*
X189626121Y-131255336D01*
X189445393Y-131268190D01*
X189290787Y-131308081D01*
X189209101Y-131355801D01*
X189124262Y-131432579D01*
X189124262Y-130461967D01*
X188666230Y-130461967D01*
X188666230Y-133293443D01*
X188666230Y-133293443D01*
G37*
X188666230Y-133293443D02*
X188895246Y-133293443D01*
X189028175Y-133289546D01*
X189097405Y-133273407D01*
X189122332Y-133238354D01*
X189124262Y-133214653D01*
X189128466Y-133167123D01*
X189154974Y-133158008D01*
X189224633Y-133187308D01*
X189278804Y-133214653D01*
X189486777Y-133279451D01*
X189712853Y-133283201D01*
X189896655Y-133234873D01*
X190067813Y-133118118D01*
X190198284Y-132945781D01*
X190269727Y-132742506D01*
X190271546Y-132731141D01*
X190282161Y-132607136D01*
X190287440Y-132429117D01*
X190287016Y-132294480D01*
X189832172Y-132294480D01*
X189821635Y-132473428D01*
X189797666Y-132620924D01*
X189765217Y-132704217D01*
X189642456Y-132818041D01*
X189496701Y-132858845D01*
X189346393Y-132825848D01*
X189217951Y-132727422D01*
X189169308Y-132661224D01*
X189140866Y-132582231D01*
X189127544Y-132466926D01*
X189124262Y-132293736D01*
X189130135Y-132122229D01*
X189145647Y-131971540D01*
X189167638Y-131870698D01*
X189171303Y-131861659D01*
X189259988Y-131754195D01*
X189389428Y-131695195D01*
X189534257Y-131685669D01*
X189669109Y-131726626D01*
X189768617Y-131819076D01*
X189778940Y-131837473D01*
X189811250Y-131949646D01*
X189828852Y-132110934D01*
X189832172Y-132294480D01*
X190287016Y-132294480D01*
X190286800Y-132226212D01*
X190283806Y-132117010D01*
X190263442Y-131846856D01*
X190221117Y-131644024D01*
X190150706Y-131494077D01*
X190046088Y-131382579D01*
X189944521Y-131317127D01*
X189802616Y-131271117D01*
X189626121Y-131255336D01*
X189445393Y-131268190D01*
X189290787Y-131308081D01*
X189209101Y-131355801D01*
X189124262Y-131432579D01*
X189124262Y-130461967D01*
X188666230Y-130461967D01*
X188666230Y-133293443D01*
G36*
X186903058Y-131273935D02*
X186687752Y-131919344D01*
X186472445Y-132564754D01*
X186404936Y-132335738D01*
X186364309Y-132194204D01*
X186310867Y-132002936D01*
X186253158Y-131792693D01*
X186222645Y-131679918D01*
X186107864Y-131253115D01*
X185634313Y-131253115D01*
X185775861Y-131700738D01*
X185845567Y-131920903D01*
X185929777Y-132186471D01*
X186017719Y-132463492D01*
X186096228Y-132710492D01*
X186275048Y-133272623D01*
X186468118Y-133285185D01*
X186661189Y-133297746D01*
X186765882Y-132952070D01*
X186830447Y-132737335D01*
X186900908Y-132500604D01*
X186962489Y-132291526D01*
X186964919Y-132283205D01*
X187010915Y-132141537D01*
X187051497Y-132044874D01*
X187079920Y-132008321D01*
X187085761Y-132012549D01*
X187106262Y-132069217D01*
X187145215Y-132190605D01*
X187197878Y-132361448D01*
X187259509Y-132566482D01*
X187292857Y-132679262D01*
X187473454Y-133293443D01*
X187856733Y-133293443D01*
X188163133Y-132325328D01*
X188249209Y-132053759D01*
X188327620Y-131807138D01*
X188394661Y-131597048D01*
X188446631Y-131435076D01*
X188479826Y-131332808D01*
X188489916Y-131302928D01*
X188481928Y-131272334D01*
X188419208Y-131258935D01*
X188288685Y-131260275D01*
X188268253Y-131261288D01*
X188026208Y-131273935D01*
X187867683Y-131856885D01*
X187809415Y-132069486D01*
X187757345Y-132256377D01*
X187716056Y-132401331D01*
X187690134Y-132488120D01*
X187685344Y-132502269D01*
X187665496Y-132485998D01*
X187625470Y-132401697D01*
X187569862Y-132260842D01*
X187503269Y-132074911D01*
X187446976Y-131906956D01*
X187232422Y-131249209D01*
X186903058Y-131273935D01*
X186903058Y-131273935D01*
G37*
X186903058Y-131273935D02*
X186687752Y-131919344D01*
X186472445Y-132564754D01*
X186404936Y-132335738D01*
X186364309Y-132194204D01*
X186310867Y-132002936D01*
X186253158Y-131792693D01*
X186222645Y-131679918D01*
X186107864Y-131253115D01*
X185634313Y-131253115D01*
X185775861Y-131700738D01*
X185845567Y-131920903D01*
X185929777Y-132186471D01*
X186017719Y-132463492D01*
X186096228Y-132710492D01*
X186275048Y-133272623D01*
X186468118Y-133285185D01*
X186661189Y-133297746D01*
X186765882Y-132952070D01*
X186830447Y-132737335D01*
X186900908Y-132500604D01*
X186962489Y-132291526D01*
X186964919Y-132283205D01*
X187010915Y-132141537D01*
X187051497Y-132044874D01*
X187079920Y-132008321D01*
X187085761Y-132012549D01*
X187106262Y-132069217D01*
X187145215Y-132190605D01*
X187197878Y-132361448D01*
X187259509Y-132566482D01*
X187292857Y-132679262D01*
X187473454Y-133293443D01*
X187856733Y-133293443D01*
X188163133Y-132325328D01*
X188249209Y-132053759D01*
X188327620Y-131807138D01*
X188394661Y-131597048D01*
X188446631Y-131435076D01*
X188479826Y-131332808D01*
X188489916Y-131302928D01*
X188481928Y-131272334D01*
X188419208Y-131258935D01*
X188288685Y-131260275D01*
X188268253Y-131261288D01*
X188026208Y-131273935D01*
X187867683Y-131856885D01*
X187809415Y-132069486D01*
X187757345Y-132256377D01*
X187716056Y-132401331D01*
X187690134Y-132488120D01*
X187685344Y-132502269D01*
X187665496Y-132485998D01*
X187625470Y-132401697D01*
X187569862Y-132260842D01*
X187503269Y-132074911D01*
X187446976Y-131906956D01*
X187232422Y-131249209D01*
X186903058Y-131273935D01*
G36*
X184561330Y-131265480D02*
X184385821Y-131308109D01*
X184335088Y-131330693D01*
X184236746Y-131389847D01*
X184161273Y-131456472D01*
X184105429Y-131542135D01*
X184065974Y-131658405D01*
X184039668Y-131816848D01*
X184023271Y-132029034D01*
X184013543Y-132306529D01*
X184009849Y-132491885D01*
X183996255Y-133293443D01*
X184228456Y-133293443D01*
X184369323Y-133287536D01*
X184441898Y-133267350D01*
X184460656Y-133233453D01*
X184470559Y-133196799D01*
X184514834Y-133203807D01*
X184575164Y-133233197D01*
X184726197Y-133278246D01*
X184920307Y-133290385D01*
X185124469Y-133270529D01*
X185305660Y-133219592D01*
X185321911Y-133212522D01*
X185487509Y-133096188D01*
X185596676Y-132934467D01*
X185646909Y-132745430D01*
X185643072Y-132677515D01*
X185233237Y-132677515D01*
X185197125Y-132768914D01*
X185090058Y-132834411D01*
X184917316Y-132869563D01*
X184825000Y-132874231D01*
X184671150Y-132862282D01*
X184568885Y-132815844D01*
X184543934Y-132793771D01*
X184476339Y-132673681D01*
X184460656Y-132564754D01*
X184460656Y-132419017D01*
X184663648Y-132419017D01*
X184899613Y-132431043D01*
X185065119Y-132468871D01*
X185169695Y-132535121D01*
X185193109Y-132564656D01*
X185233237Y-132677515D01*
X185643072Y-132677515D01*
X185635705Y-132547148D01*
X185560560Y-132357692D01*
X185458032Y-132229656D01*
X185395935Y-132174302D01*
X185335145Y-132137924D01*
X185256048Y-132115744D01*
X185139029Y-132102982D01*
X184964473Y-132094857D01*
X184895237Y-132092521D01*
X184460656Y-132078321D01*
X184461293Y-131946784D01*
X184478124Y-131808519D01*
X184538974Y-131724917D01*
X184661905Y-131671507D01*
X184665203Y-131670555D01*
X184839496Y-131649555D01*
X185010048Y-131676985D01*
X185136800Y-131743689D01*
X185187658Y-131776625D01*
X185242435Y-131772068D01*
X185326728Y-131724349D01*
X185376227Y-131690671D01*
X185473045Y-131618716D01*
X185533018Y-131564779D01*
X185542641Y-131549337D01*
X185503015Y-131469424D01*
X185385936Y-131373989D01*
X185335082Y-131341789D01*
X185188887Y-131286332D01*
X184991863Y-131254913D01*
X184773011Y-131247855D01*
X184561330Y-131265480D01*
X184561330Y-131265480D01*
G37*
X184561330Y-131265480D02*
X184385821Y-131308109D01*
X184335088Y-131330693D01*
X184236746Y-131389847D01*
X184161273Y-131456472D01*
X184105429Y-131542135D01*
X184065974Y-131658405D01*
X184039668Y-131816848D01*
X184023271Y-132029034D01*
X184013543Y-132306529D01*
X184009849Y-132491885D01*
X183996255Y-133293443D01*
X184228456Y-133293443D01*
X184369323Y-133287536D01*
X184441898Y-133267350D01*
X184460656Y-133233453D01*
X184470559Y-133196799D01*
X184514834Y-133203807D01*
X184575164Y-133233197D01*
X184726197Y-133278246D01*
X184920307Y-133290385D01*
X185124469Y-133270529D01*
X185305660Y-133219592D01*
X185321911Y-133212522D01*
X185487509Y-133096188D01*
X185596676Y-132934467D01*
X185646909Y-132745430D01*
X185643072Y-132677515D01*
X185233237Y-132677515D01*
X185197125Y-132768914D01*
X185090058Y-132834411D01*
X184917316Y-132869563D01*
X184825000Y-132874231D01*
X184671150Y-132862282D01*
X184568885Y-132815844D01*
X184543934Y-132793771D01*
X184476339Y-132673681D01*
X184460656Y-132564754D01*
X184460656Y-132419017D01*
X184663648Y-132419017D01*
X184899613Y-132431043D01*
X185065119Y-132468871D01*
X185169695Y-132535121D01*
X185193109Y-132564656D01*
X185233237Y-132677515D01*
X185643072Y-132677515D01*
X185635705Y-132547148D01*
X185560560Y-132357692D01*
X185458032Y-132229656D01*
X185395935Y-132174302D01*
X185335145Y-132137924D01*
X185256048Y-132115744D01*
X185139029Y-132102982D01*
X184964473Y-132094857D01*
X184895237Y-132092521D01*
X184460656Y-132078321D01*
X184461293Y-131946784D01*
X184478124Y-131808519D01*
X184538974Y-131724917D01*
X184661905Y-131671507D01*
X184665203Y-131670555D01*
X184839496Y-131649555D01*
X185010048Y-131676985D01*
X185136800Y-131743689D01*
X185187658Y-131776625D01*
X185242435Y-131772068D01*
X185326728Y-131724349D01*
X185376227Y-131690671D01*
X185473045Y-131618716D01*
X185533018Y-131564779D01*
X185542641Y-131549337D01*
X185503015Y-131469424D01*
X185385936Y-131373989D01*
X185335082Y-131341789D01*
X185188887Y-131286332D01*
X184991863Y-131254913D01*
X184773011Y-131247855D01*
X184561330Y-131265480D01*
G36*
X182584893Y-131252460D02*
X182424818Y-131284017D01*
X182333688Y-131330743D01*
X182237821Y-131408370D01*
X182374213Y-131580579D01*
X182458306Y-131684867D01*
X182515408Y-131735746D01*
X182572156Y-131743519D01*
X182655189Y-131718488D01*
X182694167Y-131704327D01*
X182853074Y-131683433D01*
X182998601Y-131728220D01*
X183105440Y-131829399D01*
X183122795Y-131861659D01*
X183141697Y-131947115D01*
X183156284Y-132104606D01*
X183165874Y-132322969D01*
X183169781Y-132591038D01*
X183169836Y-132629172D01*
X183169836Y-133293443D01*
X183627869Y-133293443D01*
X183627869Y-131253115D01*
X183398852Y-131253115D01*
X183266801Y-131256563D01*
X183198008Y-131271907D01*
X183172570Y-131306648D01*
X183169836Y-131339416D01*
X183169836Y-131425717D01*
X183060122Y-131339416D01*
X182934320Y-131280538D01*
X182765319Y-131251426D01*
X182584893Y-131252460D01*
X182584893Y-131252460D01*
G37*
X182584893Y-131252460D02*
X182424818Y-131284017D01*
X182333688Y-131330743D01*
X182237821Y-131408370D01*
X182374213Y-131580579D01*
X182458306Y-131684867D01*
X182515408Y-131735746D01*
X182572156Y-131743519D01*
X182655189Y-131718488D01*
X182694167Y-131704327D01*
X182853074Y-131683433D01*
X182998601Y-131728220D01*
X183105440Y-131829399D01*
X183122795Y-131861659D01*
X183141697Y-131947115D01*
X183156284Y-132104606D01*
X183165874Y-132322969D01*
X183169781Y-132591038D01*
X183169836Y-132629172D01*
X183169836Y-133293443D01*
X183627869Y-133293443D01*
X183627869Y-131253115D01*
X183398852Y-131253115D01*
X183266801Y-131256563D01*
X183198008Y-131271907D01*
X183172570Y-131306648D01*
X183169836Y-131339416D01*
X183169836Y-131425717D01*
X183060122Y-131339416D01*
X182934320Y-131280538D01*
X182765319Y-131251426D01*
X182584893Y-131252460D01*
G36*
X181269158Y-131263999D02*
X181070124Y-131315746D01*
X180903439Y-131422544D01*
X180822731Y-131502326D01*
X180690432Y-131690931D01*
X180614610Y-131909720D01*
X180588562Y-132178668D01*
X180588429Y-132200410D01*
X180588197Y-132419017D01*
X181846405Y-132419017D01*
X181819585Y-132533525D01*
X181771159Y-132637232D01*
X181686404Y-132745290D01*
X181668677Y-132762541D01*
X181516320Y-132855904D01*
X181342576Y-132871738D01*
X181142589Y-132810313D01*
X181108689Y-132793771D01*
X181004712Y-132743484D01*
X180935069Y-132714834D01*
X180922917Y-132712184D01*
X180880499Y-132737913D01*
X180799601Y-132800861D01*
X180758535Y-132835259D01*
X180673440Y-132914276D01*
X180645497Y-132966451D01*
X180664890Y-133014446D01*
X180675257Y-133027570D01*
X180745469Y-133085008D01*
X180861326Y-133154813D01*
X180942131Y-133195564D01*
X181171499Y-133267362D01*
X181425436Y-133290625D01*
X181665926Y-133263059D01*
X181733279Y-133243321D01*
X181941738Y-133131612D01*
X182096254Y-132959721D01*
X182197722Y-132725979D01*
X182247035Y-132428716D01*
X182252449Y-132273279D01*
X182236641Y-132046973D01*
X181837377Y-132046973D01*
X181798760Y-132063702D01*
X181694958Y-132076829D01*
X181544044Y-132084575D01*
X181441803Y-132085902D01*
X181257899Y-132084623D01*
X181141826Y-132078638D01*
X181078148Y-132064724D01*
X181051433Y-132039655D01*
X181046230Y-132003280D01*
X181081927Y-131891229D01*
X181171804Y-131780488D01*
X181290034Y-131695489D01*
X181408310Y-131660718D01*
X181568956Y-131691563D01*
X181708022Y-131780732D01*
X181804443Y-131909263D01*
X181837377Y-132046973D01*
X182236641Y-132046973D01*
X182229428Y-131943733D01*
X182158376Y-131681175D01*
X182037790Y-131483525D01*
X181866166Y-131348702D01*
X181642002Y-131274626D01*
X181520562Y-131260360D01*
X181269158Y-131263999D01*
X181269158Y-131263999D01*
G37*
X181269158Y-131263999D02*
X181070124Y-131315746D01*
X180903439Y-131422544D01*
X180822731Y-131502326D01*
X180690432Y-131690931D01*
X180614610Y-131909720D01*
X180588562Y-132178668D01*
X180588429Y-132200410D01*
X180588197Y-132419017D01*
X181846405Y-132419017D01*
X181819585Y-132533525D01*
X181771159Y-132637232D01*
X181686404Y-132745290D01*
X181668677Y-132762541D01*
X181516320Y-132855904D01*
X181342576Y-132871738D01*
X181142589Y-132810313D01*
X181108689Y-132793771D01*
X181004712Y-132743484D01*
X180935069Y-132714834D01*
X180922917Y-132712184D01*
X180880499Y-132737913D01*
X180799601Y-132800861D01*
X180758535Y-132835259D01*
X180673440Y-132914276D01*
X180645497Y-132966451D01*
X180664890Y-133014446D01*
X180675257Y-133027570D01*
X180745469Y-133085008D01*
X180861326Y-133154813D01*
X180942131Y-133195564D01*
X181171499Y-133267362D01*
X181425436Y-133290625D01*
X181665926Y-133263059D01*
X181733279Y-133243321D01*
X181941738Y-133131612D01*
X182096254Y-132959721D01*
X182197722Y-132725979D01*
X182247035Y-132428716D01*
X182252449Y-132273279D01*
X182236641Y-132046973D01*
X181837377Y-132046973D01*
X181798760Y-132063702D01*
X181694958Y-132076829D01*
X181544044Y-132084575D01*
X181441803Y-132085902D01*
X181257899Y-132084623D01*
X181141826Y-132078638D01*
X181078148Y-132064724D01*
X181051433Y-132039655D01*
X181046230Y-132003280D01*
X181081927Y-131891229D01*
X181171804Y-131780488D01*
X181290034Y-131695489D01*
X181408310Y-131660718D01*
X181568956Y-131691563D01*
X181708022Y-131780732D01*
X181804443Y-131909263D01*
X181837377Y-132046973D01*
X182236641Y-132046973D01*
X182229428Y-131943733D01*
X182158376Y-131681175D01*
X182037790Y-131483525D01*
X181866166Y-131348702D01*
X181642002Y-131274626D01*
X181520562Y-131260360D01*
X181269158Y-131263999D01*
G36*
X196405390Y-128151802D02*
X196187553Y-128248108D01*
X196022184Y-128408919D01*
X195909043Y-128634482D01*
X195847888Y-128925042D01*
X195843505Y-128970408D01*
X195840070Y-129290256D01*
X195884602Y-129570614D01*
X195974391Y-129797847D01*
X196022471Y-129870941D01*
X196189945Y-130025643D01*
X196403232Y-130125838D01*
X196641846Y-130167418D01*
X196885303Y-130146272D01*
X197070370Y-130081145D01*
X197229521Y-129971393D01*
X197359596Y-129827496D01*
X197361846Y-129824130D01*
X197414670Y-129735314D01*
X197448999Y-129646005D01*
X197469788Y-129533294D01*
X197481991Y-129374273D01*
X197487367Y-129243868D01*
X197489605Y-129125611D01*
X197073294Y-129125611D01*
X197069225Y-129243335D01*
X197054455Y-129400049D01*
X197028398Y-129500621D01*
X196981407Y-129572173D01*
X196937397Y-129613971D01*
X196781377Y-129701484D01*
X196618131Y-129713179D01*
X196466096Y-129650212D01*
X196390080Y-129579653D01*
X196335303Y-129508550D01*
X196303263Y-129440512D01*
X196289200Y-129351967D01*
X196288358Y-129219339D01*
X196292691Y-129097195D01*
X196302011Y-128922710D01*
X196316788Y-128809538D01*
X196343420Y-128735721D01*
X196388309Y-128679298D01*
X196423880Y-128647050D01*
X196572671Y-128562340D01*
X196733187Y-128558117D01*
X196867780Y-128608292D01*
X196982600Y-128713075D01*
X197051004Y-128885198D01*
X197073294Y-129125611D01*
X197489605Y-129125611D01*
X197492276Y-128984548D01*
X197483893Y-128790610D01*
X197458772Y-128644745D01*
X197413468Y-128529641D01*
X197344536Y-128427986D01*
X197318978Y-128397802D01*
X197159175Y-128247412D01*
X196987769Y-128159566D01*
X196778151Y-128122762D01*
X196675936Y-128119754D01*
X196405390Y-128151802D01*
X196405390Y-128151802D01*
G37*
X196405390Y-128151802D02*
X196187553Y-128248108D01*
X196022184Y-128408919D01*
X195909043Y-128634482D01*
X195847888Y-128925042D01*
X195843505Y-128970408D01*
X195840070Y-129290256D01*
X195884602Y-129570614D01*
X195974391Y-129797847D01*
X196022471Y-129870941D01*
X196189945Y-130025643D01*
X196403232Y-130125838D01*
X196641846Y-130167418D01*
X196885303Y-130146272D01*
X197070370Y-130081145D01*
X197229521Y-129971393D01*
X197359596Y-129827496D01*
X197361846Y-129824130D01*
X197414670Y-129735314D01*
X197448999Y-129646005D01*
X197469788Y-129533294D01*
X197481991Y-129374273D01*
X197487367Y-129243868D01*
X197489605Y-129125611D01*
X197073294Y-129125611D01*
X197069225Y-129243335D01*
X197054455Y-129400049D01*
X197028398Y-129500621D01*
X196981407Y-129572173D01*
X196937397Y-129613971D01*
X196781377Y-129701484D01*
X196618131Y-129713179D01*
X196466096Y-129650212D01*
X196390080Y-129579653D01*
X196335303Y-129508550D01*
X196303263Y-129440512D01*
X196289200Y-129351967D01*
X196288358Y-129219339D01*
X196292691Y-129097195D01*
X196302011Y-128922710D01*
X196316788Y-128809538D01*
X196343420Y-128735721D01*
X196388309Y-128679298D01*
X196423880Y-128647050D01*
X196572671Y-128562340D01*
X196733187Y-128558117D01*
X196867780Y-128608292D01*
X196982600Y-128713075D01*
X197051004Y-128885198D01*
X197073294Y-129125611D01*
X197489605Y-129125611D01*
X197492276Y-128984548D01*
X197483893Y-128790610D01*
X197458772Y-128644745D01*
X197413468Y-128529641D01*
X197344536Y-128427986D01*
X197318978Y-128397802D01*
X197159175Y-128247412D01*
X196987769Y-128159566D01*
X196778151Y-128122762D01*
X196675936Y-128119754D01*
X196405390Y-128151802D01*
G36*
X192492675Y-128176526D02*
X192451181Y-128196061D01*
X192307566Y-128301263D01*
X192171764Y-128454793D01*
X192070362Y-128623845D01*
X192041520Y-128701567D01*
X192015206Y-128840398D01*
X191999515Y-129008177D01*
X191997609Y-129077459D01*
X191997377Y-129296066D01*
X193255585Y-129296066D01*
X193228766Y-129410574D01*
X193162934Y-129546004D01*
X193047839Y-129663046D01*
X192910913Y-129738442D01*
X192823658Y-129754098D01*
X192705328Y-129735099D01*
X192564149Y-129687446D01*
X192516189Y-129665521D01*
X192338829Y-129576944D01*
X192187470Y-129692391D01*
X192100131Y-129770474D01*
X192053658Y-129834922D01*
X192051305Y-129853837D01*
X192092822Y-129899681D01*
X192183810Y-129969349D01*
X192266395Y-130023700D01*
X192489249Y-130121405D01*
X192739087Y-130165628D01*
X192986710Y-130154130D01*
X193184098Y-130094029D01*
X193387576Y-129965284D01*
X193532179Y-129795774D01*
X193622639Y-129576462D01*
X193663689Y-129298309D01*
X193667329Y-129171034D01*
X193652761Y-128879375D01*
X193650972Y-128870891D01*
X193234059Y-128870891D01*
X193222577Y-128898242D01*
X193175384Y-128913324D01*
X193078049Y-128919788D01*
X192916136Y-128921285D01*
X192853790Y-128921312D01*
X192664103Y-128919052D01*
X192543811Y-128910844D01*
X192479116Y-128894550D01*
X192456220Y-128868027D01*
X192455410Y-128859510D01*
X192481540Y-128791825D01*
X192546937Y-128697005D01*
X192575052Y-128663805D01*
X192679426Y-128569906D01*
X192788225Y-128532988D01*
X192846843Y-128529902D01*
X193005426Y-128568493D01*
X193138413Y-128672155D01*
X193222772Y-128822717D01*
X193224267Y-128827623D01*
X193234059Y-128870891D01*
X193650972Y-128870891D01*
X193604316Y-128649722D01*
X193517045Y-128465983D01*
X193410311Y-128335557D01*
X193212980Y-128194131D01*
X192981015Y-128118556D01*
X192734288Y-128111724D01*
X192492675Y-128176526D01*
X192492675Y-128176526D01*
G37*
X192492675Y-128176526D02*
X192451181Y-128196061D01*
X192307566Y-128301263D01*
X192171764Y-128454793D01*
X192070362Y-128623845D01*
X192041520Y-128701567D01*
X192015206Y-128840398D01*
X191999515Y-129008177D01*
X191997609Y-129077459D01*
X191997377Y-129296066D01*
X193255585Y-129296066D01*
X193228766Y-129410574D01*
X193162934Y-129546004D01*
X193047839Y-129663046D01*
X192910913Y-129738442D01*
X192823658Y-129754098D01*
X192705328Y-129735099D01*
X192564149Y-129687446D01*
X192516189Y-129665521D01*
X192338829Y-129576944D01*
X192187470Y-129692391D01*
X192100131Y-129770474D01*
X192053658Y-129834922D01*
X192051305Y-129853837D01*
X192092822Y-129899681D01*
X192183810Y-129969349D01*
X192266395Y-130023700D01*
X192489249Y-130121405D01*
X192739087Y-130165628D01*
X192986710Y-130154130D01*
X193184098Y-130094029D01*
X193387576Y-129965284D01*
X193532179Y-129795774D01*
X193622639Y-129576462D01*
X193663689Y-129298309D01*
X193667329Y-129171034D01*
X193652761Y-128879375D01*
X193650972Y-128870891D01*
X193234059Y-128870891D01*
X193222577Y-128898242D01*
X193175384Y-128913324D01*
X193078049Y-128919788D01*
X192916136Y-128921285D01*
X192853790Y-128921312D01*
X192664103Y-128919052D01*
X192543811Y-128910844D01*
X192479116Y-128894550D01*
X192456220Y-128868027D01*
X192455410Y-128859510D01*
X192481540Y-128791825D01*
X192546937Y-128697005D01*
X192575052Y-128663805D01*
X192679426Y-128569906D01*
X192788225Y-128532988D01*
X192846843Y-128529902D01*
X193005426Y-128568493D01*
X193138413Y-128672155D01*
X193222772Y-128822717D01*
X193224267Y-128827623D01*
X193234059Y-128870891D01*
X193650972Y-128870891D01*
X193604316Y-128649722D01*
X193517045Y-128465983D01*
X193410311Y-128335557D01*
X193212980Y-128194131D01*
X192981015Y-128118556D01*
X192734288Y-128111724D01*
X192492675Y-128176526D01*
G36*
X187953582Y-128123003D02*
X187795900Y-128152907D01*
X187632315Y-128215452D01*
X187614836Y-128223426D01*
X187490783Y-128288656D01*
X187404871Y-128349274D01*
X187377102Y-128388106D01*
X187403547Y-128451437D01*
X187467780Y-128544881D01*
X187496292Y-128579762D01*
X187613789Y-128717066D01*
X187765268Y-128627691D01*
X187909430Y-128568152D01*
X188076000Y-128536326D01*
X188235738Y-128534316D01*
X188359406Y-128564221D01*
X188389084Y-128582886D01*
X188445602Y-128668466D01*
X188452471Y-128767049D01*
X188410180Y-128844062D01*
X188385164Y-128858998D01*
X188310204Y-128877547D01*
X188178439Y-128899348D01*
X188016009Y-128920180D01*
X187986044Y-128923447D01*
X187725160Y-128968575D01*
X187535945Y-129045230D01*
X187410457Y-129160491D01*
X187340757Y-129321435D01*
X187319044Y-129518015D01*
X187349039Y-129741473D01*
X187446441Y-129916949D01*
X187611639Y-130044758D01*
X187845023Y-130125218D01*
X188104098Y-130156962D01*
X188315367Y-130156580D01*
X188486735Y-130127749D01*
X188603770Y-130087944D01*
X188751650Y-130018587D01*
X188888313Y-129938097D01*
X188936885Y-129902670D01*
X189061803Y-129800705D01*
X188760491Y-129495813D01*
X188589204Y-129609165D01*
X188417406Y-129694300D01*
X188233952Y-129738830D01*
X188057603Y-129743528D01*
X187907119Y-129709170D01*
X187801260Y-129636529D01*
X187767079Y-129575238D01*
X187772206Y-129476941D01*
X187857143Y-129401773D01*
X188021657Y-129349866D01*
X188201899Y-129325875D01*
X188479291Y-129280104D01*
X188685365Y-129193748D01*
X188822878Y-129064280D01*
X188894587Y-128889172D01*
X188904521Y-128681565D01*
X188855452Y-128464714D01*
X188743580Y-128300805D01*
X188567903Y-128189088D01*
X188327419Y-128128814D01*
X188149257Y-128116999D01*
X187953582Y-128123003D01*
X187953582Y-128123003D01*
G37*
X187953582Y-128123003D02*
X187795900Y-128152907D01*
X187632315Y-128215452D01*
X187614836Y-128223426D01*
X187490783Y-128288656D01*
X187404871Y-128349274D01*
X187377102Y-128388106D01*
X187403547Y-128451437D01*
X187467780Y-128544881D01*
X187496292Y-128579762D01*
X187613789Y-128717066D01*
X187765268Y-128627691D01*
X187909430Y-128568152D01*
X188076000Y-128536326D01*
X188235738Y-128534316D01*
X188359406Y-128564221D01*
X188389084Y-128582886D01*
X188445602Y-128668466D01*
X188452471Y-128767049D01*
X188410180Y-128844062D01*
X188385164Y-128858998D01*
X188310204Y-128877547D01*
X188178439Y-128899348D01*
X188016009Y-128920180D01*
X187986044Y-128923447D01*
X187725160Y-128968575D01*
X187535945Y-129045230D01*
X187410457Y-129160491D01*
X187340757Y-129321435D01*
X187319044Y-129518015D01*
X187349039Y-129741473D01*
X187446441Y-129916949D01*
X187611639Y-130044758D01*
X187845023Y-130125218D01*
X188104098Y-130156962D01*
X188315367Y-130156580D01*
X188486735Y-130127749D01*
X188603770Y-130087944D01*
X188751650Y-130018587D01*
X188888313Y-129938097D01*
X188936885Y-129902670D01*
X189061803Y-129800705D01*
X188760491Y-129495813D01*
X188589204Y-129609165D01*
X188417406Y-129694300D01*
X188233952Y-129738830D01*
X188057603Y-129743528D01*
X187907119Y-129709170D01*
X187801260Y-129636529D01*
X187767079Y-129575238D01*
X187772206Y-129476941D01*
X187857143Y-129401773D01*
X188021657Y-129349866D01*
X188201899Y-129325875D01*
X188479291Y-129280104D01*
X188685365Y-129193748D01*
X188822878Y-129064280D01*
X188894587Y-128889172D01*
X188904521Y-128681565D01*
X188855452Y-128464714D01*
X188743580Y-128300805D01*
X188567903Y-128189088D01*
X188327419Y-128128814D01*
X188149257Y-128116999D01*
X187953582Y-128123003D01*
G36*
X185977479Y-128154805D02*
X185766864Y-128269505D01*
X185602085Y-128450574D01*
X185524446Y-128597838D01*
X185491114Y-128727907D01*
X185469517Y-128913333D01*
X185460261Y-129126939D01*
X185463955Y-129341550D01*
X185481206Y-129529991D01*
X185501357Y-129630637D01*
X185569333Y-129768323D01*
X185687058Y-129914566D01*
X185828935Y-130042452D01*
X185969368Y-130125063D01*
X185972793Y-130126373D01*
X186147055Y-130162472D01*
X186353573Y-130163365D01*
X186549826Y-130130501D01*
X186625604Y-130104161D01*
X186820779Y-129993484D01*
X186960562Y-129848478D01*
X187052401Y-129656503D01*
X187103746Y-129404920D01*
X187115363Y-129273142D01*
X187113881Y-129107553D01*
X186667541Y-129107553D01*
X186652506Y-129349177D01*
X186609228Y-129533303D01*
X186540449Y-129650949D01*
X186491450Y-129684590D01*
X186365907Y-129708050D01*
X186216682Y-129701104D01*
X186087667Y-129667345D01*
X186053834Y-129648772D01*
X185964572Y-129540599D01*
X185905655Y-129375051D01*
X185880576Y-129173581D01*
X185892826Y-128957646D01*
X185920204Y-128827690D01*
X185998809Y-128677191D01*
X186122896Y-128583114D01*
X186272339Y-128550587D01*
X186427013Y-128584738D01*
X186545826Y-128668273D01*
X186608265Y-128737193D01*
X186644707Y-128805126D01*
X186662077Y-128897064D01*
X186667301Y-129037999D01*
X186667541Y-129107553D01*
X187113881Y-129107553D01*
X187112215Y-128921495D01*
X187054944Y-128633134D01*
X186943543Y-128408049D01*
X186778007Y-128246230D01*
X186558330Y-128147666D01*
X186511158Y-128136236D01*
X186227664Y-128109406D01*
X185977479Y-128154805D01*
X185977479Y-128154805D01*
G37*
X185977479Y-128154805D02*
X185766864Y-128269505D01*
X185602085Y-128450574D01*
X185524446Y-128597838D01*
X185491114Y-128727907D01*
X185469517Y-128913333D01*
X185460261Y-129126939D01*
X185463955Y-129341550D01*
X185481206Y-129529991D01*
X185501357Y-129630637D01*
X185569333Y-129768323D01*
X185687058Y-129914566D01*
X185828935Y-130042452D01*
X185969368Y-130125063D01*
X185972793Y-130126373D01*
X186147055Y-130162472D01*
X186353573Y-130163365D01*
X186549826Y-130130501D01*
X186625604Y-130104161D01*
X186820779Y-129993484D01*
X186960562Y-129848478D01*
X187052401Y-129656503D01*
X187103746Y-129404920D01*
X187115363Y-129273142D01*
X187113881Y-129107553D01*
X186667541Y-129107553D01*
X186652506Y-129349177D01*
X186609228Y-129533303D01*
X186540449Y-129650949D01*
X186491450Y-129684590D01*
X186365907Y-129708050D01*
X186216682Y-129701104D01*
X186087667Y-129667345D01*
X186053834Y-129648772D01*
X185964572Y-129540599D01*
X185905655Y-129375051D01*
X185880576Y-129173581D01*
X185892826Y-128957646D01*
X185920204Y-128827690D01*
X185998809Y-128677191D01*
X186122896Y-128583114D01*
X186272339Y-128550587D01*
X186427013Y-128584738D01*
X186545826Y-128668273D01*
X186608265Y-128737193D01*
X186644707Y-128805126D01*
X186662077Y-128897064D01*
X186667301Y-129037999D01*
X186667541Y-129107553D01*
X187113881Y-129107553D01*
X187112215Y-128921495D01*
X187054944Y-128633134D01*
X186943543Y-128408049D01*
X186778007Y-128246230D01*
X186558330Y-128147666D01*
X186511158Y-128136236D01*
X186227664Y-128109406D01*
X185977479Y-128154805D01*
G36*
X184710492Y-128778311D02*
X184706556Y-129083698D01*
X184692177Y-129315660D01*
X184663496Y-129483786D01*
X184616652Y-129597671D01*
X184547789Y-129666905D01*
X184453046Y-129701080D01*
X184335738Y-129709811D01*
X184212877Y-129700028D01*
X184119556Y-129664287D01*
X184051916Y-129592995D01*
X184006099Y-129476561D01*
X183978245Y-129305391D01*
X183964496Y-129069896D01*
X183960984Y-128778311D01*
X183960984Y-128130164D01*
X183502951Y-128130164D01*
X183502951Y-130128853D01*
X183731967Y-130128853D01*
X183870029Y-130123258D01*
X183941122Y-130103611D01*
X183960984Y-130066313D01*
X183972946Y-130033094D01*
X184020553Y-130040121D01*
X184116515Y-130087132D01*
X184336452Y-130159654D01*
X184569726Y-130154516D01*
X184793245Y-130075766D01*
X184899687Y-130013558D01*
X184980878Y-129946204D01*
X185040192Y-129861928D01*
X185081004Y-129748957D01*
X185106688Y-129595515D01*
X185120619Y-129389827D01*
X185126171Y-129120118D01*
X185126885Y-128911551D01*
X185126885Y-128130164D01*
X184710492Y-128130164D01*
X184710492Y-128778311D01*
X184710492Y-128778311D01*
G37*
X184710492Y-128778311D02*
X184706556Y-129083698D01*
X184692177Y-129315660D01*
X184663496Y-129483786D01*
X184616652Y-129597671D01*
X184547789Y-129666905D01*
X184453046Y-129701080D01*
X184335738Y-129709811D01*
X184212877Y-129700028D01*
X184119556Y-129664287D01*
X184051916Y-129592995D01*
X184006099Y-129476561D01*
X183978245Y-129305391D01*
X183964496Y-129069896D01*
X183960984Y-128778311D01*
X183960984Y-128130164D01*
X183502951Y-128130164D01*
X183502951Y-130128853D01*
X183731967Y-130128853D01*
X183870029Y-130123258D01*
X183941122Y-130103611D01*
X183960984Y-130066313D01*
X183972946Y-130033094D01*
X184020553Y-130040121D01*
X184116515Y-130087132D01*
X184336452Y-130159654D01*
X184569726Y-130154516D01*
X184793245Y-130075766D01*
X184899687Y-130013558D01*
X184980878Y-129946204D01*
X185040192Y-129861928D01*
X185081004Y-129748957D01*
X185106688Y-129595515D01*
X185120619Y-129389827D01*
X185126171Y-129120118D01*
X185126885Y-128911551D01*
X185126885Y-128130164D01*
X184710492Y-128130164D01*
X184710492Y-128778311D01*
G36*
X180657712Y-128147602D02*
X180416457Y-128250090D01*
X180340469Y-128299981D01*
X180243352Y-128376651D01*
X180182388Y-128436936D01*
X180171803Y-128456571D01*
X180201692Y-128500142D01*
X180278181Y-128574077D01*
X180339418Y-128625679D01*
X180507033Y-128760378D01*
X180639386Y-128649010D01*
X180741664Y-128577113D01*
X180841390Y-128552296D01*
X180955525Y-128558357D01*
X181136766Y-128603418D01*
X181261525Y-128696949D01*
X181337342Y-128848154D01*
X181371760Y-129066236D01*
X181371769Y-129066373D01*
X181368792Y-129310124D01*
X181322533Y-129488966D01*
X181230258Y-129610730D01*
X181167350Y-129651964D01*
X181000283Y-129703311D01*
X180821838Y-129703342D01*
X180666585Y-129653522D01*
X180629836Y-129629180D01*
X180537670Y-129567004D01*
X180465613Y-129556813D01*
X180387898Y-129603092D01*
X180301982Y-129686212D01*
X180165989Y-129826521D01*
X180316977Y-129950978D01*
X180550260Y-130091443D01*
X180813327Y-130160666D01*
X181088240Y-130155653D01*
X181268784Y-130109755D01*
X181479806Y-129996249D01*
X181648574Y-129817685D01*
X181725247Y-129691639D01*
X181787346Y-129510791D01*
X181818419Y-129281745D01*
X181818658Y-129033510D01*
X181788257Y-128795093D01*
X181727408Y-128595503D01*
X181717824Y-128575039D01*
X181575898Y-128374341D01*
X181383741Y-128228217D01*
X181156536Y-128139698D01*
X180909465Y-128111815D01*
X180657712Y-128147602D01*
X180657712Y-128147602D01*
G37*
X180657712Y-128147602D02*
X180416457Y-128250090D01*
X180340469Y-128299981D01*
X180243352Y-128376651D01*
X180182388Y-128436936D01*
X180171803Y-128456571D01*
X180201692Y-128500142D01*
X180278181Y-128574077D01*
X180339418Y-128625679D01*
X180507033Y-128760378D01*
X180639386Y-128649010D01*
X180741664Y-128577113D01*
X180841390Y-128552296D01*
X180955525Y-128558357D01*
X181136766Y-128603418D01*
X181261525Y-128696949D01*
X181337342Y-128848154D01*
X181371760Y-129066236D01*
X181371769Y-129066373D01*
X181368792Y-129310124D01*
X181322533Y-129488966D01*
X181230258Y-129610730D01*
X181167350Y-129651964D01*
X181000283Y-129703311D01*
X180821838Y-129703342D01*
X180666585Y-129653522D01*
X180629836Y-129629180D01*
X180537670Y-129567004D01*
X180465613Y-129556813D01*
X180387898Y-129603092D01*
X180301982Y-129686212D01*
X180165989Y-129826521D01*
X180316977Y-129950978D01*
X180550260Y-130091443D01*
X180813327Y-130160666D01*
X181088240Y-130155653D01*
X181268784Y-130109755D01*
X181479806Y-129996249D01*
X181648574Y-129817685D01*
X181725247Y-129691639D01*
X181787346Y-129510791D01*
X181818419Y-129281745D01*
X181818658Y-129033510D01*
X181788257Y-128795093D01*
X181727408Y-128595503D01*
X181717824Y-128575039D01*
X181575898Y-128374341D01*
X181383741Y-128228217D01*
X181156536Y-128139698D01*
X180909465Y-128111815D01*
X180657712Y-128147602D01*
G36*
X179132208Y-128123019D02*
X179025586Y-128148922D01*
X178821170Y-128243772D01*
X178646375Y-128388633D01*
X178525403Y-128562320D01*
X178508783Y-128601317D01*
X178485984Y-128703465D01*
X178470025Y-128854573D01*
X178464590Y-129007301D01*
X178464590Y-129296066D01*
X179068361Y-129296066D01*
X179317381Y-129297007D01*
X179492811Y-129302723D01*
X179604335Y-129317550D01*
X179661640Y-129345827D01*
X179674412Y-129391890D01*
X179652338Y-129460077D01*
X179612795Y-129539863D01*
X179502491Y-129673017D01*
X179349208Y-129739355D01*
X179161859Y-129737194D01*
X178949637Y-129664991D01*
X178766227Y-129575883D01*
X178614038Y-129696220D01*
X178461849Y-129816558D01*
X178605026Y-129948843D01*
X178796172Y-130073832D01*
X179031247Y-130149189D01*
X179284102Y-130170278D01*
X179528587Y-130132460D01*
X179568033Y-130119628D01*
X179782910Y-130007414D01*
X179942750Y-129840118D01*
X180050920Y-129612748D01*
X180110790Y-129320308D01*
X180111487Y-129314040D01*
X180116848Y-128995332D01*
X180095177Y-128881632D01*
X179672131Y-128881632D01*
X179633278Y-128899116D01*
X179527795Y-128912508D01*
X179372293Y-128920155D01*
X179273751Y-128921312D01*
X179089987Y-128920588D01*
X178975086Y-128915983D01*
X178914634Y-128903848D01*
X178894217Y-128880530D01*
X178899419Y-128842382D01*
X178903783Y-128827623D01*
X178978276Y-128688944D01*
X179095434Y-128577179D01*
X179198827Y-128528066D01*
X179336184Y-128531032D01*
X179475371Y-128592278D01*
X179592126Y-128693683D01*
X179662190Y-128817122D01*
X179672131Y-128881632D01*
X180095177Y-128881632D01*
X180063421Y-128715020D01*
X179957428Y-128479780D01*
X179805089Y-128296284D01*
X179612626Y-128171209D01*
X179386258Y-128111229D01*
X179132208Y-128123019D01*
X179132208Y-128123019D01*
G37*
X179132208Y-128123019D02*
X179025586Y-128148922D01*
X178821170Y-128243772D01*
X178646375Y-128388633D01*
X178525403Y-128562320D01*
X178508783Y-128601317D01*
X178485984Y-128703465D01*
X178470025Y-128854573D01*
X178464590Y-129007301D01*
X178464590Y-129296066D01*
X179068361Y-129296066D01*
X179317381Y-129297007D01*
X179492811Y-129302723D01*
X179604335Y-129317550D01*
X179661640Y-129345827D01*
X179674412Y-129391890D01*
X179652338Y-129460077D01*
X179612795Y-129539863D01*
X179502491Y-129673017D01*
X179349208Y-129739355D01*
X179161859Y-129737194D01*
X178949637Y-129664991D01*
X178766227Y-129575883D01*
X178614038Y-129696220D01*
X178461849Y-129816558D01*
X178605026Y-129948843D01*
X178796172Y-130073832D01*
X179031247Y-130149189D01*
X179284102Y-130170278D01*
X179528587Y-130132460D01*
X179568033Y-130119628D01*
X179782910Y-130007414D01*
X179942750Y-129840118D01*
X180050920Y-129612748D01*
X180110790Y-129320308D01*
X180111487Y-129314040D01*
X180116848Y-128995332D01*
X180095177Y-128881632D01*
X179672131Y-128881632D01*
X179633278Y-128899116D01*
X179527795Y-128912508D01*
X179372293Y-128920155D01*
X179273751Y-128921312D01*
X179089987Y-128920588D01*
X178975086Y-128915983D01*
X178914634Y-128903848D01*
X178894217Y-128880530D01*
X178899419Y-128842382D01*
X178903783Y-128827623D01*
X178978276Y-128688944D01*
X179095434Y-128577179D01*
X179198827Y-128528066D01*
X179336184Y-128531032D01*
X179475371Y-128592278D01*
X179592126Y-128693683D01*
X179662190Y-128817122D01*
X179672131Y-128881632D01*
X180095177Y-128881632D01*
X180063421Y-128715020D01*
X179957428Y-128479780D01*
X179805089Y-128296284D01*
X179612626Y-128171209D01*
X179386258Y-128111229D01*
X179132208Y-128123019D01*
G36*
X190496892Y-128164563D02*
X190393260Y-128214062D01*
X190292894Y-128285561D01*
X190216432Y-128367853D01*
X190160738Y-128472811D01*
X190122677Y-128612313D01*
X190099115Y-128798233D01*
X190086915Y-129042448D01*
X190082944Y-129356833D01*
X190082882Y-129389754D01*
X190081967Y-130128853D01*
X190540000Y-130128853D01*
X190540000Y-129447481D01*
X190540326Y-129195050D01*
X190542581Y-129012093D01*
X190548681Y-128884807D01*
X190560541Y-128799386D01*
X190580076Y-128742026D01*
X190609203Y-128698924D01*
X190649776Y-128656334D01*
X190791731Y-128564824D01*
X190946694Y-128547843D01*
X191094323Y-128605701D01*
X191145663Y-128648763D01*
X191183353Y-128689249D01*
X191210413Y-128732607D01*
X191228603Y-128792463D01*
X191239684Y-128882441D01*
X191245414Y-129016168D01*
X191247556Y-129207270D01*
X191247869Y-129439911D01*
X191247869Y-130128853D01*
X191705902Y-130128853D01*
X191705902Y-128130164D01*
X191476885Y-128130164D01*
X191339386Y-128135602D01*
X191268447Y-128154909D01*
X191247878Y-128192576D01*
X191247869Y-128193692D01*
X191238325Y-128230581D01*
X191196233Y-128226395D01*
X191112541Y-128185861D01*
X190922727Y-128126224D01*
X190705599Y-128119591D01*
X190496892Y-128164563D01*
X190496892Y-128164563D01*
G37*
X190496892Y-128164563D02*
X190393260Y-128214062D01*
X190292894Y-128285561D01*
X190216432Y-128367853D01*
X190160738Y-128472811D01*
X190122677Y-128612313D01*
X190099115Y-128798233D01*
X190086915Y-129042448D01*
X190082944Y-129356833D01*
X190082882Y-129389754D01*
X190081967Y-130128853D01*
X190540000Y-130128853D01*
X190540000Y-129447481D01*
X190540326Y-129195050D01*
X190542581Y-129012093D01*
X190548681Y-128884807D01*
X190560541Y-128799386D01*
X190580076Y-128742026D01*
X190609203Y-128698924D01*
X190649776Y-128656334D01*
X190791731Y-128564824D01*
X190946694Y-128547843D01*
X191094323Y-128605701D01*
X191145663Y-128648763D01*
X191183353Y-128689249D01*
X191210413Y-128732607D01*
X191228603Y-128792463D01*
X191239684Y-128882441D01*
X191245414Y-129016168D01*
X191247556Y-129207270D01*
X191247869Y-129439911D01*
X191247869Y-130128853D01*
X191705902Y-130128853D01*
X191705902Y-128130164D01*
X191476885Y-128130164D01*
X191339386Y-128135602D01*
X191268447Y-128154909D01*
X191247878Y-128192576D01*
X191247869Y-128193692D01*
X191238325Y-128230581D01*
X191196233Y-128226395D01*
X191112541Y-128185861D01*
X190922727Y-128126224D01*
X190705599Y-128119591D01*
X190496892Y-128164563D01*
G36*
X182041131Y-128128231D02*
X181897908Y-128171989D01*
X181805694Y-128227280D01*
X181775656Y-128271004D01*
X181783924Y-128322834D01*
X181837573Y-128404259D01*
X181882937Y-128461927D01*
X181976454Y-128566182D01*
X182046713Y-128610045D01*
X182106607Y-128607182D01*
X182284280Y-128561967D01*
X182414766Y-128564020D01*
X182520727Y-128615261D01*
X182556300Y-128645252D01*
X182670164Y-128750778D01*
X182670164Y-130128853D01*
X183128197Y-130128853D01*
X183128197Y-128130164D01*
X182899180Y-128130164D01*
X182761682Y-128135602D01*
X182690742Y-128154909D01*
X182670173Y-128192576D01*
X182670164Y-128193692D01*
X182660450Y-128233146D01*
X182616522Y-128228000D01*
X182555656Y-128199536D01*
X182429946Y-128146569D01*
X182327866Y-128114703D01*
X182196520Y-128106533D01*
X182041131Y-128128231D01*
X182041131Y-128128231D01*
G37*
X182041131Y-128128231D02*
X181897908Y-128171989D01*
X181805694Y-128227280D01*
X181775656Y-128271004D01*
X181783924Y-128322834D01*
X181837573Y-128404259D01*
X181882937Y-128461927D01*
X181976454Y-128566182D01*
X182046713Y-128610045D01*
X182106607Y-128607182D01*
X182284280Y-128561967D01*
X182414766Y-128564020D01*
X182520727Y-128615261D01*
X182556300Y-128645252D01*
X182670164Y-128750778D01*
X182670164Y-130128853D01*
X183128197Y-130128853D01*
X183128197Y-128130164D01*
X182899180Y-128130164D01*
X182761682Y-128135602D01*
X182690742Y-128154909D01*
X182670173Y-128192576D01*
X182670164Y-128193692D01*
X182660450Y-128233146D01*
X182616522Y-128228000D01*
X182555656Y-128199536D01*
X182429946Y-128146569D01*
X182327866Y-128114703D01*
X182196520Y-128106533D01*
X182041131Y-128128231D01*
G36*
X186751695Y-114325960D02*
X186563443Y-115324542D01*
X185868817Y-115610889D01*
X185174192Y-115897237D01*
X184340872Y-115330586D01*
X184107499Y-115172811D01*
X183896543Y-115031939D01*
X183717847Y-114914401D01*
X183581256Y-114826629D01*
X183496614Y-114775055D01*
X183473563Y-114763935D01*
X183432037Y-114792535D01*
X183343302Y-114871604D01*
X183217303Y-114991041D01*
X183063986Y-115140744D01*
X182893298Y-115310615D01*
X182715186Y-115490551D01*
X182539594Y-115670454D01*
X182376470Y-115840222D01*
X182235759Y-115989754D01*
X182127408Y-116108952D01*
X182061363Y-116187713D01*
X182045574Y-116214072D01*
X182068297Y-116262666D01*
X182132001Y-116369126D01*
X182229987Y-116523039D01*
X182355559Y-116713991D01*
X182502018Y-116931569D01*
X182586885Y-117055671D01*
X182741574Y-117282279D01*
X182879030Y-117486770D01*
X182992586Y-117658965D01*
X183075572Y-117788685D01*
X183121322Y-117865751D01*
X183128197Y-117881947D01*
X183112612Y-117927975D01*
X183070132Y-118035250D01*
X183007165Y-118188687D01*
X182930121Y-118373206D01*
X182845410Y-118573721D01*
X182759442Y-118775152D01*
X182678627Y-118962415D01*
X182609373Y-119120428D01*
X182558092Y-119234107D01*
X182531191Y-119288370D01*
X182529604Y-119290506D01*
X182487365Y-119300867D01*
X182374874Y-119323982D01*
X182203791Y-119357579D01*
X181985777Y-119399385D01*
X181732491Y-119447127D01*
X181584712Y-119474659D01*
X181314062Y-119526190D01*
X181069603Y-119575225D01*
X180863700Y-119619081D01*
X180708723Y-119655074D01*
X180617038Y-119680521D01*
X180598607Y-119688595D01*
X180580555Y-119743242D01*
X180565990Y-119866662D01*
X180554902Y-120044423D01*
X180547281Y-120262091D01*
X180543116Y-120505235D01*
X180542398Y-120759423D01*
X180545118Y-121010220D01*
X180551265Y-121243196D01*
X180560829Y-121443918D01*
X180573801Y-121597954D01*
X180590171Y-121690870D01*
X180599989Y-121710213D01*
X180658677Y-121733398D01*
X180783034Y-121766544D01*
X180956610Y-121805758D01*
X181162958Y-121847145D01*
X181234989Y-121860534D01*
X181582281Y-121924147D01*
X181856617Y-121975378D01*
X182067061Y-122016261D01*
X182222678Y-122048834D01*
X182332533Y-122075132D01*
X182405689Y-122097192D01*
X182451213Y-122117049D01*
X182478167Y-122136741D01*
X182481939Y-122140632D01*
X182519585Y-122203324D01*
X182577014Y-122325331D01*
X182648492Y-122491712D01*
X182728285Y-122687529D01*
X182810657Y-122897840D01*
X182889875Y-123107708D01*
X182960204Y-123302191D01*
X183015911Y-123466350D01*
X183051259Y-123585245D01*
X183060516Y-123643936D01*
X183059744Y-123645992D01*
X183028380Y-123693964D01*
X182957226Y-123799516D01*
X182853760Y-123951660D01*
X182725460Y-124139410D01*
X182579801Y-124351780D01*
X182538320Y-124412130D01*
X182390413Y-124630929D01*
X182260261Y-124830562D01*
X182154955Y-124999565D01*
X182081584Y-125126475D01*
X182047237Y-125199829D01*
X182045574Y-125208841D01*
X182074431Y-125256207D01*
X182154169Y-125350042D01*
X182274538Y-125480261D01*
X182425287Y-125636779D01*
X182596164Y-125809510D01*
X182776921Y-125988371D01*
X182957306Y-126163276D01*
X183127068Y-126324140D01*
X183275958Y-126460878D01*
X183393724Y-126563407D01*
X183470117Y-126621640D01*
X183491250Y-126631148D01*
X183540440Y-126608754D01*
X183641153Y-126548356D01*
X183776983Y-126460129D01*
X183881490Y-126389115D01*
X184070851Y-126258811D01*
X184295101Y-126105384D01*
X184520036Y-125952201D01*
X184640968Y-125870218D01*
X185050296Y-125593353D01*
X185393898Y-125779136D01*
X185550435Y-125860523D01*
X185683546Y-125923784D01*
X185773611Y-125959865D01*
X185796537Y-125964885D01*
X185824105Y-125927817D01*
X185878492Y-125823069D01*
X185955637Y-125660303D01*
X186051482Y-125449181D01*
X186161966Y-125199365D01*
X186283029Y-124920517D01*
X186410611Y-124622299D01*
X186540653Y-124314374D01*
X186669094Y-124006404D01*
X186791874Y-123708050D01*
X186904933Y-123428975D01*
X187004212Y-123178841D01*
X187085651Y-122967310D01*
X187145189Y-122804043D01*
X187178766Y-122698705D01*
X187184166Y-122662527D01*
X187141366Y-122616381D01*
X187047656Y-122541472D01*
X186922627Y-122453364D01*
X186912133Y-122446394D01*
X186588980Y-122187721D01*
X186328413Y-121885938D01*
X186132690Y-121550695D01*
X186004068Y-121191642D01*
X185944805Y-120818426D01*
X185957161Y-120440700D01*
X186043393Y-120068111D01*
X186205759Y-119710310D01*
X186253528Y-119632027D01*
X186501991Y-119315919D01*
X186795519Y-119062079D01*
X187123953Y-118871827D01*
X187477135Y-118746485D01*
X187844905Y-118687372D01*
X188217103Y-118695807D01*
X188583571Y-118773112D01*
X188934149Y-118920606D01*
X189258677Y-119139610D01*
X189359064Y-119228498D01*
X189614551Y-119506744D01*
X189800722Y-119799656D01*
X189928430Y-120127986D01*
X189999556Y-120453133D01*
X190017114Y-120818702D01*
X189958566Y-121186086D01*
X189829858Y-121542866D01*
X189636938Y-121876626D01*
X189385752Y-122174947D01*
X189082248Y-122425411D01*
X189042360Y-122451813D01*
X188915991Y-122538272D01*
X188819927Y-122613184D01*
X188774000Y-122661015D01*
X188773332Y-122662527D01*
X188783192Y-122714267D01*
X188822278Y-122831696D01*
X188886528Y-123005154D01*
X188971880Y-123224979D01*
X189074273Y-123481513D01*
X189189646Y-123765096D01*
X189313937Y-124066067D01*
X189443084Y-124374767D01*
X189573026Y-124681536D01*
X189699702Y-124976714D01*
X189819049Y-125250640D01*
X189927006Y-125493656D01*
X190019512Y-125696101D01*
X190092504Y-125848315D01*
X190141923Y-125940638D01*
X190161823Y-125964885D01*
X190222634Y-125946004D01*
X190336418Y-125895364D01*
X190483555Y-125822017D01*
X190564462Y-125779136D01*
X190908065Y-125593353D01*
X191317393Y-125870218D01*
X191526346Y-126012054D01*
X191755113Y-126168141D01*
X191969491Y-126315109D01*
X192076871Y-126389115D01*
X192227898Y-126490531D01*
X192355782Y-126570898D01*
X192443842Y-126620041D01*
X192472445Y-126630429D01*
X192514076Y-126602405D01*
X192606211Y-126524172D01*
X192739918Y-126403852D01*
X192906265Y-126249568D01*
X193096320Y-126069443D01*
X193216521Y-125953790D01*
X193426815Y-125747167D01*
X193608556Y-125562358D01*
X193754397Y-125407270D01*
X193856991Y-125289807D01*
X193908991Y-125217875D01*
X193913980Y-125203278D01*
X193890829Y-125147753D01*
X193826854Y-125035484D01*
X193729153Y-124877837D01*
X193604820Y-124686179D01*
X193460954Y-124471876D01*
X193420041Y-124412130D01*
X193270967Y-124194982D01*
X193137225Y-123999475D01*
X193026291Y-123836599D01*
X192945644Y-123717337D01*
X192902759Y-123652678D01*
X192898617Y-123645992D01*
X192904812Y-123594462D01*
X192937700Y-123481166D01*
X192991545Y-123321042D01*
X193060613Y-123129032D01*
X193139169Y-122920074D01*
X193221480Y-122709109D01*
X193301811Y-122511076D01*
X193374428Y-122340916D01*
X193433595Y-122213567D01*
X193473580Y-122143971D01*
X193476422Y-122140632D01*
X193500873Y-122120742D01*
X193542169Y-122101073D01*
X193609377Y-122079589D01*
X193711559Y-122054253D01*
X193857781Y-122023029D01*
X194057107Y-121983882D01*
X194318603Y-121934775D01*
X194651331Y-121873672D01*
X194723372Y-121860534D01*
X194936885Y-121819282D01*
X195123022Y-121778926D01*
X195265334Y-121743361D01*
X195347371Y-121716480D01*
X195358372Y-121710213D01*
X195376498Y-121654654D01*
X195391233Y-121530495D01*
X195402564Y-121352169D01*
X195410484Y-121134109D01*
X195414981Y-120890746D01*
X195416046Y-120636514D01*
X195413670Y-120385845D01*
X195407841Y-120153171D01*
X195398551Y-119952924D01*
X195385789Y-119799538D01*
X195369546Y-119707444D01*
X195359754Y-119688595D01*
X195305239Y-119669582D01*
X195181104Y-119638650D01*
X194999715Y-119598482D01*
X194773440Y-119551762D01*
X194514647Y-119501173D01*
X194373649Y-119474659D01*
X194106127Y-119424650D01*
X193867562Y-119379346D01*
X193669614Y-119341021D01*
X193523943Y-119311947D01*
X193442209Y-119294397D01*
X193428757Y-119290506D01*
X193406021Y-119246638D01*
X193357960Y-119140976D01*
X193290981Y-118988613D01*
X193211490Y-118804646D01*
X193125892Y-118604170D01*
X193040595Y-118402281D01*
X192962005Y-118214073D01*
X192896527Y-118054642D01*
X192850569Y-117939084D01*
X192830537Y-117882494D01*
X192830164Y-117880021D01*
X192852874Y-117835379D01*
X192916541Y-117732647D01*
X193014475Y-117582037D01*
X193139983Y-117393757D01*
X193286374Y-117178018D01*
X193371475Y-117054098D01*
X193526545Y-116826883D01*
X193664275Y-116620595D01*
X193777947Y-116445671D01*
X193860839Y-116312545D01*
X193906231Y-116231653D01*
X193912787Y-116213520D01*
X193884605Y-116171312D01*
X193806696Y-116081191D01*
X193689010Y-115953254D01*
X193541500Y-115797596D01*
X193374119Y-115624315D01*
X193196819Y-115443507D01*
X193019552Y-115265267D01*
X192852270Y-115099693D01*
X192704925Y-114956880D01*
X192587470Y-114846925D01*
X192509857Y-114779924D01*
X192483892Y-114763935D01*
X192441616Y-114786419D01*
X192340499Y-114849585D01*
X192190373Y-114947003D01*
X192001070Y-115072243D01*
X191782421Y-115218875D01*
X191617489Y-115330586D01*
X190784169Y-115897237D01*
X190089544Y-115610889D01*
X189394918Y-115324542D01*
X189206666Y-114325960D01*
X189018413Y-113327377D01*
X186939948Y-113327377D01*
X186751695Y-114325960D01*
X186751695Y-114325960D01*
G37*
X186751695Y-114325960D02*
X186563443Y-115324542D01*
X185868817Y-115610889D01*
X185174192Y-115897237D01*
X184340872Y-115330586D01*
X184107499Y-115172811D01*
X183896543Y-115031939D01*
X183717847Y-114914401D01*
X183581256Y-114826629D01*
X183496614Y-114775055D01*
X183473563Y-114763935D01*
X183432037Y-114792535D01*
X183343302Y-114871604D01*
X183217303Y-114991041D01*
X183063986Y-115140744D01*
X182893298Y-115310615D01*
X182715186Y-115490551D01*
X182539594Y-115670454D01*
X182376470Y-115840222D01*
X182235759Y-115989754D01*
X182127408Y-116108952D01*
X182061363Y-116187713D01*
X182045574Y-116214072D01*
X182068297Y-116262666D01*
X182132001Y-116369126D01*
X182229987Y-116523039D01*
X182355559Y-116713991D01*
X182502018Y-116931569D01*
X182586885Y-117055671D01*
X182741574Y-117282279D01*
X182879030Y-117486770D01*
X182992586Y-117658965D01*
X183075572Y-117788685D01*
X183121322Y-117865751D01*
X183128197Y-117881947D01*
X183112612Y-117927975D01*
X183070132Y-118035250D01*
X183007165Y-118188687D01*
X182930121Y-118373206D01*
X182845410Y-118573721D01*
X182759442Y-118775152D01*
X182678627Y-118962415D01*
X182609373Y-119120428D01*
X182558092Y-119234107D01*
X182531191Y-119288370D01*
X182529604Y-119290506D01*
X182487365Y-119300867D01*
X182374874Y-119323982D01*
X182203791Y-119357579D01*
X181985777Y-119399385D01*
X181732491Y-119447127D01*
X181584712Y-119474659D01*
X181314062Y-119526190D01*
X181069603Y-119575225D01*
X180863700Y-119619081D01*
X180708723Y-119655074D01*
X180617038Y-119680521D01*
X180598607Y-119688595D01*
X180580555Y-119743242D01*
X180565990Y-119866662D01*
X180554902Y-120044423D01*
X180547281Y-120262091D01*
X180543116Y-120505235D01*
X180542398Y-120759423D01*
X180545118Y-121010220D01*
X180551265Y-121243196D01*
X180560829Y-121443918D01*
X180573801Y-121597954D01*
X180590171Y-121690870D01*
X180599989Y-121710213D01*
X180658677Y-121733398D01*
X180783034Y-121766544D01*
X180956610Y-121805758D01*
X181162958Y-121847145D01*
X181234989Y-121860534D01*
X181582281Y-121924147D01*
X181856617Y-121975378D01*
X182067061Y-122016261D01*
X182222678Y-122048834D01*
X182332533Y-122075132D01*
X182405689Y-122097192D01*
X182451213Y-122117049D01*
X182478167Y-122136741D01*
X182481939Y-122140632D01*
X182519585Y-122203324D01*
X182577014Y-122325331D01*
X182648492Y-122491712D01*
X182728285Y-122687529D01*
X182810657Y-122897840D01*
X182889875Y-123107708D01*
X182960204Y-123302191D01*
X183015911Y-123466350D01*
X183051259Y-123585245D01*
X183060516Y-123643936D01*
X183059744Y-123645992D01*
X183028380Y-123693964D01*
X182957226Y-123799516D01*
X182853760Y-123951660D01*
X182725460Y-124139410D01*
X182579801Y-124351780D01*
X182538320Y-124412130D01*
X182390413Y-124630929D01*
X182260261Y-124830562D01*
X182154955Y-124999565D01*
X182081584Y-125126475D01*
X182047237Y-125199829D01*
X182045574Y-125208841D01*
X182074431Y-125256207D01*
X182154169Y-125350042D01*
X182274538Y-125480261D01*
X182425287Y-125636779D01*
X182596164Y-125809510D01*
X182776921Y-125988371D01*
X182957306Y-126163276D01*
X183127068Y-126324140D01*
X183275958Y-126460878D01*
X183393724Y-126563407D01*
X183470117Y-126621640D01*
X183491250Y-126631148D01*
X183540440Y-126608754D01*
X183641153Y-126548356D01*
X183776983Y-126460129D01*
X183881490Y-126389115D01*
X184070851Y-126258811D01*
X184295101Y-126105384D01*
X184520036Y-125952201D01*
X184640968Y-125870218D01*
X185050296Y-125593353D01*
X185393898Y-125779136D01*
X185550435Y-125860523D01*
X185683546Y-125923784D01*
X185773611Y-125959865D01*
X185796537Y-125964885D01*
X185824105Y-125927817D01*
X185878492Y-125823069D01*
X185955637Y-125660303D01*
X186051482Y-125449181D01*
X186161966Y-125199365D01*
X186283029Y-124920517D01*
X186410611Y-124622299D01*
X186540653Y-124314374D01*
X186669094Y-124006404D01*
X186791874Y-123708050D01*
X186904933Y-123428975D01*
X187004212Y-123178841D01*
X187085651Y-122967310D01*
X187145189Y-122804043D01*
X187178766Y-122698705D01*
X187184166Y-122662527D01*
X187141366Y-122616381D01*
X187047656Y-122541472D01*
X186922627Y-122453364D01*
X186912133Y-122446394D01*
X186588980Y-122187721D01*
X186328413Y-121885938D01*
X186132690Y-121550695D01*
X186004068Y-121191642D01*
X185944805Y-120818426D01*
X185957161Y-120440700D01*
X186043393Y-120068111D01*
X186205759Y-119710310D01*
X186253528Y-119632027D01*
X186501991Y-119315919D01*
X186795519Y-119062079D01*
X187123953Y-118871827D01*
X187477135Y-118746485D01*
X187844905Y-118687372D01*
X188217103Y-118695807D01*
X188583571Y-118773112D01*
X188934149Y-118920606D01*
X189258677Y-119139610D01*
X189359064Y-119228498D01*
X189614551Y-119506744D01*
X189800722Y-119799656D01*
X189928430Y-120127986D01*
X189999556Y-120453133D01*
X190017114Y-120818702D01*
X189958566Y-121186086D01*
X189829858Y-121542866D01*
X189636938Y-121876626D01*
X189385752Y-122174947D01*
X189082248Y-122425411D01*
X189042360Y-122451813D01*
X188915991Y-122538272D01*
X188819927Y-122613184D01*
X188774000Y-122661015D01*
X188773332Y-122662527D01*
X188783192Y-122714267D01*
X188822278Y-122831696D01*
X188886528Y-123005154D01*
X188971880Y-123224979D01*
X189074273Y-123481513D01*
X189189646Y-123765096D01*
X189313937Y-124066067D01*
X189443084Y-124374767D01*
X189573026Y-124681536D01*
X189699702Y-124976714D01*
X189819049Y-125250640D01*
X189927006Y-125493656D01*
X190019512Y-125696101D01*
X190092504Y-125848315D01*
X190141923Y-125940638D01*
X190161823Y-125964885D01*
X190222634Y-125946004D01*
X190336418Y-125895364D01*
X190483555Y-125822017D01*
X190564462Y-125779136D01*
X190908065Y-125593353D01*
X191317393Y-125870218D01*
X191526346Y-126012054D01*
X191755113Y-126168141D01*
X191969491Y-126315109D01*
X192076871Y-126389115D01*
X192227898Y-126490531D01*
X192355782Y-126570898D01*
X192443842Y-126620041D01*
X192472445Y-126630429D01*
X192514076Y-126602405D01*
X192606211Y-126524172D01*
X192739918Y-126403852D01*
X192906265Y-126249568D01*
X193096320Y-126069443D01*
X193216521Y-125953790D01*
X193426815Y-125747167D01*
X193608556Y-125562358D01*
X193754397Y-125407270D01*
X193856991Y-125289807D01*
X193908991Y-125217875D01*
X193913980Y-125203278D01*
X193890829Y-125147753D01*
X193826854Y-125035484D01*
X193729153Y-124877837D01*
X193604820Y-124686179D01*
X193460954Y-124471876D01*
X193420041Y-124412130D01*
X193270967Y-124194982D01*
X193137225Y-123999475D01*
X193026291Y-123836599D01*
X192945644Y-123717337D01*
X192902759Y-123652678D01*
X192898617Y-123645992D01*
X192904812Y-123594462D01*
X192937700Y-123481166D01*
X192991545Y-123321042D01*
X193060613Y-123129032D01*
X193139169Y-122920074D01*
X193221480Y-122709109D01*
X193301811Y-122511076D01*
X193374428Y-122340916D01*
X193433595Y-122213567D01*
X193473580Y-122143971D01*
X193476422Y-122140632D01*
X193500873Y-122120742D01*
X193542169Y-122101073D01*
X193609377Y-122079589D01*
X193711559Y-122054253D01*
X193857781Y-122023029D01*
X194057107Y-121983882D01*
X194318603Y-121934775D01*
X194651331Y-121873672D01*
X194723372Y-121860534D01*
X194936885Y-121819282D01*
X195123022Y-121778926D01*
X195265334Y-121743361D01*
X195347371Y-121716480D01*
X195358372Y-121710213D01*
X195376498Y-121654654D01*
X195391233Y-121530495D01*
X195402564Y-121352169D01*
X195410484Y-121134109D01*
X195414981Y-120890746D01*
X195416046Y-120636514D01*
X195413670Y-120385845D01*
X195407841Y-120153171D01*
X195398551Y-119952924D01*
X195385789Y-119799538D01*
X195369546Y-119707444D01*
X195359754Y-119688595D01*
X195305239Y-119669582D01*
X195181104Y-119638650D01*
X194999715Y-119598482D01*
X194773440Y-119551762D01*
X194514647Y-119501173D01*
X194373649Y-119474659D01*
X194106127Y-119424650D01*
X193867562Y-119379346D01*
X193669614Y-119341021D01*
X193523943Y-119311947D01*
X193442209Y-119294397D01*
X193428757Y-119290506D01*
X193406021Y-119246638D01*
X193357960Y-119140976D01*
X193290981Y-118988613D01*
X193211490Y-118804646D01*
X193125892Y-118604170D01*
X193040595Y-118402281D01*
X192962005Y-118214073D01*
X192896527Y-118054642D01*
X192850569Y-117939084D01*
X192830537Y-117882494D01*
X192830164Y-117880021D01*
X192852874Y-117835379D01*
X192916541Y-117732647D01*
X193014475Y-117582037D01*
X193139983Y-117393757D01*
X193286374Y-117178018D01*
X193371475Y-117054098D01*
X193526545Y-116826883D01*
X193664275Y-116620595D01*
X193777947Y-116445671D01*
X193860839Y-116312545D01*
X193906231Y-116231653D01*
X193912787Y-116213520D01*
X193884605Y-116171312D01*
X193806696Y-116081191D01*
X193689010Y-115953254D01*
X193541500Y-115797596D01*
X193374119Y-115624315D01*
X193196819Y-115443507D01*
X193019552Y-115265267D01*
X192852270Y-115099693D01*
X192704925Y-114956880D01*
X192587470Y-114846925D01*
X192509857Y-114779924D01*
X192483892Y-114763935D01*
X192441616Y-114786419D01*
X192340499Y-114849585D01*
X192190373Y-114947003D01*
X192001070Y-115072243D01*
X191782421Y-115218875D01*
X191617489Y-115330586D01*
X190784169Y-115897237D01*
X190089544Y-115610889D01*
X189394918Y-115324542D01*
X189206666Y-114325960D01*
X189018413Y-113327377D01*
X186939948Y-113327377D01*
X186751695Y-114325960D01*
M02*
