G04 #@! TF.GenerationSoftware,KiCad,Pcbnew,no-vcs-found-826efab~61~ubuntu17.10.1*
G04 #@! TF.CreationDate,2018-02-09T12:49:34+01:00*
G04 #@! TF.ProjectId,mmdvm_hs-hat,6D6D64766D5F68732D6861742E6B6963,1.5*
G04 #@! TF.SameCoordinates,Original*
G04 #@! TF.FileFunction,Copper,L2,Bot,Signal*
G04 #@! TF.FilePolarity,Positive*
%FSLAX46Y46*%
G04 Gerber Fmt 4.6, Leading zero omitted, Abs format (unit mm)*
G04 Created by KiCad (PCBNEW no-vcs-found-826efab~61~ubuntu17.10.1) date Fri Feb  9 12:49:34 2018*
%MOMM*%
%LPD*%
G01*
G04 APERTURE LIST*
%ADD10C,0.600000*%
%ADD11C,2.200000*%
%ADD12C,2.000000*%
%ADD13R,1.778000X1.778000*%
%ADD14C,1.778000*%
%ADD15R,1.727200X2.032000*%
%ADD16O,1.727200X2.032000*%
%ADD17C,0.250000*%
%ADD18C,0.400000*%
%ADD19C,0.254000*%
G04 APERTURE END LIST*
D10*
X174400000Y-122600000D03*
X213750000Y-134750000D03*
X167600000Y-113000000D03*
X188750000Y-127750000D03*
X202500000Y-127250000D03*
X202500000Y-123000000D03*
X197500000Y-123000000D03*
X208000000Y-114500000D03*
X174750000Y-114500000D03*
X191500000Y-129000000D03*
X185250000Y-118250000D03*
X184500000Y-120250000D03*
X218750000Y-117500000D03*
X218750000Y-119500000D03*
X201050000Y-117750000D03*
X194000000Y-118500000D03*
X210000000Y-130500000D03*
X204750000Y-135000000D03*
X195000000Y-131500000D03*
X195000000Y-135100000D03*
X195500000Y-129000000D03*
X181000000Y-130000000D03*
X171250000Y-134750000D03*
X171250000Y-131250000D03*
X191500000Y-113250000D03*
X177250000Y-116250000D03*
X185000000Y-112750000D03*
X170250000Y-122500000D03*
X168750000Y-122500000D03*
X166000000Y-122500000D03*
X171000000Y-126250000D03*
X171000000Y-124750000D03*
X168750000Y-125750000D03*
X167500000Y-124750000D03*
X165500000Y-124750000D03*
X164000000Y-125250000D03*
X163000000Y-126500000D03*
X163000000Y-122500000D03*
X163000000Y-120500000D03*
X163000000Y-118500000D03*
X163000000Y-116500000D03*
X163000000Y-114500000D03*
X163000000Y-112500000D03*
X185000000Y-129750000D03*
X197000000Y-127500000D03*
X182600000Y-126600000D03*
X181400000Y-126600000D03*
X180200000Y-126600000D03*
X179000000Y-126600000D03*
X182600000Y-125400000D03*
X181400000Y-125400000D03*
X180200000Y-125400000D03*
X179000000Y-125400000D03*
X182600000Y-124200000D03*
X181400000Y-124200000D03*
X180200000Y-124200000D03*
X179000000Y-124200000D03*
X182600000Y-123000000D03*
X181400000Y-123000000D03*
X180200000Y-123000000D03*
X179000000Y-123000000D03*
D11*
X163960000Y-133790000D03*
X163960000Y-128710000D03*
X169040000Y-128710000D03*
X169040000Y-133790000D03*
D12*
X166500000Y-131250000D03*
D13*
X163830000Y-110507121D03*
D14*
X163830000Y-107967121D03*
X166370000Y-110507121D03*
X166370000Y-107967121D03*
X168910000Y-110507121D03*
X168910000Y-107967121D03*
X171450000Y-110507121D03*
X171450000Y-107967121D03*
X173990000Y-110507121D03*
X173990000Y-107967121D03*
X176530000Y-110507121D03*
X176530000Y-107967121D03*
X179070000Y-110507121D03*
X179070000Y-107967121D03*
X181610000Y-110507121D03*
X181610000Y-107967121D03*
X184150000Y-110507121D03*
X184150000Y-107967121D03*
X186690000Y-110507121D03*
X186690000Y-107967121D03*
X189230000Y-110507121D03*
X189230000Y-107967121D03*
X191770000Y-110507121D03*
X191770000Y-107967121D03*
X194310000Y-110507121D03*
X194310000Y-107967121D03*
X196850000Y-110507121D03*
X196850000Y-107967121D03*
X199390000Y-110507121D03*
X199390000Y-107967121D03*
X201930000Y-110507121D03*
X201930000Y-107967121D03*
X204470000Y-110507121D03*
X204470000Y-107967121D03*
X207010000Y-110507121D03*
X207010000Y-107967121D03*
X209550000Y-110507121D03*
X209550000Y-107967121D03*
X212090000Y-110507121D03*
X212090000Y-107967121D03*
D15*
X210420000Y-124418600D03*
D16*
X212960000Y-124418600D03*
X215500000Y-124418600D03*
X218040000Y-124418600D03*
D15*
X210420000Y-128000000D03*
D16*
X212960000Y-128000000D03*
X215500000Y-128000000D03*
X218040000Y-128000000D03*
D15*
X205638400Y-114503200D03*
D16*
X203098400Y-114503200D03*
X200558400Y-114503200D03*
X198018400Y-114503200D03*
D10*
X175750000Y-127750000D03*
X188087000Y-125000000D03*
X212077300Y-130594100D03*
X213800000Y-111000000D03*
X198602600Y-118922800D03*
X187452000Y-127762000D03*
X188750000Y-126238000D03*
X177350000Y-118550000D03*
X177100000Y-120400000D03*
X194627500Y-119303800D03*
X206490000Y-127695000D03*
X218000000Y-115000000D03*
X197700000Y-126200000D03*
X192024000Y-122072400D03*
X188925200Y-119380000D03*
X187960000Y-118719600D03*
X192125600Y-121259600D03*
X191566800Y-126060200D03*
X192405000Y-119761000D03*
X192506600Y-117043200D03*
X193750000Y-129750000D03*
X188500000Y-123750000D03*
X189750000Y-116350000D03*
X169700000Y-118450000D03*
X206959200Y-120853200D03*
X206100000Y-123000000D03*
X207190000Y-130800000D03*
X174300000Y-128400000D03*
X207190000Y-128610000D03*
X183850000Y-118250000D03*
X180400000Y-120150000D03*
X209000000Y-121650000D03*
X207650000Y-115550000D03*
D17*
X184150000Y-110507121D02*
X182824001Y-109181122D01*
X182824001Y-109181122D02*
X164016999Y-109181122D01*
X163830000Y-109368121D02*
X163830000Y-110507121D01*
X164016999Y-109181122D02*
X163830000Y-109368121D01*
X212877400Y-130594100D02*
X213705900Y-130594100D01*
X215400000Y-112600000D02*
X213800000Y-111000000D01*
X217300000Y-112600000D02*
X215400000Y-112600000D01*
X218800000Y-114100000D02*
X217300000Y-112600000D01*
X218800000Y-114101200D02*
X218800000Y-114100000D01*
X219760800Y-115062000D02*
X218800000Y-114101200D01*
X219760800Y-128257300D02*
X219760800Y-115062000D01*
X212077300Y-130594100D02*
X212877400Y-130594100D01*
X219760800Y-129239200D02*
X219760800Y-128257300D01*
X219300000Y-129700000D02*
X219760800Y-129239200D01*
X214600000Y-129700000D02*
X219300000Y-129700000D01*
X213705900Y-130594100D02*
X214600000Y-129700000D01*
X202006200Y-116814600D02*
X202260200Y-116814600D01*
X200710800Y-116814600D02*
X202006200Y-116814600D01*
X198602600Y-118922800D02*
X200710800Y-116814600D01*
X203098400Y-115976400D02*
X203098400Y-114503200D01*
X202260200Y-116814600D02*
X203098400Y-115976400D01*
X187452000Y-127762000D02*
X187452000Y-127536000D01*
X187452000Y-127536000D02*
X188750000Y-126238000D01*
X177350000Y-118550000D02*
X177350000Y-120150000D01*
X177350000Y-120150000D02*
X177100000Y-120400000D01*
X197650100Y-116281200D02*
X199898000Y-116281200D01*
X197650100Y-116281200D02*
X194627500Y-119303800D01*
X200558400Y-115620800D02*
X200558400Y-114503200D01*
X199898000Y-116281200D02*
X200558400Y-115620800D01*
X206124999Y-128125001D02*
X206490000Y-127695000D01*
X206490000Y-127695000D02*
X206500000Y-127750000D01*
X190250000Y-125000000D02*
X190249991Y-125000009D01*
X190249991Y-125000009D02*
X190249991Y-126786401D01*
X190249991Y-126786401D02*
X191588591Y-128125001D01*
X191588591Y-128125001D02*
X206124999Y-128125001D01*
X190250000Y-119833678D02*
X190250000Y-125000000D01*
X166370000Y-107967121D02*
X167584001Y-106753120D01*
X167584001Y-106753120D02*
X182192721Y-106753120D01*
X182824001Y-108544712D02*
X183572409Y-109293120D01*
X182192721Y-106753120D02*
X182824001Y-107384400D01*
X182824001Y-107384400D02*
X182824001Y-108544712D01*
X184732721Y-109293120D02*
X185364001Y-109924400D01*
X190375001Y-119708677D02*
X190250000Y-119833678D01*
X183572409Y-109293120D02*
X184732721Y-109293120D01*
X185364001Y-109924400D02*
X185364001Y-111038999D01*
X185364001Y-111038999D02*
X190375001Y-116049999D01*
X190375001Y-116049999D02*
X190375001Y-119708677D01*
D18*
X163830000Y-107967121D02*
X166370000Y-107967121D01*
D17*
X218000000Y-115000000D02*
X217700001Y-114700001D01*
X214200001Y-114700001D02*
X211600000Y-112100000D01*
X217700001Y-114700001D02*
X214200001Y-114700001D01*
X195935600Y-113436400D02*
X195935600Y-115314400D01*
X211600000Y-112100000D02*
X197272000Y-112100000D01*
X197272000Y-112100000D02*
X195935600Y-113436400D01*
X195935600Y-115314400D02*
X190824690Y-120425310D01*
X190824690Y-120425310D02*
X190824690Y-126243092D01*
X190824690Y-126243092D02*
X191266799Y-126685201D01*
X191266799Y-126685201D02*
X192314799Y-126685201D01*
X192800000Y-126200000D02*
X197300000Y-126200000D01*
X192314799Y-126685201D02*
X192800000Y-126200000D01*
X197300000Y-126200000D02*
X197700000Y-126200000D01*
X193395600Y-122072400D02*
X206722400Y-122072400D01*
X193395600Y-122072400D02*
X192024000Y-122072400D01*
X214131400Y-123050000D02*
X215500000Y-124418600D01*
X207700000Y-123050000D02*
X214131400Y-123050000D01*
X206722400Y-122072400D02*
X207700000Y-123050000D01*
X181152800Y-112572800D02*
X170975679Y-112572800D01*
X188925200Y-119380000D02*
X188772800Y-119227600D01*
X188772800Y-119227600D02*
X188772800Y-118618000D01*
X188772800Y-118618000D02*
X182727600Y-112572800D01*
X182727600Y-112572800D02*
X181152800Y-112572800D01*
X170975679Y-112572800D02*
X168910000Y-110507121D01*
X193150000Y-121615200D02*
X206965200Y-121615200D01*
X216221398Y-122599998D02*
X218040000Y-124418600D01*
X207949998Y-122599998D02*
X216221398Y-122599998D01*
X206965200Y-121615200D02*
X207949998Y-122599998D01*
X181508400Y-113080800D02*
X168943679Y-113080800D01*
X187960000Y-118719600D02*
X182321200Y-113080800D01*
X182321200Y-113080800D02*
X181508400Y-113080800D01*
X193192400Y-121615200D02*
X193150000Y-121615200D01*
X193150000Y-121615200D02*
X192481200Y-121615200D01*
X192481200Y-121615200D02*
X192125600Y-121259600D01*
X168943679Y-113080800D02*
X166370000Y-110507121D01*
X209550000Y-107967121D02*
X208224001Y-109293120D01*
X208224001Y-109293120D02*
X196267279Y-109293120D01*
X196267279Y-109293120D02*
X195605400Y-109954999D01*
X193294000Y-113245900D02*
X193294000Y-116255800D01*
X195605400Y-109954999D02*
X195605400Y-111518700D01*
X195605400Y-111518700D02*
X194818000Y-112306100D01*
X194818000Y-112306100D02*
X194233800Y-112306100D01*
X194233800Y-112306100D02*
X193294000Y-113245900D01*
X193294000Y-116255800D02*
X192506600Y-117043200D01*
X191566800Y-126060200D02*
X191274700Y-125768100D01*
X191274700Y-125768100D02*
X191274700Y-120891300D01*
X191274700Y-120891300D02*
X192405000Y-119761000D01*
X206100000Y-123000000D02*
X207500000Y-124400000D01*
X207500000Y-124400000D02*
X210401400Y-124400000D01*
X210401400Y-124400000D02*
X210420000Y-124418600D01*
D18*
X189724981Y-128474981D02*
X190250000Y-129000000D01*
X190250000Y-129000000D02*
X191000000Y-129750000D01*
D17*
X176150000Y-128400000D02*
X176874999Y-129124999D01*
X176874999Y-129124999D02*
X190125001Y-129124999D01*
X190125001Y-129124999D02*
X190250000Y-129000000D01*
X174300000Y-128400000D02*
X176150000Y-128400000D01*
D18*
X207500000Y-128300000D02*
X207500000Y-124400000D01*
X207190000Y-128610000D02*
X207500000Y-128300000D01*
X188500000Y-124174264D02*
X189724981Y-125399245D01*
X189724981Y-125399245D02*
X189724981Y-128474981D01*
X188500000Y-123750000D02*
X188500000Y-124174264D01*
X191000000Y-129750000D02*
X193107524Y-129750000D01*
X193107524Y-129750000D02*
X193750000Y-129750000D01*
X193750000Y-129750000D02*
X206050000Y-129750000D01*
X206050000Y-129750000D02*
X207190000Y-128610000D01*
X188500000Y-123750000D02*
X188500000Y-120080001D01*
X185680001Y-120080001D02*
X188500000Y-120080001D01*
X188500000Y-120080001D02*
X189261201Y-120080001D01*
X183850000Y-118250000D02*
X185680001Y-120080001D01*
X189261201Y-120080001D02*
X189750000Y-119591202D01*
X189750000Y-119591202D02*
X189750000Y-116350000D01*
X183850000Y-118250000D02*
X178500000Y-118250000D01*
X178500000Y-118250000D02*
X178000000Y-117750000D01*
X180400000Y-120150000D02*
X178000000Y-117750000D01*
X178000000Y-117750000D02*
X170400000Y-117750000D01*
X170400000Y-117750000D02*
X169999999Y-118150001D01*
X169999999Y-118150001D02*
X169700000Y-118450000D01*
D17*
X207213200Y-116078000D02*
X205638400Y-114503200D01*
X207213200Y-120599200D02*
X207213200Y-116078000D01*
X206959200Y-120853200D02*
X207213200Y-120599200D01*
X205790800Y-114655600D02*
X205638400Y-114503200D01*
X206556700Y-123456700D02*
X206100000Y-123000000D01*
X206600000Y-123500000D02*
X206100000Y-123000000D01*
X207320000Y-128610000D02*
X207190000Y-128610000D01*
X207190000Y-130800000D02*
X207190000Y-128610000D01*
X208450000Y-121100000D02*
X209000000Y-121650000D01*
X208450000Y-116350000D02*
X208450000Y-121100000D01*
X207650000Y-115550000D02*
X208450000Y-116350000D01*
D19*
G36*
X165293346Y-111226518D02*
X165650603Y-111583775D01*
X166117381Y-111777121D01*
X166622619Y-111777121D01*
X166836016Y-111688729D01*
X168550642Y-113403355D01*
X168578873Y-113445606D01*
X168691460Y-113520833D01*
X168746247Y-113557441D01*
X168943679Y-113596713D01*
X168993514Y-113586800D01*
X182111609Y-113586800D01*
X187279000Y-118754192D01*
X187279000Y-118855059D01*
X187382676Y-119105356D01*
X187574244Y-119296924D01*
X187824541Y-119400600D01*
X188095459Y-119400600D01*
X188244200Y-119338990D01*
X188244200Y-119499001D01*
X185920659Y-119499001D01*
X184527324Y-118105667D01*
X184427324Y-117864244D01*
X184235756Y-117672676D01*
X183985459Y-117569000D01*
X183714541Y-117569000D01*
X183473119Y-117669000D01*
X178740658Y-117669000D01*
X178451292Y-117379634D01*
X178418877Y-117331123D01*
X178226695Y-117202710D01*
X178057222Y-117169000D01*
X178057218Y-117169000D01*
X178000000Y-117157619D01*
X177942782Y-117169000D01*
X170457218Y-117169000D01*
X170400000Y-117157619D01*
X170342782Y-117169000D01*
X170342778Y-117169000D01*
X170173305Y-117202710D01*
X170029633Y-117298709D01*
X170029632Y-117298710D01*
X169981123Y-117331123D01*
X169948710Y-117379632D01*
X169629632Y-117698710D01*
X169629633Y-117698710D01*
X169555667Y-117772676D01*
X169314244Y-117872676D01*
X169122676Y-118064244D01*
X169019000Y-118314541D01*
X169019000Y-118585459D01*
X169122676Y-118835756D01*
X169314244Y-119027324D01*
X169564541Y-119131000D01*
X169835459Y-119131000D01*
X170085756Y-119027324D01*
X170277324Y-118835756D01*
X170377324Y-118594333D01*
X170451290Y-118520367D01*
X170640658Y-118331000D01*
X176703604Y-118331000D01*
X176669000Y-118414541D01*
X176669000Y-118685459D01*
X176772676Y-118935756D01*
X176844000Y-119007080D01*
X176844001Y-119768929D01*
X176714244Y-119822676D01*
X176522676Y-120014244D01*
X176419000Y-120264541D01*
X176419000Y-120535459D01*
X176522676Y-120785756D01*
X176714244Y-120977324D01*
X176964541Y-121081000D01*
X177235459Y-121081000D01*
X177485756Y-120977324D01*
X177677324Y-120785756D01*
X177781000Y-120535459D01*
X177781000Y-120415738D01*
X177826641Y-120347431D01*
X177856000Y-120199835D01*
X177865913Y-120150001D01*
X177856000Y-120100167D01*
X177856000Y-119007080D01*
X177927324Y-118935756D01*
X178031000Y-118685459D01*
X178031000Y-118602658D01*
X178048710Y-118620368D01*
X178081123Y-118668877D01*
X178129632Y-118701290D01*
X179722676Y-120294334D01*
X179822676Y-120535756D01*
X180014244Y-120727324D01*
X180264541Y-120831000D01*
X180535459Y-120831000D01*
X180785756Y-120727324D01*
X180977324Y-120535756D01*
X181081000Y-120285459D01*
X181081000Y-120014541D01*
X180977324Y-119764244D01*
X180785756Y-119572676D01*
X180544334Y-119472676D01*
X179902658Y-118831000D01*
X183473119Y-118831000D01*
X183705667Y-118927324D01*
X185228711Y-120450369D01*
X185261124Y-120498878D01*
X185309633Y-120531291D01*
X185315871Y-120535459D01*
X185453306Y-120627291D01*
X185622779Y-120661001D01*
X185622783Y-120661001D01*
X185680000Y-120672382D01*
X185737217Y-120661001D01*
X187919001Y-120661001D01*
X187919000Y-123373118D01*
X187819000Y-123614541D01*
X187819000Y-123885459D01*
X187917678Y-124123691D01*
X187907619Y-124174264D01*
X187919000Y-124231482D01*
X187919000Y-124231486D01*
X187952710Y-124400959D01*
X188081124Y-124593141D01*
X188129633Y-124625554D01*
X189143981Y-125639903D01*
X189143981Y-125668901D01*
X189135756Y-125660676D01*
X188885459Y-125557000D01*
X188614541Y-125557000D01*
X188364244Y-125660676D01*
X188172676Y-125852244D01*
X188069000Y-126102541D01*
X188069000Y-126203408D01*
X187129445Y-127142964D01*
X187087195Y-127171194D01*
X187082757Y-127177836D01*
X187066244Y-127184676D01*
X186874676Y-127376244D01*
X186771000Y-127626541D01*
X186771000Y-127897459D01*
X186874676Y-128147756D01*
X187066244Y-128339324D01*
X187316541Y-128443000D01*
X187587459Y-128443000D01*
X187837756Y-128339324D01*
X188029324Y-128147756D01*
X188133000Y-127897459D01*
X188133000Y-127626541D01*
X188116613Y-127586979D01*
X188784592Y-126919000D01*
X188885459Y-126919000D01*
X189135756Y-126815324D01*
X189143981Y-126807099D01*
X189143982Y-128417758D01*
X189132600Y-128474981D01*
X189161246Y-128618999D01*
X177084591Y-128618999D01*
X176543038Y-128077447D01*
X176514806Y-128035194D01*
X176347431Y-127923359D01*
X176199835Y-127894000D01*
X176199834Y-127894000D01*
X176150000Y-127884087D01*
X176100166Y-127894000D01*
X174757080Y-127894000D01*
X174685756Y-127822676D01*
X174435459Y-127719000D01*
X174164541Y-127719000D01*
X173914244Y-127822676D01*
X173722676Y-128014244D01*
X173619000Y-128264541D01*
X173619000Y-128535459D01*
X173722676Y-128785756D01*
X173914244Y-128977324D01*
X174164541Y-129081000D01*
X174435459Y-129081000D01*
X174685756Y-128977324D01*
X174757080Y-128906000D01*
X175940409Y-128906000D01*
X176481962Y-129447554D01*
X176510193Y-129489805D01*
X176677568Y-129601640D01*
X176825164Y-129630999D01*
X176874998Y-129640912D01*
X176924832Y-129630999D01*
X190059342Y-129630999D01*
X190548710Y-130120368D01*
X190581123Y-130168877D01*
X190629632Y-130201290D01*
X190636681Y-130206000D01*
X190773305Y-130297290D01*
X190942778Y-130331000D01*
X190942782Y-130331000D01*
X190999999Y-130342381D01*
X191057216Y-130331000D01*
X193373119Y-130331000D01*
X193614541Y-130431000D01*
X193885459Y-130431000D01*
X194126881Y-130331000D01*
X205992782Y-130331000D01*
X206050000Y-130342381D01*
X206107218Y-130331000D01*
X206107222Y-130331000D01*
X206276695Y-130297290D01*
X206468877Y-130168877D01*
X206501292Y-130120365D01*
X206684000Y-129937657D01*
X206684000Y-130342920D01*
X206612676Y-130414244D01*
X206509000Y-130664541D01*
X206509000Y-130935459D01*
X206612676Y-131185756D01*
X206804244Y-131377324D01*
X207054541Y-131481000D01*
X207325459Y-131481000D01*
X207575756Y-131377324D01*
X207767324Y-131185756D01*
X207871000Y-130935459D01*
X207871000Y-130664541D01*
X207767324Y-130414244D01*
X207696000Y-130342920D01*
X207696000Y-129067080D01*
X207767324Y-128995756D01*
X207867324Y-128754333D01*
X207870366Y-128751291D01*
X207918877Y-128718877D01*
X208047290Y-128526695D01*
X208081000Y-128357222D01*
X208081000Y-128357218D01*
X208092381Y-128300001D01*
X208081000Y-128242784D01*
X208081000Y-126984000D01*
X209167936Y-126984000D01*
X209167936Y-129016000D01*
X209197506Y-129164659D01*
X209281714Y-129290686D01*
X209407741Y-129374894D01*
X209556400Y-129404464D01*
X211283600Y-129404464D01*
X211432259Y-129374894D01*
X211558286Y-129290686D01*
X211642494Y-129164659D01*
X211672064Y-129016000D01*
X211672064Y-127725020D01*
X211715400Y-127725020D01*
X211715400Y-128274981D01*
X211787613Y-128638019D01*
X212062695Y-129049706D01*
X212474382Y-129324787D01*
X212960000Y-129421383D01*
X213445619Y-129324787D01*
X213857306Y-129049706D01*
X214132387Y-128638018D01*
X214204600Y-128274980D01*
X214204600Y-127725019D01*
X214132387Y-127361981D01*
X213857306Y-126950294D01*
X213445618Y-126675213D01*
X212960000Y-126578617D01*
X212474381Y-126675213D01*
X212062694Y-126950294D01*
X211787613Y-127361982D01*
X211715400Y-127725020D01*
X211672064Y-127725020D01*
X211672064Y-126984000D01*
X211642494Y-126835341D01*
X211558286Y-126709314D01*
X211432259Y-126625106D01*
X211283600Y-126595536D01*
X209556400Y-126595536D01*
X209407741Y-126625106D01*
X209281714Y-126709314D01*
X209197506Y-126835341D01*
X209167936Y-126984000D01*
X208081000Y-126984000D01*
X208081000Y-124906000D01*
X209167936Y-124906000D01*
X209167936Y-125434600D01*
X209197506Y-125583259D01*
X209281714Y-125709286D01*
X209407741Y-125793494D01*
X209556400Y-125823064D01*
X211283600Y-125823064D01*
X211432259Y-125793494D01*
X211558286Y-125709286D01*
X211642494Y-125583259D01*
X211672064Y-125434600D01*
X211672064Y-125337417D01*
X212057964Y-125769332D01*
X212585209Y-126023309D01*
X212600974Y-126025958D01*
X212833000Y-125904817D01*
X212833000Y-124545600D01*
X212813000Y-124545600D01*
X212813000Y-124291600D01*
X212833000Y-124291600D01*
X212833000Y-124271600D01*
X213087000Y-124271600D01*
X213087000Y-124291600D01*
X213107000Y-124291600D01*
X213107000Y-124545600D01*
X213087000Y-124545600D01*
X213087000Y-125904817D01*
X213319026Y-126025958D01*
X213334791Y-126023309D01*
X213862036Y-125769332D01*
X214251954Y-125332920D01*
X214341391Y-125077238D01*
X214602695Y-125468306D01*
X215014382Y-125743387D01*
X215500000Y-125839983D01*
X215985619Y-125743387D01*
X216397306Y-125468306D01*
X216672387Y-125056618D01*
X216744600Y-124693580D01*
X216744600Y-124143619D01*
X216672387Y-123780581D01*
X216644190Y-123738382D01*
X216837546Y-123931738D01*
X216795400Y-124143620D01*
X216795400Y-124693581D01*
X216867613Y-125056619D01*
X217142695Y-125468306D01*
X217554382Y-125743387D01*
X218040000Y-125839983D01*
X218525619Y-125743387D01*
X218937306Y-125468306D01*
X219212387Y-125056618D01*
X219254800Y-124843393D01*
X219254800Y-126999326D01*
X218942036Y-126649268D01*
X218414791Y-126395291D01*
X218399026Y-126392642D01*
X218167000Y-126513783D01*
X218167000Y-127873000D01*
X218187000Y-127873000D01*
X218187000Y-128127000D01*
X218167000Y-128127000D01*
X218167000Y-128147000D01*
X217913000Y-128147000D01*
X217913000Y-128127000D01*
X217893000Y-128127000D01*
X217893000Y-127873000D01*
X217913000Y-127873000D01*
X217913000Y-126513783D01*
X217680974Y-126392642D01*
X217665209Y-126395291D01*
X217137964Y-126649268D01*
X216748046Y-127085680D01*
X216658610Y-127341362D01*
X216397306Y-126950294D01*
X215985618Y-126675213D01*
X215500000Y-126578617D01*
X215014381Y-126675213D01*
X214602694Y-126950294D01*
X214327613Y-127361982D01*
X214255400Y-127725020D01*
X214255400Y-128274981D01*
X214327613Y-128638019D01*
X214602695Y-129049706D01*
X214818646Y-129194000D01*
X214649833Y-129194000D01*
X214599999Y-129184087D01*
X214550165Y-129194000D01*
X214402569Y-129223359D01*
X214235194Y-129335194D01*
X214206963Y-129377445D01*
X213496309Y-130088100D01*
X212534380Y-130088100D01*
X212463056Y-130016776D01*
X212212759Y-129913100D01*
X211941841Y-129913100D01*
X211691544Y-130016776D01*
X211499976Y-130208344D01*
X211396300Y-130458641D01*
X211396300Y-130729559D01*
X211499976Y-130979856D01*
X211691544Y-131171424D01*
X211941841Y-131275100D01*
X212212759Y-131275100D01*
X212463056Y-131171424D01*
X212534380Y-131100100D01*
X213656066Y-131100100D01*
X213705900Y-131110013D01*
X213755734Y-131100100D01*
X213755735Y-131100100D01*
X213903331Y-131070741D01*
X214070706Y-130958906D01*
X214098938Y-130916653D01*
X214809592Y-130206000D01*
X219250166Y-130206000D01*
X219300000Y-130215913D01*
X219349834Y-130206000D01*
X219349835Y-130206000D01*
X219497431Y-130176641D01*
X219664806Y-130064806D01*
X219693038Y-130022553D01*
X220044001Y-129671591D01*
X220044001Y-132847271D01*
X219813908Y-133828931D01*
X219247822Y-134616969D01*
X218419854Y-135130502D01*
X217518327Y-135294000D01*
X169969770Y-135294000D01*
X169974359Y-135292099D01*
X170085263Y-135014868D01*
X169040000Y-133969605D01*
X167994737Y-135014868D01*
X168105641Y-135292099D01*
X168110690Y-135294000D01*
X164889770Y-135294000D01*
X164894359Y-135292099D01*
X165005263Y-135014868D01*
X163960000Y-133969605D01*
X163945858Y-133983748D01*
X163766253Y-133804143D01*
X163780395Y-133790000D01*
X164139605Y-133790000D01*
X165184868Y-134835263D01*
X165462099Y-134724359D01*
X165705323Y-134078407D01*
X165686521Y-133501593D01*
X167294677Y-133501593D01*
X167317164Y-134191453D01*
X167537901Y-134724359D01*
X167815132Y-134835263D01*
X168860395Y-133790000D01*
X169219605Y-133790000D01*
X170264868Y-134835263D01*
X170542099Y-134724359D01*
X170785323Y-134078407D01*
X170762836Y-133388547D01*
X170542099Y-132855641D01*
X170264868Y-132744737D01*
X169219605Y-133790000D01*
X168860395Y-133790000D01*
X167815132Y-132744737D01*
X167537901Y-132855641D01*
X167294677Y-133501593D01*
X165686521Y-133501593D01*
X165682836Y-133388547D01*
X165462099Y-132855641D01*
X165184868Y-132744737D01*
X164139605Y-133790000D01*
X163780395Y-133790000D01*
X163766253Y-133775858D01*
X163945858Y-133596253D01*
X163960000Y-133610395D01*
X165005263Y-132565132D01*
X164894359Y-132287901D01*
X164248407Y-132044677D01*
X163558547Y-132067164D01*
X163025641Y-132287901D01*
X162914738Y-132565130D01*
X162800698Y-132451090D01*
X162727000Y-132524788D01*
X162727000Y-130975302D01*
X165119000Y-130975302D01*
X165119000Y-131524698D01*
X165329245Y-132032273D01*
X165717727Y-132420755D01*
X166225302Y-132631000D01*
X166774698Y-132631000D01*
X166933717Y-132565132D01*
X167994737Y-132565132D01*
X169040000Y-133610395D01*
X170085263Y-132565132D01*
X169974359Y-132287901D01*
X169328407Y-132044677D01*
X168638547Y-132067164D01*
X168105641Y-132287901D01*
X167994737Y-132565132D01*
X166933717Y-132565132D01*
X167282273Y-132420755D01*
X167670755Y-132032273D01*
X167729586Y-131890242D01*
X215204040Y-131890242D01*
X215204040Y-132588480D01*
X215471244Y-133233568D01*
X215964973Y-133727297D01*
X216610061Y-133994501D01*
X217308299Y-133994501D01*
X217953387Y-133727297D01*
X218447116Y-133233568D01*
X218714320Y-132588480D01*
X218714320Y-131890242D01*
X218447116Y-131245154D01*
X217953387Y-130751425D01*
X217308299Y-130484221D01*
X216610061Y-130484221D01*
X215964973Y-130751425D01*
X215471244Y-131245154D01*
X215204040Y-131890242D01*
X167729586Y-131890242D01*
X167881000Y-131524698D01*
X167881000Y-130975302D01*
X167670755Y-130467727D01*
X167282273Y-130079245D01*
X166933718Y-129934868D01*
X167994737Y-129934868D01*
X168105641Y-130212099D01*
X168751593Y-130455323D01*
X169441453Y-130432836D01*
X169974359Y-130212099D01*
X170085263Y-129934868D01*
X169040000Y-128889605D01*
X167994737Y-129934868D01*
X166933718Y-129934868D01*
X166774698Y-129869000D01*
X166225302Y-129869000D01*
X165717727Y-130079245D01*
X165329245Y-130467727D01*
X165119000Y-130975302D01*
X162727000Y-130975302D01*
X162727000Y-129975212D01*
X162800698Y-130048910D01*
X162914738Y-129934870D01*
X163025641Y-130212099D01*
X163671593Y-130455323D01*
X164361453Y-130432836D01*
X164894359Y-130212099D01*
X165005263Y-129934868D01*
X163960000Y-128889605D01*
X163945858Y-128903748D01*
X163766253Y-128724143D01*
X163780395Y-128710000D01*
X164139605Y-128710000D01*
X165184868Y-129755263D01*
X165462099Y-129644359D01*
X165705323Y-128998407D01*
X165686521Y-128421593D01*
X167294677Y-128421593D01*
X167317164Y-129111453D01*
X167537901Y-129644359D01*
X167815132Y-129755263D01*
X168860395Y-128710000D01*
X169219605Y-128710000D01*
X170264868Y-129755263D01*
X170542099Y-129644359D01*
X170785323Y-128998407D01*
X170762836Y-128308547D01*
X170542099Y-127775641D01*
X170264868Y-127664737D01*
X169219605Y-128710000D01*
X168860395Y-128710000D01*
X167815132Y-127664737D01*
X167537901Y-127775641D01*
X167294677Y-128421593D01*
X165686521Y-128421593D01*
X165682836Y-128308547D01*
X165462099Y-127775641D01*
X165184868Y-127664737D01*
X164139605Y-128710000D01*
X163780395Y-128710000D01*
X163766253Y-128695858D01*
X163945858Y-128516253D01*
X163960000Y-128530395D01*
X165005263Y-127485132D01*
X167994737Y-127485132D01*
X169040000Y-128530395D01*
X170085263Y-127485132D01*
X169974359Y-127207901D01*
X169328407Y-126964677D01*
X168638547Y-126987164D01*
X168105641Y-127207901D01*
X167994737Y-127485132D01*
X165005263Y-127485132D01*
X164894359Y-127207901D01*
X164248407Y-126964677D01*
X163558547Y-126987164D01*
X163025641Y-127207901D01*
X162914738Y-127485130D01*
X162800698Y-127371090D01*
X162727000Y-127444788D01*
X162727000Y-111711356D01*
X162792341Y-111755015D01*
X162941000Y-111784585D01*
X164719000Y-111784585D01*
X164867659Y-111755015D01*
X164993686Y-111670807D01*
X165077894Y-111544780D01*
X165107464Y-111396121D01*
X165107464Y-110777760D01*
X165293346Y-111226518D01*
X165293346Y-111226518D01*
G37*
X165293346Y-111226518D02*
X165650603Y-111583775D01*
X166117381Y-111777121D01*
X166622619Y-111777121D01*
X166836016Y-111688729D01*
X168550642Y-113403355D01*
X168578873Y-113445606D01*
X168691460Y-113520833D01*
X168746247Y-113557441D01*
X168943679Y-113596713D01*
X168993514Y-113586800D01*
X182111609Y-113586800D01*
X187279000Y-118754192D01*
X187279000Y-118855059D01*
X187382676Y-119105356D01*
X187574244Y-119296924D01*
X187824541Y-119400600D01*
X188095459Y-119400600D01*
X188244200Y-119338990D01*
X188244200Y-119499001D01*
X185920659Y-119499001D01*
X184527324Y-118105667D01*
X184427324Y-117864244D01*
X184235756Y-117672676D01*
X183985459Y-117569000D01*
X183714541Y-117569000D01*
X183473119Y-117669000D01*
X178740658Y-117669000D01*
X178451292Y-117379634D01*
X178418877Y-117331123D01*
X178226695Y-117202710D01*
X178057222Y-117169000D01*
X178057218Y-117169000D01*
X178000000Y-117157619D01*
X177942782Y-117169000D01*
X170457218Y-117169000D01*
X170400000Y-117157619D01*
X170342782Y-117169000D01*
X170342778Y-117169000D01*
X170173305Y-117202710D01*
X170029633Y-117298709D01*
X170029632Y-117298710D01*
X169981123Y-117331123D01*
X169948710Y-117379632D01*
X169629632Y-117698710D01*
X169629633Y-117698710D01*
X169555667Y-117772676D01*
X169314244Y-117872676D01*
X169122676Y-118064244D01*
X169019000Y-118314541D01*
X169019000Y-118585459D01*
X169122676Y-118835756D01*
X169314244Y-119027324D01*
X169564541Y-119131000D01*
X169835459Y-119131000D01*
X170085756Y-119027324D01*
X170277324Y-118835756D01*
X170377324Y-118594333D01*
X170451290Y-118520367D01*
X170640658Y-118331000D01*
X176703604Y-118331000D01*
X176669000Y-118414541D01*
X176669000Y-118685459D01*
X176772676Y-118935756D01*
X176844000Y-119007080D01*
X176844001Y-119768929D01*
X176714244Y-119822676D01*
X176522676Y-120014244D01*
X176419000Y-120264541D01*
X176419000Y-120535459D01*
X176522676Y-120785756D01*
X176714244Y-120977324D01*
X176964541Y-121081000D01*
X177235459Y-121081000D01*
X177485756Y-120977324D01*
X177677324Y-120785756D01*
X177781000Y-120535459D01*
X177781000Y-120415738D01*
X177826641Y-120347431D01*
X177856000Y-120199835D01*
X177865913Y-120150001D01*
X177856000Y-120100167D01*
X177856000Y-119007080D01*
X177927324Y-118935756D01*
X178031000Y-118685459D01*
X178031000Y-118602658D01*
X178048710Y-118620368D01*
X178081123Y-118668877D01*
X178129632Y-118701290D01*
X179722676Y-120294334D01*
X179822676Y-120535756D01*
X180014244Y-120727324D01*
X180264541Y-120831000D01*
X180535459Y-120831000D01*
X180785756Y-120727324D01*
X180977324Y-120535756D01*
X181081000Y-120285459D01*
X181081000Y-120014541D01*
X180977324Y-119764244D01*
X180785756Y-119572676D01*
X180544334Y-119472676D01*
X179902658Y-118831000D01*
X183473119Y-118831000D01*
X183705667Y-118927324D01*
X185228711Y-120450369D01*
X185261124Y-120498878D01*
X185309633Y-120531291D01*
X185315871Y-120535459D01*
X185453306Y-120627291D01*
X185622779Y-120661001D01*
X185622783Y-120661001D01*
X185680000Y-120672382D01*
X185737217Y-120661001D01*
X187919001Y-120661001D01*
X187919000Y-123373118D01*
X187819000Y-123614541D01*
X187819000Y-123885459D01*
X187917678Y-124123691D01*
X187907619Y-124174264D01*
X187919000Y-124231482D01*
X187919000Y-124231486D01*
X187952710Y-124400959D01*
X188081124Y-124593141D01*
X188129633Y-124625554D01*
X189143981Y-125639903D01*
X189143981Y-125668901D01*
X189135756Y-125660676D01*
X188885459Y-125557000D01*
X188614541Y-125557000D01*
X188364244Y-125660676D01*
X188172676Y-125852244D01*
X188069000Y-126102541D01*
X188069000Y-126203408D01*
X187129445Y-127142964D01*
X187087195Y-127171194D01*
X187082757Y-127177836D01*
X187066244Y-127184676D01*
X186874676Y-127376244D01*
X186771000Y-127626541D01*
X186771000Y-127897459D01*
X186874676Y-128147756D01*
X187066244Y-128339324D01*
X187316541Y-128443000D01*
X187587459Y-128443000D01*
X187837756Y-128339324D01*
X188029324Y-128147756D01*
X188133000Y-127897459D01*
X188133000Y-127626541D01*
X188116613Y-127586979D01*
X188784592Y-126919000D01*
X188885459Y-126919000D01*
X189135756Y-126815324D01*
X189143981Y-126807099D01*
X189143982Y-128417758D01*
X189132600Y-128474981D01*
X189161246Y-128618999D01*
X177084591Y-128618999D01*
X176543038Y-128077447D01*
X176514806Y-128035194D01*
X176347431Y-127923359D01*
X176199835Y-127894000D01*
X176199834Y-127894000D01*
X176150000Y-127884087D01*
X176100166Y-127894000D01*
X174757080Y-127894000D01*
X174685756Y-127822676D01*
X174435459Y-127719000D01*
X174164541Y-127719000D01*
X173914244Y-127822676D01*
X173722676Y-128014244D01*
X173619000Y-128264541D01*
X173619000Y-128535459D01*
X173722676Y-128785756D01*
X173914244Y-128977324D01*
X174164541Y-129081000D01*
X174435459Y-129081000D01*
X174685756Y-128977324D01*
X174757080Y-128906000D01*
X175940409Y-128906000D01*
X176481962Y-129447554D01*
X176510193Y-129489805D01*
X176677568Y-129601640D01*
X176825164Y-129630999D01*
X176874998Y-129640912D01*
X176924832Y-129630999D01*
X190059342Y-129630999D01*
X190548710Y-130120368D01*
X190581123Y-130168877D01*
X190629632Y-130201290D01*
X190636681Y-130206000D01*
X190773305Y-130297290D01*
X190942778Y-130331000D01*
X190942782Y-130331000D01*
X190999999Y-130342381D01*
X191057216Y-130331000D01*
X193373119Y-130331000D01*
X193614541Y-130431000D01*
X193885459Y-130431000D01*
X194126881Y-130331000D01*
X205992782Y-130331000D01*
X206050000Y-130342381D01*
X206107218Y-130331000D01*
X206107222Y-130331000D01*
X206276695Y-130297290D01*
X206468877Y-130168877D01*
X206501292Y-130120365D01*
X206684000Y-129937657D01*
X206684000Y-130342920D01*
X206612676Y-130414244D01*
X206509000Y-130664541D01*
X206509000Y-130935459D01*
X206612676Y-131185756D01*
X206804244Y-131377324D01*
X207054541Y-131481000D01*
X207325459Y-131481000D01*
X207575756Y-131377324D01*
X207767324Y-131185756D01*
X207871000Y-130935459D01*
X207871000Y-130664541D01*
X207767324Y-130414244D01*
X207696000Y-130342920D01*
X207696000Y-129067080D01*
X207767324Y-128995756D01*
X207867324Y-128754333D01*
X207870366Y-128751291D01*
X207918877Y-128718877D01*
X208047290Y-128526695D01*
X208081000Y-128357222D01*
X208081000Y-128357218D01*
X208092381Y-128300001D01*
X208081000Y-128242784D01*
X208081000Y-126984000D01*
X209167936Y-126984000D01*
X209167936Y-129016000D01*
X209197506Y-129164659D01*
X209281714Y-129290686D01*
X209407741Y-129374894D01*
X209556400Y-129404464D01*
X211283600Y-129404464D01*
X211432259Y-129374894D01*
X211558286Y-129290686D01*
X211642494Y-129164659D01*
X211672064Y-129016000D01*
X211672064Y-127725020D01*
X211715400Y-127725020D01*
X211715400Y-128274981D01*
X211787613Y-128638019D01*
X212062695Y-129049706D01*
X212474382Y-129324787D01*
X212960000Y-129421383D01*
X213445619Y-129324787D01*
X213857306Y-129049706D01*
X214132387Y-128638018D01*
X214204600Y-128274980D01*
X214204600Y-127725019D01*
X214132387Y-127361981D01*
X213857306Y-126950294D01*
X213445618Y-126675213D01*
X212960000Y-126578617D01*
X212474381Y-126675213D01*
X212062694Y-126950294D01*
X211787613Y-127361982D01*
X211715400Y-127725020D01*
X211672064Y-127725020D01*
X211672064Y-126984000D01*
X211642494Y-126835341D01*
X211558286Y-126709314D01*
X211432259Y-126625106D01*
X211283600Y-126595536D01*
X209556400Y-126595536D01*
X209407741Y-126625106D01*
X209281714Y-126709314D01*
X209197506Y-126835341D01*
X209167936Y-126984000D01*
X208081000Y-126984000D01*
X208081000Y-124906000D01*
X209167936Y-124906000D01*
X209167936Y-125434600D01*
X209197506Y-125583259D01*
X209281714Y-125709286D01*
X209407741Y-125793494D01*
X209556400Y-125823064D01*
X211283600Y-125823064D01*
X211432259Y-125793494D01*
X211558286Y-125709286D01*
X211642494Y-125583259D01*
X211672064Y-125434600D01*
X211672064Y-125337417D01*
X212057964Y-125769332D01*
X212585209Y-126023309D01*
X212600974Y-126025958D01*
X212833000Y-125904817D01*
X212833000Y-124545600D01*
X212813000Y-124545600D01*
X212813000Y-124291600D01*
X212833000Y-124291600D01*
X212833000Y-124271600D01*
X213087000Y-124271600D01*
X213087000Y-124291600D01*
X213107000Y-124291600D01*
X213107000Y-124545600D01*
X213087000Y-124545600D01*
X213087000Y-125904817D01*
X213319026Y-126025958D01*
X213334791Y-126023309D01*
X213862036Y-125769332D01*
X214251954Y-125332920D01*
X214341391Y-125077238D01*
X214602695Y-125468306D01*
X215014382Y-125743387D01*
X215500000Y-125839983D01*
X215985619Y-125743387D01*
X216397306Y-125468306D01*
X216672387Y-125056618D01*
X216744600Y-124693580D01*
X216744600Y-124143619D01*
X216672387Y-123780581D01*
X216644190Y-123738382D01*
X216837546Y-123931738D01*
X216795400Y-124143620D01*
X216795400Y-124693581D01*
X216867613Y-125056619D01*
X217142695Y-125468306D01*
X217554382Y-125743387D01*
X218040000Y-125839983D01*
X218525619Y-125743387D01*
X218937306Y-125468306D01*
X219212387Y-125056618D01*
X219254800Y-124843393D01*
X219254800Y-126999326D01*
X218942036Y-126649268D01*
X218414791Y-126395291D01*
X218399026Y-126392642D01*
X218167000Y-126513783D01*
X218167000Y-127873000D01*
X218187000Y-127873000D01*
X218187000Y-128127000D01*
X218167000Y-128127000D01*
X218167000Y-128147000D01*
X217913000Y-128147000D01*
X217913000Y-128127000D01*
X217893000Y-128127000D01*
X217893000Y-127873000D01*
X217913000Y-127873000D01*
X217913000Y-126513783D01*
X217680974Y-126392642D01*
X217665209Y-126395291D01*
X217137964Y-126649268D01*
X216748046Y-127085680D01*
X216658610Y-127341362D01*
X216397306Y-126950294D01*
X215985618Y-126675213D01*
X215500000Y-126578617D01*
X215014381Y-126675213D01*
X214602694Y-126950294D01*
X214327613Y-127361982D01*
X214255400Y-127725020D01*
X214255400Y-128274981D01*
X214327613Y-128638019D01*
X214602695Y-129049706D01*
X214818646Y-129194000D01*
X214649833Y-129194000D01*
X214599999Y-129184087D01*
X214550165Y-129194000D01*
X214402569Y-129223359D01*
X214235194Y-129335194D01*
X214206963Y-129377445D01*
X213496309Y-130088100D01*
X212534380Y-130088100D01*
X212463056Y-130016776D01*
X212212759Y-129913100D01*
X211941841Y-129913100D01*
X211691544Y-130016776D01*
X211499976Y-130208344D01*
X211396300Y-130458641D01*
X211396300Y-130729559D01*
X211499976Y-130979856D01*
X211691544Y-131171424D01*
X211941841Y-131275100D01*
X212212759Y-131275100D01*
X212463056Y-131171424D01*
X212534380Y-131100100D01*
X213656066Y-131100100D01*
X213705900Y-131110013D01*
X213755734Y-131100100D01*
X213755735Y-131100100D01*
X213903331Y-131070741D01*
X214070706Y-130958906D01*
X214098938Y-130916653D01*
X214809592Y-130206000D01*
X219250166Y-130206000D01*
X219300000Y-130215913D01*
X219349834Y-130206000D01*
X219349835Y-130206000D01*
X219497431Y-130176641D01*
X219664806Y-130064806D01*
X219693038Y-130022553D01*
X220044001Y-129671591D01*
X220044001Y-132847271D01*
X219813908Y-133828931D01*
X219247822Y-134616969D01*
X218419854Y-135130502D01*
X217518327Y-135294000D01*
X169969770Y-135294000D01*
X169974359Y-135292099D01*
X170085263Y-135014868D01*
X169040000Y-133969605D01*
X167994737Y-135014868D01*
X168105641Y-135292099D01*
X168110690Y-135294000D01*
X164889770Y-135294000D01*
X164894359Y-135292099D01*
X165005263Y-135014868D01*
X163960000Y-133969605D01*
X163945858Y-133983748D01*
X163766253Y-133804143D01*
X163780395Y-133790000D01*
X164139605Y-133790000D01*
X165184868Y-134835263D01*
X165462099Y-134724359D01*
X165705323Y-134078407D01*
X165686521Y-133501593D01*
X167294677Y-133501593D01*
X167317164Y-134191453D01*
X167537901Y-134724359D01*
X167815132Y-134835263D01*
X168860395Y-133790000D01*
X169219605Y-133790000D01*
X170264868Y-134835263D01*
X170542099Y-134724359D01*
X170785323Y-134078407D01*
X170762836Y-133388547D01*
X170542099Y-132855641D01*
X170264868Y-132744737D01*
X169219605Y-133790000D01*
X168860395Y-133790000D01*
X167815132Y-132744737D01*
X167537901Y-132855641D01*
X167294677Y-133501593D01*
X165686521Y-133501593D01*
X165682836Y-133388547D01*
X165462099Y-132855641D01*
X165184868Y-132744737D01*
X164139605Y-133790000D01*
X163780395Y-133790000D01*
X163766253Y-133775858D01*
X163945858Y-133596253D01*
X163960000Y-133610395D01*
X165005263Y-132565132D01*
X164894359Y-132287901D01*
X164248407Y-132044677D01*
X163558547Y-132067164D01*
X163025641Y-132287901D01*
X162914738Y-132565130D01*
X162800698Y-132451090D01*
X162727000Y-132524788D01*
X162727000Y-130975302D01*
X165119000Y-130975302D01*
X165119000Y-131524698D01*
X165329245Y-132032273D01*
X165717727Y-132420755D01*
X166225302Y-132631000D01*
X166774698Y-132631000D01*
X166933717Y-132565132D01*
X167994737Y-132565132D01*
X169040000Y-133610395D01*
X170085263Y-132565132D01*
X169974359Y-132287901D01*
X169328407Y-132044677D01*
X168638547Y-132067164D01*
X168105641Y-132287901D01*
X167994737Y-132565132D01*
X166933717Y-132565132D01*
X167282273Y-132420755D01*
X167670755Y-132032273D01*
X167729586Y-131890242D01*
X215204040Y-131890242D01*
X215204040Y-132588480D01*
X215471244Y-133233568D01*
X215964973Y-133727297D01*
X216610061Y-133994501D01*
X217308299Y-133994501D01*
X217953387Y-133727297D01*
X218447116Y-133233568D01*
X218714320Y-132588480D01*
X218714320Y-131890242D01*
X218447116Y-131245154D01*
X217953387Y-130751425D01*
X217308299Y-130484221D01*
X216610061Y-130484221D01*
X215964973Y-130751425D01*
X215471244Y-131245154D01*
X215204040Y-131890242D01*
X167729586Y-131890242D01*
X167881000Y-131524698D01*
X167881000Y-130975302D01*
X167670755Y-130467727D01*
X167282273Y-130079245D01*
X166933718Y-129934868D01*
X167994737Y-129934868D01*
X168105641Y-130212099D01*
X168751593Y-130455323D01*
X169441453Y-130432836D01*
X169974359Y-130212099D01*
X170085263Y-129934868D01*
X169040000Y-128889605D01*
X167994737Y-129934868D01*
X166933718Y-129934868D01*
X166774698Y-129869000D01*
X166225302Y-129869000D01*
X165717727Y-130079245D01*
X165329245Y-130467727D01*
X165119000Y-130975302D01*
X162727000Y-130975302D01*
X162727000Y-129975212D01*
X162800698Y-130048910D01*
X162914738Y-129934870D01*
X163025641Y-130212099D01*
X163671593Y-130455323D01*
X164361453Y-130432836D01*
X164894359Y-130212099D01*
X165005263Y-129934868D01*
X163960000Y-128889605D01*
X163945858Y-128903748D01*
X163766253Y-128724143D01*
X163780395Y-128710000D01*
X164139605Y-128710000D01*
X165184868Y-129755263D01*
X165462099Y-129644359D01*
X165705323Y-128998407D01*
X165686521Y-128421593D01*
X167294677Y-128421593D01*
X167317164Y-129111453D01*
X167537901Y-129644359D01*
X167815132Y-129755263D01*
X168860395Y-128710000D01*
X169219605Y-128710000D01*
X170264868Y-129755263D01*
X170542099Y-129644359D01*
X170785323Y-128998407D01*
X170762836Y-128308547D01*
X170542099Y-127775641D01*
X170264868Y-127664737D01*
X169219605Y-128710000D01*
X168860395Y-128710000D01*
X167815132Y-127664737D01*
X167537901Y-127775641D01*
X167294677Y-128421593D01*
X165686521Y-128421593D01*
X165682836Y-128308547D01*
X165462099Y-127775641D01*
X165184868Y-127664737D01*
X164139605Y-128710000D01*
X163780395Y-128710000D01*
X163766253Y-128695858D01*
X163945858Y-128516253D01*
X163960000Y-128530395D01*
X165005263Y-127485132D01*
X167994737Y-127485132D01*
X169040000Y-128530395D01*
X170085263Y-127485132D01*
X169974359Y-127207901D01*
X169328407Y-126964677D01*
X168638547Y-126987164D01*
X168105641Y-127207901D01*
X167994737Y-127485132D01*
X165005263Y-127485132D01*
X164894359Y-127207901D01*
X164248407Y-126964677D01*
X163558547Y-126987164D01*
X163025641Y-127207901D01*
X162914738Y-127485130D01*
X162800698Y-127371090D01*
X162727000Y-127444788D01*
X162727000Y-111711356D01*
X162792341Y-111755015D01*
X162941000Y-111784585D01*
X164719000Y-111784585D01*
X164867659Y-111755015D01*
X164993686Y-111670807D01*
X165077894Y-111544780D01*
X165107464Y-111396121D01*
X165107464Y-110777760D01*
X165293346Y-111226518D01*
G36*
X191195554Y-128447556D02*
X191223785Y-128489807D01*
X191391160Y-128601642D01*
X191538756Y-128631001D01*
X191588590Y-128640914D01*
X191638424Y-128631001D01*
X206095935Y-128631001D01*
X206167040Y-128639198D01*
X206243967Y-128617250D01*
X206322430Y-128601642D01*
X206340138Y-128589810D01*
X206360614Y-128583968D01*
X206423276Y-128534260D01*
X206485979Y-128492364D01*
X205809343Y-129169000D01*
X194126881Y-129169000D01*
X193885459Y-129069000D01*
X193614541Y-129069000D01*
X193373119Y-129169000D01*
X191240658Y-129169000D01*
X190701293Y-128629636D01*
X190701291Y-128629633D01*
X190305981Y-128234324D01*
X190305981Y-127557982D01*
X191195554Y-128447556D01*
X191195554Y-128447556D01*
G37*
X191195554Y-128447556D02*
X191223785Y-128489807D01*
X191391160Y-128601642D01*
X191538756Y-128631001D01*
X191588590Y-128640914D01*
X191638424Y-128631001D01*
X206095935Y-128631001D01*
X206167040Y-128639198D01*
X206243967Y-128617250D01*
X206322430Y-128601642D01*
X206340138Y-128589810D01*
X206360614Y-128583968D01*
X206423276Y-128534260D01*
X206485979Y-128492364D01*
X205809343Y-129169000D01*
X194126881Y-129169000D01*
X193885459Y-129069000D01*
X193614541Y-129069000D01*
X193373119Y-129169000D01*
X191240658Y-129169000D01*
X190701293Y-128629636D01*
X190701291Y-128629633D01*
X190305981Y-128234324D01*
X190305981Y-127557982D01*
X191195554Y-128447556D01*
G36*
X205522676Y-122614244D02*
X205419000Y-122864541D01*
X205419000Y-123135459D01*
X205522676Y-123385756D01*
X205714244Y-123577324D01*
X205964541Y-123681000D01*
X206065408Y-123681000D01*
X206277442Y-123893034D01*
X206277444Y-123893035D01*
X206919001Y-124534593D01*
X206919000Y-127160920D01*
X206875756Y-127117676D01*
X206625459Y-127014000D01*
X206354541Y-127014000D01*
X206104244Y-127117676D01*
X205912676Y-127309244D01*
X205809000Y-127559541D01*
X205809000Y-127619001D01*
X191798183Y-127619001D01*
X191370383Y-127191201D01*
X192264965Y-127191201D01*
X192314799Y-127201114D01*
X192364633Y-127191201D01*
X192364634Y-127191201D01*
X192512230Y-127161842D01*
X192679605Y-127050007D01*
X192707837Y-127007754D01*
X193009592Y-126706000D01*
X197242920Y-126706000D01*
X197314244Y-126777324D01*
X197564541Y-126881000D01*
X197835459Y-126881000D01*
X198085756Y-126777324D01*
X198277324Y-126585756D01*
X198381000Y-126335459D01*
X198381000Y-126064541D01*
X198277324Y-125814244D01*
X198085756Y-125622676D01*
X197835459Y-125519000D01*
X197564541Y-125519000D01*
X197314244Y-125622676D01*
X197242920Y-125694000D01*
X192849834Y-125694000D01*
X192800000Y-125684087D01*
X192750166Y-125694000D01*
X192750165Y-125694000D01*
X192602569Y-125723359D01*
X192435194Y-125835194D01*
X192406963Y-125877445D01*
X192247800Y-126036608D01*
X192247800Y-125924741D01*
X192144124Y-125674444D01*
X191952556Y-125482876D01*
X191780700Y-125411691D01*
X191780700Y-122708731D01*
X191888541Y-122753400D01*
X192159459Y-122753400D01*
X192409756Y-122649724D01*
X192481080Y-122578400D01*
X205558520Y-122578400D01*
X205522676Y-122614244D01*
X205522676Y-122614244D01*
G37*
X205522676Y-122614244D02*
X205419000Y-122864541D01*
X205419000Y-123135459D01*
X205522676Y-123385756D01*
X205714244Y-123577324D01*
X205964541Y-123681000D01*
X206065408Y-123681000D01*
X206277442Y-123893034D01*
X206277444Y-123893035D01*
X206919001Y-124534593D01*
X206919000Y-127160920D01*
X206875756Y-127117676D01*
X206625459Y-127014000D01*
X206354541Y-127014000D01*
X206104244Y-127117676D01*
X205912676Y-127309244D01*
X205809000Y-127559541D01*
X205809000Y-127619001D01*
X191798183Y-127619001D01*
X191370383Y-127191201D01*
X192264965Y-127191201D01*
X192314799Y-127201114D01*
X192364633Y-127191201D01*
X192364634Y-127191201D01*
X192512230Y-127161842D01*
X192679605Y-127050007D01*
X192707837Y-127007754D01*
X193009592Y-126706000D01*
X197242920Y-126706000D01*
X197314244Y-126777324D01*
X197564541Y-126881000D01*
X197835459Y-126881000D01*
X198085756Y-126777324D01*
X198277324Y-126585756D01*
X198381000Y-126335459D01*
X198381000Y-126064541D01*
X198277324Y-125814244D01*
X198085756Y-125622676D01*
X197835459Y-125519000D01*
X197564541Y-125519000D01*
X197314244Y-125622676D01*
X197242920Y-125694000D01*
X192849834Y-125694000D01*
X192800000Y-125684087D01*
X192750166Y-125694000D01*
X192750165Y-125694000D01*
X192602569Y-125723359D01*
X192435194Y-125835194D01*
X192406963Y-125877445D01*
X192247800Y-126036608D01*
X192247800Y-125924741D01*
X192144124Y-125674444D01*
X191952556Y-125482876D01*
X191780700Y-125411691D01*
X191780700Y-122708731D01*
X191888541Y-122753400D01*
X192159459Y-122753400D01*
X192409756Y-122649724D01*
X192481080Y-122578400D01*
X205558520Y-122578400D01*
X205522676Y-122614244D01*
G36*
X218470128Y-106257904D02*
X219292562Y-106807438D01*
X219842096Y-107629872D01*
X220044000Y-108644911D01*
X220044000Y-114629608D01*
X219195454Y-113781063D01*
X219164806Y-113735194D01*
X219122555Y-113706963D01*
X217693039Y-112277447D01*
X217664806Y-112235194D01*
X217497431Y-112123359D01*
X217349835Y-112094000D01*
X217349834Y-112094000D01*
X217300000Y-112084087D01*
X217250166Y-112094000D01*
X215609592Y-112094000D01*
X214481000Y-110965409D01*
X214481000Y-110864541D01*
X214377324Y-110614244D01*
X214185756Y-110422676D01*
X213935459Y-110319000D01*
X213664541Y-110319000D01*
X213608361Y-110342271D01*
X213599723Y-110139421D01*
X213417539Y-109699588D01*
X213162196Y-109614530D01*
X212269605Y-110507121D01*
X213162196Y-111399712D01*
X213220423Y-111380316D01*
X213222676Y-111385756D01*
X213414244Y-111577324D01*
X213664541Y-111681000D01*
X213765409Y-111681000D01*
X215006963Y-112922555D01*
X215035194Y-112964806D01*
X215147781Y-113040033D01*
X215202568Y-113076641D01*
X215400000Y-113115913D01*
X215449835Y-113106000D01*
X217090409Y-113106000D01*
X218404548Y-114420140D01*
X218435194Y-114466006D01*
X218477447Y-114494238D01*
X219254801Y-115271593D01*
X219254800Y-123993806D01*
X219212387Y-123780581D01*
X218937306Y-123368894D01*
X218525618Y-123093813D01*
X218040000Y-122997217D01*
X217554381Y-123093813D01*
X217480302Y-123143311D01*
X216614437Y-122277445D01*
X216586204Y-122235192D01*
X216418829Y-122123357D01*
X216271233Y-122093998D01*
X216271232Y-122093998D01*
X216221398Y-122084085D01*
X216171564Y-122093998D01*
X209519082Y-122093998D01*
X209577324Y-122035756D01*
X209681000Y-121785459D01*
X209681000Y-121514541D01*
X209577324Y-121264244D01*
X209385756Y-121072676D01*
X209135459Y-120969000D01*
X209034591Y-120969000D01*
X208956000Y-120890409D01*
X208956000Y-116399834D01*
X208965913Y-116350000D01*
X208955706Y-116298687D01*
X208926641Y-116152569D01*
X208814806Y-115985194D01*
X208772556Y-115956964D01*
X208331000Y-115515409D01*
X208331000Y-115414541D01*
X208227324Y-115164244D01*
X208035756Y-114972676D01*
X207785459Y-114869000D01*
X207514541Y-114869000D01*
X207264244Y-114972676D01*
X207072676Y-115164244D01*
X207055794Y-115205001D01*
X206890464Y-115039672D01*
X206890464Y-113487200D01*
X206860894Y-113338541D01*
X206776686Y-113212514D01*
X206650659Y-113128306D01*
X206502000Y-113098736D01*
X204774800Y-113098736D01*
X204626141Y-113128306D01*
X204500114Y-113212514D01*
X204415906Y-113338541D01*
X204386336Y-113487200D01*
X204386336Y-115519200D01*
X204415906Y-115667859D01*
X204500114Y-115793886D01*
X204626141Y-115878094D01*
X204774800Y-115907664D01*
X206327272Y-115907664D01*
X206707201Y-116287594D01*
X206707200Y-120220473D01*
X206573444Y-120275876D01*
X206381876Y-120467444D01*
X206278200Y-120717741D01*
X206278200Y-120988659D01*
X206328130Y-121109200D01*
X192800411Y-121109200D01*
X192702924Y-120873844D01*
X192511356Y-120682276D01*
X192290710Y-120590882D01*
X192439592Y-120442000D01*
X192540459Y-120442000D01*
X192790756Y-120338324D01*
X192982324Y-120146756D01*
X193086000Y-119896459D01*
X193086000Y-119625541D01*
X192982324Y-119375244D01*
X192790756Y-119183676D01*
X192784505Y-119181087D01*
X192797251Y-119168341D01*
X193946500Y-119168341D01*
X193946500Y-119439259D01*
X194050176Y-119689556D01*
X194241744Y-119881124D01*
X194492041Y-119984800D01*
X194762959Y-119984800D01*
X195013256Y-119881124D01*
X195204824Y-119689556D01*
X195308500Y-119439259D01*
X195308500Y-119338391D01*
X197859692Y-116787200D01*
X199848166Y-116787200D01*
X199898000Y-116797113D01*
X199947834Y-116787200D01*
X199947835Y-116787200D01*
X200041175Y-116768633D01*
X198568009Y-118241800D01*
X198467141Y-118241800D01*
X198216844Y-118345476D01*
X198025276Y-118537044D01*
X197921600Y-118787341D01*
X197921600Y-119058259D01*
X198025276Y-119308556D01*
X198216844Y-119500124D01*
X198467141Y-119603800D01*
X198738059Y-119603800D01*
X198988356Y-119500124D01*
X199179924Y-119308556D01*
X199283600Y-119058259D01*
X199283600Y-118957391D01*
X200920392Y-117320600D01*
X202210366Y-117320600D01*
X202260200Y-117330513D01*
X202310034Y-117320600D01*
X202310035Y-117320600D01*
X202457631Y-117291241D01*
X202625006Y-117179406D01*
X202653238Y-117137153D01*
X203420956Y-116369436D01*
X203463206Y-116341206D01*
X203547840Y-116214541D01*
X203575041Y-116173832D01*
X203614313Y-115976400D01*
X203604400Y-115926565D01*
X203604400Y-115814368D01*
X203995706Y-115552906D01*
X204270787Y-115141219D01*
X204343000Y-114778181D01*
X204343000Y-114228220D01*
X204270787Y-113865182D01*
X203995706Y-113453494D01*
X203584019Y-113178413D01*
X203098400Y-113081817D01*
X202612782Y-113178413D01*
X202201095Y-113453494D01*
X201926013Y-113865181D01*
X201853800Y-114228219D01*
X201853800Y-114778180D01*
X201926013Y-115141218D01*
X202201094Y-115552906D01*
X202563890Y-115795319D01*
X202050609Y-116308600D01*
X200760633Y-116308600D01*
X200710799Y-116298687D01*
X200660965Y-116308600D01*
X200567625Y-116327167D01*
X200880956Y-116013836D01*
X200923206Y-115985606D01*
X201011187Y-115853932D01*
X201026148Y-115831542D01*
X201044018Y-115827987D01*
X201455706Y-115552906D01*
X201730787Y-115141219D01*
X201803000Y-114778181D01*
X201803000Y-114228220D01*
X201730787Y-113865182D01*
X201455706Y-113453494D01*
X201044019Y-113178413D01*
X200558400Y-113081817D01*
X200072782Y-113178413D01*
X199661095Y-113453494D01*
X199399791Y-113844562D01*
X199310354Y-113588880D01*
X198920436Y-113152468D01*
X198393191Y-112898491D01*
X198377426Y-112895842D01*
X198145400Y-113016983D01*
X198145400Y-114376200D01*
X198165400Y-114376200D01*
X198165400Y-114630200D01*
X198145400Y-114630200D01*
X198145400Y-114650200D01*
X197891400Y-114650200D01*
X197891400Y-114630200D01*
X196677476Y-114630200D01*
X196533216Y-114865113D01*
X196726446Y-115417520D01*
X197116364Y-115853932D01*
X197275734Y-115930702D01*
X197257063Y-115958645D01*
X194592909Y-118622800D01*
X194492041Y-118622800D01*
X194241744Y-118726476D01*
X194050176Y-118918044D01*
X193946500Y-119168341D01*
X192797251Y-119168341D01*
X196258155Y-115707437D01*
X196300406Y-115679206D01*
X196412241Y-115511831D01*
X196441600Y-115364235D01*
X196451513Y-115314401D01*
X196441600Y-115264567D01*
X196441600Y-114141287D01*
X196533216Y-114141287D01*
X196677476Y-114376200D01*
X197891400Y-114376200D01*
X197891400Y-113016983D01*
X197659374Y-112895842D01*
X197643609Y-112898491D01*
X197116364Y-113152468D01*
X196726446Y-113588880D01*
X196533216Y-114141287D01*
X196441600Y-114141287D01*
X196441600Y-113645991D01*
X197481592Y-112606000D01*
X211390409Y-112606000D01*
X213806964Y-115022556D01*
X213835195Y-115064807D01*
X213936117Y-115132240D01*
X214002569Y-115176642D01*
X214200001Y-115215914D01*
X214249836Y-115206001D01*
X217348219Y-115206001D01*
X217422676Y-115385756D01*
X217614244Y-115577324D01*
X217864541Y-115681000D01*
X218135459Y-115681000D01*
X218385756Y-115577324D01*
X218577324Y-115385756D01*
X218681000Y-115135459D01*
X218681000Y-114864541D01*
X218577324Y-114614244D01*
X218385756Y-114422676D01*
X218135459Y-114319000D01*
X218040569Y-114319000D01*
X217897432Y-114223360D01*
X217749836Y-114194001D01*
X217749835Y-114194001D01*
X217700001Y-114184088D01*
X217650167Y-114194001D01*
X214409593Y-114194001D01*
X212241635Y-112026044D01*
X212457700Y-112016844D01*
X212897533Y-111834660D01*
X212982591Y-111579317D01*
X212090000Y-110686726D01*
X212075858Y-110700869D01*
X211896253Y-110521264D01*
X211910395Y-110507121D01*
X211017804Y-109614530D01*
X210762461Y-109699588D01*
X210681723Y-109920672D01*
X210626654Y-109787724D01*
X210269397Y-109430467D01*
X209802619Y-109237121D01*
X210269397Y-109043775D01*
X210626654Y-108686518D01*
X210820000Y-108219740D01*
X211013346Y-108686518D01*
X211370603Y-109043775D01*
X211490469Y-109093425D01*
X211282467Y-109179582D01*
X211197409Y-109434925D01*
X212090000Y-110327516D01*
X212982591Y-109434925D01*
X212897533Y-109179582D01*
X212676449Y-109098844D01*
X212809397Y-109043775D01*
X212965170Y-108888002D01*
X215204040Y-108888002D01*
X215204040Y-109586240D01*
X215471244Y-110231328D01*
X215964973Y-110725057D01*
X216610061Y-110992261D01*
X217308299Y-110992261D01*
X217953387Y-110725057D01*
X218447116Y-110231328D01*
X218714320Y-109586240D01*
X218714320Y-108888002D01*
X218447116Y-108242914D01*
X217953387Y-107749185D01*
X217308299Y-107481981D01*
X216610061Y-107481981D01*
X215964973Y-107749185D01*
X215471244Y-108242914D01*
X215204040Y-108888002D01*
X212965170Y-108888002D01*
X213166654Y-108686518D01*
X213360000Y-108219740D01*
X213360000Y-107714502D01*
X213166654Y-107247724D01*
X212809397Y-106890467D01*
X212342619Y-106697121D01*
X211837381Y-106697121D01*
X211370603Y-106890467D01*
X211013346Y-107247724D01*
X210820000Y-107714502D01*
X210626654Y-107247724D01*
X210269397Y-106890467D01*
X209802619Y-106697121D01*
X209297381Y-106697121D01*
X208830603Y-106890467D01*
X208473346Y-107247724D01*
X208280000Y-107714502D01*
X208086654Y-107247724D01*
X207729397Y-106890467D01*
X207262619Y-106697121D01*
X206757381Y-106697121D01*
X206290603Y-106890467D01*
X205933346Y-107247724D01*
X205883696Y-107367590D01*
X205797539Y-107159588D01*
X205542196Y-107074530D01*
X204649605Y-107967121D01*
X204663748Y-107981264D01*
X204484143Y-108160869D01*
X204470000Y-108146726D01*
X204455858Y-108160869D01*
X204276253Y-107981264D01*
X204290395Y-107967121D01*
X203397804Y-107074530D01*
X203142461Y-107159588D01*
X203061723Y-107380672D01*
X203006654Y-107247724D01*
X202653855Y-106894925D01*
X203577409Y-106894925D01*
X204470000Y-107787516D01*
X205362591Y-106894925D01*
X205277533Y-106639582D01*
X204708035Y-106431605D01*
X204102300Y-106457398D01*
X203662467Y-106639582D01*
X203577409Y-106894925D01*
X202653855Y-106894925D01*
X202649397Y-106890467D01*
X202182619Y-106697121D01*
X201677381Y-106697121D01*
X201210603Y-106890467D01*
X200853346Y-107247724D01*
X200803696Y-107367590D01*
X200717539Y-107159588D01*
X200462196Y-107074530D01*
X199569605Y-107967121D01*
X199583748Y-107981264D01*
X199404143Y-108160869D01*
X199390000Y-108146726D01*
X199375858Y-108160869D01*
X199196253Y-107981264D01*
X199210395Y-107967121D01*
X198317804Y-107074530D01*
X198062461Y-107159588D01*
X197981723Y-107380672D01*
X197926654Y-107247724D01*
X197573855Y-106894925D01*
X198497409Y-106894925D01*
X199390000Y-107787516D01*
X200282591Y-106894925D01*
X200197533Y-106639582D01*
X199628035Y-106431605D01*
X199022300Y-106457398D01*
X198582467Y-106639582D01*
X198497409Y-106894925D01*
X197573855Y-106894925D01*
X197569397Y-106890467D01*
X197102619Y-106697121D01*
X196597381Y-106697121D01*
X196130603Y-106890467D01*
X195773346Y-107247724D01*
X195580000Y-107714502D01*
X195386654Y-107247724D01*
X195029397Y-106890467D01*
X194562619Y-106697121D01*
X194057381Y-106697121D01*
X193590603Y-106890467D01*
X193233346Y-107247724D01*
X193040000Y-107714502D01*
X192846654Y-107247724D01*
X192489397Y-106890467D01*
X192022619Y-106697121D01*
X191517381Y-106697121D01*
X191050603Y-106890467D01*
X190693346Y-107247724D01*
X190500000Y-107714502D01*
X190306654Y-107247724D01*
X189949397Y-106890467D01*
X189482619Y-106697121D01*
X188977381Y-106697121D01*
X188510603Y-106890467D01*
X188153346Y-107247724D01*
X188103696Y-107367590D01*
X188017539Y-107159588D01*
X187762196Y-107074530D01*
X186869605Y-107967121D01*
X187762196Y-108859712D01*
X188017539Y-108774654D01*
X188098277Y-108553570D01*
X188153346Y-108686518D01*
X188510603Y-109043775D01*
X188977381Y-109237121D01*
X188510603Y-109430467D01*
X188153346Y-109787724D01*
X187960000Y-110254502D01*
X187766654Y-109787724D01*
X187409397Y-109430467D01*
X187289531Y-109380817D01*
X187497533Y-109294660D01*
X187582591Y-109039317D01*
X186690000Y-108146726D01*
X185797409Y-109039317D01*
X185882467Y-109294660D01*
X186103551Y-109375398D01*
X185970603Y-109430467D01*
X185773936Y-109627134D01*
X185728807Y-109559594D01*
X185686557Y-109531364D01*
X185125759Y-108970567D01*
X185097527Y-108928314D01*
X185029987Y-108883185D01*
X185226654Y-108686518D01*
X185276304Y-108566652D01*
X185362461Y-108774654D01*
X185617804Y-108859712D01*
X186510395Y-107967121D01*
X185617804Y-107074530D01*
X185362461Y-107159588D01*
X185281723Y-107380672D01*
X185226654Y-107247724D01*
X184873855Y-106894925D01*
X185797409Y-106894925D01*
X186690000Y-107787516D01*
X187582591Y-106894925D01*
X187497533Y-106639582D01*
X186928035Y-106431605D01*
X186322300Y-106457398D01*
X185882467Y-106639582D01*
X185797409Y-106894925D01*
X184873855Y-106894925D01*
X184869397Y-106890467D01*
X184402619Y-106697121D01*
X183897381Y-106697121D01*
X183430603Y-106890467D01*
X183233936Y-107087134D01*
X183188807Y-107019594D01*
X183146557Y-106991364D01*
X182585759Y-106430567D01*
X182557527Y-106388314D01*
X182390152Y-106276479D01*
X182242556Y-106247120D01*
X182242555Y-106247120D01*
X182192721Y-106237207D01*
X182142887Y-106247120D01*
X167633836Y-106247120D01*
X167584001Y-106237207D01*
X167386569Y-106276479D01*
X167331782Y-106313087D01*
X167219195Y-106388314D01*
X167190964Y-106430565D01*
X166836016Y-106785513D01*
X166622619Y-106697121D01*
X166117381Y-106697121D01*
X165650603Y-106890467D01*
X165293346Y-107247724D01*
X165236020Y-107386121D01*
X164963980Y-107386121D01*
X164906654Y-107247724D01*
X164549397Y-106890467D01*
X164082619Y-106697121D01*
X163577381Y-106697121D01*
X163110603Y-106890467D01*
X162753346Y-107247724D01*
X162727000Y-107311329D01*
X162727000Y-106056000D01*
X217455089Y-106056000D01*
X218470128Y-106257904D01*
X218470128Y-106257904D01*
G37*
X218470128Y-106257904D02*
X219292562Y-106807438D01*
X219842096Y-107629872D01*
X220044000Y-108644911D01*
X220044000Y-114629608D01*
X219195454Y-113781063D01*
X219164806Y-113735194D01*
X219122555Y-113706963D01*
X217693039Y-112277447D01*
X217664806Y-112235194D01*
X217497431Y-112123359D01*
X217349835Y-112094000D01*
X217349834Y-112094000D01*
X217300000Y-112084087D01*
X217250166Y-112094000D01*
X215609592Y-112094000D01*
X214481000Y-110965409D01*
X214481000Y-110864541D01*
X214377324Y-110614244D01*
X214185756Y-110422676D01*
X213935459Y-110319000D01*
X213664541Y-110319000D01*
X213608361Y-110342271D01*
X213599723Y-110139421D01*
X213417539Y-109699588D01*
X213162196Y-109614530D01*
X212269605Y-110507121D01*
X213162196Y-111399712D01*
X213220423Y-111380316D01*
X213222676Y-111385756D01*
X213414244Y-111577324D01*
X213664541Y-111681000D01*
X213765409Y-111681000D01*
X215006963Y-112922555D01*
X215035194Y-112964806D01*
X215147781Y-113040033D01*
X215202568Y-113076641D01*
X215400000Y-113115913D01*
X215449835Y-113106000D01*
X217090409Y-113106000D01*
X218404548Y-114420140D01*
X218435194Y-114466006D01*
X218477447Y-114494238D01*
X219254801Y-115271593D01*
X219254800Y-123993806D01*
X219212387Y-123780581D01*
X218937306Y-123368894D01*
X218525618Y-123093813D01*
X218040000Y-122997217D01*
X217554381Y-123093813D01*
X217480302Y-123143311D01*
X216614437Y-122277445D01*
X216586204Y-122235192D01*
X216418829Y-122123357D01*
X216271233Y-122093998D01*
X216271232Y-122093998D01*
X216221398Y-122084085D01*
X216171564Y-122093998D01*
X209519082Y-122093998D01*
X209577324Y-122035756D01*
X209681000Y-121785459D01*
X209681000Y-121514541D01*
X209577324Y-121264244D01*
X209385756Y-121072676D01*
X209135459Y-120969000D01*
X209034591Y-120969000D01*
X208956000Y-120890409D01*
X208956000Y-116399834D01*
X208965913Y-116350000D01*
X208955706Y-116298687D01*
X208926641Y-116152569D01*
X208814806Y-115985194D01*
X208772556Y-115956964D01*
X208331000Y-115515409D01*
X208331000Y-115414541D01*
X208227324Y-115164244D01*
X208035756Y-114972676D01*
X207785459Y-114869000D01*
X207514541Y-114869000D01*
X207264244Y-114972676D01*
X207072676Y-115164244D01*
X207055794Y-115205001D01*
X206890464Y-115039672D01*
X206890464Y-113487200D01*
X206860894Y-113338541D01*
X206776686Y-113212514D01*
X206650659Y-113128306D01*
X206502000Y-113098736D01*
X204774800Y-113098736D01*
X204626141Y-113128306D01*
X204500114Y-113212514D01*
X204415906Y-113338541D01*
X204386336Y-113487200D01*
X204386336Y-115519200D01*
X204415906Y-115667859D01*
X204500114Y-115793886D01*
X204626141Y-115878094D01*
X204774800Y-115907664D01*
X206327272Y-115907664D01*
X206707201Y-116287594D01*
X206707200Y-120220473D01*
X206573444Y-120275876D01*
X206381876Y-120467444D01*
X206278200Y-120717741D01*
X206278200Y-120988659D01*
X206328130Y-121109200D01*
X192800411Y-121109200D01*
X192702924Y-120873844D01*
X192511356Y-120682276D01*
X192290710Y-120590882D01*
X192439592Y-120442000D01*
X192540459Y-120442000D01*
X192790756Y-120338324D01*
X192982324Y-120146756D01*
X193086000Y-119896459D01*
X193086000Y-119625541D01*
X192982324Y-119375244D01*
X192790756Y-119183676D01*
X192784505Y-119181087D01*
X192797251Y-119168341D01*
X193946500Y-119168341D01*
X193946500Y-119439259D01*
X194050176Y-119689556D01*
X194241744Y-119881124D01*
X194492041Y-119984800D01*
X194762959Y-119984800D01*
X195013256Y-119881124D01*
X195204824Y-119689556D01*
X195308500Y-119439259D01*
X195308500Y-119338391D01*
X197859692Y-116787200D01*
X199848166Y-116787200D01*
X199898000Y-116797113D01*
X199947834Y-116787200D01*
X199947835Y-116787200D01*
X200041175Y-116768633D01*
X198568009Y-118241800D01*
X198467141Y-118241800D01*
X198216844Y-118345476D01*
X198025276Y-118537044D01*
X197921600Y-118787341D01*
X197921600Y-119058259D01*
X198025276Y-119308556D01*
X198216844Y-119500124D01*
X198467141Y-119603800D01*
X198738059Y-119603800D01*
X198988356Y-119500124D01*
X199179924Y-119308556D01*
X199283600Y-119058259D01*
X199283600Y-118957391D01*
X200920392Y-117320600D01*
X202210366Y-117320600D01*
X202260200Y-117330513D01*
X202310034Y-117320600D01*
X202310035Y-117320600D01*
X202457631Y-117291241D01*
X202625006Y-117179406D01*
X202653238Y-117137153D01*
X203420956Y-116369436D01*
X203463206Y-116341206D01*
X203547840Y-116214541D01*
X203575041Y-116173832D01*
X203614313Y-115976400D01*
X203604400Y-115926565D01*
X203604400Y-115814368D01*
X203995706Y-115552906D01*
X204270787Y-115141219D01*
X204343000Y-114778181D01*
X204343000Y-114228220D01*
X204270787Y-113865182D01*
X203995706Y-113453494D01*
X203584019Y-113178413D01*
X203098400Y-113081817D01*
X202612782Y-113178413D01*
X202201095Y-113453494D01*
X201926013Y-113865181D01*
X201853800Y-114228219D01*
X201853800Y-114778180D01*
X201926013Y-115141218D01*
X202201094Y-115552906D01*
X202563890Y-115795319D01*
X202050609Y-116308600D01*
X200760633Y-116308600D01*
X200710799Y-116298687D01*
X200660965Y-116308600D01*
X200567625Y-116327167D01*
X200880956Y-116013836D01*
X200923206Y-115985606D01*
X201011187Y-115853932D01*
X201026148Y-115831542D01*
X201044018Y-115827987D01*
X201455706Y-115552906D01*
X201730787Y-115141219D01*
X201803000Y-114778181D01*
X201803000Y-114228220D01*
X201730787Y-113865182D01*
X201455706Y-113453494D01*
X201044019Y-113178413D01*
X200558400Y-113081817D01*
X200072782Y-113178413D01*
X199661095Y-113453494D01*
X199399791Y-113844562D01*
X199310354Y-113588880D01*
X198920436Y-113152468D01*
X198393191Y-112898491D01*
X198377426Y-112895842D01*
X198145400Y-113016983D01*
X198145400Y-114376200D01*
X198165400Y-114376200D01*
X198165400Y-114630200D01*
X198145400Y-114630200D01*
X198145400Y-114650200D01*
X197891400Y-114650200D01*
X197891400Y-114630200D01*
X196677476Y-114630200D01*
X196533216Y-114865113D01*
X196726446Y-115417520D01*
X197116364Y-115853932D01*
X197275734Y-115930702D01*
X197257063Y-115958645D01*
X194592909Y-118622800D01*
X194492041Y-118622800D01*
X194241744Y-118726476D01*
X194050176Y-118918044D01*
X193946500Y-119168341D01*
X192797251Y-119168341D01*
X196258155Y-115707437D01*
X196300406Y-115679206D01*
X196412241Y-115511831D01*
X196441600Y-115364235D01*
X196451513Y-115314401D01*
X196441600Y-115264567D01*
X196441600Y-114141287D01*
X196533216Y-114141287D01*
X196677476Y-114376200D01*
X197891400Y-114376200D01*
X197891400Y-113016983D01*
X197659374Y-112895842D01*
X197643609Y-112898491D01*
X197116364Y-113152468D01*
X196726446Y-113588880D01*
X196533216Y-114141287D01*
X196441600Y-114141287D01*
X196441600Y-113645991D01*
X197481592Y-112606000D01*
X211390409Y-112606000D01*
X213806964Y-115022556D01*
X213835195Y-115064807D01*
X213936117Y-115132240D01*
X214002569Y-115176642D01*
X214200001Y-115215914D01*
X214249836Y-115206001D01*
X217348219Y-115206001D01*
X217422676Y-115385756D01*
X217614244Y-115577324D01*
X217864541Y-115681000D01*
X218135459Y-115681000D01*
X218385756Y-115577324D01*
X218577324Y-115385756D01*
X218681000Y-115135459D01*
X218681000Y-114864541D01*
X218577324Y-114614244D01*
X218385756Y-114422676D01*
X218135459Y-114319000D01*
X218040569Y-114319000D01*
X217897432Y-114223360D01*
X217749836Y-114194001D01*
X217749835Y-114194001D01*
X217700001Y-114184088D01*
X217650167Y-114194001D01*
X214409593Y-114194001D01*
X212241635Y-112026044D01*
X212457700Y-112016844D01*
X212897533Y-111834660D01*
X212982591Y-111579317D01*
X212090000Y-110686726D01*
X212075858Y-110700869D01*
X211896253Y-110521264D01*
X211910395Y-110507121D01*
X211017804Y-109614530D01*
X210762461Y-109699588D01*
X210681723Y-109920672D01*
X210626654Y-109787724D01*
X210269397Y-109430467D01*
X209802619Y-109237121D01*
X210269397Y-109043775D01*
X210626654Y-108686518D01*
X210820000Y-108219740D01*
X211013346Y-108686518D01*
X211370603Y-109043775D01*
X211490469Y-109093425D01*
X211282467Y-109179582D01*
X211197409Y-109434925D01*
X212090000Y-110327516D01*
X212982591Y-109434925D01*
X212897533Y-109179582D01*
X212676449Y-109098844D01*
X212809397Y-109043775D01*
X212965170Y-108888002D01*
X215204040Y-108888002D01*
X215204040Y-109586240D01*
X215471244Y-110231328D01*
X215964973Y-110725057D01*
X216610061Y-110992261D01*
X217308299Y-110992261D01*
X217953387Y-110725057D01*
X218447116Y-110231328D01*
X218714320Y-109586240D01*
X218714320Y-108888002D01*
X218447116Y-108242914D01*
X217953387Y-107749185D01*
X217308299Y-107481981D01*
X216610061Y-107481981D01*
X215964973Y-107749185D01*
X215471244Y-108242914D01*
X215204040Y-108888002D01*
X212965170Y-108888002D01*
X213166654Y-108686518D01*
X213360000Y-108219740D01*
X213360000Y-107714502D01*
X213166654Y-107247724D01*
X212809397Y-106890467D01*
X212342619Y-106697121D01*
X211837381Y-106697121D01*
X211370603Y-106890467D01*
X211013346Y-107247724D01*
X210820000Y-107714502D01*
X210626654Y-107247724D01*
X210269397Y-106890467D01*
X209802619Y-106697121D01*
X209297381Y-106697121D01*
X208830603Y-106890467D01*
X208473346Y-107247724D01*
X208280000Y-107714502D01*
X208086654Y-107247724D01*
X207729397Y-106890467D01*
X207262619Y-106697121D01*
X206757381Y-106697121D01*
X206290603Y-106890467D01*
X205933346Y-107247724D01*
X205883696Y-107367590D01*
X205797539Y-107159588D01*
X205542196Y-107074530D01*
X204649605Y-107967121D01*
X204663748Y-107981264D01*
X204484143Y-108160869D01*
X204470000Y-108146726D01*
X204455858Y-108160869D01*
X204276253Y-107981264D01*
X204290395Y-107967121D01*
X203397804Y-107074530D01*
X203142461Y-107159588D01*
X203061723Y-107380672D01*
X203006654Y-107247724D01*
X202653855Y-106894925D01*
X203577409Y-106894925D01*
X204470000Y-107787516D01*
X205362591Y-106894925D01*
X205277533Y-106639582D01*
X204708035Y-106431605D01*
X204102300Y-106457398D01*
X203662467Y-106639582D01*
X203577409Y-106894925D01*
X202653855Y-106894925D01*
X202649397Y-106890467D01*
X202182619Y-106697121D01*
X201677381Y-106697121D01*
X201210603Y-106890467D01*
X200853346Y-107247724D01*
X200803696Y-107367590D01*
X200717539Y-107159588D01*
X200462196Y-107074530D01*
X199569605Y-107967121D01*
X199583748Y-107981264D01*
X199404143Y-108160869D01*
X199390000Y-108146726D01*
X199375858Y-108160869D01*
X199196253Y-107981264D01*
X199210395Y-107967121D01*
X198317804Y-107074530D01*
X198062461Y-107159588D01*
X197981723Y-107380672D01*
X197926654Y-107247724D01*
X197573855Y-106894925D01*
X198497409Y-106894925D01*
X199390000Y-107787516D01*
X200282591Y-106894925D01*
X200197533Y-106639582D01*
X199628035Y-106431605D01*
X199022300Y-106457398D01*
X198582467Y-106639582D01*
X198497409Y-106894925D01*
X197573855Y-106894925D01*
X197569397Y-106890467D01*
X197102619Y-106697121D01*
X196597381Y-106697121D01*
X196130603Y-106890467D01*
X195773346Y-107247724D01*
X195580000Y-107714502D01*
X195386654Y-107247724D01*
X195029397Y-106890467D01*
X194562619Y-106697121D01*
X194057381Y-106697121D01*
X193590603Y-106890467D01*
X193233346Y-107247724D01*
X193040000Y-107714502D01*
X192846654Y-107247724D01*
X192489397Y-106890467D01*
X192022619Y-106697121D01*
X191517381Y-106697121D01*
X191050603Y-106890467D01*
X190693346Y-107247724D01*
X190500000Y-107714502D01*
X190306654Y-107247724D01*
X189949397Y-106890467D01*
X189482619Y-106697121D01*
X188977381Y-106697121D01*
X188510603Y-106890467D01*
X188153346Y-107247724D01*
X188103696Y-107367590D01*
X188017539Y-107159588D01*
X187762196Y-107074530D01*
X186869605Y-107967121D01*
X187762196Y-108859712D01*
X188017539Y-108774654D01*
X188098277Y-108553570D01*
X188153346Y-108686518D01*
X188510603Y-109043775D01*
X188977381Y-109237121D01*
X188510603Y-109430467D01*
X188153346Y-109787724D01*
X187960000Y-110254502D01*
X187766654Y-109787724D01*
X187409397Y-109430467D01*
X187289531Y-109380817D01*
X187497533Y-109294660D01*
X187582591Y-109039317D01*
X186690000Y-108146726D01*
X185797409Y-109039317D01*
X185882467Y-109294660D01*
X186103551Y-109375398D01*
X185970603Y-109430467D01*
X185773936Y-109627134D01*
X185728807Y-109559594D01*
X185686557Y-109531364D01*
X185125759Y-108970567D01*
X185097527Y-108928314D01*
X185029987Y-108883185D01*
X185226654Y-108686518D01*
X185276304Y-108566652D01*
X185362461Y-108774654D01*
X185617804Y-108859712D01*
X186510395Y-107967121D01*
X185617804Y-107074530D01*
X185362461Y-107159588D01*
X185281723Y-107380672D01*
X185226654Y-107247724D01*
X184873855Y-106894925D01*
X185797409Y-106894925D01*
X186690000Y-107787516D01*
X187582591Y-106894925D01*
X187497533Y-106639582D01*
X186928035Y-106431605D01*
X186322300Y-106457398D01*
X185882467Y-106639582D01*
X185797409Y-106894925D01*
X184873855Y-106894925D01*
X184869397Y-106890467D01*
X184402619Y-106697121D01*
X183897381Y-106697121D01*
X183430603Y-106890467D01*
X183233936Y-107087134D01*
X183188807Y-107019594D01*
X183146557Y-106991364D01*
X182585759Y-106430567D01*
X182557527Y-106388314D01*
X182390152Y-106276479D01*
X182242556Y-106247120D01*
X182242555Y-106247120D01*
X182192721Y-106237207D01*
X182142887Y-106247120D01*
X167633836Y-106247120D01*
X167584001Y-106237207D01*
X167386569Y-106276479D01*
X167331782Y-106313087D01*
X167219195Y-106388314D01*
X167190964Y-106430565D01*
X166836016Y-106785513D01*
X166622619Y-106697121D01*
X166117381Y-106697121D01*
X165650603Y-106890467D01*
X165293346Y-107247724D01*
X165236020Y-107386121D01*
X164963980Y-107386121D01*
X164906654Y-107247724D01*
X164549397Y-106890467D01*
X164082619Y-106697121D01*
X163577381Y-106697121D01*
X163110603Y-106890467D01*
X162753346Y-107247724D01*
X162727000Y-107311329D01*
X162727000Y-106056000D01*
X217455089Y-106056000D01*
X218470128Y-106257904D01*
G36*
X195773346Y-108686518D02*
X195970013Y-108883185D01*
X195902473Y-108928314D01*
X195874242Y-108970565D01*
X195282847Y-109561961D01*
X195240594Y-109590193D01*
X195128759Y-109757569D01*
X195105487Y-109874565D01*
X195101347Y-109895379D01*
X194489605Y-110507121D01*
X194503748Y-110521264D01*
X194324143Y-110700869D01*
X194310000Y-110686726D01*
X193417409Y-111579317D01*
X193502467Y-111834660D01*
X193854374Y-111963174D01*
X193840763Y-111983545D01*
X192971447Y-112852862D01*
X192929194Y-112881094D01*
X192817359Y-113048470D01*
X192788514Y-113193480D01*
X192778087Y-113245900D01*
X192788000Y-113295734D01*
X192788001Y-116046207D01*
X192472009Y-116362200D01*
X192371141Y-116362200D01*
X192120844Y-116465876D01*
X191929276Y-116657444D01*
X191825600Y-116907741D01*
X191825600Y-117178659D01*
X191929276Y-117428956D01*
X192120844Y-117620524D01*
X192371141Y-117724200D01*
X192642059Y-117724200D01*
X192892356Y-117620524D01*
X193083924Y-117428956D01*
X193187600Y-117178659D01*
X193187600Y-117077791D01*
X193616555Y-116648837D01*
X193658806Y-116620606D01*
X193753669Y-116478632D01*
X193770641Y-116453232D01*
X193809913Y-116255800D01*
X193800000Y-116205965D01*
X193800000Y-113455491D01*
X194443392Y-112812100D01*
X194768166Y-112812100D01*
X194818000Y-112822013D01*
X194867834Y-112812100D01*
X194867835Y-112812100D01*
X195015431Y-112782741D01*
X195182806Y-112670906D01*
X195211038Y-112628653D01*
X195927955Y-111911737D01*
X195970206Y-111883506D01*
X196069304Y-111735194D01*
X196082041Y-111716132D01*
X196112058Y-111565230D01*
X196130603Y-111583775D01*
X196597381Y-111777121D01*
X196879180Y-111777121D01*
X196878963Y-111777445D01*
X195613047Y-113043362D01*
X195570794Y-113071594D01*
X195458959Y-113238970D01*
X195439153Y-113338541D01*
X195419687Y-113436400D01*
X195429600Y-113486234D01*
X195429601Y-115104807D01*
X190881001Y-119653408D01*
X190881001Y-116099832D01*
X190890914Y-116049998D01*
X190868189Y-115935756D01*
X190851642Y-115852568D01*
X190739807Y-115685193D01*
X190697557Y-115656963D01*
X186817714Y-111777121D01*
X186942619Y-111777121D01*
X187409397Y-111583775D01*
X187766654Y-111226518D01*
X187960000Y-110759740D01*
X188153346Y-111226518D01*
X188510603Y-111583775D01*
X188977381Y-111777121D01*
X189482619Y-111777121D01*
X189949397Y-111583775D01*
X190306654Y-111226518D01*
X190500000Y-110759740D01*
X190693346Y-111226518D01*
X191050603Y-111583775D01*
X191517381Y-111777121D01*
X192022619Y-111777121D01*
X192489397Y-111583775D01*
X192846654Y-111226518D01*
X192896304Y-111106652D01*
X192982461Y-111314654D01*
X193237804Y-111399712D01*
X194130395Y-110507121D01*
X193237804Y-109614530D01*
X192982461Y-109699588D01*
X192901723Y-109920672D01*
X192846654Y-109787724D01*
X192489397Y-109430467D01*
X192022619Y-109237121D01*
X192489397Y-109043775D01*
X192846654Y-108686518D01*
X193040000Y-108219740D01*
X193233346Y-108686518D01*
X193590603Y-109043775D01*
X193710469Y-109093425D01*
X193502467Y-109179582D01*
X193417409Y-109434925D01*
X194310000Y-110327516D01*
X195202591Y-109434925D01*
X195117533Y-109179582D01*
X194896449Y-109098844D01*
X195029397Y-109043775D01*
X195386654Y-108686518D01*
X195580000Y-108219740D01*
X195773346Y-108686518D01*
X195773346Y-108686518D01*
G37*
X195773346Y-108686518D02*
X195970013Y-108883185D01*
X195902473Y-108928314D01*
X195874242Y-108970565D01*
X195282847Y-109561961D01*
X195240594Y-109590193D01*
X195128759Y-109757569D01*
X195105487Y-109874565D01*
X195101347Y-109895379D01*
X194489605Y-110507121D01*
X194503748Y-110521264D01*
X194324143Y-110700869D01*
X194310000Y-110686726D01*
X193417409Y-111579317D01*
X193502467Y-111834660D01*
X193854374Y-111963174D01*
X193840763Y-111983545D01*
X192971447Y-112852862D01*
X192929194Y-112881094D01*
X192817359Y-113048470D01*
X192788514Y-113193480D01*
X192778087Y-113245900D01*
X192788000Y-113295734D01*
X192788001Y-116046207D01*
X192472009Y-116362200D01*
X192371141Y-116362200D01*
X192120844Y-116465876D01*
X191929276Y-116657444D01*
X191825600Y-116907741D01*
X191825600Y-117178659D01*
X191929276Y-117428956D01*
X192120844Y-117620524D01*
X192371141Y-117724200D01*
X192642059Y-117724200D01*
X192892356Y-117620524D01*
X193083924Y-117428956D01*
X193187600Y-117178659D01*
X193187600Y-117077791D01*
X193616555Y-116648837D01*
X193658806Y-116620606D01*
X193753669Y-116478632D01*
X193770641Y-116453232D01*
X193809913Y-116255800D01*
X193800000Y-116205965D01*
X193800000Y-113455491D01*
X194443392Y-112812100D01*
X194768166Y-112812100D01*
X194818000Y-112822013D01*
X194867834Y-112812100D01*
X194867835Y-112812100D01*
X195015431Y-112782741D01*
X195182806Y-112670906D01*
X195211038Y-112628653D01*
X195927955Y-111911737D01*
X195970206Y-111883506D01*
X196069304Y-111735194D01*
X196082041Y-111716132D01*
X196112058Y-111565230D01*
X196130603Y-111583775D01*
X196597381Y-111777121D01*
X196879180Y-111777121D01*
X196878963Y-111777445D01*
X195613047Y-113043362D01*
X195570794Y-113071594D01*
X195458959Y-113238970D01*
X195439153Y-113338541D01*
X195419687Y-113436400D01*
X195429600Y-113486234D01*
X195429601Y-115104807D01*
X190881001Y-119653408D01*
X190881001Y-116099832D01*
X190890914Y-116049998D01*
X190868189Y-115935756D01*
X190851642Y-115852568D01*
X190739807Y-115685193D01*
X190697557Y-115656963D01*
X186817714Y-111777121D01*
X186942619Y-111777121D01*
X187409397Y-111583775D01*
X187766654Y-111226518D01*
X187960000Y-110759740D01*
X188153346Y-111226518D01*
X188510603Y-111583775D01*
X188977381Y-111777121D01*
X189482619Y-111777121D01*
X189949397Y-111583775D01*
X190306654Y-111226518D01*
X190500000Y-110759740D01*
X190693346Y-111226518D01*
X191050603Y-111583775D01*
X191517381Y-111777121D01*
X192022619Y-111777121D01*
X192489397Y-111583775D01*
X192846654Y-111226518D01*
X192896304Y-111106652D01*
X192982461Y-111314654D01*
X193237804Y-111399712D01*
X194130395Y-110507121D01*
X193237804Y-109614530D01*
X192982461Y-109699588D01*
X192901723Y-109920672D01*
X192846654Y-109787724D01*
X192489397Y-109430467D01*
X192022619Y-109237121D01*
X192489397Y-109043775D01*
X192846654Y-108686518D01*
X193040000Y-108219740D01*
X193233346Y-108686518D01*
X193590603Y-109043775D01*
X193710469Y-109093425D01*
X193502467Y-109179582D01*
X193417409Y-109434925D01*
X194310000Y-110327516D01*
X195202591Y-109434925D01*
X195117533Y-109179582D01*
X194896449Y-109098844D01*
X195029397Y-109043775D01*
X195386654Y-108686518D01*
X195580000Y-108219740D01*
X195773346Y-108686518D01*
G36*
X174183748Y-110492979D02*
X174169605Y-110507121D01*
X175062196Y-111399712D01*
X175317539Y-111314654D01*
X175398277Y-111093570D01*
X175453346Y-111226518D01*
X175810603Y-111583775D01*
X176277381Y-111777121D01*
X176782619Y-111777121D01*
X177249397Y-111583775D01*
X177606654Y-111226518D01*
X177800000Y-110759740D01*
X177993346Y-111226518D01*
X178350603Y-111583775D01*
X178817381Y-111777121D01*
X179322619Y-111777121D01*
X179789397Y-111583775D01*
X180146654Y-111226518D01*
X180340000Y-110759740D01*
X180533346Y-111226518D01*
X180890603Y-111583775D01*
X181357381Y-111777121D01*
X181862619Y-111777121D01*
X182329397Y-111583775D01*
X182686654Y-111226518D01*
X182880000Y-110759740D01*
X183073346Y-111226518D01*
X183430603Y-111583775D01*
X183897381Y-111777121D01*
X184402619Y-111777121D01*
X184869397Y-111583775D01*
X185029271Y-111423901D01*
X185041447Y-111432036D01*
X189376860Y-115767450D01*
X189364244Y-115772676D01*
X189172676Y-115964244D01*
X189069000Y-116214541D01*
X189069000Y-116485459D01*
X189169001Y-116726883D01*
X189169000Y-118300180D01*
X189137606Y-118253194D01*
X189095355Y-118224963D01*
X183120639Y-112250248D01*
X183092406Y-112207994D01*
X182925031Y-112096159D01*
X182777435Y-112066800D01*
X182777434Y-112066800D01*
X182727600Y-112056887D01*
X182677766Y-112066800D01*
X171185271Y-112066800D01*
X170091608Y-110973137D01*
X170180000Y-110759740D01*
X170373346Y-111226518D01*
X170730603Y-111583775D01*
X171197381Y-111777121D01*
X171702619Y-111777121D01*
X172169397Y-111583775D01*
X172173855Y-111579317D01*
X173097409Y-111579317D01*
X173182467Y-111834660D01*
X173751965Y-112042637D01*
X174357700Y-112016844D01*
X174797533Y-111834660D01*
X174882591Y-111579317D01*
X173990000Y-110686726D01*
X173097409Y-111579317D01*
X172173855Y-111579317D01*
X172526654Y-111226518D01*
X172576304Y-111106652D01*
X172662461Y-111314654D01*
X172917804Y-111399712D01*
X173810395Y-110507121D01*
X173796253Y-110492979D01*
X173975858Y-110313374D01*
X173990000Y-110327516D01*
X174004143Y-110313374D01*
X174183748Y-110492979D01*
X174183748Y-110492979D01*
G37*
X174183748Y-110492979D02*
X174169605Y-110507121D01*
X175062196Y-111399712D01*
X175317539Y-111314654D01*
X175398277Y-111093570D01*
X175453346Y-111226518D01*
X175810603Y-111583775D01*
X176277381Y-111777121D01*
X176782619Y-111777121D01*
X177249397Y-111583775D01*
X177606654Y-111226518D01*
X177800000Y-110759740D01*
X177993346Y-111226518D01*
X178350603Y-111583775D01*
X178817381Y-111777121D01*
X179322619Y-111777121D01*
X179789397Y-111583775D01*
X180146654Y-111226518D01*
X180340000Y-110759740D01*
X180533346Y-111226518D01*
X180890603Y-111583775D01*
X181357381Y-111777121D01*
X181862619Y-111777121D01*
X182329397Y-111583775D01*
X182686654Y-111226518D01*
X182880000Y-110759740D01*
X183073346Y-111226518D01*
X183430603Y-111583775D01*
X183897381Y-111777121D01*
X184402619Y-111777121D01*
X184869397Y-111583775D01*
X185029271Y-111423901D01*
X185041447Y-111432036D01*
X189376860Y-115767450D01*
X189364244Y-115772676D01*
X189172676Y-115964244D01*
X189069000Y-116214541D01*
X189069000Y-116485459D01*
X189169001Y-116726883D01*
X189169000Y-118300180D01*
X189137606Y-118253194D01*
X189095355Y-118224963D01*
X183120639Y-112250248D01*
X183092406Y-112207994D01*
X182925031Y-112096159D01*
X182777435Y-112066800D01*
X182777434Y-112066800D01*
X182727600Y-112056887D01*
X182677766Y-112066800D01*
X171185271Y-112066800D01*
X170091608Y-110973137D01*
X170180000Y-110759740D01*
X170373346Y-111226518D01*
X170730603Y-111583775D01*
X171197381Y-111777121D01*
X171702619Y-111777121D01*
X172169397Y-111583775D01*
X172173855Y-111579317D01*
X173097409Y-111579317D01*
X173182467Y-111834660D01*
X173751965Y-112042637D01*
X174357700Y-112016844D01*
X174797533Y-111834660D01*
X174882591Y-111579317D01*
X173990000Y-110686726D01*
X173097409Y-111579317D01*
X172173855Y-111579317D01*
X172526654Y-111226518D01*
X172576304Y-111106652D01*
X172662461Y-111314654D01*
X172917804Y-111399712D01*
X173810395Y-110507121D01*
X173796253Y-110492979D01*
X173975858Y-110313374D01*
X173990000Y-110327516D01*
X174004143Y-110313374D01*
X174183748Y-110492979D01*
G36*
X169103748Y-107952979D02*
X169089605Y-107967121D01*
X169103748Y-107981264D01*
X168924143Y-108160869D01*
X168910000Y-108146726D01*
X168895858Y-108160869D01*
X168716253Y-107981264D01*
X168730395Y-107967121D01*
X168716253Y-107952979D01*
X168895858Y-107773374D01*
X168910000Y-107787516D01*
X168924143Y-107773374D01*
X169103748Y-107952979D01*
X169103748Y-107952979D01*
G37*
X169103748Y-107952979D02*
X169089605Y-107967121D01*
X169103748Y-107981264D01*
X168924143Y-108160869D01*
X168910000Y-108146726D01*
X168895858Y-108160869D01*
X168716253Y-107981264D01*
X168730395Y-107967121D01*
X168716253Y-107952979D01*
X168895858Y-107773374D01*
X168910000Y-107787516D01*
X168924143Y-107773374D01*
X169103748Y-107952979D01*
G36*
X179263748Y-107952979D02*
X179249605Y-107967121D01*
X179263748Y-107981264D01*
X179084143Y-108160869D01*
X179070000Y-108146726D01*
X179055858Y-108160869D01*
X178876253Y-107981264D01*
X178890395Y-107967121D01*
X178876253Y-107952979D01*
X179055858Y-107773374D01*
X179070000Y-107787516D01*
X179084143Y-107773374D01*
X179263748Y-107952979D01*
X179263748Y-107952979D01*
G37*
X179263748Y-107952979D02*
X179249605Y-107967121D01*
X179263748Y-107981264D01*
X179084143Y-108160869D01*
X179070000Y-108146726D01*
X179055858Y-108160869D01*
X178876253Y-107981264D01*
X178890395Y-107967121D01*
X178876253Y-107952979D01*
X179055858Y-107773374D01*
X179070000Y-107787516D01*
X179084143Y-107773374D01*
X179263748Y-107952979D01*
M02*
