M48
;DRILL file {KiCad 4.0.6} date 08/30/17 10:27:35
;FORMAT={2:4/ absolute / inch / suppress leading zeros}
FMAT,2
INCH,TZ
T1C0.012
T2C0.016
T3C0.039
T4C0.039
T5C0.059
T6C0.067
T7C0.106
T8C0.108
%
G90
G05
M72
T1
X65118Y-47205
X65157Y-48425
X65157Y-48957
X65157Y-49528
X65157Y-50079
X65157Y-50709
X65157Y-51220
X65827Y-47205
X66142Y-47717
X66142Y-48406
X66142Y-50709
X66142Y-51220
X66220Y-50079
X66437Y-48622
X66870Y-48622
X67185Y-49665
X67205Y-50984
X67224Y-50433
X67244Y-48622
X67323Y-46260
X68602Y-48228
X69213Y-50315
X69528Y-45945
X69980Y-45374
X70512Y-49685
X70531Y-48602
X70531Y-49154
X71142Y-51102
X71201Y-48602
X71220Y-49154
X71220Y-49685
X71457Y-45374
X71831Y-48602
X71870Y-49154
X71890Y-49705
X72638Y-50886
X72736Y-47303
X72835Y-46555
X73031Y-44783
X75039Y-50295
X75256Y-46772
X75492Y-50787
X75787Y-47638
X76378Y-52205
X76378Y-53150
X77264Y-45866
X77283Y-44409
X77795Y-50177
X77815Y-48465
X77953Y-46358
X78720Y-49311
X79232Y-46457
X79685Y-48425
X79705Y-50079
X79764Y-44469
X80020Y-53150
X80315Y-51181
X80413Y-47244
X81516Y-50217
X81693Y-45276
X81713Y-49173
X82224Y-47106
X83681Y-50925
X85827Y-46161
T2
X66878Y-47150
X68622Y-50551
X69173Y-48287
X69724Y-47402
X69823Y-46673
X71024Y-47303
X72382Y-46555
X73800Y-50300
X74050Y-49400
X74213Y-48720
X74450Y-49700
X74705Y-45807
X75335Y-49587
X76400Y-51000
X76437Y-48012
X77835Y-49685
X78150Y-46850
X81142Y-48425
X81571Y-50634
X81571Y-51496
X81575Y-47303
X83465Y-44803
X83976Y-44803
X84173Y-43701
X85450Y-48000
X85709Y-45197
T3
X64500Y-42507
X64500Y-43507
X65500Y-42507
X65500Y-43507
X66500Y-42507
X66500Y-43507
X67500Y-42507
X67500Y-43507
X68500Y-42507
X68500Y-43507
X69500Y-42507
X69500Y-43507
X70500Y-42507
X70500Y-43507
X71500Y-42507
X71500Y-43507
X72500Y-42507
X72500Y-43507
X73500Y-42507
X73500Y-43507
X74500Y-42507
X74500Y-43507
X75500Y-42507
X75500Y-43507
X76500Y-42507
X76500Y-43507
X77500Y-42507
X77500Y-43507
X78500Y-42507
X78500Y-43507
X79500Y-42507
X79500Y-43507
X80500Y-42507
X80500Y-43507
X81500Y-42507
X81500Y-43507
X82500Y-42507
X82500Y-43507
X83500Y-42507
X83500Y-43507
T4
X78400Y-45200
X79400Y-45200
X80400Y-45200
X82843Y-50000
X82874Y-48622
X83843Y-50000
X83874Y-48622
X84843Y-50000
X84874Y-48622
X85843Y-50000
X85874Y-48622
T5
X63228Y-47894
T6
X62228Y-46894
X62228Y-48894
X64228Y-46894
X64228Y-48894
T7
X62579Y-43012
X62579Y-52067
X85417Y-43007
X85417Y-52063
T8
X62582Y-43007
X62582Y-52063
X85417Y-43007
X85417Y-52063
T0
M30
