G04 #@! TF.FileFunction,Copper,L2,Bot,Signal*
%FSLAX46Y46*%
G04 Gerber Fmt 4.6, Leading zero omitted, Abs format (unit mm)*
G04 Created by KiCad (PCBNEW 4.0.6) date 05/18/17 14:09:23*
%MOMM*%
%LPD*%
G01*
G04 APERTURE LIST*
%ADD10C,0.100000*%
%ADD11C,0.600000*%
%ADD12R,1.700000X1.700000*%
%ADD13O,1.700000X1.700000*%
%ADD14C,2.200000*%
%ADD15C,2.000000*%
%ADD16R,1.778000X1.778000*%
%ADD17C,1.778000*%
%ADD18C,0.250000*%
%ADD19C,0.400000*%
%ADD20C,0.254000*%
G04 APERTURE END LIST*
D10*
D11*
X191150000Y-118800000D03*
X197600000Y-127450000D03*
X202450000Y-127200000D03*
X202400000Y-123000000D03*
X197650000Y-123100000D03*
X184750000Y-120150000D03*
X170800000Y-123500000D03*
X165750000Y-125650000D03*
X165550000Y-124350000D03*
X168750000Y-123500000D03*
X167350000Y-121850000D03*
X202600000Y-112950000D03*
X196300000Y-112800000D03*
X181350000Y-116600000D03*
X176600000Y-116700000D03*
X165450000Y-120550000D03*
X166550000Y-121050000D03*
X165100000Y-123100000D03*
X167100000Y-126150000D03*
X168800000Y-127250000D03*
X167850000Y-122950000D03*
X169850000Y-123500000D03*
X170650000Y-126150000D03*
X179750000Y-130300000D03*
X190600000Y-127750000D03*
X208850000Y-119650000D03*
X212550000Y-129350000D03*
X207050000Y-127550000D03*
X207550000Y-124900000D03*
X199950000Y-125250000D03*
X182600000Y-126250000D03*
X180900000Y-126200000D03*
X179100000Y-126200000D03*
X182550000Y-124850000D03*
X180900000Y-124850000D03*
X179150000Y-124850000D03*
X182450000Y-123450000D03*
X180850000Y-123450000D03*
D12*
X199136000Y-114808000D03*
D13*
X201676000Y-114808000D03*
X204216000Y-114808000D03*
D12*
X210420000Y-127000000D03*
D13*
X212960000Y-127000000D03*
X215500000Y-127000000D03*
X218040000Y-127000000D03*
D14*
X158060000Y-124190000D03*
X158060000Y-119110000D03*
X163140000Y-119110000D03*
X163140000Y-124190000D03*
D15*
X160600000Y-121650000D03*
D12*
X210500000Y-123500000D03*
D13*
X213040000Y-123500000D03*
X215580000Y-123500000D03*
X218120000Y-123500000D03*
D16*
X163830000Y-110507121D03*
D17*
X163830000Y-107967121D03*
X166370000Y-110507121D03*
X166370000Y-107967121D03*
X168910000Y-110507121D03*
X168910000Y-107967121D03*
X171450000Y-110507121D03*
X171450000Y-107967121D03*
X173990000Y-110507121D03*
X173990000Y-107967121D03*
X176530000Y-110507121D03*
X176530000Y-107967121D03*
X179070000Y-110507121D03*
X179070000Y-107967121D03*
X181610000Y-110507121D03*
X181610000Y-107967121D03*
X184150000Y-110507121D03*
X184150000Y-107967121D03*
X186690000Y-110507121D03*
X186690000Y-107967121D03*
X189230000Y-110507121D03*
X189230000Y-107967121D03*
X191770000Y-110507121D03*
X191770000Y-107967121D03*
X194310000Y-110507121D03*
X194310000Y-107967121D03*
X196850000Y-110507121D03*
X196850000Y-107967121D03*
X199390000Y-110507121D03*
X199390000Y-107967121D03*
X201930000Y-110507121D03*
X201930000Y-107967121D03*
X204470000Y-110507121D03*
X204470000Y-107967121D03*
X207010000Y-110507121D03*
X207010000Y-107967121D03*
X209550000Y-110507121D03*
X209550000Y-107967121D03*
X212090000Y-110507121D03*
X212090000Y-107967121D03*
D11*
X179150000Y-123450000D03*
X207750000Y-135050000D03*
X172950000Y-132600000D03*
X175700000Y-122650000D03*
X170800000Y-121750000D03*
X183850000Y-118250000D03*
X180100000Y-120150000D03*
X195200000Y-130800000D03*
X207200000Y-120150000D03*
X206100000Y-123000000D03*
X189750000Y-116350000D03*
X185150000Y-129250000D03*
X188300000Y-124650000D03*
X191350000Y-125950000D03*
X196900000Y-116000000D03*
X194150000Y-121950000D03*
X186500000Y-127000000D03*
X188602648Y-126950000D03*
X177350000Y-118550000D03*
X177100000Y-120400000D03*
D18*
X195200000Y-130800000D02*
X207200000Y-130800000D01*
X207200000Y-130800000D02*
X207720000Y-130800000D01*
X207750000Y-135050000D02*
X207200000Y-134500000D01*
X207200000Y-134500000D02*
X207200000Y-130800000D01*
X172950000Y-132600000D02*
X181800000Y-132600000D01*
X170800000Y-121750000D02*
X171150000Y-122100000D01*
X171700000Y-122650000D02*
X171150000Y-122100000D01*
X175700000Y-122650000D02*
X171700000Y-122650000D01*
D19*
X164250000Y-112216121D02*
X182441000Y-112216121D01*
X182441000Y-112216121D02*
X182860999Y-111796122D01*
X163830000Y-111796121D02*
X164250000Y-112216121D01*
X189750000Y-116350000D02*
X189750000Y-118250000D01*
D18*
X183850000Y-118250000D02*
X189750000Y-118250000D01*
D19*
X189750000Y-118250000D02*
X189750000Y-123200000D01*
D18*
X180100000Y-120150000D02*
X182000000Y-118250000D01*
X182000000Y-118250000D02*
X183850000Y-118250000D01*
X195200000Y-130800000D02*
X186700000Y-130800000D01*
X186700000Y-130800000D02*
X185150000Y-129250000D01*
X207720000Y-130800000D02*
X210420000Y-128100000D01*
X210420000Y-128100000D02*
X210420000Y-127000000D01*
X181800000Y-132600000D02*
X185150000Y-129250000D01*
D19*
X188300000Y-124650000D02*
X187582748Y-124650000D01*
X187582748Y-124650000D02*
X185150000Y-127082748D01*
X185150000Y-127082748D02*
X185150000Y-128825736D01*
X185150000Y-128825736D02*
X185150000Y-129250000D01*
X189750000Y-123200000D02*
X188300000Y-124650000D01*
X184150000Y-110507121D02*
X189750000Y-116107121D01*
X189750000Y-116107121D02*
X189750000Y-116350000D01*
X184150000Y-110507121D02*
X182860999Y-111796122D01*
X163830000Y-111796121D02*
X163830000Y-110507121D01*
D18*
X204216000Y-114808000D02*
X204216000Y-117166000D01*
X204216000Y-117166000D02*
X207200000Y-120150000D01*
X210500000Y-123500000D02*
X206600000Y-123500000D01*
X206600000Y-123500000D02*
X206100000Y-123000000D01*
X210420000Y-127000000D02*
X210420000Y-123580000D01*
X210420000Y-123580000D02*
X210500000Y-123500000D01*
X191350000Y-120308998D02*
X191350000Y-125950000D01*
X201676000Y-114808000D02*
X200018000Y-113150000D01*
X200018000Y-113150000D02*
X198508998Y-113150000D01*
X198508998Y-113150000D02*
X191350000Y-120308998D01*
X213040000Y-123500000D02*
X211864999Y-122324999D01*
X194700003Y-122324999D02*
X194450001Y-122575001D01*
X211864999Y-122324999D02*
X194700003Y-122324999D01*
X194450001Y-122575001D02*
X193849999Y-122575001D01*
X193849999Y-122575001D02*
X193524999Y-122250001D01*
X193524999Y-122250001D02*
X193524999Y-119375001D01*
X193524999Y-119375001D02*
X196900000Y-116000000D01*
X194150000Y-121950000D02*
X194449999Y-121650001D01*
X194449999Y-121650001D02*
X213730001Y-121650001D01*
X213730001Y-121650001D02*
X214730001Y-122650001D01*
X214730001Y-122650001D02*
X215580000Y-123500000D01*
X186500000Y-127000000D02*
X188552648Y-127000000D01*
X188552648Y-127000000D02*
X188602648Y-126950000D01*
X188586546Y-126768750D02*
X188602648Y-126752648D01*
X177350000Y-118550000D02*
X177350000Y-120150000D01*
X177350000Y-120150000D02*
X177100000Y-120400000D01*
D20*
G36*
X218500994Y-106254098D02*
X219307207Y-106792793D01*
X219848057Y-107602231D01*
X220044000Y-108509351D01*
X220044000Y-132750000D01*
X220044506Y-132752544D01*
X219849708Y-133731860D01*
X219321852Y-134521852D01*
X218530246Y-135050787D01*
X217598856Y-135244000D01*
X208406821Y-135244000D01*
X208430882Y-135186054D01*
X208431118Y-134915135D01*
X208327661Y-134664748D01*
X208136259Y-134473013D01*
X207886054Y-134369118D01*
X207784622Y-134369030D01*
X207706000Y-134290408D01*
X207706000Y-132586948D01*
X215203736Y-132586948D01*
X215470377Y-133232269D01*
X215963675Y-133726428D01*
X216608529Y-133994195D01*
X217306767Y-133994805D01*
X217952088Y-133728164D01*
X218446247Y-133234866D01*
X218714014Y-132590012D01*
X218714624Y-131891774D01*
X218447983Y-131246453D01*
X217954685Y-130752294D01*
X217309831Y-130484527D01*
X216611593Y-130483917D01*
X215966272Y-130750558D01*
X215472113Y-131243856D01*
X215204346Y-131888710D01*
X215203736Y-132586948D01*
X207706000Y-132586948D01*
X207706000Y-131306000D01*
X207720000Y-131306000D01*
X207913638Y-131267483D01*
X208077796Y-131157796D01*
X210777796Y-128457796D01*
X210788701Y-128441476D01*
X210887483Y-128293638D01*
X210898458Y-128238464D01*
X211270000Y-128238464D01*
X211411190Y-128211897D01*
X211540865Y-128128454D01*
X211627859Y-128001134D01*
X211658464Y-127850000D01*
X211658464Y-126975883D01*
X211729000Y-126975883D01*
X211729000Y-127024117D01*
X211822704Y-127495200D01*
X212089552Y-127894565D01*
X212488917Y-128161413D01*
X212960000Y-128255117D01*
X213431083Y-128161413D01*
X213830448Y-127894565D01*
X214097296Y-127495200D01*
X214191000Y-127024117D01*
X214191000Y-126975883D01*
X214269000Y-126975883D01*
X214269000Y-127024117D01*
X214362704Y-127495200D01*
X214629552Y-127894565D01*
X215028917Y-128161413D01*
X215500000Y-128255117D01*
X215971083Y-128161413D01*
X216370448Y-127894565D01*
X216637296Y-127495200D01*
X216645083Y-127456053D01*
X216844817Y-127881358D01*
X217273076Y-128271645D01*
X217683110Y-128441476D01*
X217913000Y-128320155D01*
X217913000Y-127127000D01*
X218167000Y-127127000D01*
X218167000Y-128320155D01*
X218396890Y-128441476D01*
X218806924Y-128271645D01*
X219235183Y-127881358D01*
X219481486Y-127356892D01*
X219360819Y-127127000D01*
X218167000Y-127127000D01*
X217913000Y-127127000D01*
X217893000Y-127127000D01*
X217893000Y-126873000D01*
X217913000Y-126873000D01*
X217913000Y-125679845D01*
X218167000Y-125679845D01*
X218167000Y-126873000D01*
X219360819Y-126873000D01*
X219481486Y-126643108D01*
X219235183Y-126118642D01*
X218806924Y-125728355D01*
X218396890Y-125558524D01*
X218167000Y-125679845D01*
X217913000Y-125679845D01*
X217683110Y-125558524D01*
X217273076Y-125728355D01*
X216844817Y-126118642D01*
X216645083Y-126543947D01*
X216637296Y-126504800D01*
X216370448Y-126105435D01*
X215971083Y-125838587D01*
X215500000Y-125744883D01*
X215028917Y-125838587D01*
X214629552Y-126105435D01*
X214362704Y-126504800D01*
X214269000Y-126975883D01*
X214191000Y-126975883D01*
X214097296Y-126504800D01*
X213830448Y-126105435D01*
X213431083Y-125838587D01*
X212960000Y-125744883D01*
X212488917Y-125838587D01*
X212089552Y-126105435D01*
X211822704Y-126504800D01*
X211729000Y-126975883D01*
X211658464Y-126975883D01*
X211658464Y-126150000D01*
X211631897Y-126008810D01*
X211548454Y-125879135D01*
X211421134Y-125792141D01*
X211270000Y-125761536D01*
X210926000Y-125761536D01*
X210926000Y-124738464D01*
X211350000Y-124738464D01*
X211491190Y-124711897D01*
X211620865Y-124628454D01*
X211707859Y-124501134D01*
X211738464Y-124350000D01*
X211738464Y-122914056D01*
X211890510Y-123066102D01*
X211809000Y-123475883D01*
X211809000Y-123524117D01*
X211902704Y-123995200D01*
X212169552Y-124394565D01*
X212568917Y-124661413D01*
X213040000Y-124755117D01*
X213511083Y-124661413D01*
X213910448Y-124394565D01*
X214177296Y-123995200D01*
X214271000Y-123524117D01*
X214271000Y-123475883D01*
X214177296Y-123004800D01*
X213910448Y-122605435D01*
X213511083Y-122338587D01*
X213040000Y-122244883D01*
X212589988Y-122334396D01*
X212411593Y-122156001D01*
X213520409Y-122156001D01*
X214430510Y-123066102D01*
X214349000Y-123475883D01*
X214349000Y-123524117D01*
X214442704Y-123995200D01*
X214709552Y-124394565D01*
X215108917Y-124661413D01*
X215580000Y-124755117D01*
X216051083Y-124661413D01*
X216450448Y-124394565D01*
X216717296Y-123995200D01*
X216725083Y-123956053D01*
X216924817Y-124381358D01*
X217353076Y-124771645D01*
X217763110Y-124941476D01*
X217993000Y-124820155D01*
X217993000Y-123627000D01*
X218247000Y-123627000D01*
X218247000Y-124820155D01*
X218476890Y-124941476D01*
X218886924Y-124771645D01*
X219315183Y-124381358D01*
X219561486Y-123856892D01*
X219440819Y-123627000D01*
X218247000Y-123627000D01*
X217993000Y-123627000D01*
X217973000Y-123627000D01*
X217973000Y-123373000D01*
X217993000Y-123373000D01*
X217993000Y-122179845D01*
X218247000Y-122179845D01*
X218247000Y-123373000D01*
X219440819Y-123373000D01*
X219561486Y-123143108D01*
X219315183Y-122618642D01*
X218886924Y-122228355D01*
X218476890Y-122058524D01*
X218247000Y-122179845D01*
X217993000Y-122179845D01*
X217763110Y-122058524D01*
X217353076Y-122228355D01*
X216924817Y-122618642D01*
X216725083Y-123043947D01*
X216717296Y-123004800D01*
X216450448Y-122605435D01*
X216051083Y-122338587D01*
X215580000Y-122244883D01*
X215129988Y-122334396D01*
X214087797Y-121292205D01*
X213923639Y-121182518D01*
X213730001Y-121144001D01*
X194449999Y-121144001D01*
X194256361Y-121182518D01*
X194126963Y-121268979D01*
X194030999Y-121268896D01*
X194030999Y-119584593D01*
X196934561Y-116681031D01*
X197034865Y-116681118D01*
X197285252Y-116577661D01*
X197476987Y-116386259D01*
X197580882Y-116136054D01*
X197581118Y-115865135D01*
X197477661Y-115614748D01*
X197286259Y-115423013D01*
X197049775Y-115324815D01*
X197280840Y-115093750D01*
X197651000Y-115093750D01*
X197651000Y-115784309D01*
X197747673Y-116017698D01*
X197926301Y-116196327D01*
X198159690Y-116293000D01*
X198850250Y-116293000D01*
X199009000Y-116134250D01*
X199009000Y-114935000D01*
X197809750Y-114935000D01*
X197651000Y-115093750D01*
X197280840Y-115093750D01*
X197751670Y-114622920D01*
X197809750Y-114681000D01*
X199009000Y-114681000D01*
X199009000Y-114661000D01*
X199263000Y-114661000D01*
X199263000Y-114681000D01*
X199283000Y-114681000D01*
X199283000Y-114935000D01*
X199263000Y-114935000D01*
X199263000Y-116134250D01*
X199421750Y-116293000D01*
X200112310Y-116293000D01*
X200345699Y-116196327D01*
X200524327Y-116017698D01*
X200621000Y-115784309D01*
X200621000Y-115426364D01*
X200805552Y-115702565D01*
X201204917Y-115969413D01*
X201676000Y-116063117D01*
X202147083Y-115969413D01*
X202546448Y-115702565D01*
X202813296Y-115303200D01*
X202907000Y-114832117D01*
X202907000Y-114783883D01*
X202985000Y-114783883D01*
X202985000Y-114832117D01*
X203078704Y-115303200D01*
X203345552Y-115702565D01*
X203710000Y-115946082D01*
X203710000Y-117166000D01*
X203748517Y-117359638D01*
X203858204Y-117523796D01*
X206518969Y-120184561D01*
X206518882Y-120284865D01*
X206622339Y-120535252D01*
X206813741Y-120726987D01*
X207063946Y-120830882D01*
X207334865Y-120831118D01*
X207585252Y-120727661D01*
X207776987Y-120536259D01*
X207880882Y-120286054D01*
X207881118Y-120015135D01*
X207777661Y-119764748D01*
X207586259Y-119573013D01*
X207336054Y-119469118D01*
X207234622Y-119469030D01*
X204722000Y-116956408D01*
X204722000Y-115946082D01*
X205086448Y-115702565D01*
X205353296Y-115303200D01*
X205447000Y-114832117D01*
X205447000Y-114783883D01*
X205353296Y-114312800D01*
X205086448Y-113913435D01*
X204687083Y-113646587D01*
X204216000Y-113552883D01*
X203744917Y-113646587D01*
X203345552Y-113913435D01*
X203078704Y-114312800D01*
X202985000Y-114783883D01*
X202907000Y-114783883D01*
X202813296Y-114312800D01*
X202546448Y-113913435D01*
X202147083Y-113646587D01*
X201676000Y-113552883D01*
X201225988Y-113642396D01*
X200375796Y-112792204D01*
X200211638Y-112682517D01*
X200018000Y-112644000D01*
X198508998Y-112644000D01*
X198315360Y-112682517D01*
X198151202Y-112792204D01*
X190992204Y-119951202D01*
X190882517Y-120115360D01*
X190844000Y-120308998D01*
X190844000Y-125492877D01*
X190773013Y-125563741D01*
X190669118Y-125813946D01*
X190668882Y-126084865D01*
X190772339Y-126335252D01*
X190963741Y-126526987D01*
X191213946Y-126630882D01*
X191484865Y-126631118D01*
X191735252Y-126527661D01*
X191926987Y-126336259D01*
X192030882Y-126086054D01*
X192031118Y-125815135D01*
X191927661Y-125564748D01*
X191856000Y-125492962D01*
X191856000Y-120518590D01*
X193023819Y-119350771D01*
X193018999Y-119375001D01*
X193018999Y-122250001D01*
X193057516Y-122443639D01*
X193167203Y-122607797D01*
X193492203Y-122932797D01*
X193656361Y-123042484D01*
X193849999Y-123081001D01*
X194450001Y-123081001D01*
X194643639Y-123042484D01*
X194807797Y-122932797D01*
X194909595Y-122830999D01*
X205432799Y-122830999D01*
X205419118Y-122863946D01*
X205418882Y-123134865D01*
X205522339Y-123385252D01*
X205713741Y-123576987D01*
X205963946Y-123680882D01*
X206065378Y-123680970D01*
X206242204Y-123857796D01*
X206406362Y-123967483D01*
X206600000Y-124006000D01*
X209261536Y-124006000D01*
X209261536Y-124350000D01*
X209288103Y-124491190D01*
X209371546Y-124620865D01*
X209498866Y-124707859D01*
X209650000Y-124738464D01*
X209914000Y-124738464D01*
X209914000Y-125761536D01*
X209570000Y-125761536D01*
X209428810Y-125788103D01*
X209299135Y-125871546D01*
X209212141Y-125998866D01*
X209181536Y-126150000D01*
X209181536Y-127850000D01*
X209208103Y-127991190D01*
X209291546Y-128120865D01*
X209418866Y-128207859D01*
X209566627Y-128237781D01*
X207510408Y-130294000D01*
X195657123Y-130294000D01*
X195586259Y-130223013D01*
X195336054Y-130119118D01*
X195065135Y-130118882D01*
X194814748Y-130222339D01*
X194742962Y-130294000D01*
X186909592Y-130294000D01*
X185831031Y-129215439D01*
X185831118Y-129115135D01*
X185731000Y-128872829D01*
X185731000Y-127323406D01*
X185848313Y-127206093D01*
X185922339Y-127385252D01*
X186113741Y-127576987D01*
X186363946Y-127680882D01*
X186634865Y-127681118D01*
X186885252Y-127577661D01*
X186957038Y-127506000D01*
X188195438Y-127506000D01*
X188216389Y-127526987D01*
X188466594Y-127630882D01*
X188737513Y-127631118D01*
X188987900Y-127527661D01*
X189179635Y-127336259D01*
X189283530Y-127086054D01*
X189283766Y-126815135D01*
X189180309Y-126564748D01*
X188988907Y-126373013D01*
X188827377Y-126305939D01*
X188796286Y-126285165D01*
X188759933Y-126277934D01*
X188738702Y-126269118D01*
X188715511Y-126269098D01*
X188602648Y-126246648D01*
X188490770Y-126268902D01*
X188467783Y-126268882D01*
X188446350Y-126277738D01*
X188409011Y-126285165D01*
X188377633Y-126306131D01*
X188217396Y-126372339D01*
X188095523Y-126494000D01*
X186957123Y-126494000D01*
X186886259Y-126423013D01*
X186706172Y-126348234D01*
X187823406Y-125231000D01*
X187923405Y-125231000D01*
X188163946Y-125330882D01*
X188434865Y-125331118D01*
X188685252Y-125227661D01*
X188876987Y-125036259D01*
X188977529Y-124794129D01*
X190160829Y-123610829D01*
X190286774Y-123422339D01*
X190331000Y-123200000D01*
X190331000Y-116726595D01*
X190430882Y-116486054D01*
X190431118Y-116215135D01*
X190327661Y-115964748D01*
X190296464Y-115933497D01*
X190286774Y-115884782D01*
X190160829Y-115696292D01*
X186103086Y-111638549D01*
X186436273Y-111776900D01*
X186941510Y-111777341D01*
X187408458Y-111584403D01*
X187766026Y-111227458D01*
X187959779Y-110760848D01*
X187959781Y-110758633D01*
X188152718Y-111225579D01*
X188509663Y-111583147D01*
X188976273Y-111776900D01*
X189481510Y-111777341D01*
X189948458Y-111584403D01*
X190306026Y-111227458D01*
X190499779Y-110760848D01*
X190499781Y-110758633D01*
X190692718Y-111225579D01*
X191049663Y-111583147D01*
X191516273Y-111776900D01*
X192021510Y-111777341D01*
X192488458Y-111584403D01*
X192493552Y-111579317D01*
X193417409Y-111579317D01*
X193502467Y-111834660D01*
X194071965Y-112042637D01*
X194677700Y-112016844D01*
X195117533Y-111834660D01*
X195202591Y-111579317D01*
X194310000Y-110686726D01*
X193417409Y-111579317D01*
X192493552Y-111579317D01*
X192846026Y-111227458D01*
X192896247Y-111106513D01*
X192982461Y-111314654D01*
X193237804Y-111399712D01*
X194130395Y-110507121D01*
X193237804Y-109614530D01*
X192982461Y-109699588D01*
X192901771Y-109920538D01*
X192847282Y-109788663D01*
X192490337Y-109431095D01*
X192023727Y-109237342D01*
X192021512Y-109237340D01*
X192488458Y-109044403D01*
X192846026Y-108687458D01*
X193039779Y-108220848D01*
X193039781Y-108218633D01*
X193232718Y-108685579D01*
X193589663Y-109043147D01*
X193710608Y-109093368D01*
X193502467Y-109179582D01*
X193417409Y-109434925D01*
X194310000Y-110327516D01*
X195202591Y-109434925D01*
X195117533Y-109179582D01*
X194896583Y-109098892D01*
X195028458Y-109044403D01*
X195386026Y-108687458D01*
X195579779Y-108220848D01*
X195579781Y-108218633D01*
X195772718Y-108685579D01*
X196129663Y-109043147D01*
X196596273Y-109236900D01*
X196598488Y-109236902D01*
X196131542Y-109429839D01*
X195773974Y-109786784D01*
X195723753Y-109907729D01*
X195637539Y-109699588D01*
X195382196Y-109614530D01*
X194489605Y-110507121D01*
X195382196Y-111399712D01*
X195637539Y-111314654D01*
X195718229Y-111093704D01*
X195772718Y-111225579D01*
X196129663Y-111583147D01*
X196596273Y-111776900D01*
X197101510Y-111777341D01*
X197568458Y-111584403D01*
X197926026Y-111227458D01*
X198119779Y-110760848D01*
X198119781Y-110758633D01*
X198312718Y-111225579D01*
X198669663Y-111583147D01*
X199136273Y-111776900D01*
X199641510Y-111777341D01*
X200108458Y-111584403D01*
X200466026Y-111227458D01*
X200659779Y-110760848D01*
X200659781Y-110758633D01*
X200852718Y-111225579D01*
X201209663Y-111583147D01*
X201676273Y-111776900D01*
X202181510Y-111777341D01*
X202648458Y-111584403D01*
X203006026Y-111227458D01*
X203199779Y-110760848D01*
X203199781Y-110758633D01*
X203392718Y-111225579D01*
X203749663Y-111583147D01*
X204216273Y-111776900D01*
X204721510Y-111777341D01*
X205188458Y-111584403D01*
X205546026Y-111227458D01*
X205739779Y-110760848D01*
X205739781Y-110758633D01*
X205932718Y-111225579D01*
X206289663Y-111583147D01*
X206756273Y-111776900D01*
X207261510Y-111777341D01*
X207728458Y-111584403D01*
X208086026Y-111227458D01*
X208279779Y-110760848D01*
X208279781Y-110758633D01*
X208472718Y-111225579D01*
X208829663Y-111583147D01*
X209296273Y-111776900D01*
X209801510Y-111777341D01*
X210268458Y-111584403D01*
X210273552Y-111579317D01*
X211197409Y-111579317D01*
X211282467Y-111834660D01*
X211851965Y-112042637D01*
X212457700Y-112016844D01*
X212897533Y-111834660D01*
X212982591Y-111579317D01*
X212090000Y-110686726D01*
X211197409Y-111579317D01*
X210273552Y-111579317D01*
X210626026Y-111227458D01*
X210676247Y-111106513D01*
X210762461Y-111314654D01*
X211017804Y-111399712D01*
X211910395Y-110507121D01*
X212269605Y-110507121D01*
X213162196Y-111399712D01*
X213417539Y-111314654D01*
X213625516Y-110745156D01*
X213599723Y-110139421D01*
X213417539Y-109699588D01*
X213162196Y-109614530D01*
X212269605Y-110507121D01*
X211910395Y-110507121D01*
X211017804Y-109614530D01*
X210762461Y-109699588D01*
X210681771Y-109920538D01*
X210627282Y-109788663D01*
X210270337Y-109431095D01*
X209803727Y-109237342D01*
X209801512Y-109237340D01*
X210268458Y-109044403D01*
X210626026Y-108687458D01*
X210819779Y-108220848D01*
X210819781Y-108218633D01*
X211012718Y-108685579D01*
X211369663Y-109043147D01*
X211490608Y-109093368D01*
X211282467Y-109179582D01*
X211197409Y-109434925D01*
X212090000Y-110327516D01*
X212832808Y-109584708D01*
X215203736Y-109584708D01*
X215470377Y-110230029D01*
X215963675Y-110724188D01*
X216608529Y-110991955D01*
X217306767Y-110992565D01*
X217952088Y-110725924D01*
X218446247Y-110232626D01*
X218714014Y-109587772D01*
X218714624Y-108889534D01*
X218447983Y-108244213D01*
X217954685Y-107750054D01*
X217309831Y-107482287D01*
X216611593Y-107481677D01*
X215966272Y-107748318D01*
X215472113Y-108241616D01*
X215204346Y-108886470D01*
X215203736Y-109584708D01*
X212832808Y-109584708D01*
X212982591Y-109434925D01*
X212897533Y-109179582D01*
X212676583Y-109098892D01*
X212808458Y-109044403D01*
X213166026Y-108687458D01*
X213359779Y-108220848D01*
X213360220Y-107715611D01*
X213167282Y-107248663D01*
X212810337Y-106891095D01*
X212343727Y-106697342D01*
X211838490Y-106696901D01*
X211371542Y-106889839D01*
X211013974Y-107246784D01*
X210820221Y-107713394D01*
X210820219Y-107715609D01*
X210627282Y-107248663D01*
X210270337Y-106891095D01*
X209803727Y-106697342D01*
X209298490Y-106696901D01*
X208831542Y-106889839D01*
X208473974Y-107246784D01*
X208280221Y-107713394D01*
X208280219Y-107715609D01*
X208087282Y-107248663D01*
X207730337Y-106891095D01*
X207263727Y-106697342D01*
X206758490Y-106696901D01*
X206291542Y-106889839D01*
X205933974Y-107246784D01*
X205883753Y-107367729D01*
X205797539Y-107159588D01*
X205542196Y-107074530D01*
X204649605Y-107967121D01*
X205542196Y-108859712D01*
X205797539Y-108774654D01*
X205878229Y-108553704D01*
X205932718Y-108685579D01*
X206289663Y-109043147D01*
X206756273Y-109236900D01*
X206758488Y-109236902D01*
X206291542Y-109429839D01*
X205933974Y-109786784D01*
X205740221Y-110253394D01*
X205740219Y-110255609D01*
X205547282Y-109788663D01*
X205190337Y-109431095D01*
X205069392Y-109380874D01*
X205277533Y-109294660D01*
X205362591Y-109039317D01*
X204470000Y-108146726D01*
X203577409Y-109039317D01*
X203662467Y-109294660D01*
X203883417Y-109375350D01*
X203751542Y-109429839D01*
X203393974Y-109786784D01*
X203200221Y-110253394D01*
X203200219Y-110255609D01*
X203007282Y-109788663D01*
X202650337Y-109431095D01*
X202183727Y-109237342D01*
X202181512Y-109237340D01*
X202648458Y-109044403D01*
X203006026Y-108687458D01*
X203056247Y-108566513D01*
X203142461Y-108774654D01*
X203397804Y-108859712D01*
X204290395Y-107967121D01*
X203397804Y-107074530D01*
X203142461Y-107159588D01*
X203061771Y-107380538D01*
X203007282Y-107248663D01*
X202654161Y-106894925D01*
X203577409Y-106894925D01*
X204470000Y-107787516D01*
X205362591Y-106894925D01*
X205277533Y-106639582D01*
X204708035Y-106431605D01*
X204102300Y-106457398D01*
X203662467Y-106639582D01*
X203577409Y-106894925D01*
X202654161Y-106894925D01*
X202650337Y-106891095D01*
X202183727Y-106697342D01*
X201678490Y-106696901D01*
X201211542Y-106889839D01*
X200853974Y-107246784D01*
X200803753Y-107367729D01*
X200717539Y-107159588D01*
X200462196Y-107074530D01*
X199569605Y-107967121D01*
X200462196Y-108859712D01*
X200717539Y-108774654D01*
X200798229Y-108553704D01*
X200852718Y-108685579D01*
X201209663Y-109043147D01*
X201676273Y-109236900D01*
X201678488Y-109236902D01*
X201211542Y-109429839D01*
X200853974Y-109786784D01*
X200660221Y-110253394D01*
X200660219Y-110255609D01*
X200467282Y-109788663D01*
X200110337Y-109431095D01*
X199989392Y-109380874D01*
X200197533Y-109294660D01*
X200282591Y-109039317D01*
X199390000Y-108146726D01*
X198497409Y-109039317D01*
X198582467Y-109294660D01*
X198803417Y-109375350D01*
X198671542Y-109429839D01*
X198313974Y-109786784D01*
X198120221Y-110253394D01*
X198120219Y-110255609D01*
X197927282Y-109788663D01*
X197570337Y-109431095D01*
X197103727Y-109237342D01*
X197101512Y-109237340D01*
X197568458Y-109044403D01*
X197926026Y-108687458D01*
X197976247Y-108566513D01*
X198062461Y-108774654D01*
X198317804Y-108859712D01*
X199210395Y-107967121D01*
X198317804Y-107074530D01*
X198062461Y-107159588D01*
X197981771Y-107380538D01*
X197927282Y-107248663D01*
X197574161Y-106894925D01*
X198497409Y-106894925D01*
X199390000Y-107787516D01*
X200282591Y-106894925D01*
X200197533Y-106639582D01*
X199628035Y-106431605D01*
X199022300Y-106457398D01*
X198582467Y-106639582D01*
X198497409Y-106894925D01*
X197574161Y-106894925D01*
X197570337Y-106891095D01*
X197103727Y-106697342D01*
X196598490Y-106696901D01*
X196131542Y-106889839D01*
X195773974Y-107246784D01*
X195580221Y-107713394D01*
X195580219Y-107715609D01*
X195387282Y-107248663D01*
X195030337Y-106891095D01*
X194563727Y-106697342D01*
X194058490Y-106696901D01*
X193591542Y-106889839D01*
X193233974Y-107246784D01*
X193040221Y-107713394D01*
X193040219Y-107715609D01*
X192847282Y-107248663D01*
X192490337Y-106891095D01*
X192023727Y-106697342D01*
X191518490Y-106696901D01*
X191051542Y-106889839D01*
X190693974Y-107246784D01*
X190500221Y-107713394D01*
X190500219Y-107715609D01*
X190307282Y-107248663D01*
X189950337Y-106891095D01*
X189483727Y-106697342D01*
X188978490Y-106696901D01*
X188511542Y-106889839D01*
X188153974Y-107246784D01*
X188103753Y-107367729D01*
X188017539Y-107159588D01*
X187762196Y-107074530D01*
X186869605Y-107967121D01*
X187762196Y-108859712D01*
X188017539Y-108774654D01*
X188098229Y-108553704D01*
X188152718Y-108685579D01*
X188509663Y-109043147D01*
X188976273Y-109236900D01*
X188978488Y-109236902D01*
X188511542Y-109429839D01*
X188153974Y-109786784D01*
X187960221Y-110253394D01*
X187960219Y-110255609D01*
X187767282Y-109788663D01*
X187410337Y-109431095D01*
X187289392Y-109380874D01*
X187497533Y-109294660D01*
X187582591Y-109039317D01*
X186690000Y-108146726D01*
X185797409Y-109039317D01*
X185882467Y-109294660D01*
X186103417Y-109375350D01*
X185971542Y-109429839D01*
X185613974Y-109786784D01*
X185420221Y-110253394D01*
X185420219Y-110255609D01*
X185227282Y-109788663D01*
X184870337Y-109431095D01*
X184403727Y-109237342D01*
X184401512Y-109237340D01*
X184868458Y-109044403D01*
X185226026Y-108687458D01*
X185276247Y-108566513D01*
X185362461Y-108774654D01*
X185617804Y-108859712D01*
X186510395Y-107967121D01*
X185617804Y-107074530D01*
X185362461Y-107159588D01*
X185281771Y-107380538D01*
X185227282Y-107248663D01*
X184874161Y-106894925D01*
X185797409Y-106894925D01*
X186690000Y-107787516D01*
X187582591Y-106894925D01*
X187497533Y-106639582D01*
X186928035Y-106431605D01*
X186322300Y-106457398D01*
X185882467Y-106639582D01*
X185797409Y-106894925D01*
X184874161Y-106894925D01*
X184870337Y-106891095D01*
X184403727Y-106697342D01*
X183898490Y-106696901D01*
X183431542Y-106889839D01*
X183073974Y-107246784D01*
X182880221Y-107713394D01*
X182880219Y-107715609D01*
X182687282Y-107248663D01*
X182330337Y-106891095D01*
X181863727Y-106697342D01*
X181358490Y-106696901D01*
X180891542Y-106889839D01*
X180533974Y-107246784D01*
X180483753Y-107367729D01*
X180397539Y-107159588D01*
X180142196Y-107074530D01*
X179249605Y-107967121D01*
X180142196Y-108859712D01*
X180397539Y-108774654D01*
X180478229Y-108553704D01*
X180532718Y-108685579D01*
X180889663Y-109043147D01*
X181356273Y-109236900D01*
X181358488Y-109236902D01*
X180891542Y-109429839D01*
X180533974Y-109786784D01*
X180340221Y-110253394D01*
X180340219Y-110255609D01*
X180147282Y-109788663D01*
X179790337Y-109431095D01*
X179669392Y-109380874D01*
X179877533Y-109294660D01*
X179962591Y-109039317D01*
X179070000Y-108146726D01*
X178177409Y-109039317D01*
X178262467Y-109294660D01*
X178483417Y-109375350D01*
X178351542Y-109429839D01*
X177993974Y-109786784D01*
X177800221Y-110253394D01*
X177800219Y-110255609D01*
X177607282Y-109788663D01*
X177250337Y-109431095D01*
X176783727Y-109237342D01*
X176781512Y-109237340D01*
X177248458Y-109044403D01*
X177606026Y-108687458D01*
X177656247Y-108566513D01*
X177742461Y-108774654D01*
X177997804Y-108859712D01*
X178890395Y-107967121D01*
X177997804Y-107074530D01*
X177742461Y-107159588D01*
X177661771Y-107380538D01*
X177607282Y-107248663D01*
X177254161Y-106894925D01*
X178177409Y-106894925D01*
X179070000Y-107787516D01*
X179962591Y-106894925D01*
X179877533Y-106639582D01*
X179308035Y-106431605D01*
X178702300Y-106457398D01*
X178262467Y-106639582D01*
X178177409Y-106894925D01*
X177254161Y-106894925D01*
X177250337Y-106891095D01*
X176783727Y-106697342D01*
X176278490Y-106696901D01*
X175811542Y-106889839D01*
X175453974Y-107246784D01*
X175260221Y-107713394D01*
X175260219Y-107715609D01*
X175067282Y-107248663D01*
X174710337Y-106891095D01*
X174243727Y-106697342D01*
X173738490Y-106696901D01*
X173271542Y-106889839D01*
X172913974Y-107246784D01*
X172720221Y-107713394D01*
X172720219Y-107715609D01*
X172527282Y-107248663D01*
X172170337Y-106891095D01*
X171703727Y-106697342D01*
X171198490Y-106696901D01*
X170731542Y-106889839D01*
X170373974Y-107246784D01*
X170323753Y-107367729D01*
X170237539Y-107159588D01*
X169982196Y-107074530D01*
X169089605Y-107967121D01*
X169982196Y-108859712D01*
X170237539Y-108774654D01*
X170318229Y-108553704D01*
X170372718Y-108685579D01*
X170729663Y-109043147D01*
X171196273Y-109236900D01*
X171198488Y-109236902D01*
X170731542Y-109429839D01*
X170373974Y-109786784D01*
X170180221Y-110253394D01*
X170180219Y-110255609D01*
X169987282Y-109788663D01*
X169630337Y-109431095D01*
X169509392Y-109380874D01*
X169717533Y-109294660D01*
X169802591Y-109039317D01*
X168910000Y-108146726D01*
X168017409Y-109039317D01*
X168102467Y-109294660D01*
X168323417Y-109375350D01*
X168191542Y-109429839D01*
X167833974Y-109786784D01*
X167640221Y-110253394D01*
X167640219Y-110255609D01*
X167447282Y-109788663D01*
X167090337Y-109431095D01*
X166623727Y-109237342D01*
X166621512Y-109237340D01*
X167088458Y-109044403D01*
X167446026Y-108687458D01*
X167496247Y-108566513D01*
X167582461Y-108774654D01*
X167837804Y-108859712D01*
X168730395Y-107967121D01*
X167837804Y-107074530D01*
X167582461Y-107159588D01*
X167501771Y-107380538D01*
X167447282Y-107248663D01*
X167094161Y-106894925D01*
X168017409Y-106894925D01*
X168910000Y-107787516D01*
X169802591Y-106894925D01*
X169717533Y-106639582D01*
X169148035Y-106431605D01*
X168542300Y-106457398D01*
X168102467Y-106639582D01*
X168017409Y-106894925D01*
X167094161Y-106894925D01*
X167090337Y-106891095D01*
X166623727Y-106697342D01*
X166118490Y-106696901D01*
X165651542Y-106889839D01*
X165293974Y-107246784D01*
X165100221Y-107713394D01*
X165100219Y-107715609D01*
X164907282Y-107248663D01*
X164550337Y-106891095D01*
X164083727Y-106697342D01*
X163578490Y-106696901D01*
X163111542Y-106889839D01*
X162753974Y-107246784D01*
X162560221Y-107713394D01*
X162559780Y-108218631D01*
X162752718Y-108685579D01*
X163109663Y-109043147D01*
X163558830Y-109229657D01*
X162941000Y-109229657D01*
X162799810Y-109256224D01*
X162670135Y-109339667D01*
X162583141Y-109466987D01*
X162552536Y-109618121D01*
X162552536Y-111396121D01*
X162579103Y-111537311D01*
X162662546Y-111666986D01*
X162789866Y-111753980D01*
X162941000Y-111784585D01*
X163249000Y-111784585D01*
X163249000Y-111796121D01*
X163293226Y-112018460D01*
X163419171Y-112206950D01*
X163839171Y-112626950D01*
X164027661Y-112752895D01*
X164250000Y-112797121D01*
X182441000Y-112797121D01*
X182663339Y-112752895D01*
X182851829Y-112626950D01*
X183758915Y-111719864D01*
X183896273Y-111776900D01*
X184401510Y-111777341D01*
X184540948Y-111719727D01*
X189069088Y-116247867D01*
X189068882Y-116484865D01*
X189169000Y-116727171D01*
X189169000Y-117744000D01*
X184307123Y-117744000D01*
X184236259Y-117673013D01*
X183986054Y-117569118D01*
X183715135Y-117568882D01*
X183464748Y-117672339D01*
X183392962Y-117744000D01*
X182000000Y-117744000D01*
X181806362Y-117782517D01*
X181684802Y-117863741D01*
X181642204Y-117892204D01*
X180065439Y-119468969D01*
X179965135Y-119468882D01*
X179714748Y-119572339D01*
X179523013Y-119763741D01*
X179419118Y-120013946D01*
X179418882Y-120284865D01*
X179522339Y-120535252D01*
X179713741Y-120726987D01*
X179963946Y-120830882D01*
X180234865Y-120831118D01*
X180485252Y-120727661D01*
X180676987Y-120536259D01*
X180780882Y-120286054D01*
X180780970Y-120184622D01*
X182209592Y-118756000D01*
X183392877Y-118756000D01*
X183463741Y-118826987D01*
X183713946Y-118930882D01*
X183984865Y-118931118D01*
X184235252Y-118827661D01*
X184307038Y-118756000D01*
X189169000Y-118756000D01*
X189169000Y-122959342D01*
X188155464Y-123972878D01*
X187922829Y-124069000D01*
X187582748Y-124069000D01*
X187360409Y-124113226D01*
X187171919Y-124239171D01*
X184739171Y-126671919D01*
X184613226Y-126860409D01*
X184569000Y-127082748D01*
X184569000Y-128873405D01*
X184469118Y-129113946D01*
X184469030Y-129215378D01*
X181590408Y-132094000D01*
X173407123Y-132094000D01*
X173336259Y-132023013D01*
X173086054Y-131919118D01*
X172815135Y-131918882D01*
X172564748Y-132022339D01*
X172373013Y-132213741D01*
X172269118Y-132463946D01*
X172268882Y-132734865D01*
X172372339Y-132985252D01*
X172563741Y-133176987D01*
X172813946Y-133280882D01*
X173084865Y-133281118D01*
X173335252Y-133177661D01*
X173407038Y-133106000D01*
X181800000Y-133106000D01*
X181993638Y-133067483D01*
X182157796Y-132957796D01*
X185150000Y-129965592D01*
X186342204Y-131157796D01*
X186506362Y-131267483D01*
X186700000Y-131306000D01*
X194742877Y-131306000D01*
X194813741Y-131376987D01*
X195063946Y-131480882D01*
X195334865Y-131481118D01*
X195585252Y-131377661D01*
X195657038Y-131306000D01*
X206694000Y-131306000D01*
X206694000Y-134500000D01*
X206732517Y-134693638D01*
X206842204Y-134857796D01*
X207068969Y-135084561D01*
X207068882Y-135184865D01*
X207093316Y-135244000D01*
X158500000Y-135244000D01*
X158497456Y-135244506D01*
X157479872Y-135042096D01*
X156657438Y-134492562D01*
X156105714Y-133666850D01*
X155906000Y-132743495D01*
X155906000Y-132586948D01*
X157202836Y-132586948D01*
X157469477Y-133232269D01*
X157962775Y-133726428D01*
X158607629Y-133994195D01*
X159305867Y-133994805D01*
X159951188Y-133728164D01*
X160445347Y-133234866D01*
X160713114Y-132590012D01*
X160713724Y-131891774D01*
X160447083Y-131246453D01*
X159953785Y-130752294D01*
X159308931Y-130484527D01*
X158610693Y-130483917D01*
X157965372Y-130750558D01*
X157471213Y-131243856D01*
X157203446Y-131888710D01*
X157202836Y-132586948D01*
X155906000Y-132586948D01*
X155906000Y-125414868D01*
X157014737Y-125414868D01*
X157125641Y-125692099D01*
X157771593Y-125935323D01*
X158461453Y-125912836D01*
X158994359Y-125692099D01*
X159105263Y-125414868D01*
X162094737Y-125414868D01*
X162205641Y-125692099D01*
X162851593Y-125935323D01*
X163541453Y-125912836D01*
X164074359Y-125692099D01*
X164185263Y-125414868D01*
X163140000Y-124369605D01*
X162094737Y-125414868D01*
X159105263Y-125414868D01*
X158060000Y-124369605D01*
X157014737Y-125414868D01*
X155906000Y-125414868D01*
X155906000Y-123901593D01*
X156314677Y-123901593D01*
X156337164Y-124591453D01*
X156557901Y-125124359D01*
X156835132Y-125235263D01*
X157880395Y-124190000D01*
X158239605Y-124190000D01*
X159284868Y-125235263D01*
X159562099Y-125124359D01*
X159805323Y-124478407D01*
X159786521Y-123901593D01*
X161394677Y-123901593D01*
X161417164Y-124591453D01*
X161637901Y-125124359D01*
X161915132Y-125235263D01*
X162960395Y-124190000D01*
X163319605Y-124190000D01*
X164364868Y-125235263D01*
X164642099Y-125124359D01*
X164885323Y-124478407D01*
X164862836Y-123788547D01*
X164642099Y-123255641D01*
X164364868Y-123144737D01*
X163319605Y-124190000D01*
X162960395Y-124190000D01*
X161915132Y-123144737D01*
X161637901Y-123255641D01*
X161394677Y-123901593D01*
X159786521Y-123901593D01*
X159782836Y-123788547D01*
X159562099Y-123255641D01*
X159284868Y-123144737D01*
X158239605Y-124190000D01*
X157880395Y-124190000D01*
X156835132Y-123144737D01*
X156557901Y-123255641D01*
X156314677Y-123901593D01*
X155906000Y-123901593D01*
X155906000Y-122965132D01*
X157014737Y-122965132D01*
X158060000Y-124010395D01*
X159105263Y-122965132D01*
X158994359Y-122687901D01*
X158348407Y-122444677D01*
X157658547Y-122467164D01*
X157125641Y-122687901D01*
X157014737Y-122965132D01*
X155906000Y-122965132D01*
X155906000Y-121923493D01*
X159218761Y-121923493D01*
X159428563Y-122431251D01*
X159816705Y-122820072D01*
X160324097Y-123030759D01*
X160873493Y-123031239D01*
X161033483Y-122965132D01*
X162094737Y-122965132D01*
X163140000Y-124010395D01*
X164185263Y-122965132D01*
X164074359Y-122687901D01*
X163428407Y-122444677D01*
X162738547Y-122467164D01*
X162205641Y-122687901D01*
X162094737Y-122965132D01*
X161033483Y-122965132D01*
X161381251Y-122821437D01*
X161770072Y-122433295D01*
X161980759Y-121925903D01*
X161980794Y-121884865D01*
X170118882Y-121884865D01*
X170222339Y-122135252D01*
X170413741Y-122326987D01*
X170663946Y-122430882D01*
X170765378Y-122430970D01*
X171342204Y-123007796D01*
X171506362Y-123117483D01*
X171700000Y-123156000D01*
X175242877Y-123156000D01*
X175313741Y-123226987D01*
X175563946Y-123330882D01*
X175834865Y-123331118D01*
X176085252Y-123227661D01*
X176276987Y-123036259D01*
X176380882Y-122786054D01*
X176381118Y-122515135D01*
X176277661Y-122264748D01*
X176086259Y-122073013D01*
X175836054Y-121969118D01*
X175565135Y-121968882D01*
X175314748Y-122072339D01*
X175242962Y-122144000D01*
X171909592Y-122144000D01*
X171481031Y-121715439D01*
X171481118Y-121615135D01*
X171377661Y-121364748D01*
X171186259Y-121173013D01*
X170936054Y-121069118D01*
X170665135Y-121068882D01*
X170414748Y-121172339D01*
X170223013Y-121363741D01*
X170119118Y-121613946D01*
X170118882Y-121884865D01*
X161980794Y-121884865D01*
X161981239Y-121376507D01*
X161771437Y-120868749D01*
X161383295Y-120479928D01*
X161033951Y-120334868D01*
X162094737Y-120334868D01*
X162205641Y-120612099D01*
X162851593Y-120855323D01*
X163541453Y-120832836D01*
X164074359Y-120612099D01*
X164105255Y-120534865D01*
X176418882Y-120534865D01*
X176522339Y-120785252D01*
X176713741Y-120976987D01*
X176963946Y-121080882D01*
X177234865Y-121081118D01*
X177485252Y-120977661D01*
X177676987Y-120786259D01*
X177780882Y-120536054D01*
X177781002Y-120398236D01*
X177817483Y-120343638D01*
X177856000Y-120150000D01*
X177856000Y-119007123D01*
X177926987Y-118936259D01*
X178030882Y-118686054D01*
X178031118Y-118415135D01*
X177927661Y-118164748D01*
X177736259Y-117973013D01*
X177486054Y-117869118D01*
X177215135Y-117868882D01*
X176964748Y-117972339D01*
X176773013Y-118163741D01*
X176669118Y-118413946D01*
X176668882Y-118684865D01*
X176772339Y-118935252D01*
X176844000Y-119007038D01*
X176844000Y-119768934D01*
X176714748Y-119822339D01*
X176523013Y-120013741D01*
X176419118Y-120263946D01*
X176418882Y-120534865D01*
X164105255Y-120534865D01*
X164185263Y-120334868D01*
X163140000Y-119289605D01*
X162094737Y-120334868D01*
X161033951Y-120334868D01*
X160875903Y-120269241D01*
X160326507Y-120268761D01*
X159818749Y-120478563D01*
X159429928Y-120866705D01*
X159219241Y-121374097D01*
X159218761Y-121923493D01*
X155906000Y-121923493D01*
X155906000Y-120334868D01*
X157014737Y-120334868D01*
X157125641Y-120612099D01*
X157771593Y-120855323D01*
X158461453Y-120832836D01*
X158994359Y-120612099D01*
X159105263Y-120334868D01*
X158060000Y-119289605D01*
X157014737Y-120334868D01*
X155906000Y-120334868D01*
X155906000Y-118821593D01*
X156314677Y-118821593D01*
X156337164Y-119511453D01*
X156557901Y-120044359D01*
X156835132Y-120155263D01*
X157880395Y-119110000D01*
X158239605Y-119110000D01*
X159284868Y-120155263D01*
X159562099Y-120044359D01*
X159805323Y-119398407D01*
X159786521Y-118821593D01*
X161394677Y-118821593D01*
X161417164Y-119511453D01*
X161637901Y-120044359D01*
X161915132Y-120155263D01*
X162960395Y-119110000D01*
X163319605Y-119110000D01*
X164364868Y-120155263D01*
X164642099Y-120044359D01*
X164885323Y-119398407D01*
X164862836Y-118708547D01*
X164642099Y-118175641D01*
X164364868Y-118064737D01*
X163319605Y-119110000D01*
X162960395Y-119110000D01*
X161915132Y-118064737D01*
X161637901Y-118175641D01*
X161394677Y-118821593D01*
X159786521Y-118821593D01*
X159782836Y-118708547D01*
X159562099Y-118175641D01*
X159284868Y-118064737D01*
X158239605Y-119110000D01*
X157880395Y-119110000D01*
X156835132Y-118064737D01*
X156557901Y-118175641D01*
X156314677Y-118821593D01*
X155906000Y-118821593D01*
X155906000Y-117885132D01*
X157014737Y-117885132D01*
X158060000Y-118930395D01*
X159105263Y-117885132D01*
X162094737Y-117885132D01*
X163140000Y-118930395D01*
X164185263Y-117885132D01*
X164074359Y-117607901D01*
X163428407Y-117364677D01*
X162738547Y-117387164D01*
X162205641Y-117607901D01*
X162094737Y-117885132D01*
X159105263Y-117885132D01*
X158994359Y-117607901D01*
X158348407Y-117364677D01*
X157658547Y-117387164D01*
X157125641Y-117607901D01*
X157014737Y-117885132D01*
X155906000Y-117885132D01*
X155906000Y-109584708D01*
X157202836Y-109584708D01*
X157469477Y-110230029D01*
X157962775Y-110724188D01*
X158607629Y-110991955D01*
X159305867Y-110992565D01*
X159951188Y-110725924D01*
X160445347Y-110232626D01*
X160713114Y-109587772D01*
X160713724Y-108889534D01*
X160447083Y-108244213D01*
X159953785Y-107750054D01*
X159308931Y-107482287D01*
X158610693Y-107481677D01*
X157965372Y-107748318D01*
X157471213Y-108241616D01*
X157203446Y-108886470D01*
X157202836Y-109584708D01*
X155906000Y-109584708D01*
X155906000Y-108644459D01*
X156107897Y-107629455D01*
X156657431Y-106807021D01*
X157481507Y-106256390D01*
X158446830Y-106056000D01*
X217505089Y-106056000D01*
X218500994Y-106254098D01*
X218500994Y-106254098D01*
G37*
X218500994Y-106254098D02*
X219307207Y-106792793D01*
X219848057Y-107602231D01*
X220044000Y-108509351D01*
X220044000Y-132750000D01*
X220044506Y-132752544D01*
X219849708Y-133731860D01*
X219321852Y-134521852D01*
X218530246Y-135050787D01*
X217598856Y-135244000D01*
X208406821Y-135244000D01*
X208430882Y-135186054D01*
X208431118Y-134915135D01*
X208327661Y-134664748D01*
X208136259Y-134473013D01*
X207886054Y-134369118D01*
X207784622Y-134369030D01*
X207706000Y-134290408D01*
X207706000Y-132586948D01*
X215203736Y-132586948D01*
X215470377Y-133232269D01*
X215963675Y-133726428D01*
X216608529Y-133994195D01*
X217306767Y-133994805D01*
X217952088Y-133728164D01*
X218446247Y-133234866D01*
X218714014Y-132590012D01*
X218714624Y-131891774D01*
X218447983Y-131246453D01*
X217954685Y-130752294D01*
X217309831Y-130484527D01*
X216611593Y-130483917D01*
X215966272Y-130750558D01*
X215472113Y-131243856D01*
X215204346Y-131888710D01*
X215203736Y-132586948D01*
X207706000Y-132586948D01*
X207706000Y-131306000D01*
X207720000Y-131306000D01*
X207913638Y-131267483D01*
X208077796Y-131157796D01*
X210777796Y-128457796D01*
X210788701Y-128441476D01*
X210887483Y-128293638D01*
X210898458Y-128238464D01*
X211270000Y-128238464D01*
X211411190Y-128211897D01*
X211540865Y-128128454D01*
X211627859Y-128001134D01*
X211658464Y-127850000D01*
X211658464Y-126975883D01*
X211729000Y-126975883D01*
X211729000Y-127024117D01*
X211822704Y-127495200D01*
X212089552Y-127894565D01*
X212488917Y-128161413D01*
X212960000Y-128255117D01*
X213431083Y-128161413D01*
X213830448Y-127894565D01*
X214097296Y-127495200D01*
X214191000Y-127024117D01*
X214191000Y-126975883D01*
X214269000Y-126975883D01*
X214269000Y-127024117D01*
X214362704Y-127495200D01*
X214629552Y-127894565D01*
X215028917Y-128161413D01*
X215500000Y-128255117D01*
X215971083Y-128161413D01*
X216370448Y-127894565D01*
X216637296Y-127495200D01*
X216645083Y-127456053D01*
X216844817Y-127881358D01*
X217273076Y-128271645D01*
X217683110Y-128441476D01*
X217913000Y-128320155D01*
X217913000Y-127127000D01*
X218167000Y-127127000D01*
X218167000Y-128320155D01*
X218396890Y-128441476D01*
X218806924Y-128271645D01*
X219235183Y-127881358D01*
X219481486Y-127356892D01*
X219360819Y-127127000D01*
X218167000Y-127127000D01*
X217913000Y-127127000D01*
X217893000Y-127127000D01*
X217893000Y-126873000D01*
X217913000Y-126873000D01*
X217913000Y-125679845D01*
X218167000Y-125679845D01*
X218167000Y-126873000D01*
X219360819Y-126873000D01*
X219481486Y-126643108D01*
X219235183Y-126118642D01*
X218806924Y-125728355D01*
X218396890Y-125558524D01*
X218167000Y-125679845D01*
X217913000Y-125679845D01*
X217683110Y-125558524D01*
X217273076Y-125728355D01*
X216844817Y-126118642D01*
X216645083Y-126543947D01*
X216637296Y-126504800D01*
X216370448Y-126105435D01*
X215971083Y-125838587D01*
X215500000Y-125744883D01*
X215028917Y-125838587D01*
X214629552Y-126105435D01*
X214362704Y-126504800D01*
X214269000Y-126975883D01*
X214191000Y-126975883D01*
X214097296Y-126504800D01*
X213830448Y-126105435D01*
X213431083Y-125838587D01*
X212960000Y-125744883D01*
X212488917Y-125838587D01*
X212089552Y-126105435D01*
X211822704Y-126504800D01*
X211729000Y-126975883D01*
X211658464Y-126975883D01*
X211658464Y-126150000D01*
X211631897Y-126008810D01*
X211548454Y-125879135D01*
X211421134Y-125792141D01*
X211270000Y-125761536D01*
X210926000Y-125761536D01*
X210926000Y-124738464D01*
X211350000Y-124738464D01*
X211491190Y-124711897D01*
X211620865Y-124628454D01*
X211707859Y-124501134D01*
X211738464Y-124350000D01*
X211738464Y-122914056D01*
X211890510Y-123066102D01*
X211809000Y-123475883D01*
X211809000Y-123524117D01*
X211902704Y-123995200D01*
X212169552Y-124394565D01*
X212568917Y-124661413D01*
X213040000Y-124755117D01*
X213511083Y-124661413D01*
X213910448Y-124394565D01*
X214177296Y-123995200D01*
X214271000Y-123524117D01*
X214271000Y-123475883D01*
X214177296Y-123004800D01*
X213910448Y-122605435D01*
X213511083Y-122338587D01*
X213040000Y-122244883D01*
X212589988Y-122334396D01*
X212411593Y-122156001D01*
X213520409Y-122156001D01*
X214430510Y-123066102D01*
X214349000Y-123475883D01*
X214349000Y-123524117D01*
X214442704Y-123995200D01*
X214709552Y-124394565D01*
X215108917Y-124661413D01*
X215580000Y-124755117D01*
X216051083Y-124661413D01*
X216450448Y-124394565D01*
X216717296Y-123995200D01*
X216725083Y-123956053D01*
X216924817Y-124381358D01*
X217353076Y-124771645D01*
X217763110Y-124941476D01*
X217993000Y-124820155D01*
X217993000Y-123627000D01*
X218247000Y-123627000D01*
X218247000Y-124820155D01*
X218476890Y-124941476D01*
X218886924Y-124771645D01*
X219315183Y-124381358D01*
X219561486Y-123856892D01*
X219440819Y-123627000D01*
X218247000Y-123627000D01*
X217993000Y-123627000D01*
X217973000Y-123627000D01*
X217973000Y-123373000D01*
X217993000Y-123373000D01*
X217993000Y-122179845D01*
X218247000Y-122179845D01*
X218247000Y-123373000D01*
X219440819Y-123373000D01*
X219561486Y-123143108D01*
X219315183Y-122618642D01*
X218886924Y-122228355D01*
X218476890Y-122058524D01*
X218247000Y-122179845D01*
X217993000Y-122179845D01*
X217763110Y-122058524D01*
X217353076Y-122228355D01*
X216924817Y-122618642D01*
X216725083Y-123043947D01*
X216717296Y-123004800D01*
X216450448Y-122605435D01*
X216051083Y-122338587D01*
X215580000Y-122244883D01*
X215129988Y-122334396D01*
X214087797Y-121292205D01*
X213923639Y-121182518D01*
X213730001Y-121144001D01*
X194449999Y-121144001D01*
X194256361Y-121182518D01*
X194126963Y-121268979D01*
X194030999Y-121268896D01*
X194030999Y-119584593D01*
X196934561Y-116681031D01*
X197034865Y-116681118D01*
X197285252Y-116577661D01*
X197476987Y-116386259D01*
X197580882Y-116136054D01*
X197581118Y-115865135D01*
X197477661Y-115614748D01*
X197286259Y-115423013D01*
X197049775Y-115324815D01*
X197280840Y-115093750D01*
X197651000Y-115093750D01*
X197651000Y-115784309D01*
X197747673Y-116017698D01*
X197926301Y-116196327D01*
X198159690Y-116293000D01*
X198850250Y-116293000D01*
X199009000Y-116134250D01*
X199009000Y-114935000D01*
X197809750Y-114935000D01*
X197651000Y-115093750D01*
X197280840Y-115093750D01*
X197751670Y-114622920D01*
X197809750Y-114681000D01*
X199009000Y-114681000D01*
X199009000Y-114661000D01*
X199263000Y-114661000D01*
X199263000Y-114681000D01*
X199283000Y-114681000D01*
X199283000Y-114935000D01*
X199263000Y-114935000D01*
X199263000Y-116134250D01*
X199421750Y-116293000D01*
X200112310Y-116293000D01*
X200345699Y-116196327D01*
X200524327Y-116017698D01*
X200621000Y-115784309D01*
X200621000Y-115426364D01*
X200805552Y-115702565D01*
X201204917Y-115969413D01*
X201676000Y-116063117D01*
X202147083Y-115969413D01*
X202546448Y-115702565D01*
X202813296Y-115303200D01*
X202907000Y-114832117D01*
X202907000Y-114783883D01*
X202985000Y-114783883D01*
X202985000Y-114832117D01*
X203078704Y-115303200D01*
X203345552Y-115702565D01*
X203710000Y-115946082D01*
X203710000Y-117166000D01*
X203748517Y-117359638D01*
X203858204Y-117523796D01*
X206518969Y-120184561D01*
X206518882Y-120284865D01*
X206622339Y-120535252D01*
X206813741Y-120726987D01*
X207063946Y-120830882D01*
X207334865Y-120831118D01*
X207585252Y-120727661D01*
X207776987Y-120536259D01*
X207880882Y-120286054D01*
X207881118Y-120015135D01*
X207777661Y-119764748D01*
X207586259Y-119573013D01*
X207336054Y-119469118D01*
X207234622Y-119469030D01*
X204722000Y-116956408D01*
X204722000Y-115946082D01*
X205086448Y-115702565D01*
X205353296Y-115303200D01*
X205447000Y-114832117D01*
X205447000Y-114783883D01*
X205353296Y-114312800D01*
X205086448Y-113913435D01*
X204687083Y-113646587D01*
X204216000Y-113552883D01*
X203744917Y-113646587D01*
X203345552Y-113913435D01*
X203078704Y-114312800D01*
X202985000Y-114783883D01*
X202907000Y-114783883D01*
X202813296Y-114312800D01*
X202546448Y-113913435D01*
X202147083Y-113646587D01*
X201676000Y-113552883D01*
X201225988Y-113642396D01*
X200375796Y-112792204D01*
X200211638Y-112682517D01*
X200018000Y-112644000D01*
X198508998Y-112644000D01*
X198315360Y-112682517D01*
X198151202Y-112792204D01*
X190992204Y-119951202D01*
X190882517Y-120115360D01*
X190844000Y-120308998D01*
X190844000Y-125492877D01*
X190773013Y-125563741D01*
X190669118Y-125813946D01*
X190668882Y-126084865D01*
X190772339Y-126335252D01*
X190963741Y-126526987D01*
X191213946Y-126630882D01*
X191484865Y-126631118D01*
X191735252Y-126527661D01*
X191926987Y-126336259D01*
X192030882Y-126086054D01*
X192031118Y-125815135D01*
X191927661Y-125564748D01*
X191856000Y-125492962D01*
X191856000Y-120518590D01*
X193023819Y-119350771D01*
X193018999Y-119375001D01*
X193018999Y-122250001D01*
X193057516Y-122443639D01*
X193167203Y-122607797D01*
X193492203Y-122932797D01*
X193656361Y-123042484D01*
X193849999Y-123081001D01*
X194450001Y-123081001D01*
X194643639Y-123042484D01*
X194807797Y-122932797D01*
X194909595Y-122830999D01*
X205432799Y-122830999D01*
X205419118Y-122863946D01*
X205418882Y-123134865D01*
X205522339Y-123385252D01*
X205713741Y-123576987D01*
X205963946Y-123680882D01*
X206065378Y-123680970D01*
X206242204Y-123857796D01*
X206406362Y-123967483D01*
X206600000Y-124006000D01*
X209261536Y-124006000D01*
X209261536Y-124350000D01*
X209288103Y-124491190D01*
X209371546Y-124620865D01*
X209498866Y-124707859D01*
X209650000Y-124738464D01*
X209914000Y-124738464D01*
X209914000Y-125761536D01*
X209570000Y-125761536D01*
X209428810Y-125788103D01*
X209299135Y-125871546D01*
X209212141Y-125998866D01*
X209181536Y-126150000D01*
X209181536Y-127850000D01*
X209208103Y-127991190D01*
X209291546Y-128120865D01*
X209418866Y-128207859D01*
X209566627Y-128237781D01*
X207510408Y-130294000D01*
X195657123Y-130294000D01*
X195586259Y-130223013D01*
X195336054Y-130119118D01*
X195065135Y-130118882D01*
X194814748Y-130222339D01*
X194742962Y-130294000D01*
X186909592Y-130294000D01*
X185831031Y-129215439D01*
X185831118Y-129115135D01*
X185731000Y-128872829D01*
X185731000Y-127323406D01*
X185848313Y-127206093D01*
X185922339Y-127385252D01*
X186113741Y-127576987D01*
X186363946Y-127680882D01*
X186634865Y-127681118D01*
X186885252Y-127577661D01*
X186957038Y-127506000D01*
X188195438Y-127506000D01*
X188216389Y-127526987D01*
X188466594Y-127630882D01*
X188737513Y-127631118D01*
X188987900Y-127527661D01*
X189179635Y-127336259D01*
X189283530Y-127086054D01*
X189283766Y-126815135D01*
X189180309Y-126564748D01*
X188988907Y-126373013D01*
X188827377Y-126305939D01*
X188796286Y-126285165D01*
X188759933Y-126277934D01*
X188738702Y-126269118D01*
X188715511Y-126269098D01*
X188602648Y-126246648D01*
X188490770Y-126268902D01*
X188467783Y-126268882D01*
X188446350Y-126277738D01*
X188409011Y-126285165D01*
X188377633Y-126306131D01*
X188217396Y-126372339D01*
X188095523Y-126494000D01*
X186957123Y-126494000D01*
X186886259Y-126423013D01*
X186706172Y-126348234D01*
X187823406Y-125231000D01*
X187923405Y-125231000D01*
X188163946Y-125330882D01*
X188434865Y-125331118D01*
X188685252Y-125227661D01*
X188876987Y-125036259D01*
X188977529Y-124794129D01*
X190160829Y-123610829D01*
X190286774Y-123422339D01*
X190331000Y-123200000D01*
X190331000Y-116726595D01*
X190430882Y-116486054D01*
X190431118Y-116215135D01*
X190327661Y-115964748D01*
X190296464Y-115933497D01*
X190286774Y-115884782D01*
X190160829Y-115696292D01*
X186103086Y-111638549D01*
X186436273Y-111776900D01*
X186941510Y-111777341D01*
X187408458Y-111584403D01*
X187766026Y-111227458D01*
X187959779Y-110760848D01*
X187959781Y-110758633D01*
X188152718Y-111225579D01*
X188509663Y-111583147D01*
X188976273Y-111776900D01*
X189481510Y-111777341D01*
X189948458Y-111584403D01*
X190306026Y-111227458D01*
X190499779Y-110760848D01*
X190499781Y-110758633D01*
X190692718Y-111225579D01*
X191049663Y-111583147D01*
X191516273Y-111776900D01*
X192021510Y-111777341D01*
X192488458Y-111584403D01*
X192493552Y-111579317D01*
X193417409Y-111579317D01*
X193502467Y-111834660D01*
X194071965Y-112042637D01*
X194677700Y-112016844D01*
X195117533Y-111834660D01*
X195202591Y-111579317D01*
X194310000Y-110686726D01*
X193417409Y-111579317D01*
X192493552Y-111579317D01*
X192846026Y-111227458D01*
X192896247Y-111106513D01*
X192982461Y-111314654D01*
X193237804Y-111399712D01*
X194130395Y-110507121D01*
X193237804Y-109614530D01*
X192982461Y-109699588D01*
X192901771Y-109920538D01*
X192847282Y-109788663D01*
X192490337Y-109431095D01*
X192023727Y-109237342D01*
X192021512Y-109237340D01*
X192488458Y-109044403D01*
X192846026Y-108687458D01*
X193039779Y-108220848D01*
X193039781Y-108218633D01*
X193232718Y-108685579D01*
X193589663Y-109043147D01*
X193710608Y-109093368D01*
X193502467Y-109179582D01*
X193417409Y-109434925D01*
X194310000Y-110327516D01*
X195202591Y-109434925D01*
X195117533Y-109179582D01*
X194896583Y-109098892D01*
X195028458Y-109044403D01*
X195386026Y-108687458D01*
X195579779Y-108220848D01*
X195579781Y-108218633D01*
X195772718Y-108685579D01*
X196129663Y-109043147D01*
X196596273Y-109236900D01*
X196598488Y-109236902D01*
X196131542Y-109429839D01*
X195773974Y-109786784D01*
X195723753Y-109907729D01*
X195637539Y-109699588D01*
X195382196Y-109614530D01*
X194489605Y-110507121D01*
X195382196Y-111399712D01*
X195637539Y-111314654D01*
X195718229Y-111093704D01*
X195772718Y-111225579D01*
X196129663Y-111583147D01*
X196596273Y-111776900D01*
X197101510Y-111777341D01*
X197568458Y-111584403D01*
X197926026Y-111227458D01*
X198119779Y-110760848D01*
X198119781Y-110758633D01*
X198312718Y-111225579D01*
X198669663Y-111583147D01*
X199136273Y-111776900D01*
X199641510Y-111777341D01*
X200108458Y-111584403D01*
X200466026Y-111227458D01*
X200659779Y-110760848D01*
X200659781Y-110758633D01*
X200852718Y-111225579D01*
X201209663Y-111583147D01*
X201676273Y-111776900D01*
X202181510Y-111777341D01*
X202648458Y-111584403D01*
X203006026Y-111227458D01*
X203199779Y-110760848D01*
X203199781Y-110758633D01*
X203392718Y-111225579D01*
X203749663Y-111583147D01*
X204216273Y-111776900D01*
X204721510Y-111777341D01*
X205188458Y-111584403D01*
X205546026Y-111227458D01*
X205739779Y-110760848D01*
X205739781Y-110758633D01*
X205932718Y-111225579D01*
X206289663Y-111583147D01*
X206756273Y-111776900D01*
X207261510Y-111777341D01*
X207728458Y-111584403D01*
X208086026Y-111227458D01*
X208279779Y-110760848D01*
X208279781Y-110758633D01*
X208472718Y-111225579D01*
X208829663Y-111583147D01*
X209296273Y-111776900D01*
X209801510Y-111777341D01*
X210268458Y-111584403D01*
X210273552Y-111579317D01*
X211197409Y-111579317D01*
X211282467Y-111834660D01*
X211851965Y-112042637D01*
X212457700Y-112016844D01*
X212897533Y-111834660D01*
X212982591Y-111579317D01*
X212090000Y-110686726D01*
X211197409Y-111579317D01*
X210273552Y-111579317D01*
X210626026Y-111227458D01*
X210676247Y-111106513D01*
X210762461Y-111314654D01*
X211017804Y-111399712D01*
X211910395Y-110507121D01*
X212269605Y-110507121D01*
X213162196Y-111399712D01*
X213417539Y-111314654D01*
X213625516Y-110745156D01*
X213599723Y-110139421D01*
X213417539Y-109699588D01*
X213162196Y-109614530D01*
X212269605Y-110507121D01*
X211910395Y-110507121D01*
X211017804Y-109614530D01*
X210762461Y-109699588D01*
X210681771Y-109920538D01*
X210627282Y-109788663D01*
X210270337Y-109431095D01*
X209803727Y-109237342D01*
X209801512Y-109237340D01*
X210268458Y-109044403D01*
X210626026Y-108687458D01*
X210819779Y-108220848D01*
X210819781Y-108218633D01*
X211012718Y-108685579D01*
X211369663Y-109043147D01*
X211490608Y-109093368D01*
X211282467Y-109179582D01*
X211197409Y-109434925D01*
X212090000Y-110327516D01*
X212832808Y-109584708D01*
X215203736Y-109584708D01*
X215470377Y-110230029D01*
X215963675Y-110724188D01*
X216608529Y-110991955D01*
X217306767Y-110992565D01*
X217952088Y-110725924D01*
X218446247Y-110232626D01*
X218714014Y-109587772D01*
X218714624Y-108889534D01*
X218447983Y-108244213D01*
X217954685Y-107750054D01*
X217309831Y-107482287D01*
X216611593Y-107481677D01*
X215966272Y-107748318D01*
X215472113Y-108241616D01*
X215204346Y-108886470D01*
X215203736Y-109584708D01*
X212832808Y-109584708D01*
X212982591Y-109434925D01*
X212897533Y-109179582D01*
X212676583Y-109098892D01*
X212808458Y-109044403D01*
X213166026Y-108687458D01*
X213359779Y-108220848D01*
X213360220Y-107715611D01*
X213167282Y-107248663D01*
X212810337Y-106891095D01*
X212343727Y-106697342D01*
X211838490Y-106696901D01*
X211371542Y-106889839D01*
X211013974Y-107246784D01*
X210820221Y-107713394D01*
X210820219Y-107715609D01*
X210627282Y-107248663D01*
X210270337Y-106891095D01*
X209803727Y-106697342D01*
X209298490Y-106696901D01*
X208831542Y-106889839D01*
X208473974Y-107246784D01*
X208280221Y-107713394D01*
X208280219Y-107715609D01*
X208087282Y-107248663D01*
X207730337Y-106891095D01*
X207263727Y-106697342D01*
X206758490Y-106696901D01*
X206291542Y-106889839D01*
X205933974Y-107246784D01*
X205883753Y-107367729D01*
X205797539Y-107159588D01*
X205542196Y-107074530D01*
X204649605Y-107967121D01*
X205542196Y-108859712D01*
X205797539Y-108774654D01*
X205878229Y-108553704D01*
X205932718Y-108685579D01*
X206289663Y-109043147D01*
X206756273Y-109236900D01*
X206758488Y-109236902D01*
X206291542Y-109429839D01*
X205933974Y-109786784D01*
X205740221Y-110253394D01*
X205740219Y-110255609D01*
X205547282Y-109788663D01*
X205190337Y-109431095D01*
X205069392Y-109380874D01*
X205277533Y-109294660D01*
X205362591Y-109039317D01*
X204470000Y-108146726D01*
X203577409Y-109039317D01*
X203662467Y-109294660D01*
X203883417Y-109375350D01*
X203751542Y-109429839D01*
X203393974Y-109786784D01*
X203200221Y-110253394D01*
X203200219Y-110255609D01*
X203007282Y-109788663D01*
X202650337Y-109431095D01*
X202183727Y-109237342D01*
X202181512Y-109237340D01*
X202648458Y-109044403D01*
X203006026Y-108687458D01*
X203056247Y-108566513D01*
X203142461Y-108774654D01*
X203397804Y-108859712D01*
X204290395Y-107967121D01*
X203397804Y-107074530D01*
X203142461Y-107159588D01*
X203061771Y-107380538D01*
X203007282Y-107248663D01*
X202654161Y-106894925D01*
X203577409Y-106894925D01*
X204470000Y-107787516D01*
X205362591Y-106894925D01*
X205277533Y-106639582D01*
X204708035Y-106431605D01*
X204102300Y-106457398D01*
X203662467Y-106639582D01*
X203577409Y-106894925D01*
X202654161Y-106894925D01*
X202650337Y-106891095D01*
X202183727Y-106697342D01*
X201678490Y-106696901D01*
X201211542Y-106889839D01*
X200853974Y-107246784D01*
X200803753Y-107367729D01*
X200717539Y-107159588D01*
X200462196Y-107074530D01*
X199569605Y-107967121D01*
X200462196Y-108859712D01*
X200717539Y-108774654D01*
X200798229Y-108553704D01*
X200852718Y-108685579D01*
X201209663Y-109043147D01*
X201676273Y-109236900D01*
X201678488Y-109236902D01*
X201211542Y-109429839D01*
X200853974Y-109786784D01*
X200660221Y-110253394D01*
X200660219Y-110255609D01*
X200467282Y-109788663D01*
X200110337Y-109431095D01*
X199989392Y-109380874D01*
X200197533Y-109294660D01*
X200282591Y-109039317D01*
X199390000Y-108146726D01*
X198497409Y-109039317D01*
X198582467Y-109294660D01*
X198803417Y-109375350D01*
X198671542Y-109429839D01*
X198313974Y-109786784D01*
X198120221Y-110253394D01*
X198120219Y-110255609D01*
X197927282Y-109788663D01*
X197570337Y-109431095D01*
X197103727Y-109237342D01*
X197101512Y-109237340D01*
X197568458Y-109044403D01*
X197926026Y-108687458D01*
X197976247Y-108566513D01*
X198062461Y-108774654D01*
X198317804Y-108859712D01*
X199210395Y-107967121D01*
X198317804Y-107074530D01*
X198062461Y-107159588D01*
X197981771Y-107380538D01*
X197927282Y-107248663D01*
X197574161Y-106894925D01*
X198497409Y-106894925D01*
X199390000Y-107787516D01*
X200282591Y-106894925D01*
X200197533Y-106639582D01*
X199628035Y-106431605D01*
X199022300Y-106457398D01*
X198582467Y-106639582D01*
X198497409Y-106894925D01*
X197574161Y-106894925D01*
X197570337Y-106891095D01*
X197103727Y-106697342D01*
X196598490Y-106696901D01*
X196131542Y-106889839D01*
X195773974Y-107246784D01*
X195580221Y-107713394D01*
X195580219Y-107715609D01*
X195387282Y-107248663D01*
X195030337Y-106891095D01*
X194563727Y-106697342D01*
X194058490Y-106696901D01*
X193591542Y-106889839D01*
X193233974Y-107246784D01*
X193040221Y-107713394D01*
X193040219Y-107715609D01*
X192847282Y-107248663D01*
X192490337Y-106891095D01*
X192023727Y-106697342D01*
X191518490Y-106696901D01*
X191051542Y-106889839D01*
X190693974Y-107246784D01*
X190500221Y-107713394D01*
X190500219Y-107715609D01*
X190307282Y-107248663D01*
X189950337Y-106891095D01*
X189483727Y-106697342D01*
X188978490Y-106696901D01*
X188511542Y-106889839D01*
X188153974Y-107246784D01*
X188103753Y-107367729D01*
X188017539Y-107159588D01*
X187762196Y-107074530D01*
X186869605Y-107967121D01*
X187762196Y-108859712D01*
X188017539Y-108774654D01*
X188098229Y-108553704D01*
X188152718Y-108685579D01*
X188509663Y-109043147D01*
X188976273Y-109236900D01*
X188978488Y-109236902D01*
X188511542Y-109429839D01*
X188153974Y-109786784D01*
X187960221Y-110253394D01*
X187960219Y-110255609D01*
X187767282Y-109788663D01*
X187410337Y-109431095D01*
X187289392Y-109380874D01*
X187497533Y-109294660D01*
X187582591Y-109039317D01*
X186690000Y-108146726D01*
X185797409Y-109039317D01*
X185882467Y-109294660D01*
X186103417Y-109375350D01*
X185971542Y-109429839D01*
X185613974Y-109786784D01*
X185420221Y-110253394D01*
X185420219Y-110255609D01*
X185227282Y-109788663D01*
X184870337Y-109431095D01*
X184403727Y-109237342D01*
X184401512Y-109237340D01*
X184868458Y-109044403D01*
X185226026Y-108687458D01*
X185276247Y-108566513D01*
X185362461Y-108774654D01*
X185617804Y-108859712D01*
X186510395Y-107967121D01*
X185617804Y-107074530D01*
X185362461Y-107159588D01*
X185281771Y-107380538D01*
X185227282Y-107248663D01*
X184874161Y-106894925D01*
X185797409Y-106894925D01*
X186690000Y-107787516D01*
X187582591Y-106894925D01*
X187497533Y-106639582D01*
X186928035Y-106431605D01*
X186322300Y-106457398D01*
X185882467Y-106639582D01*
X185797409Y-106894925D01*
X184874161Y-106894925D01*
X184870337Y-106891095D01*
X184403727Y-106697342D01*
X183898490Y-106696901D01*
X183431542Y-106889839D01*
X183073974Y-107246784D01*
X182880221Y-107713394D01*
X182880219Y-107715609D01*
X182687282Y-107248663D01*
X182330337Y-106891095D01*
X181863727Y-106697342D01*
X181358490Y-106696901D01*
X180891542Y-106889839D01*
X180533974Y-107246784D01*
X180483753Y-107367729D01*
X180397539Y-107159588D01*
X180142196Y-107074530D01*
X179249605Y-107967121D01*
X180142196Y-108859712D01*
X180397539Y-108774654D01*
X180478229Y-108553704D01*
X180532718Y-108685579D01*
X180889663Y-109043147D01*
X181356273Y-109236900D01*
X181358488Y-109236902D01*
X180891542Y-109429839D01*
X180533974Y-109786784D01*
X180340221Y-110253394D01*
X180340219Y-110255609D01*
X180147282Y-109788663D01*
X179790337Y-109431095D01*
X179669392Y-109380874D01*
X179877533Y-109294660D01*
X179962591Y-109039317D01*
X179070000Y-108146726D01*
X178177409Y-109039317D01*
X178262467Y-109294660D01*
X178483417Y-109375350D01*
X178351542Y-109429839D01*
X177993974Y-109786784D01*
X177800221Y-110253394D01*
X177800219Y-110255609D01*
X177607282Y-109788663D01*
X177250337Y-109431095D01*
X176783727Y-109237342D01*
X176781512Y-109237340D01*
X177248458Y-109044403D01*
X177606026Y-108687458D01*
X177656247Y-108566513D01*
X177742461Y-108774654D01*
X177997804Y-108859712D01*
X178890395Y-107967121D01*
X177997804Y-107074530D01*
X177742461Y-107159588D01*
X177661771Y-107380538D01*
X177607282Y-107248663D01*
X177254161Y-106894925D01*
X178177409Y-106894925D01*
X179070000Y-107787516D01*
X179962591Y-106894925D01*
X179877533Y-106639582D01*
X179308035Y-106431605D01*
X178702300Y-106457398D01*
X178262467Y-106639582D01*
X178177409Y-106894925D01*
X177254161Y-106894925D01*
X177250337Y-106891095D01*
X176783727Y-106697342D01*
X176278490Y-106696901D01*
X175811542Y-106889839D01*
X175453974Y-107246784D01*
X175260221Y-107713394D01*
X175260219Y-107715609D01*
X175067282Y-107248663D01*
X174710337Y-106891095D01*
X174243727Y-106697342D01*
X173738490Y-106696901D01*
X173271542Y-106889839D01*
X172913974Y-107246784D01*
X172720221Y-107713394D01*
X172720219Y-107715609D01*
X172527282Y-107248663D01*
X172170337Y-106891095D01*
X171703727Y-106697342D01*
X171198490Y-106696901D01*
X170731542Y-106889839D01*
X170373974Y-107246784D01*
X170323753Y-107367729D01*
X170237539Y-107159588D01*
X169982196Y-107074530D01*
X169089605Y-107967121D01*
X169982196Y-108859712D01*
X170237539Y-108774654D01*
X170318229Y-108553704D01*
X170372718Y-108685579D01*
X170729663Y-109043147D01*
X171196273Y-109236900D01*
X171198488Y-109236902D01*
X170731542Y-109429839D01*
X170373974Y-109786784D01*
X170180221Y-110253394D01*
X170180219Y-110255609D01*
X169987282Y-109788663D01*
X169630337Y-109431095D01*
X169509392Y-109380874D01*
X169717533Y-109294660D01*
X169802591Y-109039317D01*
X168910000Y-108146726D01*
X168017409Y-109039317D01*
X168102467Y-109294660D01*
X168323417Y-109375350D01*
X168191542Y-109429839D01*
X167833974Y-109786784D01*
X167640221Y-110253394D01*
X167640219Y-110255609D01*
X167447282Y-109788663D01*
X167090337Y-109431095D01*
X166623727Y-109237342D01*
X166621512Y-109237340D01*
X167088458Y-109044403D01*
X167446026Y-108687458D01*
X167496247Y-108566513D01*
X167582461Y-108774654D01*
X167837804Y-108859712D01*
X168730395Y-107967121D01*
X167837804Y-107074530D01*
X167582461Y-107159588D01*
X167501771Y-107380538D01*
X167447282Y-107248663D01*
X167094161Y-106894925D01*
X168017409Y-106894925D01*
X168910000Y-107787516D01*
X169802591Y-106894925D01*
X169717533Y-106639582D01*
X169148035Y-106431605D01*
X168542300Y-106457398D01*
X168102467Y-106639582D01*
X168017409Y-106894925D01*
X167094161Y-106894925D01*
X167090337Y-106891095D01*
X166623727Y-106697342D01*
X166118490Y-106696901D01*
X165651542Y-106889839D01*
X165293974Y-107246784D01*
X165100221Y-107713394D01*
X165100219Y-107715609D01*
X164907282Y-107248663D01*
X164550337Y-106891095D01*
X164083727Y-106697342D01*
X163578490Y-106696901D01*
X163111542Y-106889839D01*
X162753974Y-107246784D01*
X162560221Y-107713394D01*
X162559780Y-108218631D01*
X162752718Y-108685579D01*
X163109663Y-109043147D01*
X163558830Y-109229657D01*
X162941000Y-109229657D01*
X162799810Y-109256224D01*
X162670135Y-109339667D01*
X162583141Y-109466987D01*
X162552536Y-109618121D01*
X162552536Y-111396121D01*
X162579103Y-111537311D01*
X162662546Y-111666986D01*
X162789866Y-111753980D01*
X162941000Y-111784585D01*
X163249000Y-111784585D01*
X163249000Y-111796121D01*
X163293226Y-112018460D01*
X163419171Y-112206950D01*
X163839171Y-112626950D01*
X164027661Y-112752895D01*
X164250000Y-112797121D01*
X182441000Y-112797121D01*
X182663339Y-112752895D01*
X182851829Y-112626950D01*
X183758915Y-111719864D01*
X183896273Y-111776900D01*
X184401510Y-111777341D01*
X184540948Y-111719727D01*
X189069088Y-116247867D01*
X189068882Y-116484865D01*
X189169000Y-116727171D01*
X189169000Y-117744000D01*
X184307123Y-117744000D01*
X184236259Y-117673013D01*
X183986054Y-117569118D01*
X183715135Y-117568882D01*
X183464748Y-117672339D01*
X183392962Y-117744000D01*
X182000000Y-117744000D01*
X181806362Y-117782517D01*
X181684802Y-117863741D01*
X181642204Y-117892204D01*
X180065439Y-119468969D01*
X179965135Y-119468882D01*
X179714748Y-119572339D01*
X179523013Y-119763741D01*
X179419118Y-120013946D01*
X179418882Y-120284865D01*
X179522339Y-120535252D01*
X179713741Y-120726987D01*
X179963946Y-120830882D01*
X180234865Y-120831118D01*
X180485252Y-120727661D01*
X180676987Y-120536259D01*
X180780882Y-120286054D01*
X180780970Y-120184622D01*
X182209592Y-118756000D01*
X183392877Y-118756000D01*
X183463741Y-118826987D01*
X183713946Y-118930882D01*
X183984865Y-118931118D01*
X184235252Y-118827661D01*
X184307038Y-118756000D01*
X189169000Y-118756000D01*
X189169000Y-122959342D01*
X188155464Y-123972878D01*
X187922829Y-124069000D01*
X187582748Y-124069000D01*
X187360409Y-124113226D01*
X187171919Y-124239171D01*
X184739171Y-126671919D01*
X184613226Y-126860409D01*
X184569000Y-127082748D01*
X184569000Y-128873405D01*
X184469118Y-129113946D01*
X184469030Y-129215378D01*
X181590408Y-132094000D01*
X173407123Y-132094000D01*
X173336259Y-132023013D01*
X173086054Y-131919118D01*
X172815135Y-131918882D01*
X172564748Y-132022339D01*
X172373013Y-132213741D01*
X172269118Y-132463946D01*
X172268882Y-132734865D01*
X172372339Y-132985252D01*
X172563741Y-133176987D01*
X172813946Y-133280882D01*
X173084865Y-133281118D01*
X173335252Y-133177661D01*
X173407038Y-133106000D01*
X181800000Y-133106000D01*
X181993638Y-133067483D01*
X182157796Y-132957796D01*
X185150000Y-129965592D01*
X186342204Y-131157796D01*
X186506362Y-131267483D01*
X186700000Y-131306000D01*
X194742877Y-131306000D01*
X194813741Y-131376987D01*
X195063946Y-131480882D01*
X195334865Y-131481118D01*
X195585252Y-131377661D01*
X195657038Y-131306000D01*
X206694000Y-131306000D01*
X206694000Y-134500000D01*
X206732517Y-134693638D01*
X206842204Y-134857796D01*
X207068969Y-135084561D01*
X207068882Y-135184865D01*
X207093316Y-135244000D01*
X158500000Y-135244000D01*
X158497456Y-135244506D01*
X157479872Y-135042096D01*
X156657438Y-134492562D01*
X156105714Y-133666850D01*
X155906000Y-132743495D01*
X155906000Y-132586948D01*
X157202836Y-132586948D01*
X157469477Y-133232269D01*
X157962775Y-133726428D01*
X158607629Y-133994195D01*
X159305867Y-133994805D01*
X159951188Y-133728164D01*
X160445347Y-133234866D01*
X160713114Y-132590012D01*
X160713724Y-131891774D01*
X160447083Y-131246453D01*
X159953785Y-130752294D01*
X159308931Y-130484527D01*
X158610693Y-130483917D01*
X157965372Y-130750558D01*
X157471213Y-131243856D01*
X157203446Y-131888710D01*
X157202836Y-132586948D01*
X155906000Y-132586948D01*
X155906000Y-125414868D01*
X157014737Y-125414868D01*
X157125641Y-125692099D01*
X157771593Y-125935323D01*
X158461453Y-125912836D01*
X158994359Y-125692099D01*
X159105263Y-125414868D01*
X162094737Y-125414868D01*
X162205641Y-125692099D01*
X162851593Y-125935323D01*
X163541453Y-125912836D01*
X164074359Y-125692099D01*
X164185263Y-125414868D01*
X163140000Y-124369605D01*
X162094737Y-125414868D01*
X159105263Y-125414868D01*
X158060000Y-124369605D01*
X157014737Y-125414868D01*
X155906000Y-125414868D01*
X155906000Y-123901593D01*
X156314677Y-123901593D01*
X156337164Y-124591453D01*
X156557901Y-125124359D01*
X156835132Y-125235263D01*
X157880395Y-124190000D01*
X158239605Y-124190000D01*
X159284868Y-125235263D01*
X159562099Y-125124359D01*
X159805323Y-124478407D01*
X159786521Y-123901593D01*
X161394677Y-123901593D01*
X161417164Y-124591453D01*
X161637901Y-125124359D01*
X161915132Y-125235263D01*
X162960395Y-124190000D01*
X163319605Y-124190000D01*
X164364868Y-125235263D01*
X164642099Y-125124359D01*
X164885323Y-124478407D01*
X164862836Y-123788547D01*
X164642099Y-123255641D01*
X164364868Y-123144737D01*
X163319605Y-124190000D01*
X162960395Y-124190000D01*
X161915132Y-123144737D01*
X161637901Y-123255641D01*
X161394677Y-123901593D01*
X159786521Y-123901593D01*
X159782836Y-123788547D01*
X159562099Y-123255641D01*
X159284868Y-123144737D01*
X158239605Y-124190000D01*
X157880395Y-124190000D01*
X156835132Y-123144737D01*
X156557901Y-123255641D01*
X156314677Y-123901593D01*
X155906000Y-123901593D01*
X155906000Y-122965132D01*
X157014737Y-122965132D01*
X158060000Y-124010395D01*
X159105263Y-122965132D01*
X158994359Y-122687901D01*
X158348407Y-122444677D01*
X157658547Y-122467164D01*
X157125641Y-122687901D01*
X157014737Y-122965132D01*
X155906000Y-122965132D01*
X155906000Y-121923493D01*
X159218761Y-121923493D01*
X159428563Y-122431251D01*
X159816705Y-122820072D01*
X160324097Y-123030759D01*
X160873493Y-123031239D01*
X161033483Y-122965132D01*
X162094737Y-122965132D01*
X163140000Y-124010395D01*
X164185263Y-122965132D01*
X164074359Y-122687901D01*
X163428407Y-122444677D01*
X162738547Y-122467164D01*
X162205641Y-122687901D01*
X162094737Y-122965132D01*
X161033483Y-122965132D01*
X161381251Y-122821437D01*
X161770072Y-122433295D01*
X161980759Y-121925903D01*
X161980794Y-121884865D01*
X170118882Y-121884865D01*
X170222339Y-122135252D01*
X170413741Y-122326987D01*
X170663946Y-122430882D01*
X170765378Y-122430970D01*
X171342204Y-123007796D01*
X171506362Y-123117483D01*
X171700000Y-123156000D01*
X175242877Y-123156000D01*
X175313741Y-123226987D01*
X175563946Y-123330882D01*
X175834865Y-123331118D01*
X176085252Y-123227661D01*
X176276987Y-123036259D01*
X176380882Y-122786054D01*
X176381118Y-122515135D01*
X176277661Y-122264748D01*
X176086259Y-122073013D01*
X175836054Y-121969118D01*
X175565135Y-121968882D01*
X175314748Y-122072339D01*
X175242962Y-122144000D01*
X171909592Y-122144000D01*
X171481031Y-121715439D01*
X171481118Y-121615135D01*
X171377661Y-121364748D01*
X171186259Y-121173013D01*
X170936054Y-121069118D01*
X170665135Y-121068882D01*
X170414748Y-121172339D01*
X170223013Y-121363741D01*
X170119118Y-121613946D01*
X170118882Y-121884865D01*
X161980794Y-121884865D01*
X161981239Y-121376507D01*
X161771437Y-120868749D01*
X161383295Y-120479928D01*
X161033951Y-120334868D01*
X162094737Y-120334868D01*
X162205641Y-120612099D01*
X162851593Y-120855323D01*
X163541453Y-120832836D01*
X164074359Y-120612099D01*
X164105255Y-120534865D01*
X176418882Y-120534865D01*
X176522339Y-120785252D01*
X176713741Y-120976987D01*
X176963946Y-121080882D01*
X177234865Y-121081118D01*
X177485252Y-120977661D01*
X177676987Y-120786259D01*
X177780882Y-120536054D01*
X177781002Y-120398236D01*
X177817483Y-120343638D01*
X177856000Y-120150000D01*
X177856000Y-119007123D01*
X177926987Y-118936259D01*
X178030882Y-118686054D01*
X178031118Y-118415135D01*
X177927661Y-118164748D01*
X177736259Y-117973013D01*
X177486054Y-117869118D01*
X177215135Y-117868882D01*
X176964748Y-117972339D01*
X176773013Y-118163741D01*
X176669118Y-118413946D01*
X176668882Y-118684865D01*
X176772339Y-118935252D01*
X176844000Y-119007038D01*
X176844000Y-119768934D01*
X176714748Y-119822339D01*
X176523013Y-120013741D01*
X176419118Y-120263946D01*
X176418882Y-120534865D01*
X164105255Y-120534865D01*
X164185263Y-120334868D01*
X163140000Y-119289605D01*
X162094737Y-120334868D01*
X161033951Y-120334868D01*
X160875903Y-120269241D01*
X160326507Y-120268761D01*
X159818749Y-120478563D01*
X159429928Y-120866705D01*
X159219241Y-121374097D01*
X159218761Y-121923493D01*
X155906000Y-121923493D01*
X155906000Y-120334868D01*
X157014737Y-120334868D01*
X157125641Y-120612099D01*
X157771593Y-120855323D01*
X158461453Y-120832836D01*
X158994359Y-120612099D01*
X159105263Y-120334868D01*
X158060000Y-119289605D01*
X157014737Y-120334868D01*
X155906000Y-120334868D01*
X155906000Y-118821593D01*
X156314677Y-118821593D01*
X156337164Y-119511453D01*
X156557901Y-120044359D01*
X156835132Y-120155263D01*
X157880395Y-119110000D01*
X158239605Y-119110000D01*
X159284868Y-120155263D01*
X159562099Y-120044359D01*
X159805323Y-119398407D01*
X159786521Y-118821593D01*
X161394677Y-118821593D01*
X161417164Y-119511453D01*
X161637901Y-120044359D01*
X161915132Y-120155263D01*
X162960395Y-119110000D01*
X163319605Y-119110000D01*
X164364868Y-120155263D01*
X164642099Y-120044359D01*
X164885323Y-119398407D01*
X164862836Y-118708547D01*
X164642099Y-118175641D01*
X164364868Y-118064737D01*
X163319605Y-119110000D01*
X162960395Y-119110000D01*
X161915132Y-118064737D01*
X161637901Y-118175641D01*
X161394677Y-118821593D01*
X159786521Y-118821593D01*
X159782836Y-118708547D01*
X159562099Y-118175641D01*
X159284868Y-118064737D01*
X158239605Y-119110000D01*
X157880395Y-119110000D01*
X156835132Y-118064737D01*
X156557901Y-118175641D01*
X156314677Y-118821593D01*
X155906000Y-118821593D01*
X155906000Y-117885132D01*
X157014737Y-117885132D01*
X158060000Y-118930395D01*
X159105263Y-117885132D01*
X162094737Y-117885132D01*
X163140000Y-118930395D01*
X164185263Y-117885132D01*
X164074359Y-117607901D01*
X163428407Y-117364677D01*
X162738547Y-117387164D01*
X162205641Y-117607901D01*
X162094737Y-117885132D01*
X159105263Y-117885132D01*
X158994359Y-117607901D01*
X158348407Y-117364677D01*
X157658547Y-117387164D01*
X157125641Y-117607901D01*
X157014737Y-117885132D01*
X155906000Y-117885132D01*
X155906000Y-109584708D01*
X157202836Y-109584708D01*
X157469477Y-110230029D01*
X157962775Y-110724188D01*
X158607629Y-110991955D01*
X159305867Y-110992565D01*
X159951188Y-110725924D01*
X160445347Y-110232626D01*
X160713114Y-109587772D01*
X160713724Y-108889534D01*
X160447083Y-108244213D01*
X159953785Y-107750054D01*
X159308931Y-107482287D01*
X158610693Y-107481677D01*
X157965372Y-107748318D01*
X157471213Y-108241616D01*
X157203446Y-108886470D01*
X157202836Y-109584708D01*
X155906000Y-109584708D01*
X155906000Y-108644459D01*
X156107897Y-107629455D01*
X156657431Y-106807021D01*
X157481507Y-106256390D01*
X158446830Y-106056000D01*
X217505089Y-106056000D01*
X218500994Y-106254098D01*
G36*
X175452718Y-108685579D02*
X175809663Y-109043147D01*
X176276273Y-109236900D01*
X176278488Y-109236902D01*
X175811542Y-109429839D01*
X175453974Y-109786784D01*
X175403753Y-109907729D01*
X175317539Y-109699588D01*
X175062196Y-109614530D01*
X174169605Y-110507121D01*
X175062196Y-111399712D01*
X175317539Y-111314654D01*
X175398229Y-111093704D01*
X175452718Y-111225579D01*
X175809663Y-111583147D01*
X175934831Y-111635121D01*
X174864002Y-111635121D01*
X174882591Y-111579317D01*
X173990000Y-110686726D01*
X173097409Y-111579317D01*
X173115998Y-111635121D01*
X172045710Y-111635121D01*
X172168458Y-111584403D01*
X172526026Y-111227458D01*
X172576247Y-111106513D01*
X172662461Y-111314654D01*
X172917804Y-111399712D01*
X173810395Y-110507121D01*
X172917804Y-109614530D01*
X172662461Y-109699588D01*
X172581771Y-109920538D01*
X172527282Y-109788663D01*
X172170337Y-109431095D01*
X171703727Y-109237342D01*
X171701512Y-109237340D01*
X172168458Y-109044403D01*
X172526026Y-108687458D01*
X172719779Y-108220848D01*
X172719781Y-108218633D01*
X172912718Y-108685579D01*
X173269663Y-109043147D01*
X173390608Y-109093368D01*
X173182467Y-109179582D01*
X173097409Y-109434925D01*
X173990000Y-110327516D01*
X174882591Y-109434925D01*
X174797533Y-109179582D01*
X174576583Y-109098892D01*
X174708458Y-109044403D01*
X175066026Y-108687458D01*
X175259779Y-108220848D01*
X175259781Y-108218633D01*
X175452718Y-108685579D01*
X175452718Y-108685579D01*
G37*
X175452718Y-108685579D02*
X175809663Y-109043147D01*
X176276273Y-109236900D01*
X176278488Y-109236902D01*
X175811542Y-109429839D01*
X175453974Y-109786784D01*
X175403753Y-109907729D01*
X175317539Y-109699588D01*
X175062196Y-109614530D01*
X174169605Y-110507121D01*
X175062196Y-111399712D01*
X175317539Y-111314654D01*
X175398229Y-111093704D01*
X175452718Y-111225579D01*
X175809663Y-111583147D01*
X175934831Y-111635121D01*
X174864002Y-111635121D01*
X174882591Y-111579317D01*
X173990000Y-110686726D01*
X173097409Y-111579317D01*
X173115998Y-111635121D01*
X172045710Y-111635121D01*
X172168458Y-111584403D01*
X172526026Y-111227458D01*
X172576247Y-111106513D01*
X172662461Y-111314654D01*
X172917804Y-111399712D01*
X173810395Y-110507121D01*
X172917804Y-109614530D01*
X172662461Y-109699588D01*
X172581771Y-109920538D01*
X172527282Y-109788663D01*
X172170337Y-109431095D01*
X171703727Y-109237342D01*
X171701512Y-109237340D01*
X172168458Y-109044403D01*
X172526026Y-108687458D01*
X172719779Y-108220848D01*
X172719781Y-108218633D01*
X172912718Y-108685579D01*
X173269663Y-109043147D01*
X173390608Y-109093368D01*
X173182467Y-109179582D01*
X173097409Y-109434925D01*
X173990000Y-110327516D01*
X174882591Y-109434925D01*
X174797533Y-109179582D01*
X174576583Y-109098892D01*
X174708458Y-109044403D01*
X175066026Y-108687458D01*
X175259779Y-108220848D01*
X175259781Y-108218633D01*
X175452718Y-108685579D01*
M02*
