M48
;DRILL file {KiCad 4.0.2+dfsg1-stable} date Sa 04 Nov 2017 22:30:22 CET
;FORMAT={-:-/ absolute / inch / decimal}
FMAT,2
INCH,TZ
T1C0.012
T2C0.016
T3C0.039
T4C0.040
T5C0.059
T6C0.067
T7C0.106
T8C0.108
%
G90
G05
M72
T1
X6.5118Y-4.7205
X6.5157Y-4.8425
X6.5157Y-4.8957
X6.5157Y-4.9528
X6.5157Y-5.0079
X6.5157Y-5.0709
X6.5157Y-5.122
X6.5827Y-4.7205
X6.6142Y-4.7717
X6.6142Y-4.8406
X6.6142Y-5.0709
X6.6142Y-5.122
X6.622Y-5.0079
X6.6437Y-4.8622
X6.687Y-4.8622
X6.7185Y-4.9665
X6.7205Y-5.0984
X6.7224Y-5.0433
X6.7244Y-4.8622
X6.7323Y-4.626
X6.8602Y-4.8228
X6.9213Y-5.0315
X6.9528Y-4.5945
X6.998Y-4.5374
X7.0512Y-4.9685
X7.0531Y-4.8602
X7.0531Y-4.9154
X7.1142Y-5.1102
X7.1201Y-4.8602
X7.122Y-4.9154
X7.122Y-4.9685
X7.1457Y-4.5374
X7.1831Y-4.8602
X7.187Y-4.9154
X7.189Y-4.9705
X7.2638Y-5.0886
X7.2736Y-4.7303
X7.2835Y-4.6555
X7.3031Y-4.4783
X7.5039Y-5.0295
X7.514Y-4.674
X7.5492Y-5.0787
X7.596Y-4.752
X7.6378Y-5.2205
X7.6378Y-5.315
X7.708Y-4.594
X7.7795Y-5.0177
X7.7815Y-4.8465
X7.7953Y-4.6358
X7.872Y-4.9311
X7.9232Y-4.6457
X7.9685Y-4.8425
X7.9705Y-5.0079
X8.002Y-5.315
X8.0315Y-5.1181
X8.0413Y-4.7244
X8.1516Y-5.0217
X8.1713Y-4.9173
X8.2224Y-4.7106
X8.3681Y-5.0925
X8.5827Y-4.6161
T2
X6.6878Y-4.715
X6.8622Y-5.0551
X6.9173Y-4.8287
X6.9724Y-4.7402
X6.9823Y-4.6673
X7.1024Y-4.7303
X7.2382Y-4.6555
X7.38Y-5.03
X7.4Y-4.674
X7.405Y-4.94
X7.4213Y-4.872
X7.438Y-4.7
X7.445Y-4.97
X7.4705Y-4.5807
X7.542Y-4.963
X7.56Y-4.806
X7.564Y-4.774
X7.575Y-4.715
X7.579Y-4.608
X7.64Y-5.1
X7.6625Y-4.697
X7.7835Y-4.9685
X7.819Y-4.682
X8.1142Y-4.8425
X8.148Y-4.758
X8.1571Y-5.0634
X8.1571Y-5.1496
X8.3465Y-4.4803
X8.3495Y-5.1415
X8.3976Y-4.4803
X8.4173Y-4.3701
X8.5709Y-4.5197
T3
X6.45Y-4.2507
X6.45Y-4.3507
X6.55Y-4.2507
X6.55Y-4.3507
X6.65Y-4.2507
X6.65Y-4.3507
X6.75Y-4.2507
X6.75Y-4.3507
X6.85Y-4.2507
X6.85Y-4.3507
X6.95Y-4.2507
X6.95Y-4.3507
X7.05Y-4.2507
X7.05Y-4.3507
X7.15Y-4.2507
X7.15Y-4.3507
X7.25Y-4.2507
X7.25Y-4.3507
X7.35Y-4.2507
X7.35Y-4.3507
X7.45Y-4.2507
X7.45Y-4.3507
X7.55Y-4.2507
X7.55Y-4.3507
X7.65Y-4.2507
X7.65Y-4.3507
X7.75Y-4.2507
X7.75Y-4.3507
X7.85Y-4.2507
X7.85Y-4.3507
X7.95Y-4.2507
X7.95Y-4.3507
X8.05Y-4.2507
X8.05Y-4.3507
X8.15Y-4.2507
X8.15Y-4.3507
X8.25Y-4.2507
X8.25Y-4.3507
X8.35Y-4.2507
X8.35Y-4.3507
T4
X7.796Y-4.508
X7.896Y-4.508
X7.996Y-4.508
X8.096Y-4.508
X8.2843Y-4.859
X8.2843Y-5.
X8.3843Y-4.859
X8.3843Y-5.
X8.4843Y-4.859
X8.4843Y-5.
X8.5843Y-4.859
X8.5843Y-5.
T5
X6.3228Y-4.7894
T6
X6.2228Y-4.6894
X6.2228Y-4.8894
X6.4228Y-4.6894
X6.4228Y-4.8894
T7
X6.2579Y-4.3012
X6.2579Y-5.2067
X8.5417Y-4.3007
X8.5417Y-5.2063
T8
X6.2582Y-4.3007
X6.2582Y-5.2063
X8.5417Y-4.3007
X8.5417Y-5.2063
T0
M30
