G04 #@! TF.GenerationSoftware,KiCad,Pcbnew,no-vcs-found-826efab~61~ubuntu17.10.1*
G04 #@! TF.CreationDate,2018-02-09T13:34:09+01:00*
G04 #@! TF.ProjectId,mmdvm_hs-hat,6D6D64766D5F68732D6861742E6B6963,1.5*
G04 #@! TF.SameCoordinates,Original*
G04 #@! TF.FileFunction,Paste,Top*
G04 #@! TF.FilePolarity,Positive*
%FSLAX46Y46*%
G04 Gerber Fmt 4.6, Leading zero omitted, Abs format (unit mm)*
G04 Created by KiCad (PCBNEW no-vcs-found-826efab~61~ubuntu17.10.1) date Fri Feb  9 13:34:09 2018*
%MOMM*%
%LPD*%
G01*
G04 APERTURE LIST*
%ADD10R,0.400000X0.600000*%
%ADD11R,0.600000X0.700000*%
%ADD12R,0.500000X0.600000*%
%ADD13R,0.600000X0.500000*%
%ADD14R,0.600000X0.400000*%
%ADD15R,0.700000X0.250000*%
%ADD16R,0.250000X0.700000*%
%ADD17R,0.772500X0.772500*%
%ADD18R,0.250000X1.300000*%
%ADD19R,1.300000X0.250000*%
%ADD20R,1.400000X1.200000*%
%ADD21R,1.900000X2.400000*%
%ADD22R,4.500000X1.300000*%
%ADD23R,1.950000X1.500000*%
G04 APERTURE END LIST*
D10*
X210750000Y-122200000D03*
X209850000Y-122200000D03*
D11*
X212750000Y-122200000D03*
X213850000Y-122200000D03*
D12*
X168750000Y-123600000D03*
X168750000Y-124700000D03*
D13*
X172050000Y-121000000D03*
X173150000Y-121000000D03*
X172050000Y-119750000D03*
X173150000Y-119750000D03*
X173150000Y-123650000D03*
X172050000Y-123650000D03*
X173150000Y-124850000D03*
X172050000Y-124850000D03*
X173150000Y-127400000D03*
X172050000Y-127400000D03*
X173150000Y-130000000D03*
X172050000Y-130000000D03*
X173150000Y-118500000D03*
X172050000Y-118500000D03*
X175550000Y-121050000D03*
X174450000Y-121050000D03*
X176650000Y-130000000D03*
X177750000Y-130000000D03*
X175550000Y-118500000D03*
X174450000Y-118500000D03*
D12*
X178700000Y-117000000D03*
X178700000Y-115900000D03*
X180050000Y-117000000D03*
X180050000Y-115900000D03*
X181300000Y-119250000D03*
X181300000Y-118150000D03*
X182650000Y-115850000D03*
X182650000Y-116950000D03*
X205500000Y-132950000D03*
X205500000Y-134050000D03*
X183850000Y-116950000D03*
X183850000Y-115850000D03*
D13*
X187150000Y-119050000D03*
X186050000Y-119050000D03*
D12*
X190850000Y-116150000D03*
X190850000Y-117250000D03*
D13*
X187150000Y-125550000D03*
X186050000Y-125550000D03*
D12*
X195000000Y-134050000D03*
X195000000Y-132950000D03*
D13*
X187150000Y-124150000D03*
X186050000Y-124150000D03*
D12*
X204000000Y-134050000D03*
X204000000Y-132950000D03*
D13*
X193590000Y-128050000D03*
X192490000Y-128050000D03*
D12*
X206000000Y-121550000D03*
X206000000Y-120450000D03*
X196700000Y-118800000D03*
X196700000Y-117700000D03*
D11*
X215250000Y-113750000D03*
X216350000Y-113750000D03*
X212750000Y-112600000D03*
X213850000Y-112600000D03*
X212750000Y-115000000D03*
X213850000Y-115000000D03*
X215250000Y-116200000D03*
X216350000Y-116200000D03*
X212750000Y-117400000D03*
X213850000Y-117400000D03*
X215250000Y-118600000D03*
X216350000Y-118600000D03*
X212750000Y-119800000D03*
X213850000Y-119800000D03*
D10*
X193490000Y-126050000D03*
X192590000Y-126050000D03*
X173050000Y-128700000D03*
X172150000Y-128700000D03*
D14*
X178700000Y-119150000D03*
X178700000Y-118250000D03*
X180000000Y-119150000D03*
X180000000Y-118250000D03*
X207200000Y-133950000D03*
X207200000Y-133050000D03*
D10*
X187050000Y-120300000D03*
X186150000Y-120300000D03*
X187050000Y-121600000D03*
X186150000Y-121600000D03*
X187050000Y-122900000D03*
X186150000Y-122900000D03*
X210750000Y-112600000D03*
X209850000Y-112600000D03*
X210750000Y-115000000D03*
X209850000Y-115000000D03*
X210750000Y-116200000D03*
X209850000Y-116200000D03*
X210750000Y-117400000D03*
X209850000Y-117400000D03*
X210750000Y-118600000D03*
X209850000Y-118600000D03*
X210750000Y-119800000D03*
X209850000Y-119800000D03*
X210750000Y-121000000D03*
X209850000Y-121000000D03*
X209850000Y-113800000D03*
X210750000Y-113800000D03*
D15*
X177393750Y-122143750D03*
X177393750Y-122643750D03*
X177393750Y-123143750D03*
X177393750Y-123643750D03*
X177393750Y-124143750D03*
X177393750Y-124643750D03*
X177393750Y-125143750D03*
X177393750Y-125643750D03*
X177393750Y-126143750D03*
X177393750Y-126643750D03*
X177393750Y-127143750D03*
X177393750Y-127643750D03*
D16*
X178043750Y-128293750D03*
X178543750Y-128293750D03*
X179043750Y-128293750D03*
X179543750Y-128293750D03*
X180043750Y-128293750D03*
X180543750Y-128293750D03*
X181043750Y-128293750D03*
X181543750Y-128293750D03*
X182043750Y-128293750D03*
X182543750Y-128293750D03*
X183043750Y-128293750D03*
X183543750Y-128293750D03*
D15*
X184193750Y-127643750D03*
X184193750Y-127143750D03*
X184193750Y-126643750D03*
X184193750Y-126143750D03*
X184193750Y-125643750D03*
X184193750Y-125143750D03*
X184193750Y-124643750D03*
X184193750Y-124143750D03*
X184193750Y-123643750D03*
X184193750Y-123143750D03*
X184193750Y-122643750D03*
X184193750Y-122143750D03*
D16*
X183543750Y-121493750D03*
X183043750Y-121493750D03*
X182543750Y-121493750D03*
X182043750Y-121493750D03*
X181543750Y-121493750D03*
X181043750Y-121493750D03*
X180543750Y-121493750D03*
X180043750Y-121493750D03*
X179543750Y-121493750D03*
X179043750Y-121493750D03*
X178543750Y-121493750D03*
X178043750Y-121493750D03*
D17*
X182725000Y-126825000D03*
X182725000Y-125537500D03*
X182725000Y-124250000D03*
X182725000Y-122962500D03*
X181437500Y-126825000D03*
X181437500Y-125537500D03*
X181437500Y-124250000D03*
X181437500Y-122962500D03*
X180150000Y-126825000D03*
X180150000Y-125537500D03*
X180150000Y-124250000D03*
X180150000Y-122962500D03*
X178862500Y-126825000D03*
X178862500Y-125537500D03*
X178862500Y-124250000D03*
X178862500Y-122962500D03*
D18*
X197250000Y-129350000D03*
X197750000Y-129350000D03*
X198250000Y-129350000D03*
X198750000Y-129350000D03*
X199250000Y-129350000D03*
X199750000Y-129350000D03*
X200250000Y-129350000D03*
X200750000Y-129350000D03*
X201250000Y-129350000D03*
X201750000Y-129350000D03*
X202250000Y-129350000D03*
X202750000Y-129350000D03*
D19*
X204350000Y-127750000D03*
X204350000Y-127250000D03*
X204350000Y-126750000D03*
X204350000Y-126250000D03*
X204350000Y-125750000D03*
X204350000Y-125250000D03*
X204350000Y-124750000D03*
X204350000Y-124250000D03*
X204350000Y-123750000D03*
X204350000Y-123250000D03*
X204350000Y-122750000D03*
X204350000Y-122250000D03*
D18*
X202750000Y-120650000D03*
X202250000Y-120650000D03*
X201750000Y-120650000D03*
X201250000Y-120650000D03*
X200750000Y-120650000D03*
X200250000Y-120650000D03*
X199750000Y-120650000D03*
X199250000Y-120650000D03*
X198750000Y-120650000D03*
X198250000Y-120650000D03*
X197750000Y-120650000D03*
X197250000Y-120650000D03*
D19*
X195650000Y-122250000D03*
X195650000Y-122750000D03*
X195650000Y-123250000D03*
X195650000Y-123750000D03*
X195650000Y-124250000D03*
X195650000Y-124750000D03*
X195650000Y-125250000D03*
X195650000Y-125750000D03*
X195650000Y-126250000D03*
X195650000Y-126750000D03*
X195650000Y-127250000D03*
X195650000Y-127750000D03*
D20*
X187850000Y-115150000D03*
X185650000Y-115150000D03*
X185650000Y-116850000D03*
X187850000Y-116850000D03*
D21*
X197400000Y-133000000D03*
X201500000Y-133000000D03*
D11*
X215250000Y-121000000D03*
X216350000Y-121000000D03*
D10*
X174450000Y-130000000D03*
X175350000Y-130000000D03*
X175450000Y-119800000D03*
X174550000Y-119800000D03*
D22*
X158500000Y-126600000D03*
X158500000Y-114900000D03*
D13*
X165450000Y-113000000D03*
X166550000Y-113000000D03*
D23*
X169125000Y-115250000D03*
X171875000Y-115250000D03*
D13*
X166550000Y-116000000D03*
X165450000Y-116000000D03*
D10*
X165550000Y-114500000D03*
X166450000Y-114500000D03*
D12*
X166500000Y-126300000D03*
X166500000Y-125200000D03*
D13*
X165300000Y-123600000D03*
X164200000Y-123600000D03*
D10*
X166700000Y-123600000D03*
X167600000Y-123600000D03*
X169850000Y-123600000D03*
X170750000Y-123600000D03*
X173050000Y-122350000D03*
X172150000Y-122350000D03*
X172150000Y-126100000D03*
X173050000Y-126100000D03*
M02*
