G04 #@! TF.FileFunction,Paste,Bot*
%FSLAX46Y46*%
G04 Gerber Fmt 4.6, Leading zero omitted, Abs format (unit mm)*
G04 Created by KiCad (PCBNEW 4.0.6) date 07/26/17 09:14:20*
%MOMM*%
%LPD*%
G01*
G04 APERTURE LIST*
%ADD10C,0.100000*%
%ADD11R,1.778000X1.778000*%
%ADD12C,1.778000*%
G04 APERTURE END LIST*
D10*
D11*
X163830000Y-110507121D03*
D12*
X163830000Y-107967121D03*
X166370000Y-110507121D03*
X166370000Y-107967121D03*
X168910000Y-110507121D03*
X168910000Y-107967121D03*
X171450000Y-110507121D03*
X171450000Y-107967121D03*
X173990000Y-110507121D03*
X173990000Y-107967121D03*
X176530000Y-110507121D03*
X176530000Y-107967121D03*
X179070000Y-110507121D03*
X179070000Y-107967121D03*
X181610000Y-110507121D03*
X181610000Y-107967121D03*
X184150000Y-110507121D03*
X184150000Y-107967121D03*
X186690000Y-110507121D03*
X186690000Y-107967121D03*
X189230000Y-110507121D03*
X189230000Y-107967121D03*
X191770000Y-110507121D03*
X191770000Y-107967121D03*
X194310000Y-110507121D03*
X194310000Y-107967121D03*
X196850000Y-110507121D03*
X196850000Y-107967121D03*
X199390000Y-110507121D03*
X199390000Y-107967121D03*
X201930000Y-110507121D03*
X201930000Y-107967121D03*
X204470000Y-110507121D03*
X204470000Y-107967121D03*
X207010000Y-110507121D03*
X207010000Y-107967121D03*
X209550000Y-110507121D03*
X209550000Y-107967121D03*
X212090000Y-110507121D03*
X212090000Y-107967121D03*
M02*
